<svg width="512" height="512" viewBox="0 0 512 512" fill="none" xmlns="http://www.w3.org/2000/svg">
<style>
/* stylelint-disable */
.bg { fill: #D4D8E0; fill-opacity: 0.4; }
.fg { fill: #000000; stroke: #000000 }
@media (prefers-color-scheme: dark) {
  .bg { fill: #1F2227; fill-opacity: 0.8; }
  .fg { fill: #ffffff; stroke: #ffffff }
}
</style>
<rect class="bg" width="512" height="512" rx="94"/>
<rect width="512" height="512" fill="url(#paint0_radial_1350_10790)"/>
<rect width="512" height="512" fill="url(#paint1_radial_1350_10790)"/>
<rect width="512" height="512" fill="url(#paint2_radial_1350_10790)"/>
<rect width="512" height="512" fill="url(#paint3_radial_1350_10790)"/>
<path class="fg" d="M369.214 142.411L261.596 270.73L234.66 252.533L303.83 169.931V142.411H265.623L195.437 226.071L169.031 208.281L201.174 169.931V142.411H162.927L105.965 210.398L104.296 212.392V253.998L280.229 372.589L407.258 220.779L407.704 220.209V142.411H369.214ZM403.637 218.906L279.336 367.336L108.447 252.004V216.952L274.331 328.905L403.637 174.572V218.906ZM109.342 212.636L164.84 146.482H197.105V168.466L163.049 209.176L196.21 231.608L267.534 146.482H300.086V168.466L228.638 253.347L262.369 276.104L371.085 146.482H403.637V168.221L273.435 323.491L109.342 212.636Z" stroke-width="13.6667" stroke-miterlimit="10"/>
<defs>
<radialGradient id="paint0_radial_1350_10790" cx="0" cy="0" r="1" gradientUnits="userSpaceOnUse" gradientTransform="translate(512 218) rotate(134.435) scale(429.942)">
<stop stop-color="#EE0000" stop-opacity="0.05"/>
<stop offset="1" stop-color="#EE0000" stop-opacity="0"/>
</radialGradient>
<radialGradient id="paint1_radial_1350_10790" cx="0" cy="0" r="1" gradientUnits="userSpaceOnUse" gradientTransform="translate(475 32) rotate(134.286) scale(431.646)">
<stop stop-color="#FFEBA8" stop-opacity="0.35"/>
<stop offset="1" stop-color="#FFEBA8" stop-opacity="0"/>
</radialGradient>
<radialGradient id="paint2_radial_1350_10790" cx="0" cy="0" r="1" gradientUnits="userSpaceOnUse" gradientTransform="translate(351.407 47) rotate(90) scale(315)">
<stop stop-color="#4E4BD2" stop-opacity="0.07"/>
<stop offset="1" stop-color="#4E4BD2" stop-opacity="0"/>
</radialGradient>
<radialGradient id="paint3_radial_1350_10790" cx="0" cy="0" r="1" gradientUnits="userSpaceOnUse" gradientTransform="translate(219 -18) rotate(90) scale(519)">
<stop stop-color="#2CBF6F" stop-opacity="0.08"/>
<stop offset="1" stop-color="#56D78E" stop-opacity="0"/>
</radialGradient>
</defs>
</svg>
