<svg width="100" height="100" fill="none" xmlns="http://www.w3.org/2000/svg">
<style>
/* stylelint-disable */
.bg { fill: #F9F9FB; }
@media (prefers-color-scheme: dark) {
  .bg { fill: #32363E; }
}
</style>
<path class="bg" d="M100 50c0-27.614-22.386-50-50-50S0 22.386 0 50s22.386 50 50 50 50-22.386 50-50z"/><path d="M69.558 33.639L50.491 56.594 45.72 53.34l12.255-14.777v-4.923h-6.77L38.77 48.605l-4.679-3.183 5.695-6.86v-4.923H33.01L22.918 45.8l-.296.357V53.6l31.17 21.215L76.3 47.658l.079-.102V33.64h-6.82zm6.1 13.684L53.633 73.877 23.357 53.244v-6.27l29.39 20.028 22.91-27.61v7.931zm-52.142-1.121l9.833-11.835h5.716V38.3l-6.033 7.283 5.875 4.013 12.637-15.23h5.767V38.3L44.652 53.484l5.976 4.072 19.262-23.19h5.767v3.89L52.59 66.033 23.516 46.202z" fill="#E00"/><path d="M69.558 33.639V32h-.756l-.486.585 1.242 1.054zM50.491 56.594l-.907 1.358 1.21.826.94-1.13-1.243-1.054zM45.72 53.34l-1.243-1.053-1.156 1.394 1.491 1.017.908-1.358zm12.255-14.777l1.243 1.052.379-.456v-.596h-1.622zm0-4.923h1.622V32h-1.622v1.639zm-6.77 0V32h-.755l-.486.585 1.242 1.054zM38.77 48.605l-.906 1.36 1.21.822.938-1.128-1.242-1.054zm-4.679-3.183l-1.243-1.053-1.158 1.396 1.495 1.017.906-1.36zm5.695-6.86l1.243 1.053.38-.457v-.596h-1.623zm0-4.923h1.622V32h-1.622v1.639zm-6.776 0V32h-.757l-.486.586 1.243 1.053zM22.918 45.8l-1.244-1.053v.002l1.244 1.051zm-.296.357l-1.244-1.052L21 46.158h1.622zm0 7.443H21v.872l.716.487.906-1.359zm31.17 21.215l-.905 1.36 1.212.824.938-1.132-1.244-1.052zM76.3 47.658l1.243 1.052.016-.02.016-.02-1.275-1.012zm.079-.102l1.275 1.013.347-.446v-.567h-1.622zm0-13.917H78V32h-1.622v1.639zm-.72 13.684l1.242 1.053.38-.457v-.596h-1.623zM53.633 73.877l-.907 1.358 1.212.826.938-1.132-1.243-1.052zM23.357 53.244h-1.622v.871l.715.488.907-1.359zm0-6.27l.907-1.359-2.529 1.359h1.622zm29.39 20.028l-.906 1.358 1.21.826.94-1.132-1.243-1.052zm22.91-27.61h1.622v-4.505l-2.865 3.452 1.243 1.053zm-52.141 6.81l-1.242-1.054.334 2.412.908-1.358zm9.833-11.835v-1.639h-.756l-.487.585 1.243 1.054zm5.716 0h1.622v-1.639h-1.622v1.639zm0 3.933l1.244 1.051.378-.456V38.3h-1.622zm-6.033 7.283l-1.244-1.052-1.154 1.392 1.489 1.017.909-1.357zm5.875 4.013l-.909 1.357 1.212.828.94-1.133-1.243-1.053zm12.637-15.23v-1.638h-.757l-.486.586 1.243 1.053zm5.767 0h1.622v-1.638H57.31v1.639zm0 3.934l1.24 1.055.382-.457V38.3H57.31zM44.652 53.484l-1.24-1.055-1.163 1.395 1.496 1.02.907-1.36zm5.976 4.072l-.907 1.358 1.211.825.939-1.13-1.243-1.053zm19.262-23.19v-1.638l-1.242.585 1.242 1.054zm5.767 0h1.622a1.63 1.63 0 00-1.622-1.638v1.639zm0 3.89l1.243 1.053.38-.457v-.596h-1.623zM52.59 66.033l-.908 1.358 1.211.826.94-1.13-1.243-1.054zm15.727-33.448L49.249 55.541l2.485 2.107L70.8 34.692l-2.485-2.107zM51.399 55.236l-4.772-3.255-1.816 2.716 4.773 3.255 1.815-2.716zm-4.437-.845l12.255-14.777-2.486-2.104-12.255 14.776 2.486 2.105zm12.634-15.83V33.64h-3.244v4.923h3.244zM57.974 32h-6.77v3.277h6.77V32zm-8.011.585L37.527 47.551l2.485 2.108 12.435-14.967-2.484-2.107zm-10.287 14.66l-4.679-3.182-1.812 2.719 4.679 3.182 1.812-2.718zm-4.342-.77l5.695-6.86-2.486-2.106-5.695 6.86 2.486 2.106zm6.074-7.913v-4.923h-3.244v4.923h3.244zM39.786 32H33.01v3.277h6.776V32zm-8.02.586L21.676 44.748l2.486 2.106L34.253 34.69l-2.486-2.105zM21.675 44.749l-.296.357 2.488 2.103.296-.356-2.488-2.104zM21 46.158v7.443h3.244v-7.443H21zm.716 8.802l31.17 21.215 1.813-2.718-31.17-21.215-1.813 2.718zm33.32 20.908L77.542 48.71l-2.487-2.104L52.55 73.764l2.487 2.104zm22.538-27.197l.08-.102-2.551-2.025-.08.102 2.551 2.025zM78 47.556V33.64h-3.244v13.917H78zM76.378 32h-6.82v3.277h6.82V32zm-1.964 14.27L52.39 72.825l2.486 2.105L76.9 48.376l-2.486-2.105zM54.54 72.519L24.264 51.886l-1.814 2.717 30.277 20.632 1.814-2.717zM24.98 53.244v-6.27h-3.244v6.27h3.244zm-2.529-4.912L51.84 68.36l1.815-2.717-29.39-20.028-1.815 2.717zm31.54 19.722l22.91-27.61-2.486-2.105-22.91 27.61 2.487 2.105zm20.045-28.662v7.931h3.244v-7.93h-3.244zm-49.277 7.863l9.833-11.835-2.485-2.107-9.833 11.835 2.485 2.107zm8.59-11.25h5.717v-3.277H33.35v3.278zm4.095-1.638V38.3h3.244v-3.933h-3.244zm.379 2.881l-6.034 7.283 2.487 2.103 6.034-7.283-2.487-2.103zm-5.699 9.692l5.875 4.013 1.817-2.715-5.875-4.013-1.817 2.715zm8.027 3.708L52.787 35.42 50.3 33.314 37.664 48.543l2.486 2.105zm11.394-14.642h5.767v-3.278h-5.767v3.278zm4.145-1.64V38.3h3.244v-3.933h-3.244zm.381 2.878L43.411 52.43l2.482 2.111L58.55 39.355l-2.48-2.11zm-12.325 17.6l5.976 4.07 1.814-2.717-5.976-4.071-1.814 2.717zm8.126 3.765L71.132 35.42l-2.484-2.107-19.262 23.19 2.485 2.106zm18.02-22.603h5.766v-3.278H69.89v3.278zm4.144-1.64v3.89h3.244v-3.89h-3.244zm.38 2.837L51.346 64.98l2.486 2.106L76.9 39.31l-2.485-2.106zM53.497 64.675L24.424 44.844l-1.816 2.716L51.681 67.39l1.816-2.716z" fill="#E00"/>
</svg>