<svg width="512" height="512" viewBox="0 0 512 512" fill="none" xmlns="http://www.w3.org/2000/svg">
<path opacity="0.3" fill-rule="evenodd" clip-rule="evenodd" d="M512 0H0V512H512V0ZM258 8H340V44H258V8ZM297.196 48H340V61.2927C326.409 55.4215 312.082 50.9316 297.196 48ZM254 8V44H172V8H254ZM214.804 48H172V61.2927C185.591 55.4215 199.918 50.9316 214.804 48ZM168 8V44H124C107.778 44 93.8114 53.6566 87.535 67.535C83.7222 69.2594 80.228 71.5641 77.1651 74.3367L10.8284 8H168ZM124 48C110.882 48 99.4033 55.0159 93.1107 65.5001C96.5727 64.5229 100.225 64 104 64H165.993C166.66 63.6867 167.329 63.3767 168 63.0702V48H124ZM79.9974 77.169C81.6945 75.6499 83.5364 74.2893 85.5001 73.1108C84.7609 75.7292 84.2818 78.4568 84.0921 81.2637L79.9974 77.169ZM81.2637 84.0921C78.4568 84.2817 75.7292 84.7609 73.1108 85.5001C74.2893 83.5364 75.6499 81.6945 77.169 79.9974L81.2637 84.0921ZM88 84H132.038C140.246 78.074 148.895 72.7211 157.926 68H104C99.2577 68 94.7296 68.917 90.5832 70.5833C88.917 74.7296 88 79.2577 88 84ZM126.677 88C119.959 93.1794 113.559 98.7529 107.514 104.686L90.8284 88H126.677ZM133.338 88H168V165.172L110.343 107.514C117.52 100.473 125.205 93.9485 133.338 88ZM168 84H139.002C147.835 77.9802 157.155 72.6231 166.892 68H168V84ZM172 88V168H193.375C210.533 155.768 231.42 148.428 254 148.018V88H172ZM254 84H172V68H254V84ZM258 88V148.018C280.58 148.428 301.467 155.768 318.625 168H340V88H258ZM340 84H258V68H340V84ZM344 88V165.172L401.657 107.514C394.48 100.473 386.795 93.9485 378.662 88H344ZM372.998 84H344V68H345.108C354.845 72.6231 364.165 77.9803 372.998 84ZM385.323 88C392.041 93.1794 398.441 98.7529 404.486 104.686L421.172 88H385.323ZM424 84H379.962C371.754 78.074 363.105 72.7212 354.074 68H408C412.742 68 417.27 68.917 421.417 70.5832C423.083 74.7296 424 79.2577 424 84ZM428 88V132.038C433.926 140.246 439.279 148.895 444 157.926V104C444 99.2577 443.083 94.7296 441.417 90.5833C437.27 88.917 432.742 88 428 88ZM438.889 85.5001C436.271 84.7609 433.543 84.2818 430.736 84.0921L434.831 79.9974C436.35 81.6945 437.711 83.5364 438.889 85.5001ZM446.5 93.1107C447.477 96.5727 448 100.225 448 104V165.993C448.313 166.66 448.623 167.329 448.93 168H464V124C464 110.882 456.984 99.4033 446.5 93.1107ZM468 168V124C468 107.778 458.343 93.8114 444.465 87.535C442.741 83.7222 440.436 80.228 437.663 77.1651L504 10.8284V168H468ZM464 172H450.707C456.578 185.591 461.068 199.918 464 214.804V172ZM468 254V172H504V254H468ZM464 297.196C461.068 312.082 456.578 326.409 450.707 340H464V297.196ZM468 340V258H504V340H468ZM464 344H448.93C448.623 344.671 448.313 345.34 448 346.007V408C448 411.775 447.477 415.427 446.5 418.889C456.984 412.597 464 401.118 464 388V344ZM444.465 424.465C458.343 418.189 468 404.222 468 388V344H504V501.172L437.663 434.835C440.436 431.772 442.741 428.278 444.465 424.465ZM441.417 421.417C443.083 417.27 444 412.742 444 408V354.074C439.279 363.105 433.926 371.754 428 379.962V424C432.742 424 437.27 423.083 441.417 421.417ZM430.736 427.908C433.543 427.718 436.271 427.239 438.889 426.5C437.711 428.464 436.35 430.306 434.831 432.003L430.736 427.908ZM421.172 424L404.486 407.314C398.441 413.247 392.042 418.821 385.323 424H421.172ZM379.962 428H424C424 432.742 423.083 437.27 421.417 441.417C417.27 443.083 412.742 444 408 444H354.074C363.105 439.279 371.754 433.926 379.962 428ZM378.662 424C386.795 418.052 394.48 411.527 401.657 404.486L344 346.828V424H378.662ZM344 428H372.998C364.165 434.02 354.845 439.377 345.108 444H344V428ZM340 424V344H318.625C301.467 356.232 280.58 363.572 258 363.982V424H340ZM258 428H340V444H258V428ZM254 424V363.982C231.42 363.572 210.533 356.232 193.375 344H172V424H254ZM172 428H254V444H172V428ZM168 424V346.828L110.343 404.486C117.52 411.527 125.205 418.051 133.338 424H168ZM139.002 428H168V444H166.892C157.155 439.377 147.835 434.02 139.002 428ZM126.677 424C119.958 418.821 113.559 413.247 107.514 407.314L90.8285 424H126.677ZM88 428L132.038 428C140.246 433.926 148.895 439.279 157.926 444H104C99.2577 444 94.7296 443.083 90.5833 441.417C88.917 437.27 88 432.742 88 428ZM84 424L84 379.962C78.074 371.754 72.7212 363.105 68 354.074V408C68 412.742 68.917 417.27 70.5832 421.417C74.7296 423.083 79.2577 424 84 424ZM73.1107 426.5C75.7292 427.239 78.4568 427.718 81.2637 427.908L77.169 432.003C75.6498 430.306 74.2893 428.464 73.1107 426.5ZM65.5001 418.889C64.5229 415.427 64 411.775 64 408V346.007C63.6867 345.34 63.3767 344.671 63.0702 344H48V388C48 401.118 55.0159 412.597 65.5001 418.889ZM44 344V388C44 404.222 53.6566 418.189 67.535 424.465C69.2594 428.278 71.5641 431.772 74.3367 434.835L8 501.172V344H44ZM48 340H61.2927C55.4215 326.409 50.9316 312.082 48 297.196V340ZM44 258V340H8V258H44ZM48 214.804C50.9316 199.918 55.4215 185.591 61.2927 172H48V214.804ZM44 172V254H8V172H44ZM44 168H8V10.8284L74.3367 77.1651C71.5641 80.228 69.2594 83.7222 67.535 87.535C53.6566 93.8114 44 107.778 44 124L44 168ZM48 168H63.0702C63.3767 167.329 63.6867 166.66 64 165.993V104C64 100.225 64.5229 96.5727 65.5001 93.1107C55.0159 99.4033 48 110.882 48 124L48 168ZM70.5833 90.5832C68.917 94.7296 68 99.2577 68 104V157.926C72.7212 148.895 78.074 140.246 84 132.038V88C79.2577 88 74.7296 88.917 70.5833 90.5832ZM88 90.8284V126.677C93.1794 119.959 98.7529 113.559 104.686 107.514L88 90.8284ZM68 166.892C72.6231 157.155 77.9803 147.835 84 139.002V168H68V166.892ZM88 133.338V168H165.172L107.514 110.343C100.473 117.52 93.9485 125.205 88 133.338ZM68 172H84V254H68V172ZM88 172V254H148.018C148.428 231.42 155.768 210.533 168 193.375V172H88ZM68 258H84V340H68V258ZM88 258V340H168V318.625C155.768 301.467 148.428 280.58 148.018 258H88ZM68 344H84V372.998C77.9803 364.165 72.6231 354.845 68 345.108V344ZM88 344V378.662C93.9485 386.795 100.473 394.48 107.514 401.657L165.172 344H88ZM88 385.323V421.172L104.686 404.486C98.7529 398.441 93.1794 392.042 88 385.323ZM79.9974 434.831L84.0921 430.736C84.2818 433.543 84.7609 436.271 85.5001 438.889C83.5364 437.711 81.6945 436.35 79.9974 434.831ZM77.1651 437.663C80.228 440.436 83.7222 442.741 87.535 444.465C93.8114 458.343 107.778 468 124 468H168V504H10.8284L77.1651 437.663ZM124 464H168V448.93C167.329 448.623 166.66 448.313 165.993 448H104C100.225 448 96.5727 447.477 93.1107 446.5C99.4033 456.984 110.882 464 124 464ZM172 504V468H254V504H172ZM172 464H214.804C199.918 461.068 185.591 456.578 172 450.707V464ZM258 504V468H340V504H258ZM297.196 464H340V450.707C326.409 456.578 312.082 461.068 297.196 464ZM344 504V468H388C404.222 468 418.189 458.343 424.465 444.465C428.278 442.741 431.772 440.436 434.835 437.663L501.172 504H344ZM388 464C401.118 464 412.597 456.984 418.889 446.5C415.427 447.477 411.775 448 408 448H346.007C345.34 448.313 344.671 448.623 344 448.93V464H388ZM432.003 434.831C430.306 436.35 428.464 437.711 426.5 438.889C427.239 436.271 427.718 433.543 427.908 430.736L432.003 434.831ZM424 421.172V385.323C418.821 392.042 413.247 398.441 407.314 404.486L424 421.172ZM444 345.108C439.377 354.845 434.02 364.165 428 372.998V344H444V345.108ZM424 378.662V344H346.828L404.486 401.657C411.527 394.48 418.052 386.795 424 378.662ZM444 340H428V258H444V340ZM424 340V258H363.982C363.572 280.58 356.232 301.467 344 318.625V340H424ZM444 254H428V172H444V254ZM424 254V172H344V193.375C356.232 210.533 363.572 231.42 363.982 254H424ZM444 168H428V139.002C434.02 147.835 439.377 157.155 444 166.892V168ZM424 168V133.338C418.052 125.205 411.527 117.52 404.486 110.343L346.828 168H424ZM424 126.677V90.8284L407.314 107.514C413.247 113.559 418.821 119.959 424 126.677ZM432.003 77.169L427.908 81.2637C427.718 78.4568 427.239 75.7292 426.5 73.1107C428.464 74.2893 430.306 75.6499 432.003 77.169ZM408 64C411.775 64 415.427 64.5229 418.889 65.5001C412.597 55.0159 401.118 48 388 48H344V63.0702C344.671 63.3767 345.34 63.6867 346.007 64H408ZM388 44C404.222 44 418.189 53.6566 424.465 67.535C428.278 69.2594 431.772 71.5642 434.835 74.3367L501.172 8H344V44H388ZM64 175.859C53.9351 199.944 48.2701 226.326 48.0094 254H64V175.859ZM64 258H48.0094C48.2701 285.674 53.9351 312.056 64 336.141V258ZM175.859 448C199.944 458.065 226.326 463.73 254 463.991V448H175.859ZM258 448V463.991C285.674 463.73 312.056 458.065 336.141 448H258ZM448 336.141C458.065 312.056 463.73 285.674 463.991 258H448V336.141ZM448 254H463.991C463.73 226.326 458.065 199.944 448 175.859V254ZM336.141 64C312.056 53.9351 285.674 48.2701 258 48.0094V64H336.141ZM254 64V48.0094C226.326 48.2701 199.944 53.9351 175.859 64H254ZM188.112 340H174.828L181.06 333.769C183.318 335.946 185.671 338.025 188.112 340ZM254 359.981C234.371 359.611 216.073 353.803 200.549 344H254V359.981ZM194.669 340H254V260.828L183.889 330.94C187.27 334.195 190.872 337.223 194.669 340ZM258 359.981V344H311.451C295.927 353.803 277.629 359.611 258 359.981ZM258 340H317.331C321.128 337.223 324.73 334.195 328.111 330.94L258 260.828V340ZM337.172 340H323.888C326.329 338.025 328.682 335.946 330.94 333.769L337.172 340ZM337.172 172H323.888C326.329 173.975 328.682 176.054 330.94 178.231L337.172 172ZM328.111 181.06C324.73 177.805 321.128 174.777 317.331 172H258V251.172L328.111 181.06ZM260.828 254L330.94 183.889C334.195 187.27 337.223 190.872 340 194.669V254H260.828ZM251.172 258H172V317.331C174.777 321.128 177.805 324.73 181.06 328.111L251.172 258ZM178.231 330.94C176.054 328.682 173.975 326.329 172 323.888V337.172L178.231 330.94ZM333.769 181.06L340 174.828V188.112C338.025 185.671 335.946 183.318 333.769 181.06ZM172 188.112V174.828L178.231 181.06C176.054 183.318 173.975 185.671 172 188.112ZM174.828 172L181.06 178.231C183.318 176.054 185.671 173.975 188.112 172H174.828ZM172 194.669C174.777 190.872 177.805 187.27 181.06 183.889L251.172 254H172V194.669ZM183.889 181.06L254 251.172V172H194.669C190.872 174.777 187.27 177.805 183.889 181.06ZM260.828 258L330.94 328.111C334.195 324.73 337.223 321.128 340 317.331V258H260.828ZM340 337.172L333.769 330.94C335.946 328.682 338.025 326.329 340 323.888V337.172ZM359.981 254C359.611 234.371 353.803 216.073 344 200.549V254H359.981ZM168 254V200.549C158.197 216.073 152.389 234.371 152.019 254H168ZM152.019 258H168V311.451C158.197 295.927 152.389 277.629 152.019 258ZM344 258H359.981C359.611 277.629 353.803 295.927 344 311.451V258ZM254 152.019C234.371 152.389 216.073 158.197 200.549 168H254V152.019ZM311.451 168H258V152.019C277.629 152.389 295.927 158.197 311.451 168Z" fill="#9c0018"/>
</svg>
