<svg width="730" height="350" viewBox="0 0 730 350" fill="none" xmlns="http://www.w3.org/2000/svg">
<rect width="730" height="350" fill="white"/>
<path d="M222.762 126L177.361 180.075L165.997 172.407L195.178 137.597V126H179.06L149.45 161.255L138.31 153.758L151.87 137.597V126H135.735L111.704 154.65L111 155.491V173.024L185.222 223L238.812 159.025L239 158.785V126H222.762ZM237.284 158.236L184.845 220.786L112.751 172.184V157.412L182.733 204.591L237.284 139.553V158.236ZM113.129 155.594L136.542 127.716H150.154V136.98L135.786 154.136L149.776 163.589L179.866 127.716H193.599V136.98L163.457 172.75L177.687 182.34L223.552 127.716H237.284V136.877L182.355 202.31L113.129 155.594Z" fill="#EE0000" stroke="#EE0000" stroke-width="2" stroke-miterlimit="10"/>
<path d="M317.32 160.964L310.841 180.146L304.48 160.964H298.518L291.959 179.992L285.678 160.964H279L288.143 188.036H295.02L301.34 169.704L307.461 188.036H314.379L323.481 160.964H317.32ZM341.793 188.5C350.538 188.5 357.018 182.583 357.018 174.5C357.018 166.417 350.538 160.5 341.793 160.5C333.008 160.5 326.568 166.456 326.568 174.5C326.568 182.544 333.008 188.5 341.793 188.5ZM341.793 183.163C336.824 183.163 333.088 179.644 333.088 174.5C333.088 169.356 336.824 165.837 341.793 165.837C346.762 165.837 350.498 169.356 350.498 174.5C350.498 179.644 346.762 183.163 341.793 183.163ZM382.607 160.964V177.4L368.774 160.964H363.448V188.036H369.808V171.599L383.681 188.036H388.967V160.964H382.607ZM397.141 188.036H409.782C418.885 188.036 425.126 182.699 425.126 174.5C425.126 166.301 418.885 160.964 409.782 160.964H397.141V188.036ZM403.58 182.892V166.108H409.464C414.989 166.108 418.607 169.318 418.607 174.5C418.607 179.682 414.989 182.892 409.464 182.892H403.58ZM437.973 183.008V176.743H450.892V171.87H437.973V165.992H452.601V160.964H431.572V188.036H453.118V183.008H437.973ZM484.477 188.036L478.236 179.334C481.853 177.826 483.96 174.848 483.96 170.787C483.96 164.715 479.31 160.964 471.876 160.964H459.831V188.036H466.271V180.494H471.876H472.194L477.56 188.036H484.477ZM477.441 170.787C477.441 173.726 475.454 175.505 471.518 175.505H466.271V166.069H471.518C475.454 166.069 477.441 167.809 477.441 170.787ZM511.681 165.992V160.964H490.653V188.036H497.092V178.174H509.971V173.146H497.092V165.992H511.681ZM517.631 188.036H538.023V182.931H524.07V160.964H517.631V188.036ZM556.221 188.5C564.966 188.5 571.445 182.583 571.445 174.5C571.445 166.417 564.966 160.5 556.221 160.5C547.436 160.5 540.996 166.456 540.996 174.5C540.996 182.544 547.436 188.5 556.221 188.5ZM556.221 183.163C551.252 183.163 547.515 179.644 547.515 174.5C547.515 169.356 551.252 165.837 556.221 165.837C561.19 165.837 564.926 169.356 564.926 174.5C564.926 179.644 561.19 183.163 556.221 183.163ZM612.838 160.964L606.36 180.146L599.999 160.964H594.036L587.477 179.992L581.197 160.964H574.518L583.661 188.036H590.539L596.858 169.704L602.981 188.036H609.897L619 160.964H612.838Z" fill="#454A55"/>
</svg>
