<svg width="730" height="350" viewBox="0 0 730 350" fill="none" xmlns="http://www.w3.org/2000/svg">
<rect width="730" height="350" fill="#1F2227"/>
<path d="M412.762 126L367.361 180.075L355.997 172.407L385.178 137.597V126H369.06L339.45 161.255L328.31 153.758L341.87 137.597V126H325.735L301.704 154.65L301 155.491V173.024L375.222 223L428.812 159.025L429 158.785V126H412.762ZM427.284 158.236L374.845 220.786L302.751 172.184V157.412L372.733 204.591L427.284 139.553V158.236ZM303.129 155.594L326.542 127.716H340.154V136.98L325.786 154.136L339.776 163.589L369.866 127.716H383.599V136.98L353.457 172.75L367.687 182.34L413.552 127.716H427.284V136.877L372.355 202.31L303.129 155.594Z" fill="#EE0000" stroke="#EE0000" stroke-width="2" stroke-miterlimit="10"/>
</svg>
