<svg width="24" height="24" viewBox="0 0 24 24" fill="none" xmlns="http://www.w3.org/2000/svg">
<path fill-rule="evenodd" clip-rule="evenodd" d="M12 2C12.5523 2 13 2.44772 13 3V22C13 22.5523 12.5523 23 12 23C11.4477 23 11 22.5523 11 22V3C11 2.44772 11.4477 2 12 2Z" fill="black" fill-opacity="0.5"/>
<path fill-rule="evenodd" clip-rule="evenodd" d="M11.2929 1.29289C11.6834 0.902369 12.3166 0.902369 12.7071 1.29289L19.7071 8.29289C20.0976 8.68342 20.0976 9.31658 19.7071 9.70711C19.3166 10.0976 18.6834 10.0976 18.2929 9.70711L12 3.41421L5.70711 9.70711C5.31658 10.0976 4.68342 10.0976 4.29289 9.70711C3.90237 9.31658 3.90237 8.68342 4.29289 8.29289L11.2929 1.29289Z" fill="black"/>
</svg>
