<svg width="24" height="24" viewBox="0 0 24 24" fill="none" xmlns="http://www.w3.org/2000/svg">
<path fill-rule="evenodd" clip-rule="evenodd" d="M22.2071 1.79289C22.5976 2.18342 22.5976 2.81658 22.2071 3.20711L2.70711 22.7071C2.31658 23.0976 1.68342 23.0976 1.29289 22.7071C0.902369 22.3166 0.902369 21.6834 1.29289 21.2929L20.7929 1.79289C21.1834 1.40237 21.8166 1.40237 22.2071 1.79289Z" fill="black" fill-opacity="0.5"/>
<path fill-rule="evenodd" clip-rule="evenodd" d="M11 2C11 1.44772 11.4477 1 12 1H22C22.5523 1 23 1.44772 23 2V12C23 12.5523 22.5523 13 22 13C21.4477 13 21 12.5523 21 12V3H12C11.4477 3 11 2.55228 11 2Z" fill="black"/>
</svg>
