<svg width="24" height="24" viewBox="0 0 24 24" fill="none" xmlns="http://www.w3.org/2000/svg">
<g clip-path="url(#clip0_1068_7820)">
<path fill-rule="evenodd" clip-rule="evenodd" d="M12 2C6.47715 2 2 6.47715 2 12C2 17.5228 6.47715 22 12 22C17.5228 22 22 17.5228 22 12C22 6.47715 17.5228 2 12 2ZM0 12C0 5.37258 5.37258 0 12 0C18.6274 0 24 5.37258 24 12C24 18.6274 18.6274 24 12 24C5.37258 24 0 18.6274 0 12Z" fill="black"/>
<path fill-rule="evenodd" clip-rule="evenodd" d="M12 10C12.5523 10 13 10.4477 13 11V17C13 17.5523 12.5523 18 12 18C11.4477 18 11 17.5523 11 17V11C11 10.4477 11.4477 10 12 10Z" fill="black" fill-opacity="0.5"/>
<path d="M12 8C12.5523 8 13 7.55228 13 7C13 6.44772 12.5523 6 12 6C11.4477 6 11 6.44772 11 7C11 7.55228 11.4477 8 12 8Z" fill="black" fill-opacity="0.5"/>
</g>
<defs>
<clipPath id="clip0_1068_7820">
<rect width="24" height="24" fill="white"/>
</clipPath>
</defs>
</svg>
