<svg width="24" height="24" viewBox="0 0 24 24" fill="none" xmlns="http://www.w3.org/2000/svg">
<path fill-rule="evenodd" clip-rule="evenodd" d="M2.19146 11.3918C2.06715 11.5702 2.00049 11.7825 2.00049 12C2.00049 12.2175 2.06716 12.4298 2.19149 12.6082C2.9479 13.6789 4.24474 15.2976 5.95195 16.6407C7.66241 17.9863 9.71295 19 12.0002 19C14.2874 19 16.3379 17.9863 18.0484 16.6407C19.7556 15.2976 21.0524 13.6789 21.8088 12.6083C21.9331 12.4298 21.9998 12.2175 21.9998 12C21.9998 11.7825 21.9332 11.5702 21.8088 11.3918C21.0524 10.3212 19.7556 8.70238 18.0484 7.35932C16.3379 6.01372 14.2874 5 12.0002 5C9.71295 5 7.66241 6.01372 5.95195 7.35932C4.24472 8.70238 2.94787 10.3212 2.19146 11.3918ZM4.71536 5.78743C6.6299 4.28128 9.10636 3 12.0002 3C14.894 3 17.3704 4.28128 19.285 5.78743C21.2016 7.29522 22.6271 9.08366 23.444 10.2401L23.4466 10.2438C23.8067 10.7587 23.9998 11.3717 23.9998 12C23.9998 12.6283 23.8067 13.2413 23.4466 13.7562L23.444 13.7599C22.6271 14.9163 21.2016 16.7048 19.285 18.2126C17.3704 19.7187 14.894 21 12.0002 21C9.10636 21 6.6299 19.7187 4.71536 18.2126C2.79873 16.7048 1.37317 14.9163 0.55636 13.7599L0.553702 13.7562L0.553711 13.7562C0.193618 13.2413 0.000488281 12.6283 0.000488281 12C0.000488281 11.3717 0.193618 10.7587 0.553711 10.2438L0.556352 10.2401L0.55636 10.2401C1.37317 9.08366 2.79873 7.29522 4.71536 5.78743Z" fill="black"/>
<path fill-rule="evenodd" clip-rule="evenodd" d="M12 9C10.3431 9 9 10.3431 9 12C9 13.6569 10.3431 15 12 15C13.6569 15 15 13.6569 15 12C15 10.3431 13.6569 9 12 9ZM7 12C7 9.23858 9.23858 7 12 7C14.7614 7 17 9.23858 17 12C17 14.7614 14.7614 17 12 17C9.23858 17 7 14.7614 7 12Z" fill="black" fill-opacity="0.5"/>
<path fill-rule="evenodd" clip-rule="evenodd" d="M22.7071 1.29289C23.0976 1.68342 23.0976 2.31658 22.7071 2.70711L2.70711 22.7071C2.31658 23.0976 1.68342 23.0976 1.29289 22.7071C0.902369 22.3166 0.902369 21.6834 1.29289 21.2929L21.2929 1.29289C21.6834 0.902369 22.3166 0.902369 22.7071 1.29289Z" fill="black"/>
</svg>
