<svg width="24" height="24" viewBox="0 0 24 24" fill="none" xmlns="http://www.w3.org/2000/svg">
<path fill-rule="evenodd" clip-rule="evenodd" d="M3 0C2.44772 0 2 0.447715 2 1V23C2 23.5523 2.44772 24 3 24H21C21.5523 24 22 23.5523 22 23V7C22 6.87512 21.9766 6.75264 21.9323 6.63842C21.7958 6.26485 21.5 6 21.5 6L16 0.500002C16 0.500002 15.7349 0.203975 15.3611 0.067476C15.247 0.0232953 15.1247 0 15 0H3ZM14 2H4V22H20V8H15C14.4477 8 14 7.55228 14 7V2Z" fill="black"/>
<path d="M12.6502 13.5689C12.7901 13.3817 13.0252 13.2692 13.277 13.2692C13.5298 13.2692 13.7665 13.3798 13.8566 13.569L17.8735 18.9536C17.9491 19.0549 17.9925 19.1727 17.9991 19.2944C18.0057 19.4161 17.9752 19.5371 17.9109 19.6445C17.78 19.8633 17.5248 20 17.247 20H6.70319C6.47402 20 6.21849 19.8654 6.08911 19.6444C6.02479 19.537 5.99429 19.416 6.00088 19.2944C6.00746 19.1727 6.05088 19.0549 6.1265 18.9536L8.63712 15.5882C8.77683 15.401 9.01197 15.2885 9.26384 15.2885C9.38779 15.2886 9.50978 15.3162 9.61887 15.3688C9.72796 15.4214 9.82075 15.4974 9.88894 15.5899L10.5173 16.4327L12.6502 13.5689Z" fill="black" fill-opacity="0.5"/>
<path d="M10.3021 11.5385C10.3021 12.388 9.5312 13.0769 8.58064 13.0769C7.62846 13.0769 6.85919 12.3894 6.85919 11.5385C6.85919 10.6875 7.62846 10 8.58064 10C9.53281 10 10.3021 10.6889 10.3021 11.5385Z" fill="black" fill-opacity="0.5"/>
</svg>
