<svg width="24" height="24" viewBox="0 0 24 24" fill="none" xmlns="http://www.w3.org/2000/svg">
<path fill-rule="evenodd" clip-rule="evenodd" d="M3 0C2.44772 0 2 0.447715 2 1V23C2 23.5523 2.44772 24 3 24H21C21.5523 24 22 23.5523 22 23V7C22 6.87512 21.9766 6.75264 21.9323 6.63842C21.7958 6.26485 21.5 6 21.5 6L16 0.500002C16 0.500002 15.7349 0.203975 15.3611 0.067476C15.247 0.0232953 15.1247 0 15 0H3ZM14 2H4V22H20V8H15C14.4477 8 14 7.55228 14 7V2Z" fill="black"/>
<path d="M12.0246 12.7676L14.6819 10.3595C15.2134 9.88401 16.0702 9.88145 16.6002 10.361C17.1302 10.8406 17.1302 11.617 16.6002 12.0963L13.9413 14.5008L16.6025 16.9032C17.1325 17.3828 17.1325 18.1592 16.6025 18.6385C16.0716 19.118 15.2136 19.1176 14.6836 18.6385L12.0246 16.234L9.36796 18.6405C8.83707 19.12 7.97912 19.1196 7.44908 18.6405C6.91905 18.1609 6.91905 17.3846 7.44908 16.9053L10.108 14.5008L7.39763 12.0947C6.8676 11.6152 6.86731 10.8388 7.39763 10.3595C7.92795 9.88017 8.78647 9.88017 9.31651 10.3595L12.0246 12.7676Z" fill="black" fill-opacity="0.5"/>
</svg>
