<svg width="24" height="24" viewBox="0 0 24 24" fill="none" xmlns="http://www.w3.org/2000/svg">
<path fill-rule="evenodd" clip-rule="evenodd" d="M12.6929 9.8929C13.0834 9.50238 13.7166 9.50238 14.1071 9.8929C16.4976 12.2834 16.4976 16.0166 14.1071 18.4071L11.3071 21.2071C8.91658 23.5976 5.18342 23.5976 2.79289 21.2071C0.402369 18.8166 0.402369 15.0834 2.79289 12.6929L2.80747 12.6786L5.30747 10.2786C5.70588 9.89614 6.33891 9.90906 6.72139 10.3075C7.10386 10.7059 7.09094 11.3389 6.69253 11.7214L4.20027 14.114C2.59763 15.7236 2.59991 18.1857 4.20711 19.7929C5.81658 21.4024 8.28342 21.4024 9.89289 19.7929L12.6929 16.9929C14.3024 15.3834 14.3024 12.9166 12.6929 11.3071C12.3024 10.9166 12.3024 10.2834 12.6929 9.8929Z" fill="black" fill-opacity="0.5"/>
<path fill-rule="evenodd" clip-rule="evenodd" d="M19.793 4.20711C18.1835 2.59763 15.7167 2.59763 14.1072 4.20711L11.3072 7.00711C9.69773 8.61658 9.69773 11.0834 11.3072 12.6929C11.6977 13.0834 11.6977 13.7166 11.3072 14.1071C10.9167 14.4976 10.2835 14.4976 9.89299 14.1071C7.50247 11.7166 7.50247 7.98342 9.89299 5.59289L12.693 2.79289C15.0835 0.402369 18.8167 0.402369 21.2072 2.79289C23.5977 5.18342 23.5977 8.91658 21.2072 11.3071L21.1926 11.3214L18.6926 13.7214C18.2942 14.1039 17.6612 14.0909 17.2787 13.6925C16.8962 13.2941 16.9092 12.6611 17.3076 12.2786L19.7998 9.88603C21.4025 8.27641 21.4002 5.8143 19.793 4.20711Z" fill="black"/>
</svg>
