<svg width="24" height="24" viewBox="0 0 24 24" fill="none" xmlns="http://www.w3.org/2000/svg">
<path fill-rule="evenodd" clip-rule="evenodd" d="M4 1C4 0.447715 4.44772 0 5 0H19C19.5523 0 20 0.447715 20 1V4C20 4.55228 19.5523 5 19 5C18.4477 5 18 4.55228 18 4V2H6V22H18V20C18 19.4477 18.4477 19 19 19C19.5523 19 20 19.4477 20 20V23C20 23.5523 19.5523 24 19 24H5C4.44772 24 4 23.5523 4 23V1Z" fill="black"/>
<path fill-rule="evenodd" clip-rule="evenodd" d="M17.7071 7.29289C17.3166 6.90237 16.6834 6.90237 16.2929 7.29289C15.9024 7.68342 15.9024 8.31658 16.2929 8.70711L18.5858 11H9C8.44772 11 8 11.4477 8 12C8 12.5523 8.44772 13 9 13H18.5858L16.2929 15.2929C15.9024 15.6834 15.9024 16.3166 16.2929 16.7071C16.6834 17.0976 17.3166 17.0976 17.7071 16.7071L21.7065 12.7077L21.7071 12.7071C21.7093 12.7049 21.7115 12.7027 21.7136 12.7005C21.9038 12.5069 21.9992 12.2551 22 12.003M21.7136 11.2995C21.8063 11.3938 21.8764 11.502 21.9241 11.6172C21.8746 11.4979 21.8027 11.3902 21.7136 11.2995ZM17.7071 7.29289L21.7065 11.2923Z" fill="black" fill-opacity="0.5"/>
</svg>
