<svg width="24" height="24" viewBox="0 0 24 24" fill="none" xmlns="http://www.w3.org/2000/svg">
<path fill-rule="evenodd" clip-rule="evenodd" d="M17.7172 3.35664C17.9864 3.8389 17.8136 4.44804 17.3313 4.7172L4.49534 11.8812C4.01309 12.1504 3.40394 11.9776 3.13479 11.4953C2.86563 11.0131 3.03838 10.4039 3.52064 10.1348L16.3566 2.97079C16.8389 2.70163 17.448 2.87438 17.7172 3.35664Z" fill="black"/>
<path fill-rule="evenodd" clip-rule="evenodd" d="M20.6432 6.2828C21.1255 6.55195 21.2982 7.1611 21.0291 7.64335L13.8651 20.4794C13.5959 20.9616 12.9868 21.1344 12.5045 20.8652C12.0223 20.5961 11.8495 19.9869 12.1187 19.5047L19.2827 6.66865C19.5518 6.18639 20.161 6.01364 20.6432 6.2828Z" fill="black"/>
<path fill-rule="evenodd" clip-rule="evenodd" d="M14.2929 1.29289C14.6834 0.902369 15.3166 0.902369 15.7071 1.29289L22.7071 8.29289C23.0976 8.68342 23.0976 9.31658 22.7071 9.70711C22.3166 10.0976 21.6834 10.0976 21.2929 9.70711L14.2929 2.70711C13.9024 2.31658 13.9024 1.68342 14.2929 1.29289Z" fill="black"/>
<path fill-rule="evenodd" clip-rule="evenodd" d="M9.20711 14.7929C9.59763 15.1834 9.59763 15.8166 9.20711 16.2071L2.70711 22.7071C2.31658 23.0976 1.68342 23.0976 1.29289 22.7071C0.902369 22.3166 0.902369 21.6834 1.29289 21.2929L7.79289 14.7929C8.18342 14.4024 8.81658 14.4024 9.20711 14.7929Z" fill="black" fill-opacity="0.5"/>
<path fill-rule="evenodd" clip-rule="evenodd" d="M1.29289 8.29289C1.68342 7.90237 2.31658 7.90237 2.70711 8.29289L15.7071 21.2929C16.0976 21.6834 16.0976 22.3166 15.7071 22.7071C15.3166 23.0976 14.6834 23.0976 14.2929 22.7071L1.29289 9.70711C0.902369 9.31658 0.902369 8.68342 1.29289 8.29289Z" fill="black"/>
</svg>
