<svg width="24" height="24" viewBox="0 0 24 24" fill="none" xmlns="http://www.w3.org/2000/svg">
<path opacity="0.5" fill-rule="evenodd" clip-rule="evenodd" d="M11 14C6.02928 14 2 18.0293 2 23C2 23.5523 1.55228 24 1 24C0.447715 24 0 23.5523 0 23C0 16.9247 4.92472 12 11 12H13C19.0753 12 24 16.9247 24 23C24 23.5523 23.5523 24 23 24C22.4477 24 22 23.5523 22 23C22 18.0293 17.9707 14 13 14H11Z" fill="black"/>
<path fill-rule="evenodd" clip-rule="evenodd" d="M12 2C9.23858 2 7 4.23858 7 7C7 9.76142 9.23858 12 12 12C14.7614 12 17 9.76142 17 7C17 4.23858 14.7614 2 12 2ZM5 7C5 3.13401 8.13401 0 12 0C15.866 0 19 3.13401 19 7C19 10.866 15.866 14 12 14C8.13401 14 5 10.866 5 7Z" fill="black"/>
</svg>
