<svg width="24" height="24" viewBox="0 0 24 24" fill="none" xmlns="http://www.w3.org/2000/svg">
<path fill-rule="evenodd" clip-rule="evenodd" d="M22.791 1.83437C22.8653 1.2871 22.4818 0.783283 21.9345 0.709076C21.3872 0.634869 20.8834 1.01837 20.8092 1.56564L20.3636 4.85185C18.3594 2.4727 15.3419 1 12 1C5.94772 1 1 5.94772 1 12C1 18.0523 5.94772 23 12 23C18.0523 23 23 18.0523 23 12C23 11.4477 22.5523 11 22 11C21.4477 11 21 11.4477 21 12C21 16.9477 16.9477 21 12 21C7.05228 21 3 16.9477 3 12C3 7.05228 7.05228 3 12 3C14.8296 3 17.3569 4.28239 18.9829 6.32219L15.1323 5.80878C14.5848 5.73579 14.0819 6.12041 14.0089 6.66785C13.9359 7.21529 14.3205 7.71824 14.868 7.79124L20.868 8.59124C21.4145 8.66411 21.917 8.28079 21.991 7.73437L22.791 1.83437Z" fill="black"/>
</svg>
