<svg width="24" height="24" viewBox="0 0 24 24" xmlns="http://www.w3.org/2000/svg"><path fill-rule="evenodd" clip-rule="evenodd" d="M2 12C2 6.477 6.477 2 12 2c2.401 0 4.605.846 6.329 2.257L4.257 18.329A9.959 9.959 0 0 1 2 12Zm1.334 8.3a1 1 0 0 0 .365.366A11.96 11.96 0 0 0 12 24c6.627 0 12-5.373 12-12a11.96 11.96 0 0 0-3.334-8.301 1.004 1.004 0 0 0-.365-.365A11.96 11.96 0 0 0 12 0C5.373 0 0 5.373 0 12a11.96 11.96 0 0 0 3.334 8.3ZM19.743 5.672A9.959 9.959 0 0 1 22 12c0 5.523-4.477 10-10 10a9.959 9.959 0 0 1-6.329-2.257L19.743 5.67Z"/></svg>