<svg width="24" height="24" viewBox="0 0 24 24" xmlns="http://www.w3.org/2000/svg"><path fill-rule="evenodd" clip-rule="evenodd" d="M6.343 2.343A8 8 0 0 1 20 8v3c0 1.285.557 2.078 1.25 2.863.08.091.168.188.26.29.279.306.594.653.835.99.347.487.655 1.095.655 1.857 0 .848-.494 1.508-1.088 1.973-.595.466-1.4.833-2.329 1.12C17.716 20.67 15.107 21 12 21s-5.716-.33-7.583-.907c-.929-.287-1.734-.654-2.329-1.12C1.494 18.508 1 17.848 1 17c0-.762.308-1.37.655-1.856.241-.338.556-.685.835-.992.092-.1.18-.198.26-.289C3.443 13.078 4 12.285 4 11V8a8 8 0 0 1 2.343-5.657ZM12 2a6 6 0 0 0-6 6v3c0 2.015-.943 3.272-1.75 4.187-.13.147-.248.277-.356.396a8.144 8.144 0 0 0-.612.723C3.067 16.608 3 16.812 3 17c0 .005-.003.145.321.399.328.256.878.533 1.687.783C6.616 18.68 9.007 19 12 19s5.384-.32 6.992-.818c.809-.25 1.36-.527 1.687-.783.324-.254.321-.394.321-.399 0-.188-.067-.392-.282-.694a8.136 8.136 0 0 0-.612-.723l-.356-.396C18.943 14.272 18 13.015 18 11V8a6 6 0 0 0-6-6Z"/><path opacity=".5" d="M12 22a38.81 38.81 0 0 1-2.855-.1 2.992 2.992 0 0 0 5.71 0c-.894.066-1.844.1-2.855.1Z"/></svg>