<svg width="24" height="24" viewBox="0 0 24 24" xmlns="http://www.w3.org/2000/svg"><g clip-path="url(#a)" fill-rule="evenodd" clip-rule="evenodd"><path opacity=".5" d="M12 0a1 1 0 0 1 1 1v1h8a1 1 0 0 1 1 1v15h1a1 1 0 1 1 0 2h-6.586l2.293 2.293a1 1 0 0 1-1.414 1.414L13.586 20H13v2a1 1 0 1 1-2 0v-2h-.586l-3.707 3.707a1 1 0 0 1-1.414-1.414L7.586 20H1a1 1 0 1 1 0-2h1V3a1 1 0 0 1 1-1h8V1a1 1 0 0 1 1-1Zm0 18h8V4H4v14h8Z"/><path d="M12 7a1 1 0 0 1 1 1v6a1 1 0 1 1-2 0V8a1 1 0 0 1 1-1Zm4 2a1 1 0 0 1 1 1v4a1 1 0 1 1-2 0v-4a1 1 0 0 1 1-1Zm-7 3a1 1 0 1 0-2 0v2a1 1 0 1 0 2 0v-2Z"/></g><defs><clipPath id="a"><path fill="#fff" d="M0 0h24v24H0z"/></clipPath></defs></svg>