<svg width="24" height="24" viewBox="0 0 24 24" fill="none" xmlns="http://www.w3.org/2000/svg">
<path opacity="0.5" fill-rule="evenodd" clip-rule="evenodd" d="M11 0C11.5523 0 12 0.447715 12 1V8.13148L13.4453 7.16795C13.7812 6.94402 14.2188 6.94402 14.5547 7.16795L16 8.13148V1C16 0.447715 16.4477 0 17 0C17.5523 0 18 0.447715 18 1V10C18 10.3688 17.797 10.7077 17.4719 10.8817C17.1467 11.0557 16.7522 11.0366 16.4453 10.8321L14 9.20185L11.5547 10.8321C11.2478 11.0366 10.8533 11.0557 10.5281 10.8817C10.203 10.7077 10 10.3688 10 10V1C10 0.447715 10.4477 0 11 0Z" fill="black"/>
<path fill-rule="evenodd" clip-rule="evenodd" d="M5 0C3.34272 0 2 1.34272 2 3V20.5C2 22.4333 3.56672 24 5.5 24H21C21.5523 24 22 23.5523 22 23V18V1C22 0.447715 21.5523 0 21 0L5 0ZM20 17V2H5C4.44728 2 4 2.44728 4 3V17.3367C4.45461 17.1208 4.96317 17 5.5 17H20ZM4 20.5C4 21.3287 4.67128 22 5.5 22H20V19H5.5C4.67128 19 4 19.6713 4 20.5Z" fill="black"/>
</svg>
