<svg width="24" height="24" viewBox="0 0 24 24" xmlns="http://www.w3.org/2000/svg"><path opacity=".5" fill-rule="evenodd" clip-rule="evenodd" d="M11 0a1 1 0 0 1 1 1v7.131l1.445-.963a1 1 0 0 1 1.11 0L16 8.13V1a1 1 0 1 1 2 0v9a1 1 0 0 1-1.555.832L14 9.202l-2.445 1.63A1 1 0 0 1 10 10V1a1 1 0 0 1 1-1Z"/><path fill-rule="evenodd" clip-rule="evenodd" d="M5 0a3 3 0 0 0-3 3v17.5A3.5 3.5 0 0 0 5.5 24H21a1 1 0 0 0 1-1V1a1 1 0 0 0-1-1H5Zm15 17V2H5a1 1 0 0 0-1 1v14.337A3.487 3.487 0 0 1 5.5 17H20ZM4 20.5A1.5 1.5 0 0 0 5.5 22H20v-3H5.5A1.5 1.5 0 0 0 4 20.5Z"/></svg>