<svg width="24" height="24" viewBox="0 0 24 24" xmlns="http://www.w3.org/2000/svg"><path opacity=".5" fill-rule="evenodd" clip-rule="evenodd" d="M0 12a1 1 0 0 1 1-1h2a1 1 0 1 1 0 2H1a1 1 0 0 1-1-1Zm3.515-8.485a1 1 0 0 1 1.414 0l1.414 1.414a1 1 0 0 1-1.414 1.414L3.515 4.93a1 1 0 0 1 0-1.414ZM12 0a1 1 0 0 1 1 1v2a1 1 0 1 1-2 0V1a1 1 0 0 1 1-1Zm8.485 3.515a1 1 0 0 1 0 1.414l-1.414 1.414a1 1 0 1 1-1.414-1.414l1.414-1.414a1 1 0 0 1 1.414 0ZM20 12a1 1 0 0 1 1-1h2a1 1 0 1 1 0 2h-2a1 1 0 0 1-1-1Z"/><path fill-rule="evenodd" clip-rule="evenodd" d="M5 12a7 7 0 1 1 14 0 6.991 6.991 0 0 1-4 6.318V22a1 1 0 0 1-1 1h-4a1 1 0 0 1-1-1v-3.682A6.991 6.991 0 0 1 5 12Zm7-5a4.996 4.996 0 0 0-1.666 9.708 1 1 0 0 1 .666.943V21h2v-3.349a1 1 0 0 1 .666-.943A4.996 4.996 0 0 0 12 7Z"/></svg>