<svg width="24" height="24" viewBox="0 0 24 24" xmlns="http://www.w3.org/2000/svg"><path fill-rule="evenodd" clip-rule="evenodd" d="M7 1a1 1 0 0 0-2 0v1H3a3 3 0 0 0-3 3v15a3 3 0 0 0 3 3h18a3 3 0 0 0 3-3V5a3 3 0 0 0-3-3h-2V1a1 1 0 1 0-2 0v1H7V1Zm15 6V5a1 1 0 0 0-1-1h-2a1 1 0 1 1-2 0H7a1 1 0 0 1-2 0H3a1 1 0 0 0-1 1v2h20ZM2 9h20v11a1 1 0 0 1-1 1H3a1 1 0 0 1-1-1V9Z"/><path opacity=".5" fill-rule="evenodd" clip-rule="evenodd" d="M13 12a1 1 0 1 0-2 0v2H9a1 1 0 1 0 0 2h2v2a1 1 0 1 0 2 0v-2h2a1 1 0 1 0 0-2h-2v-2Z"/></svg>