<svg width="24" height="24" viewBox="0 0 24 24" xmlns="http://www.w3.org/2000/svg"><g clip-path="url(#a)" fill-rule="evenodd" clip-rule="evenodd"><path opacity=".5" d="M6 20a2 2 0 1 0 0 4 2 2 0 0 0 0-4Zm14 0a2 2 0 1 0 0 4 2 2 0 0 0 0-4Z"/><path d="M0 2a1 1 0 0 1 1-1h3a1 1 0 0 1 .991.868L5.542 6H22a1 1 0 0 1 .98 1.196l-2 10A1 1 0 0 1 20 18H6a1 1 0 0 1-.991-.868L3.124 3H1a1 1 0 0 1-1-1Zm5.809 6 1.067 8H19.18l1.6-8H5.81Z"/></g><defs><clipPath id="a"><path fill="#fff" d="M0 0h24v24H0z"/></clipPath></defs></svg>