<svg width="24" height="24" viewBox="0 0 24 24" xmlns="http://www.w3.org/2000/svg"><g clip-path="url(#a)" fill-rule="evenodd" clip-rule="evenodd"><path opacity=".5" d="M12 5a1 1 0 0 1 1 1v5h5a1 1 0 1 1 0 2h-6a1 1 0 0 1-1-1V6a1 1 0 0 1 1-1Z"/><path d="M18.836 2.143A12 12 0 0 0 0 12a1 1 0 0 0 2 0 10 10 0 1 1 2.647 6.783l3.014.84a1 1 0 1 0 .536-1.927l-5.683-1.584a.997.997 0 0 0-1.263.796.997.997 0 0 0-.004.31l.727 5.777a1 1 0 1 0 1.984-.25l-.261-2.076a12 12 0 1 0 15.14-18.526Z"/></g><defs><clipPath id="a"><path fill="#fff" d="M0 0h24v24H0z"/></clipPath></defs></svg>