<svg width="24" height="24" viewBox="0 0 24 24" xmlns="http://www.w3.org/2000/svg"><g clip-path="url(#a)" stroke="currentColor" stroke-width="2" stroke-linecap="round" stroke-linejoin="round" fill="transparent"><path d="M3 23a2 2 0 1 0 0-4 2 2 0 0 0 0 4Zm9 0a2 2 0 1 0 0-4 2 2 0 0 0 0 4Zm9 0a2 2 0 1 0 0-4 2 2 0 0 0 0 4Z"/><path opacity=".5" d="M12 19v-5m7.586 5.586L17 17v-3M4.414 19.586 7 17v-3"/><path d="M18.5 5a4.45 4.45 0 0 0-.822.083 5.99 5.99 0 0 0-11.356 0A4.447 4.447 0 0 0 5.5 5a4.5 4.5 0 1 0 0 9h13a4.5 4.5 0 1 0 0-9Z"/></g><defs><clipPath id="a"><path fill="#fff" d="M0 0h24v24H0z"/></clipPath></defs></svg>