<svg width="24" height="24" viewBox="0 0 24 24" xmlns="http://www.w3.org/2000/svg"><g clip-path="url(#a)" fill-rule="evenodd" clip-rule="evenodd"><path opacity=".5" d="M20.148 9.336a1 1 0 0 1 1.408-.134C23.02 10.412 24 12.085 24 14c0 1.714-.785 3.235-2 4.403V22a1 1 0 0 1-1.447.894l-4.001-2c-.503.068-1.02.106-1.552.106-3.434 0-6.525-1.502-8.042-3.858A1 1 0 0 1 8.64 16.06C9.71 17.722 12.086 19 15 19c.532 0 1.05-.046 1.554-.129a1 1 0 0 1 .61.093L20 20.382V17.96a1 1 0 0 1 .352-.761C21.42 16.288 22 15.165 22 14c0-1.19-.604-2.335-1.718-3.256a1 1 0 0 1-.134-1.408Z"/><path d="M0 9c0-5.167 5.144-9 11-9s11 3.833 11 9-5.144 9-11 9c-1.06 0-2.084-.127-3.051-.356l-4.502 2.25A1 1 0 0 1 2 19v-4.832C.762 12.728 0 10.95 0 9Zm11-7C5.81 2 2 5.331 2 9c0 1.505.626 2.922 1.73 4.101a1 1 0 0 1 .27.684v3.597l3.386-1.693a1 1 0 0 1 .705-.071C9.006 15.862 9.982 16 11 16c5.19 0 9-3.331 9-7s-3.81-7-9-7Z"/></g><defs><clipPath id="a"><path fill="#fff" d="M0 0h24v24H0z"/></clipPath></defs></svg>