<svg width="24" height="24" viewBox="0 0 24 24" xmlns="http://www.w3.org/2000/svg"><g clip-path="url(#a)" fill-rule="evenodd" clip-rule="evenodd"><path opacity=".5" d="M12 2C6.477 2 2 6.477 2 12s4.477 10 10 10 10-4.477 10-10S17.523 2 12 2ZM0 12C0 5.373 5.373 0 12 0s12 5.373 12 12-5.373 12-12 12S0 18.627 0 12Z"/><path d="M17.92 7.394a1 1 0 0 0-1.314-1.313l-7 3a1 1 0 0 0-.525.525l-3 7a1 1 0 0 0 1.313 1.313l7-3a1 1 0 0 0 .525-.525l3-7Zm-7.158 3.368-1.858 4.334 4.334-1.858-2.476-2.476Z"/></g><defs><clipPath id="a"><path fill="#fff" d="M0 0h24v24H0z"/></clipPath></defs></svg>