<svg width="24" height="24" viewBox="0 0 24 24" xmlns="http://www.w3.org/2000/svg"><path fill-rule="evenodd" clip-rule="evenodd" d="M12 0a2.5 2.5 0 0 0-1.59 4.429L8.504 11.09 4.828 7.414a2.5 2.5 0 1 0-2.672 1.563l2.88 10.293a1 1 0 0 0 1.926-.54l-2.47-8.823 3.8 3.8a1 1 0 0 0 1.669-.432L12 6.14l2.038 7.134a1 1 0 0 0 1.669.432l3.8-3.8-2.47 8.823a1 1 0 0 0 1.926.54l2.882-10.294a2.5 2.5 0 1 0-2.673-1.562l-3.678 3.677-1.903-6.662A2.5 2.5 0 0 0 12 0Z"/><path opacity=".5" fill-rule="evenodd" clip-rule="evenodd" d="M2 19a1 1 0 0 1 1-1h18a1 1 0 0 1 1 1v4a1 1 0 0 1-1 1H3a1 1 0 0 1-1-1v-4Zm2 1v2h16v-2H4Z"/></svg>