<svg width="24" height="24" viewBox="0 0 24 24" xmlns="http://www.w3.org/2000/svg"><g clip-path="url(#a)" fill-rule="evenodd" clip-rule="evenodd"><path opacity=".5" d="M11.611.143a1 1 0 0 1 1.373.341l.812 1.35a1 1 0 0 1 .09.191l.525 1.54 1.731 1.392 2.383-.283 1.301-.739a1 1 0 1 1 .987 1.74l-1.477.838a1 1 0 0 1-.375.123l-3 .357a1 1 0 0 1-.745-.214l-2.284-1.838a1 1 0 0 1-.32-.455l-.585-1.713-.757-1.257a1 1 0 0 1 .341-1.373ZM4.338 2.79a1 1 0 0 1 1.407-.138l1.612 1.325a1 1 0 0 1 .095.09l1.645 1.755a1 1 0 0 1 .26.83l-.405 2.74a1 1 0 0 1-.538.746l-2.487 1.258-.64.547.187.32 1.231 1.319a1 1 0 0 1 .23.407l.707 2.473a1 1 0 0 1-.32 1.041l-1.708 1.433-.282 1.205a1 1 0 1 1-1.947-.458l.359-1.528a1 1 0 0 1 .33-.537l1.466-1.23-.461-1.618-1.143-1.224a1.001 1.001 0 0 1-.132-.176l-.667-1.138a1 1 0 0 1 .214-1.267L4.72 9.797a1 1 0 0 1 .198-.131l2.131-1.079.258-1.75-1.27-1.356-1.562-1.283a1 1 0 0 1-.137-1.408Zm11.409 6.398a1 1 0 0 0-.564.03l-2.227.781a1 1 0 0 0-.45.32l-1.594 1.997a1 1 0 0 0-.2.809l.365 1.944-.426 1.973a1 1 0 0 0 .207.847l1.393 1.69a1 1 0 0 0 .836.362l2.339-.15a1 1 0 0 0 .617-.266l1.763-1.641a.998.998 0 0 0 .233-.327l1.882-4.25a1 1 0 0 0-.027-.866l-1.135-2.178a1 1 0 0 0-.654-.51l-2.359-.565Zm-1.858 2.603 1.679-.589 1.628.39.702 1.346-1.604 3.621-1.352 1.259-1.473.094-.76-.922.365-1.696a1 1 0 0 0 .006-.396l-.319-1.692 1.128-1.415Z"/><path d="M12 2C6.477 2 2 6.477 2 12s4.477 10 10 10 10-4.477 10-10S17.523 2 12 2ZM0 12C0 5.373 5.373 0 12 0s12 5.373 12 12-5.373 12-12 12S0 18.627 0 12Z"/></g><defs><clipPath id="a"><path fill="#fff" d="M0 0h24v24H0z"/></clipPath></defs></svg>