<svg width="24" height="24" viewBox="0 0 24 24" xmlns="http://www.w3.org/2000/svg"><path fill-rule="evenodd" clip-rule="evenodd" d="M2.191 11.392a1.064 1.064 0 0 0 0 1.216c.757 1.07 2.054 2.69 3.761 4.033C7.662 17.986 9.712 19 12 19c2.287 0 4.338-1.014 6.048-2.36 1.708-1.342 3.004-2.961 3.76-4.032a1.065 1.065 0 0 0 0-1.216c-.756-1.07-2.052-2.69-3.76-4.033C16.338 6.014 14.288 5 12 5 9.713 5 7.662 6.014 5.952 7.36c-1.707 1.342-3.004 2.961-3.76 4.032Zm2.524-5.605C6.63 4.281 9.106 3 12 3s5.37 1.281 7.285 2.787c1.917 1.508 3.342 3.297 4.159 4.453l.003.004a3.064 3.064 0 0 1 0 3.512l-.003.004c-.817 1.156-2.242 2.945-4.159 4.453C17.37 19.719 14.894 21 12 21s-5.37-1.281-7.285-2.787C2.8 16.705 1.373 14.916.556 13.76l-.002-.004a3.064 3.064 0 0 1 0-3.512l.002-.004c.817-1.156 2.243-2.945 4.16-4.453Z"/><path opacity=".5" fill-rule="evenodd" clip-rule="evenodd" d="M12 9a3 3 0 1 0 0 6 3 3 0 0 0 0-6Zm-5 3a5 5 0 1 1 10 0 5 5 0 0 1-10 0Z"/></svg>