<svg width="24" height="24" viewBox="0 0 24 24" xmlns="http://www.w3.org/2000/svg"><path opacity=".5" fill-rule="evenodd" clip-rule="evenodd" d="M2 0h13.414l.293.293 6 6 .293.293V24H2V0Zm2 2v20h16V8h-5a1 1 0 0 1-1-1V2H4Z"/><path fill-rule="evenodd" clip-rule="evenodd" d="M12.497 13.402c.044-.118.087-.238.129-.36.07-.255.372-1.397.372-2.324.001-.818-.745-1.483-1.664-1.483-.92 0-1.666.665-1.666 1.484 0 .013.008 1.276.689 2.759-.35.857-.775 1.718-1.264 2.565-1.068.448-1.951.985-2.625 1.598-.31.285-.466.652-.466 1.094 0 .817.746 1.482 1.664 1.482.537 0 1.043-.232 1.353-.62.364-.454.914-1.19 1.515-2.167a18.005 18.005 0 0 1 2.68-.708 9.24 9.24 0 0 0 2.272 1.016c.225.069.467.104.718.104 1.007 0 1.796-.717 1.796-1.632 0-.9-.822-1.633-1.833-1.633h-.185c-.135.005-1.02.05-2.255.238a5.558 5.558 0 0 1-1.23-1.412Zm-1.163-2.98c.183 0 .333.133.333.297 0 .674-.205 1.543-.286 1.864-.37-1-.38-1.789-.38-1.864 0-.164.149-.297.333-.297Zm-3.402 8.485c-.162.208-.598.123-.598-.235 0-.078.032-.152.086-.202.449-.408.992-.755 1.584-1.05a18.33 18.33 0 0 1-1.072 1.487Zm3.555-4.73a21.928 21.928 0 0 1-.964 1.98c.75-.24 1.507-.42 2.205-.564a6.827 6.827 0 0 1-1.241-1.415Zm4.51 1.59h.167c.275 0 .5.2.5.478 0 .227-.208.413-.464.413a.996.996 0 0 1-.29-.042 8.112 8.112 0 0 1-1.619-.672 20.698 20.698 0 0 1 1.706-.177Z"/></svg>