<svg width="24" height="24" viewBox="0 0 24 24" xmlns="http://www.w3.org/2000/svg"><path opacity=".5" fill-rule="evenodd" clip-rule="evenodd" d="M2 0h13.414l.293.293 6 6 .293.293V24H2V0Zm2 2v20h16V8h-5a1 1 0 0 1-1-1V2H4Z"/><path d="m12.025 12.768 2.657-2.409c.531-.475 1.388-.478 1.918.002s.53 1.256 0 1.735l-2.659 2.405 2.661 2.402c.53.48.53 1.256 0 1.736a1.46 1.46 0 0 1-1.918 0l-2.66-2.405-2.656 2.406a1.46 1.46 0 0 1-1.919 0 1.146 1.146 0 0 1 0-1.735l2.659-2.404-2.71-2.406a1.145 1.145 0 0 1 0-1.736 1.46 1.46 0 0 1 1.919 0l2.708 2.409Z"/></svg>