<svg width="24" height="24" viewBox="0 0 24 24" xmlns="http://www.w3.org/2000/svg"><g clip-path="url(#a)" fill-rule="evenodd" clip-rule="evenodd"><path opacity=".5" d="M.702 3.92a1 1 0 0 1 1.403.182l8.688 11.288A1 1 0 0 1 11 16v6h2v-6a1 1 0 0 1 .208-.61l8.688-11.288a1 1 0 0 1 1.584 1.22L15 16.34V23a1 1 0 0 1-1 1h-4a1 1 0 0 1-1-1v-6.66L.52 5.322A1 1 0 0 1 .702 3.92Z"/><path d="M2.02 4c.04.056.14.169.386.327.435.28 1.13.57 2.079.83C6.368 5.67 9.025 6 12 6c2.975 0 5.632-.33 7.515-.843.949-.26 1.644-.55 2.079-.83.246-.158.346-.27.386-.327-.04-.056-.14-.169-.386-.327-.435-.28-1.13-.57-2.079-.83C17.632 2.33 14.975 2 12 2c-2.975 0-5.632.33-7.515.843-.949.26-1.644.55-2.079.83-.246.158-.346.27-.386.327ZM3.96.914C6.057.342 8.899 0 12 0c3.1 0 5.943.342 8.041.914 1.042.284 1.958.64 2.636 1.078C23.311 2.4 24 3.056 24 4s-.689 1.6-1.323 2.008c-.678.438-1.594.794-2.636 1.078C17.943 7.658 15.101 8 12 8c-3.1 0-5.943-.342-8.041-.914C2.917 6.802 2 6.446 1.323 6.008.689 5.6 0 4.944 0 4s.689-1.6 1.323-2.008C2 1.554 2.917 1.198 3.959.914Z"/></g><defs><clipPath id="a"><path fill="#fff" d="M0 0h24v24H0z"/></clipPath></defs></svg>