<svg width="24" height="24" viewBox="0 0 24 24" xmlns="http://www.w3.org/2000/svg"><path fill-rule="evenodd" clip-rule="evenodd" d="M0 2a1 1 0 0 1 1-1h8a1 1 0 0 1 .8.4L12.5 5H23a1 1 0 0 1 1 1v14a3 3 0 0 1-3 3H3a3 3 0 0 1-3-3V2Zm2 1v17a1 1 0 0 0 1 1h18a1 1 0 0 0 1-1V7H12a1 1 0 0 1-.8-.4L8.5 3H2Z"/><path opacity=".5" d="M11 18H7.929A3.949 3.949 0 0 1 4 14.128v-.141A3.945 3.945 0 0 1 7.873 10H11v2H8a1.986 1.986 0 0 0-1.456.6A1.934 1.934 0 0 0 6 13.982v.109A1.973 1.973 0 0 0 7.982 16H11v2Zm3-5a1 1 0 0 1 0 2h-4a1 1 0 1 1 0-2h4Zm6 1.013A3.947 3.947 0 0 1 16.127 18H13v-2h3.109A1.947 1.947 0 0 0 18 14.02v-.11A1.945 1.945 0 0 0 16.019 12H13v-2h3a3.973 3.973 0 0 1 4 3.872v.141Z"/></svg>