<svg width="24" height="24" viewBox="0 0 24 24" xmlns="http://www.w3.org/2000/svg"><g clip-path="url(#a)" fill-rule="evenodd" clip-rule="evenodd"><path d="M9 3a3 3 0 1 1 6 0v.523c.299.105.59.226.874.361l.369-.37a3 3 0 1 1 4.242 4.243l-.37.37c.136.283.257.574.362.873H21a3 3 0 1 1 0 6h-.523c-.105.299-.226.59-.361.874l.37.369a3 3 0 1 1-4.243 4.242l-.37-.37a8.942 8.942 0 0 1-.873.362V21a3 3 0 1 1-6 0v-.523a8.947 8.947 0 0 1-.874-.361l-.369.37a3 3 0 1 1-4.242-4.243l.37-.37A8.96 8.96 0 0 1 3.522 15H3a3 3 0 1 1 0-6h.523a8.96 8.96 0 0 1 .361-.874l-.37-.369a3 3 0 1 1 4.243-4.242l.37.37A8.96 8.96 0 0 1 9 3.522V3Zm3-1a1 1 0 0 0-1 1v1.262a1 1 0 0 1-.75.968 6.967 6.967 0 0 0-1.8.745 1 1 0 0 1-1.215-.154l-.892-.892a1 1 0 1 0-1.414 1.414l.892.892a1 1 0 0 1 .154 1.215 6.967 6.967 0 0 0-.745 1.8 1 1 0 0 1-.968.75H3a1 1 0 0 0 0 2h1.262a1 1 0 0 1 .968.75c.166.64.418 1.244.745 1.8a1 1 0 0 1-.154 1.215l-.892.892a1 1 0 1 0 1.414 1.414l.892-.892a1 1 0 0 1 1.215-.154c.555.327 1.159.58 1.8.745a1 1 0 0 1 .75.968V21a1 1 0 0 0 2 0v-1.262a1 1 0 0 1 .75-.968 6.969 6.969 0 0 0 1.8-.745 1 1 0 0 1 1.215.154l.892.892a1 1 0 1 0 1.414-1.414l-.892-.892a1 1 0 0 1-.154-1.216c.327-.554.58-1.158.745-1.799a1 1 0 0 1 .968-.75H21a1 1 0 0 0 0-2h-1.262a1 1 0 0 1-.968-.75 6.968 6.968 0 0 0-.745-1.8 1 1 0 0 1 .154-1.215l.892-.892a1 1 0 1 0-1.414-1.414l-.892.892a1 1 0 0 1-1.215.154 6.968 6.968 0 0 0-1.8-.745 1 1 0 0 1-.75-.968V3a1 1 0 0 0-1-1Z"/><path opacity=".5" d="M12 10a2 2 0 1 0 0 4 2 2 0 0 0 0-4Zm-4 2a4 4 0 1 1 8 0 4 4 0 0 1-8 0Z"/></g><defs><clipPath id="a"><path fill="#fff" d="M0 0h24v24H0z"/></clipPath></defs></svg>