<svg width="24" height="24" viewBox="0 0 24 24" xmlns="http://www.w3.org/2000/svg"><path opacity=".5" fill-rule="evenodd" clip-rule="evenodd" d="M23 10a1 1 0 0 1 1 1v5a1 1 0 1 1-2 0v-5a1 1 0 0 1 1-1Z"/><path fill-rule="evenodd" clip-rule="evenodd" d="M11.553 2.106a1 1 0 0 1 .894 0l10 5a1 1 0 0 1 0 1.788l-10 5a1 1 0 0 1-.894 0l-10-5a1 1 0 0 1 0-1.788l10-5ZM4.236 8 12 11.882 19.764 8 12 4.118 4.236 8Z"/><path fill-rule="evenodd" clip-rule="evenodd" d="M5 8.5a1 1 0 0 1 1 1V18c0 .076.032.232.262.465.234.238.623.497 1.182.737C8.56 19.68 10.17 20 12 20s3.44-.32 4.556-.798c.56-.24.948-.5 1.182-.737.23-.233.262-.389.262-.465V9.5a1 1 0 1 1 2 0V18c0 .752-.36 1.386-.838 1.87-.474.48-1.11.867-1.818 1.17-1.419.608-3.309.96-5.344.96s-3.925-.352-5.344-.96c-.707-.303-1.344-.69-1.818-1.17C4.36 19.385 4 18.752 4 18V9.5a1 1 0 0 1 1-1Z"/></svg>