<svg width="24" height="24" viewBox="0 0 24 24" xmlns="http://www.w3.org/2000/svg"><g clip-path="url(#a)" fill-rule="evenodd" clip-rule="evenodd"><path opacity=".5" d="M11.367 1.226a1 1 0 0 1 1.266 0l11 9a1 1 0 0 1-1.266 1.548L12 3.292 1.633 11.774a1 1 0 0 1-1.266-1.548l11-9Z"/><path d="M11 10a1 1 0 0 0-1 1v2a1 1 0 0 0 1 1h2a1 1 0 0 0 1-1v-2a1 1 0 0 0-1-1h-2Zm-6 3a1 1 0 1 0-2 0v10a1 1 0 0 0 1 1h16a1 1 0 0 0 1-1V13a1 1 0 1 0-2 0v9h-4v-5a1 1 0 0 0-1-1h-4a1 1 0 0 0-1 1v5H5v-9Zm6 9h2v-4h-2v4Z"/></g><defs><clipPath id="a"><path fill="#fff" d="M0 0h24v24H0z"/></clipPath></defs></svg>