<svg width="24" height="24" viewBox="0 0 24 24" xmlns="http://www.w3.org/2000/svg"><g clip-path="url(#a)" fill-rule="evenodd" clip-rule="evenodd"><path d="M5 12a1 1 0 0 0-1 1v8a1 1 0 0 0 1 1h14a1 1 0 0 0 1-1v-8a1 1 0 0 0-1-1H5Zm-3 1a3 3 0 0 1 3-3h14a3 3 0 0 1 3 3v8a3 3 0 0 1-3 3H5a3 3 0 0 1-3-3v-8Z"/><path opacity=".5" d="M12 16a1 1 0 1 0 0 2 1 1 0 0 0 0-2Zm-3 1a3 3 0 1 1 6 0 3 3 0 0 1-6 0Z"/><path d="M12.005 0h.105A5.95 5.95 0 0 1 18 6.005V7a1 1 0 1 1-2 0V5.99A3.951 3.951 0 0 0 12.095 2h-.105A3.95 3.95 0 0 0 8 5.905V7a1 1 0 1 1-2 0V5.89A5.951 5.951 0 0 1 12.005 0Z"/></g><defs><clipPath id="a"><path fill="#fff" d="M0 0h24v24H0z"/></clipPath></defs></svg>