<svg width="24" height="24" viewBox="0 0 24 24" xmlns="http://www.w3.org/2000/svg"><path fill-rule="evenodd" clip-rule="evenodd" d="M8.962 13.072a1 1 0 0 1 1.302.554l2.519 6.253a3 3 0 0 1-1.662 3.9l-.374-.927.373.928a3 3 0 0 1-3.9-1.66v-.002l-3.146-7.741a1 1 0 1 1 1.852-.754l3.148 7.747a1 1 0 0 0 1.845.02 1 1 0 0 0 .008-.765l-2.519-6.251a1 1 0 0 1 .554-1.302Z"/><path fill-rule="evenodd" clip-rule="evenodd" d="M19.526 1.15A1 1 0 0 1 20 2v16a1 1 0 0 1-1.447.894L10.763 15H5A5 5 0 0 1 5 5h5.764l7.789-3.894a1 1 0 0 1 .973.043ZM18 3.617l-6.553 3.276A1 1 0 0 1 11 7H5a3 3 0 1 0 0 6h6c.155 0 .308.036.447.106L18 16.382V3.618Z"/><path opacity=".5" d="M21 7v6a3 3 0 0 0 0-6Z"/></svg>