<svg width="24" height="24" viewBox="0 0 24 24" xmlns="http://www.w3.org/2000/svg"><path fill-rule="evenodd" clip-rule="evenodd" d="M8 14a1 1 0 0 1 1-1h10a1 1 0 1 1 0 2H9a1 1 0 0 1-1-1Zm0 4a1 1 0 0 1 1-1h10a1 1 0 1 1 0 2H9a1 1 0 0 1-1-1ZM8 6a1 1 0 0 1 1-1h10a1 1 0 0 1 1 1v4a1 1 0 0 1-1 1H9a1 1 0 0 1-1-1V6Zm2 1v2h8V7h-8Z"/><path opacity=".5" fill-rule="evenodd" clip-rule="evenodd" d="M5 0a1 1 0 0 0-1 1v19.998A1.006 1.006 0 0 1 3 22a1.006 1.006 0 0 1-1-1.002V14a1 1 0 1 0 0-2H1a1 1 0 0 0-1 1v8.003A3.006 3.006 0 0 0 2.997 24h.004m0 0h18.002A3.006 3.006 0 0 0 24 21.003V1a1 1 0 0 0-1-1H5m1 21V2h16v18.998A1.006 1.006 0 0 1 20.998 22H5.827A3.02 3.02 0 0 0 6 21.003V21Z"/></svg>