<svg width="24" height="24" viewBox="0 0 24 24" xmlns="http://www.w3.org/2000/svg"><g clip-path="url(#a)"><path fill-rule="evenodd" clip-rule="evenodd" d="M1 0a1 1 0 0 1 1 1v22a1 1 0 1 1-2 0V1a1 1 0 0 1 1-1Zm22 0a1 1 0 0 1 1 1v22a1 1 0 1 1-2 0V1a1 1 0 0 1 1-1Zm-7 0c-.552 0-1 .302-1 1v22c0 .698.448 1 1 1h3c.552 0 1-.302 1-1V1c0-.698-.448-1-1-1h-3Zm1 21.474V2.526h1v18.948h-1ZM4 1c0-.698.448-1 1-1h3c.552 0 1 .302 1 1v22c0 .698-.448 1-1 1H5c-.552 0-1-.302-1-1V1Zm2 1.526v18.948h1V2.526H6ZM13 1a1 1 0 1 0-2 0v22a1 1 0 1 0 2 0V1Z"/></g><defs><clipPath id="a"><path fill="#fff" d="M0 0h24v24H0z"/></clipPath></defs></svg>