<svg width="24" height="24" viewBox="0 0 24 24" xmlns="http://www.w3.org/2000/svg">
<g id="scatter-chart-duotone">
<path id="Vector" opacity="0.5" d="M7.25 18.2C7.6768 18.2 8.09941 18.1159 8.49372 17.9526C8.88803 17.7893 9.24631 17.5499 9.5481 17.2481C9.84989 16.9463 10.0893 16.588 10.2526 16.1937C10.4159 15.7994 10.5 15.3768 10.5 14.95C10.5 14.5232 10.4159 14.1006 10.2526 13.7063C10.0893 13.312 9.84989 12.9537 9.5481 12.6519C9.24631 12.3501 8.88803 12.1107 8.49372 11.9474C8.09941 11.7841 7.6768 11.7 7.25 11.7C6.38805 11.7 5.5614 12.0424 4.9519 12.6519C4.34241 13.2614 4 14.0881 4 14.95C4 15.812 4.34241 16.6386 4.9519 17.2481C5.5614 17.8576 6.38805 18.2 7.25 18.2Z" stroke="currentColor" stroke-width="2" stroke-linecap="round" stroke-linejoin="round" fill="transparent"/>
<path id="Vector_2" d="M11.55 9.5C12.412 9.5 13.2387 9.15759 13.8481 8.5481C14.4576 7.9386 14.8 7.11195 14.8 6.25C14.8 5.38805 14.4576 4.5614 13.8481 3.9519C13.2387 3.34241 12.412 3 11.55 3C10.6881 3 9.86144 3.34241 9.25195 3.9519C8.64246 4.5614 8.30005 5.38805 8.30005 6.25C8.30005 7.11195 8.64246 7.9386 9.25195 8.5481C9.86144 9.15759 10.6881 9.5 11.55 9.5Z" stroke="currentColor" stroke-width="2" stroke-linecap="round" stroke-linejoin="round" fill="transparent"/>
<path id="Vector_3" d="M17.8501 22.1C18.7121 22.1 19.5387 21.7576 20.1482 21.1481C20.7577 20.5386 21.1001 19.712 21.1001 18.85C21.1001 17.9881 20.7577 17.1614 20.1482 16.5519C19.5387 15.9424 18.7121 15.6 17.8501 15.6C16.9881 15.6 16.1615 15.9424 15.552 16.5519C14.9425 17.1614 14.6001 17.9881 14.6001 18.85C14.6001 19.712 14.9425 20.5386 15.552 21.1481C16.1615 21.7576 16.9881 22.1 17.8501 22.1Z" stroke="currentColor" stroke-width="2" stroke-linecap="round" stroke-linejoin="round" fill="transparent"/>
</g>
</svg>
