<svg width="24" height="24" viewBox="0 0 24 24" xmlns="http://www.w3.org/2000/svg"><path fill-rule="evenodd" clip-rule="evenodd" d="M7.5 12a1.5 1.5 0 1 0 0-3 1.5 1.5 0 0 0 0 3Zm9 0a1.5 1.5 0 1 0 0-3 1.5 1.5 0 0 0 0 3ZM8 15a1 1 0 1 0 0 2h8a1 1 0 1 0 0-2H8Z"/><path opacity=".5" fill-rule="evenodd" clip-rule="evenodd" d="M21.834.61a1 1 0 0 1 .857 1.124l-.8 5.9a1 1 0 0 1-1.123.857l-6-.8a1 1 0 1 1 .264-1.982l3.872.516C17.276 4.242 14.784 3 12 3c-4.948 0-9 4.052-9 9a1 1 0 1 1-2 0C1 5.948 5.948 1 12 1c3.288 0 6.262 1.425 8.265 3.737l.444-3.271a1 1 0 0 1 1.125-.857ZM22 11a1 1 0 0 1 1 1c0 1.146-.178 2.254-.507 3.295a1 1 0 0 1-1.907-.602A8.92 8.92 0 0 0 21 12a1 1 0 0 1 1-1ZM2.664 15.6A1 1 0 0 1 4 16.063c.382.789.88 1.508 1.47 2.139a1 1 0 0 1-1.46 1.366 10.66 10.66 0 0 1-1.81-2.632 1 1 0 0 1 .464-1.336Zm17.17 2.676a1 1 0 0 1 .014 1.414 11.091 11.091 0 0 1-2.962 2.159 1 1 0 0 1-.894-1.79 9.091 9.091 0 0 0 2.428-1.769 1 1 0 0 1 1.414-.014ZM7.61 21.054a1 1 0 0 1 1.281-.598c.9.328 1.87.517 2.883.541a1 1 0 1 1-.048 2 11.042 11.042 0 0 1-3.52-.661 1 1 0 0 1-.596-1.282Z"/></svg>