<svg width="24" height="24" viewBox="0 0 24 24" xmlns="http://www.w3.org/2000/svg"><path fill-rule="evenodd" clip-rule="evenodd" d="M19.085 3.328a1.122 1.122 0 0 1 1.586 1.586l-7.194 7.195a4.217 4.217 0 0 0-1.58-1.583l7.188-7.198Zm-9.346 8.647a.994.994 0 0 0 .406.024 2.213 2.213 0 0 1 1.86 1.893c-.011.11-.005.224.02.333a2.212 2.212 0 0 1-.665 1.546l-.007.006c-.138.138-.48.332-1.077.522-.561.18-1.226.32-1.88.427a24.71 24.71 0 0 1-1.297.175c.042-.384.099-.832.175-1.297.106-.654.247-1.319.427-1.88.19-.596.384-.939.522-1.077l.006-.007a2.213 2.213 0 0 1 1.51-.665ZM9.617 9.98l8.053-8.065a3.124 3.124 0 0 1 4.415 0 3.124 3.124 0 0 1 0 4.414l-8.064 8.065a4.213 4.213 0 0 1-1.26 2.805c-.491.487-1.218.796-1.875 1.006-.692.222-1.464.381-2.167.496a27.742 27.742 0 0 1-2.603.295l-.044.002-.013.001h-.004L6 18l-.999-.054v-.006l.001-.012.003-.044.011-.164a27.784 27.784 0 0 1 .284-2.439c.115-.703.274-1.475.496-2.167.21-.657.519-1.384 1.006-1.875a4.213 4.213 0 0 1 2.815-1.26ZM5 17.946 6 18c.054.999.055.998.055.998A1.001 1.001 0 0 1 5 17.947Z"/><path opacity=".5" fill-rule="evenodd" clip-rule="evenodd" d="M1 2a1 1 0 0 1 1-1h10a1 1 0 1 1 0 2H3v18h18v-9a1 1 0 1 1 2 0v10a1 1 0 0 1-1 1H2a1 1 0 0 1-1-1V2Z"/></svg>