<svg width="24" height="24" viewBox="0 0 24 24" xmlns="http://www.w3.org/2000/svg"><path opacity=".5" fill-rule="evenodd" clip-rule="evenodd" d="M12 0a1 1 0 0 1 1 1v1a1 1 0 1 1-2 0V1a1 1 0 0 1 1-1ZM4.907 3.493a1 1 0 1 0-1.414 1.414l.7.7a1 1 0 0 0 1.414-1.414l-.7-.7ZM1 11a1 1 0 1 0 0 2h1a1 1 0 1 0 0-2H1Zm19.507-6.093a1 1 0 0 0-1.414-1.414l-.7.7a1 1 0 0 0 1.414 1.414l.7-.7ZM21 12a1 1 0 0 1 1-1h1a1 1 0 1 1 0 2h-1a1 1 0 0 1-1-1Zm-1.193 6.393a1 1 0 0 0-1.414 1.414l.7.7a1 1 0 0 0 1.414-1.414l-.7-.7ZM12 21a1 1 0 0 1 1 1v1a1 1 0 1 1-2 0v-1a1 1 0 0 1 1-1Zm-6.393-1.193a1 1 0 1 0-1.414-1.414l-.7.7a1 1 0 1 0 1.414 1.414l.7-.7Z"/><path fill-rule="evenodd" clip-rule="evenodd" d="M12 7a5 5 0 1 0 0 10 5 5 0 0 0 0-10Zm-7 5a7 7 0 1 1 14 0 7 7 0 0 1-14 0Z"/></svg>