<svg width="24" height="24" viewBox="0 0 24 24" xmlns="http://www.w3.org/2000/svg"><path d="m5.543 16.728.762-2.324H9.55l.762 2.324h2.043L9.11 7.691H6.86L3.6 16.728h1.943Zm2.435-7.31 1.189 3.655H6.704L7.892 9.42h.086Zm8.293.192c-1.716 0-2.84 1.153-2.84 3.08v1.046c0 1.926 1.11 3.078 2.819 3.078 1.096 0 1.979-.496 2.214-1.212h.092v1.126H20.4V7.214h-1.88v3.555h-.085c-.292-.715-1.103-1.158-2.164-1.158Zm.627 1.391c.94 0 1.622.662 1.622 1.715v.907c0 1.145-.64 1.807-1.594 1.807-.968 0-1.573-.675-1.573-1.88v-.682c0-1.198.598-1.867 1.545-1.867Z" opacity=".5"/><path fill-rule="evenodd" clip-rule="evenodd" d="M22.53 2.53a.75.75 0 0 0-1.06-1.06l-1.973 1.973H2.4a2.4 2.4 0 0 0-2.4 2.4v12.171a2.4 2.4 0 0 0 2.4 2.4h.125L1.47 21.47a.75.75 0 1 0 1.06 1.06l20-20ZM4.025 18.914 17.997 4.943H2.4a.9.9 0 0 0-.9.9v12.171a.9.9 0 0 0 .9.9h1.625Zm3.92 0H21.6a.9.9 0 0 0 .9-.9V5.843a.9.9 0 0 0-.654-.866l1.111-1.114A2.397 2.397 0 0 1 24 5.843v12.171a2.4 2.4 0 0 1-2.4 2.4H6.448l1.497-1.5Z"/></svg>