<svg width="24" height="24" viewBox="0 0 24 24" xmlns="http://www.w3.org/2000/svg"><g clip-path="url(#a)"><path fill-rule="evenodd" clip-rule="evenodd" d="M17 12a1 1 0 0 1 1-1h1a1 1 0 1 1 0 2h-1a1 1 0 0 1-1-1ZM4 8a1 1 0 0 1 1-1h1a1 1 0 0 1 0 2H5a1 1 0 0 1-1-1Zm5 0a1 1 0 0 1 1-1h1a1 1 0 1 1 0 2h-1a1 1 0 0 1-1-1Z"/><path opacity=".5" fill-rule="evenodd" clip-rule="evenodd" d="M17.005 5.007a1 1 0 0 1 1.093-.897 22.19 22.19 0 0 1 5.236 1.168 1 1 0 0 1 .666.943V16a8.003 8.003 0 0 1-9.046 7.925 8 8 0 0 1-4.097-1.803 1 1 0 1 1 1.286-1.532A6 6 0 0 0 22 16V6.94a20.189 20.189 0 0 0-4.098-.84 1 1 0 0 1-.897-1.093Z"/><path opacity=".5" fill-rule="evenodd" clip-rule="evenodd" d="M2 2.937V12a6 6 0 1 0 12 0V2.937a19.676 19.676 0 0 0-12 0ZM.661 1.28a21.676 21.676 0 0 1 14.678 0 1 1 0 0 1 .661.941V12a8 8 0 0 1-16 0V2.221a1 1 0 0 1 .661-.94Z"/><path d="M11 13a3 3 0 0 1-6 0h6Z"/><path fill-rule="evenodd" clip-rule="evenodd" d="M15.999 17a3.992 3.992 0 0 1 2.83 1.173 1 1 0 1 1-1.416 1.412A1.991 1.991 0 0 0 16 19a1 1 0 1 1-.002-2Z"/></g><defs><clipPath id="a"><path fill="#fff" d="M0 0h24v24H0z"/></clipPath></defs></svg>