<svg width="24" height="24" viewBox="0 0 24 24" xmlns="http://www.w3.org/2000/svg"><g clip-path="url(#a)" fill-rule="evenodd" clip-rule="evenodd"><path opacity=".5" d="M0 12a1 1 0 0 1 1-1h5a1 1 0 1 1 0 2H2v9h4a1 1 0 1 1 0 2H1a1 1 0 0 1-1-1V12Z"/><path d="M8.035.737A1 1 0 0 1 9 0a4 4 0 0 1 4 4v5h6.5a4 4 0 0 1 3.953 4.608l-1.077 7A4 4 0 0 1 18.427 24H6a1 1 0 0 1-1-1V12a1 1 0 0 1 .035-.263l3-11Zm1.692 1.4L7 12.134V22h11.425a2 2 0 0 0 1.975-1.696l1.077-7A2 2 0 0 0 19.5 11H12a1 1 0 0 1-1-1V4a2 2 0 0 0-1.273-1.863Z"/></g><defs><clipPath id="a"><path fill="#fff" d="M0 0h24v24H0z"/></clipPath></defs></svg>