<svg width="24" height="24" viewBox="0 0 24 24" xmlns="http://www.w3.org/2000/svg"><path fill-rule="evenodd" clip-rule="evenodd" d="M17.717 3.357a1 1 0 0 1-.386 1.36L4.495 11.881a1 1 0 1 1-.974-1.746L16.357 2.97a1 1 0 0 1 1.36.386Zm2.926 2.926a1 1 0 0 1 .386 1.36L13.865 20.48a1 1 0 0 1-1.746-.974L19.283 6.67a1 1 0 0 1 1.36-.386Z"/><path fill-rule="evenodd" clip-rule="evenodd" d="M14.293 1.293a1 1 0 0 1 1.414 0l7 7a1 1 0 0 1-1.414 1.414l-7-7a1 1 0 0 1 0-1.414Z"/><path opacity=".5" fill-rule="evenodd" clip-rule="evenodd" d="M9.207 14.793a1 1 0 0 1 0 1.414l-6.5 6.5a1 1 0 0 1-1.414-1.414l6.5-6.5a1 1 0 0 1 1.414 0Z"/><path fill-rule="evenodd" clip-rule="evenodd" d="M1.293 8.293a1 1 0 0 1 1.414 0l13 13a1 1 0 0 1-1.414 1.414l-13-13a1 1 0 0 1 0-1.414Z"/></svg>