<svg width="24" height="24" viewBox="0 0 24 24" xmlns="http://www.w3.org/2000/svg"><path fill-rule="evenodd" clip-rule="evenodd" d="M4 8a1 1 0 0 1 1 1v12a1 1 0 0 0 1 1h12a1 1 0 0 0 1-1V9a1 1 0 1 1 2 0v12a3 3 0 0 1-3 3H6a3 3 0 0 1-3-3V9a1 1 0 0 1 1-1Z"/><path opacity=".5" fill-rule="evenodd" clip-rule="evenodd" d="M12 11a1 1 0 0 1 1 1v6a1 1 0 1 1-2 0v-6a1 1 0 0 1 1-1Zm-4 0a1 1 0 0 1 1 1v6a1 1 0 1 1-2 0v-6a1 1 0 0 1 1-1Zm8 0a1 1 0 0 1 1 1v6a1 1 0 1 1-2 0v-6a1 1 0 0 1 1-1Z"/><path fill-rule="evenodd" clip-rule="evenodd" d="M8 0a1 1 0 0 0-1 1v3H1a1 1 0 0 0 0 2h22a1 1 0 1 0 0-2h-6V1a1 1 0 0 0-1-1H8Zm7 4V2H9v2h6Z"/></svg>