<svg width="24" height="24" viewBox="0 0 24 24" xmlns="http://www.w3.org/2000/svg"><g clip-path="url(#a)" fill-rule="evenodd" clip-rule="evenodd"><path opacity=".5" d="M12.002 1.997a1.093 1.093 0 0 0-.966.582l-8.908 16.84a1.083 1.083 0 0 0 .032 1.062c.097.159.233.29.396.381.195.11.198.11.214.116h.001c.005.002.07.022.321.022h17.822a1.078 1.078 0 0 0 .962-1.58L12.968 2.578a1.093 1.093 0 0 0-.966-.582ZM10.406.44a3.093 3.093 0 0 1 4.33 1.203l8.91 16.844A3.078 3.078 0 0 1 20.905 23H3.092c-.338 0-.63-.024-.913-.112a2.766 2.766 0 0 1-.556-.255l-.045-.025a3.08 3.08 0 0 1-1.22-4.12l.001-.003L9.27 1.643A3.094 3.094 0 0 1 10.405.44Z"/><path d="M13 8a1 1 0 1 0-2 0v6a1 1 0 1 0 2 0V8Zm.5 9.5a1.5 1.5 0 1 1-3 0 1.5 1.5 0 0 1 3 0Z"/></g><defs><clipPath id="a"><path fill="#fff" d="M0 0h24v24H0z"/></clipPath></defs></svg>