<svg width="24" height="24" viewBox="0 0 24 24" xmlns="http://www.w3.org/2000/svg"><path opacity=".5" fill-rule="evenodd" clip-rule="evenodd" d="M14.176 3.57A2.498 2.498 0 0 1 16.5 2 2.5 2.5 0 0 1 19 4.5v1A2.5 2.5 0 0 1 16.5 8c-.392 0-.735-.084-1.063-.243a1 1 0 0 0-.874 1.798A4.366 4.366 0 0 0 16.5 10a4.482 4.482 0 0 0 2.885-1.047l2.154 1.293c.286.17.461.48.461.814V14h-5.333a1 1 0 1 0 0 2H23a1 1 0 0 0 1-1v-3.94a2.949 2.949 0 0 0-1.433-2.53l-1.965-1.178A4.485 4.485 0 0 0 21 5.5v-1A4.5 4.5 0 0 0 16.5 0a4.498 4.498 0 0 0-4.18 2.828 1 1 0 0 0 1.856.742Z"/><path fill-rule="evenodd" clip-rule="evenodd" d="M6 7a4 4 0 0 1 8 0v2a4 4 0 0 1-8 0V7Zm4-6a6 6 0 0 0-6 6v2c0 1.387.47 2.664 1.262 3.68l-3.465 2.076A3.698 3.698 0 0 0 0 17.93V22a1 1 0 0 0 1 1h18a1 1 0 0 0 1-1v-4.071c0-1.3-.683-2.504-1.797-3.173l-3.464-2.075A5.974 5.974 0 0 0 16 9V7a6 6 0 0 0-6-6Zm3.188 13.084A5.971 5.971 0 0 1 10 15a5.972 5.972 0 0 1-3.188-.916l-3.987 2.388A1.7 1.7 0 0 0 2 17.929V21h16v-3.071a1.7 1.7 0 0 0-.826-1.458l-3.986-2.387Z"/></svg>