<svg width="24" height="24" viewBox="0 0 24 24" xmlns="http://www.w3.org/2000/svg"><g clip-path="url(#a)"><path fill-rule="evenodd" clip-rule="evenodd" d="M3 2c-.42 0-1 .446-1 1.316v17.368C2 21.554 2.58 22 3 22h18c.42 0 1-.446 1-1.316V3.316C22 2.446 21.42 2 21 2H3ZM0 3.316C0 1.627 1.21 0 3 0h18c1.79 0 3 1.627 3 3.316v17.368C24 22.373 22.79 24 21 24H3c-1.79 0-3-1.627-3-3.316V3.316Z"/><path opacity=".5" d="M17.144 8.572h-1.132l.263-1.573a.857.857 0 1 0-1.69-.282l-.31 1.856H10.87L11.132 7a.857.857 0 1 0-1.69-.282l-.31 1.855H7.715a.857.857 0 1 0 0 1.715h1.132l-.572 3.429H6.858a.857.857 0 1 0 0 1.714H7.99l-.263 1.573a.857.857 0 0 0 1.69.283l.31-1.856h3.405l-.262 1.573a.857.857 0 0 0 1.69.283l.31-1.856h1.417a.857.857 0 1 0 0-1.714h-1.132l.572-3.43h1.417a.857.857 0 1 0 0-1.714v-.001Zm-3.726 5.143h-3.405l.571-3.429h3.405l-.572 3.429Z"/></g><defs><clipPath id="a"><path fill="#fff" d="M0 0h24v24H0z"/></clipPath></defs></svg>