<svg width="24" height="24" viewBox="0 0 24 24" xmlns="http://www.w3.org/2000/svg"><path d="M20.571 6.285h-1.886l.438-2.621a1.428 1.428 0 1 0-2.818-.47l-.515 3.092h-5.675l.437-2.62a1.428 1.428 0 1 0-2.817-.47l-.516 3.092H4.857a1.428 1.428 0 1 0 0 2.857h1.886l-.953 5.713H3.43a1.428 1.428 0 1 0 0 2.857h1.886l-.438 2.62a1.428 1.428 0 0 0 2.818.472l.515-3.092h5.675l-.437 2.62a1.428 1.428 0 0 0 2.817.472l.516-3.092h2.362a1.428 1.428 0 1 0 0-2.857h-1.886l.953-5.713h2.361a1.428 1.428 0 1 0 0-2.857v-.003Zm-6.21 8.57H8.686l.953-5.713h5.675l-.953 5.713Z"/></svg>