<svg width="24" height="24" viewBox="0 0 24 24" xmlns="http://www.w3.org/2000/svg"><g clip-path="url(#a)"><path fill-rule="evenodd" clip-rule="evenodd" d="M.133 11.962c.148.24.395.41.687.485.09.026.202.04.31.04.363 0 .897-.168 1.085-.694.352-.98.974-2.2 1.757-3.169.792-.981 1.7-1.648 2.616-1.648.998 0 1.805.649 2.517 1.684.71 1.031 1.284 2.385 1.831 3.682l.004.008c.641 1.519 1.34 3.173 2.325 4.446C14.26 18.08 15.563 19 17.412 19c2.131 0 3.716-1.436 4.776-2.889a14.087 14.087 0 0 0 1.759-3.314.87.87 0 0 0-.078-.757l-.001-.002a1.118 1.118 0 0 0-.69-.486 1.159 1.159 0 0 0-.303-.038c-.365 0-.902.167-1.09.693-.352.98-.974 2.2-1.757 3.169-.792.981-1.7 1.648-2.616 1.648-.998 0-1.805-.649-2.517-1.684-.71-1.031-1.284-2.385-1.831-3.682l-.004-.008c-.641-1.519-1.34-3.173-2.325-4.446C9.741 5.92 8.437 5 6.588 5c-2.13 0-3.715 1.436-4.775 2.888a14.158 14.158 0 0 0-1.76 3.314.87.87 0 0 0 .08.76Z"/></g><defs><clipPath id="a"><path fill="#fff" d="M0 0h24v24H0z"/></clipPath></defs></svg>