<svg width="24" height="24" viewBox="0 0 24 24" fill="none" xmlns="http://www.w3.org/2000/svg">
<path fill-rule="evenodd" clip-rule="evenodd" d="M1.29289 1.29289C1.68342 0.902369 2.31658 0.902369 2.70711 1.29289L22.2071 20.7929C22.5976 21.1834 22.5976 21.8166 22.2071 22.2071C21.8166 22.5976 21.1834 22.5976 20.7929 22.2071L1.29289 2.70711C0.902369 2.31658 0.902369 1.68342 1.29289 1.29289Z" fill="black"/>
<path fill-rule="evenodd" clip-rule="evenodd" d="M22 11C22.5523 11 23 11.4477 23 12V22C23 22.5523 22.5523 23 22 23H12C11.4477 23 11 22.5523 11 22C11 21.4477 11.4477 21 12 21H21V12C21 11.4477 21.4477 11 22 11Z" fill="black"/>
</svg>
