<svg width="24" height="24" viewBox="0 0 24 24" xmlns="http://www.w3.org/2000/svg"><path fill-rule="evenodd" clip-rule="evenodd" d="M21.831 1.192a1 1 0 0 1 .443.625l1.459 6.404a1 1 0 0 1-.753 1.197l-7.858 1.791a1 1 0 0 1-.444-1.95L21.56 7.69l-1.015-4.454L5.67 6.626l1.016 4.454 2.146-.489a1 1 0 1 1 .444 1.95l-3.121.711a1 1 0 0 1-1.197-.753l-1.46-6.404a1 1 0 0 1 .753-1.197l16.826-3.834a1 1 0 0 1 .754.128ZM1.02 7.039a1 1 0 0 1 1.197.753l.889 3.9a1 1 0 1 1-1.95.445l-.89-3.9a1 1 0 0 1 .754-1.198Z"/><path fill-rule="evenodd" clip-rule="evenodd" d="M12 9a2 2 0 1 0 0 4 2 2 0 0 0 0-4Zm-4 2a4 4 0 1 1 8 0 4 4 0 0 1-8 0Z"/><path fill-rule="evenodd" clip-rule="evenodd" d="M11.045 12.752a1 1 0 0 1 .399 1.357l-4.566 8.37a1 1 0 0 1-1.756-.958l4.566-8.37a1 1 0 0 1 1.357-.399Zm1.91 0a1 1 0 0 1 1.357.4l4.566 8.37a1 1 0 1 1-1.756.957l-4.566-8.37a1 1 0 0 1 .4-1.357Z"/></svg>