<svg width="24" height="24" viewBox="0 0 24 24" xmlns="http://www.w3.org/2000/svg"><path d="M20.182 16.286v-4.762a.976.976 0 0 0-.266-.674.889.889 0 0 0-.643-.279H4.727c-.24 0-.472.1-.643.28a.976.976 0 0 0-.266.673v4.762M22 17.238a.976.976 0 0 0-.266-.673.889.889 0 0 0-.643-.28H2.909a.89.89 0 0 0-.643.28.976.976 0 0 0-.266.673V22h20v-4.762ZM12 7.714c.482 0 .945-.2 1.286-.558.34-.357.532-.841.532-1.346C13.818 4.762 12 2 12 2s-1.818 2.762-1.818 3.81c0 .505.191.99.532 1.346.341.358.804.558 1.286.558Z" stroke="currentColor" stroke-width="1.9" stroke-miterlimit="10" fill="transparent"/></svg>