<svg width="24" height="24" viewBox="0 0 24 24" xmlns="http://www.w3.org/2000/svg"><g clip-path="url(#a)" fill-rule="evenodd" clip-rule="evenodd"><path d="M10.08 6.003a1 1 0 0 1 .848.626l3.252 8.128 1.962-3.271A1 1 0 0 1 17 11h6a1 1 0 1 1 0 2h-5.434l-2.708 4.515a1 1 0 0 1-1.787-.144l-3.25-8.128-1.964 3.271A1 1 0 0 1 7 13H1a1 1 0 1 1 0-2h5.434l2.709-4.514a1 1 0 0 1 .937-.483Z"/><path d="M12 2C6.477 2 2 6.477 2 12s4.477 10 10 10 10-4.477 10-10S17.523 2 12 2ZM0 12C0 5.373 5.373 0 12 0s12 5.373 12 12-5.373 12-12 12S0 18.627 0 12Z"/></g><defs><clipPath id="a"><path fill="#fff" d="M0 0h24v24H0z"/></clipPath></defs></svg>