<svg width="24" height="24" viewBox="0 0 24 24" xmlns="http://www.w3.org/2000/svg"><g clip-path="url(#a)" fill-rule="evenodd" clip-rule="evenodd"><path d="M12 2C6.477 2 2 6.477 2 12s4.477 10 10 10 10-4.477 10-10S17.523 2 12 2ZM0 12C0 5.373 5.373 0 12 0s12 5.373 12 12-5.373 12-12 12S0 18.627 0 12Z"/><path d="M10.257 7.475c.845-.374 1.81-.533 2.625-.456.84.079 1.332.38 1.537.712.497.803.3 1.922-1.024 3.045C11.913 12.032 11 12.993 11 14.5a1 1 0 1 0 2 0c0-.493.17-.912 1.688-2.198 1.674-1.419 2.687-3.594 1.433-5.623-.67-1.084-1.897-1.543-3.052-1.651-1.178-.11-2.485.116-3.62.617a1 1 0 0 0 .808 1.83ZM13 18a1 1 0 1 1-2 0 1 1 0 0 1 2 0Z"/></g><defs><clipPath id="a"><path fill="#fff" d="M0 0h24v24H0z"/></clipPath></defs></svg>