<svg width="24" height="24" viewBox="0 0 24 24" xmlns="http://www.w3.org/2000/svg"><g clip-path="url(#a)" fill-rule="evenodd" clip-rule="evenodd"><path d="M1 12a1 1 0 0 1 1 1v6a1 1 0 0 0 1 1h18a1 1 0 0 0 1-1v-6a1 1 0 1 1 2 0v6a3 3 0 0 1-3 3H3a3 3 0 0 1-3-3v-6a1 1 0 0 1 1-1Z"/><path d="M.879 2.879A3 3 0 0 1 3 2h18a3 3 0 0 1 3 3v3a1 1 0 0 1-.521.878l-11 6a1 1 0 0 1-.958 0l-11-6A1 1 0 0 1 0 8V5a3 3 0 0 1 .879-2.121ZM3 4a1 1 0 0 0-1 1v2.406l10 5.455 10-5.455V5a1 1 0 0 0-1-1H3Z"/></g><defs><clipPath id="a"><path fill="#fff" d="M0 0h24v24H0z"/></clipPath></defs></svg>