<svg width="24" height="24" viewBox="0 0 24 24" xmlns="http://www.w3.org/2000/svg"><g clip-path="url(#a)"><path fill-rule="evenodd" clip-rule="evenodd" d="M3 2c-.42 0-1 .446-1 1.316v17.368C2 21.554 2.58 22 3 22h18c.42 0 1-.446 1-1.316V3.316C22 2.446 21.42 2 21 2H3ZM0 3.316C0 1.627 1.21 0 3 0h18c1.79 0 3 1.627 3 3.316v17.368C24 22.373 22.79 24 21 24H3c-1.79 0-3-1.627-3-3.316V3.316Z"/><path d="M17.143 8.571H16.01l.263-1.573a.857.857 0 1 0-1.69-.282l-.31 1.856h-3.405L11.13 7a.857.857 0 1 0-1.69-.282l-.31 1.856H7.714a.857.857 0 1 0 0 1.715h1.132l-.572 3.428H6.857a.857.857 0 1 0 0 1.715H7.99l-.263 1.573a.857.857 0 0 0 1.69.283l.31-1.856h3.405l-.262 1.573a.857.857 0 0 0 1.69.283l.31-1.856h1.417a.857.857 0 1 0 0-1.715h-1.132l.572-3.428h1.417a.857.857 0 1 0 0-1.715v-.002Zm-3.727 5.144h-3.404l.572-3.43h3.404l-.572 3.43Z"/></g><defs><clipPath id="a"><path fill="#fff" d="M0 0h24v24H0z"/></clipPath></defs></svg>