<svg width="24" height="24" viewBox="0 0 24 24" xmlns="http://www.w3.org/2000/svg"><path d="M3 2h18a2 2 0 0 1 2 2v11a2 2 0 0 1-2 2h-8l-7 5v-5H3a2 2 0 0 1-2-2V4a2 2 0 0 1 2-2Z" stroke="currentColor" stroke-width="2" stroke-linecap="round" stroke-linejoin="round" fill="transparent"/><g clip-path="url(#a)"><path fill="currentColor" d="m16.465 7.399-2.697-.392-1.207-2.444c-.212-.427-.91-.427-1.122 0l-1.206 2.444-2.698.392a.626.626 0 0 0-.346 1.067l1.952 1.902-.46 2.687c-.087.509.448.9.907.659L12 12.446l2.413 1.268a.626.626 0 0 0 .907-.658l-.46-2.687 1.952-1.903a.627.627 0 0 0-.347-1.067Z"/></g><defs><clipPath id="a"><path fill="#fff" transform="translate(7 4)" d="M0 0h10v10H0z"/></clipPath></defs></svg>