<svg width="24" height="24" viewBox="0 0 24 24" fill="none" xmlns="http://www.w3.org/2000/svg">
<path fill-rule="evenodd" clip-rule="evenodd" d="M2 0H3H15H15.4142L15.7071 0.292893L21.7071 6.29289L22 6.58579V7V23V24H21H3H2V23V1V0ZM4 2V22H20V8H15C14.4477 8 14 7.55228 14 7V2H4Z" fill="black"/>
<path fill-rule="evenodd" clip-rule="evenodd" d="M6 7C6 6.44772 6.44772 6 7 6H11C11.5523 6 12 6.44772 12 7C12 7.55228 11.5523 8 11 8H7C6.44772 8 6 7.55228 6 7ZM6 12C6 11.4477 6.44772 11 7 11H17C17.5523 11 18 11.4477 18 12C18 12.5523 17.5523 13 17 13H7C6.44772 13 6 12.5523 6 12ZM7 16C6.44772 16 6 16.4477 6 17C6 17.5523 6.44772 18 7 18H17C17.5523 18 18 17.5523 18 17C18 16.4477 17.5523 16 17 16H7Z" fill="black"/>
</svg>
