<svg width="24" height="24" viewBox="0 0 24 24" xmlns="http://www.w3.org/2000/svg"><path fill-rule="evenodd" clip-rule="evenodd" d="M2 0h13.414l.293.293 6 6 .293.293V24H2V0Zm2 2v20h16V8h-5a1 1 0 0 1-1-1V2H4Z"/><path d="M12.65 13.569c.14-.187.375-.3.627-.3.253 0 .49.11.58.3l4.017 5.385a.615.615 0 0 1 .037.69.77.77 0 0 1-.664.356H6.703a.74.74 0 0 1-.614-.356.615.615 0 0 1 .037-.69l2.511-3.366a.78.78 0 0 1 .627-.3.82.82 0 0 1 .355.08c.109.053.202.13.27.222l.628.843 2.133-2.864Zm-2.348-2.03c0 .849-.77 1.538-1.721 1.538-.953 0-1.722-.688-1.722-1.538 0-.851.77-1.539 1.722-1.539s1.721.689 1.721 1.539Z"/></svg>