<svg width="24" height="24" viewBox="0 0 24 24" fill="none" xmlns="http://www.w3.org/2000/svg">
<g clip-path="url(#clip0_1150_5589)">
<path fill-rule="evenodd" clip-rule="evenodd" d="M12 2C6.47715 2 2 6.47715 2 12C2 17.5228 6.47715 22 12 22C17.5228 22 22 17.5228 22 12C22 6.47715 17.5228 2 12 2ZM0 12C0 5.37258 5.37258 0 12 0C18.6274 0 24 5.37258 24 12C24 18.6274 18.6274 24 12 24C5.37258 24 0 18.6274 0 12Z" fill="black"/>
<path fill-rule="evenodd" clip-rule="evenodd" d="M7.5 12C8.32843 12 9 11.3284 9 10.5C9 9.67157 8.32843 9 7.5 9C6.67157 9 6 9.67157 6 10.5C6 11.3284 6.67157 12 7.5 12ZM16.5 12C17.3284 12 18 11.3284 18 10.5C18 9.67157 17.3284 9 16.5 9C15.6716 9 15 9.67157 15 10.5C15 11.3284 15.6716 12 16.5 12ZM10.5858 16.5858C10.9609 16.2107 11.4696 16 12 16C12.5304 16 13.0391 16.2107 13.4142 16.5858C13.7893 16.9609 14 17.4696 14 18C14 18.5523 14.4477 19 15 19C15.5523 19 16 18.5523 16 18C16 16.9391 15.5786 15.9217 14.8284 15.1716C14.0783 14.4214 13.0609 14 12 14C10.9391 14 9.92172 14.4214 9.17157 15.1716C8.42143 15.9217 8 16.9391 8 18C8 18.5523 8.44772 19 9 19C9.55228 19 10 18.5523 10 18C10 17.4696 10.2107 16.9609 10.5858 16.5858Z" fill="black"/>
</g>
<defs>
<clipPath id="clip0_1150_5589">
<rect width="24" height="24" fill="white"/>
</clipPath>
</defs>
</svg>
