<svg width="24" height="24" viewBox="0 0 24 24" xmlns="http://www.w3.org/2000/svg"><g clip-path="url(#a)" fill-rule="evenodd" clip-rule="evenodd"><path d="M4.06 2.658A1 1 0 0 1 5 2h3a1 1 0 0 1 0 2H5.7l-3.272 9H10a1 1 0 0 1 1 1v5c0 1.652-1.348 3-3 3H3c-1.652 0-3-1.348-3-3v-5c0-.128.024-.25.068-.364L4.06 2.659ZM2 15v4c0 .548.452 1 1 1h5c.548 0 1-.452 1-1v-4H2ZM15 3a1 1 0 0 1 1-1h3a1 1 0 0 1 .94.658l3.992 10.979A.997.997 0 0 1 24 14v5c0 1.652-1.348 3-3 3h-5c-1.652 0-3-1.348-3-3v-5a1 1 0 0 1 1-1h7.572L18.3 4H16a1 1 0 0 1-1-1Zm7 12h-7v4c0 .548.452 1 1 1h5c.548 0 1-.452 1-1v-4Z"/><path d="M9 14a1 1 0 0 1 1-1h4a1 1 0 1 1 0 2h-4a1 1 0 0 1-1-1Z"/></g><defs><clipPath id="a"><path fill="#fff" d="M0 0h24v24H0z"/></clipPath></defs></svg>