<svg width="24" height="24" viewBox="0 0 24 24" xmlns="http://www.w3.org/2000/svg"><g clip-path="url(#a)" fill-rule="evenodd" clip-rule="evenodd"><path d="M0 1a1 1 0 0 1 1-1h9a1 1 0 0 1 1 1v9a1 1 0 0 1-1 1H1a1 1 0 0 1-1-1V1Zm2 1v7h7V2H2Zm22 8a1 1 0 0 1-1 1h-9a1 1 0 0 1-1-1V1a1 1 0 0 1 1-1h9a1 1 0 0 1 1 1v9Zm-2-1V2h-7v7h7ZM0 14a1 1 0 0 1 1-1h9a1 1 0 0 1 1 1v9a1 1 0 0 1-1 1H1a1 1 0 0 1-1-1v-9Zm2 1v7h7v-7H2Zm22 8a1 1 0 0 1-1 1h-9a1 1 0 0 1-1-1v-9a1 1 0 0 1 1-1h9a1 1 0 0 1 1 1v9Zm-2-1v-7h-7v7h7Z"/></g><defs><clipPath id="a"><path fill="#fff" d="M0 0h24v24H0z"/></clipPath></defs></svg>