<svg width="24" height="24" viewBox="0 0 24 24" xmlns="http://www.w3.org/2000/svg"><g clip-path="url(#a)" fill-rule="evenodd" clip-rule="evenodd"><path d="M9.496.04A3.002 3.002 0 0 0 6 3v7H5a3 3 0 0 0-3 3v2.895a7 7 0 0 0 1.534 4.373l2.685 3.357A1 1 0 0 0 7 24h13a1 1 0 0 0 .988-.848l1.556-10.114a4 4 0 0 0-3.237-4.544L12 7.165V3.107C12 1.696 11.033.29 9.496.04ZM8 3c0-.607.54-1.089 1.176-.986.428.07.824.512.824 1.093V8a1 1 0 0 0 .821.984l8.128 1.478a2 2 0 0 1 1.619 2.272L19.142 22H7.481l-2.385-2.982A5.001 5.001 0 0 1 4 15.895V13a1 1 0 0 1 1-1h1v2a1 1 0 1 0 2 0V3Z"/><path d="M13 14a1 1 0 1 0-2 0v5a1 1 0 1 0 2 0v-5Zm4 0a1 1 0 1 0-2 0v5a1 1 0 1 0 2 0v-5Z"/></g><defs><clipPath id="a"><path fill="#fff" d="M0 0h24v24H0z"/></clipPath></defs></svg>