<svg width="24" height="24" viewBox="0 0 24 24" xmlns="http://www.w3.org/2000/svg"><g clip-path="url(#a)"><path fill-rule="evenodd" clip-rule="evenodd" d="M11.636 5.778 7.483 9.931a3 3 0 0 0 3.638-.466l2.172-2.172a1 1 0 1 1 1.414 1.414l-2.172 2.172a5 5 0 0 1-7.07 0l-.172-.172a1 1 0 0 1 0-1.414l4.929-4.93a8.072 8.072 0 0 1 12.636 9.85 1 1 0 1 1-1.716-1.026A6.074 6.074 0 0 0 15.928 4c-1.61 0-3.154.64-4.293 1.778Z"/><path d="M9 2.991A1 1 0 0 1 8.009 4a6.048 6.048 0 0 0-4.23 1.777l-.708-.706.707.707a6.072 6.072 0 0 0 0 8.586l5.686 5.686a5 5 0 0 0 4.147 1.427l-2.435-2.435a1 1 0 1 1 1.414-1.414l3.101 3.1a5 5 0 0 0 .845-.678l.44-.44-3.183-3.184a1 1 0 1 1 1.414-1.414l3.167 3.166a2 2 0 0 0-.202-2.592l-3.613-3.613a1 1 0 0 1 1.414-1.414l3.613 3.613a4 4 0 0 1 0 5.656l-.481.481-.007.007-.007.007-1.14 1.141a6.998 6.998 0 0 1-9.901 0l-5.686-5.686A8.072 8.072 0 0 1 7.99 2 1 1 0 0 1 9 2.991Z"/></g><defs><clipPath id="a"><path fill="#fff" d="M0 0h24v24H0z"/></clipPath></defs></svg>