<svg width="24" height="24" viewBox="0 0 24 24" fill="none" xmlns="http://www.w3.org/2000/svg">
<path fill-rule="evenodd" clip-rule="evenodd" d="M8.34575 4.13776C7.75053 3.98161 7.12858 3.95612 6.52257 4.06303C5.91657 4.16993 5.34088 4.40671 4.83502 4.75709C4.32916 5.10748 3.90512 5.56319 3.59199 6.09292C3.27887 6.62265 3.08408 7.21387 3.021 7.82599C2.95792 8.43811 3.02805 9.05662 3.22657 9.63908C3.42475 10.2206 3.74621 10.7524 4.16894 11.1981L4.17107 11.2003L12 19.3358L19.8289 11.2003L19.831 11.1981C20.2538 10.7524 20.5752 10.2206 20.7734 9.63908C20.9719 9.05662 21.0421 8.43811 20.979 7.82599C20.9159 7.21387 20.7211 6.62265 20.408 6.09292C20.0949 5.56319 19.6708 5.10748 19.165 4.75709C18.6591 4.40671 18.0834 4.16993 17.4774 4.06303C16.8714 3.95612 16.2494 3.98161 15.6542 4.13776C15.059 4.2939 14.5046 4.57699 14.0291 4.96761C13.5537 5.35822 13.1683 5.8471 12.8996 6.40068C12.7323 6.74523 12.383 6.96399 12 6.96399C11.617 6.96399 11.2676 6.74523 11.1004 6.40068C10.8317 5.8471 10.4463 5.35822 9.97084 4.96761C9.49535 4.57699 8.94097 4.2939 8.34575 4.13776ZM20.6212 13.2613L21.2745 12.5824L12.7205 21.4714C12.532 21.6673 12.2719 21.778 12 21.778C11.7281 21.778 11.468 21.6673 11.2794 21.4714L2.72089 12.5777C2.0984 11.9223 1.62511 11.1399 1.3335 10.2843C1.04189 9.4287 0.938881 8.52014 1.03154 7.62098C1.12419 6.72182 1.41032 5.85336 1.87028 5.07522C2.33024 4.29707 2.95314 3.62768 3.69621 3.11298C4.43929 2.59828 5.28494 2.25048 6.17511 2.09344C7.06529 1.9364 7.9789 1.97385 8.85324 2.20321C9.72758 2.43258 10.5419 2.84842 11.2404 3.42221C11.5148 3.64765 11.7688 3.89539 12 4.16241C12.2312 3.89539 12.4852 3.64765 12.7596 3.42221C13.4581 2.84842 14.2724 2.43258 15.1467 2.20321C16.0211 1.97385 16.9347 1.9364 17.8249 2.09344C18.715 2.25048 19.5607 2.59828 20.3038 3.11298C21.0468 3.62768 21.6697 4.29707 22.1297 5.07522C22.5897 5.85336 22.8758 6.72182 22.9684 7.62098C23.0611 8.52014 22.9581 9.4287 22.6665 10.2843C22.3749 11.1399 21.9016 11.9222 21.2791 12.5777L20.6212 13.2613Z" fill="black"/>
</svg>
