<svg width="24" height="24" viewBox="0 0 24 24" xmlns="http://www.w3.org/2000/svg"><g clip-path="url(#a)" fill-rule="evenodd" clip-rule="evenodd"><path d="M11.486.143a1 1 0 0 1 1.028 0l10 6a1 1 0 0 1 0 1.714l-10 6a1 1 0 0 1-1.028 0l-10-6a1 1 0 0 1 0-1.714l10-6ZM3.944 7 12 11.834 20.056 7 12 2.166 3.944 7Z"/><path d="M1.142 11.486a1 1 0 0 1 1.372-.344L12 16.834l9.485-5.691a1 1 0 0 1 1.03 1.714l-10 6a1 1 0 0 1-1.03 0l-10-6a1 1 0 0 1-.343-1.371Z"/><path d="M1.142 16.485a1 1 0 0 1 1.372-.343L12 21.834l9.485-5.692a1 1 0 0 1 1.03 1.716l-10 6a1 1 0 0 1-1.03 0l-10-6a1 1 0 0 1-.343-1.373Z"/></g><defs><clipPath id="a"><path fill="#fff" d="M0 0h24v24H0z"/></clipPath></defs></svg>