<svg width="24" height="24" viewBox="0 0 24 24" xmlns="http://www.w3.org/2000/svg"><path fill-rule="evenodd" clip-rule="evenodd" d="M12.693 9.893a1 1 0 0 1 1.414 0c2.39 2.39 2.39 6.124 0 8.514l-2.8 2.8c-2.39 2.39-6.124 2.39-8.514 0-2.39-2.39-2.39-6.124 0-8.514l.014-.014 2.5-2.4a1 1 0 0 1 1.386 1.442L4.2 14.114c-1.602 1.61-1.6 4.072.007 5.679 1.61 1.61 4.076 1.61 5.686 0l2.8-2.8c1.61-1.61 1.61-4.076 0-5.686a1 1 0 0 1 0-1.414Z"/><path fill-rule="evenodd" clip-rule="evenodd" d="M19.793 4.207c-1.61-1.61-4.076-1.61-5.686 0l-2.8 2.8c-1.61 1.61-1.61 4.076 0 5.686a1 1 0 0 1-1.414 1.414c-2.39-2.39-2.39-6.124 0-8.514l2.8-2.8c2.39-2.39 6.124-2.39 8.514 0 2.39 2.39 2.39 6.124 0 8.514l-.015.014-2.5 2.4a1 1 0 0 1-1.385-1.442L19.8 9.886c1.602-1.61 1.6-4.072-.007-5.679Z"/></svg>