<svg width="24" height="24" viewBox="0 0 24 24" xmlns="http://www.w3.org/2000/svg"><g clip-path="url(#a)"><path d="M23 2.5c-.827 0-1.5-.673-1.5-1.5a1 1 0 0 0-2 0c0 .827-.673 1.5-1.5 1.5a1 1 0 0 0 0 2c.827 0 1.5.673 1.5 1.5a1 1 0 0 0 2 0c0-.827.673-1.5 1.5-1.5a1 1 0 0 0 0-2Zm-13 0c-.827 0-1.5-.673-1.5-1.5a1 1 0 0 0-2 0c0 .827-.673 1.5-1.5 1.5a1 1 0 0 0 0 2c.827 0 1.5.673 1.5 1.5a1 1 0 0 0 2 0c0-.827.673-1.5 1.5-1.5a1 1 0 0 0 0-2Zm8 15c.827 0 1.5.673 1.5 1.5a1 1 0 0 0 2 0c0-.827.673-1.5 1.5-1.5a1 1 0 0 0 0-2c-.827 0-1.5-.673-1.5-1.5a1 1 0 0 0-2 0c0 .827-.673 1.5-1.5 1.5a1 1 0 0 0 0 2Z" stroke="currentColor" fill="transparent"/><path d="m11 10 3 3M2 19l3 3 12-12-3-3L2 19Z" stroke="#000" stroke-width="2" stroke-miterlimit="10"/></g><defs><clipPath id="a"><path fill="#fff" d="M0 0h24v24H0z"/></clipPath></defs></svg>