<svg width="24" height="24" viewBox="0 0 24 24" xmlns="http://www.w3.org/2000/svg"><g clip-path="url(#a)" fill-rule="evenodd" clip-rule="evenodd"><path d="M9.144 2.732a1 1 0 0 1 .192 1.02C9.094 4.395 9 5.163 9 6c0 4.948 4.052 9 9 9 .836 0 1.604-.094 2.249-.336a1 1 0 0 1 1.32 1.184C20.356 20.589 16.059 24 11 24 4.948 24 0 19.052 0 13 0 7.942 3.411 3.644 8.152 2.431a1 1 0 0 1 .992.301ZM7.047 4.95A8.892 8.892 0 0 0 2 13c0 4.948 4.052 9 9 9a8.893 8.893 0 0 0 8.051-5.047c-.354.034-.707.047-1.051.047-6.052 0-11-4.948-11-11 0-.344.013-.697.047-1.051ZM16 1a1 1 0 1 0-2 0v1h-1a1 1 0 1 0 0 2h1v1a1 1 0 1 0 2 0V4h1a1 1 0 1 0 0-2h-1V1Zm5 5a1 1 0 0 1 1 1v1h1a1 1 0 1 1 0 2h-1v1a1 1 0 1 1-2 0v-1h-1a1 1 0 1 1 0-2h1V7a1 1 0 0 1 1-1Z"/></g><defs><clipPath id="a"><path fill="#fff" d="M0 0h24v24H0z"/></clipPath></defs></svg>