<svg width="24" height="24" viewBox="0 0 24 24" xmlns="http://www.w3.org/2000/svg"><g clip-path="url(#a)" fill-rule="evenodd" clip-rule="evenodd"><path d="M8 14a1 1 0 0 1 1-1h10a1 1 0 1 1 0 2H9a1 1 0 0 1-1-1Zm0 4a1 1 0 0 1 1-1h10a1 1 0 1 1 0 2H9a1 1 0 0 1-1-1ZM8 6a1 1 0 0 1 1-1h10a1 1 0 0 1 1 1v4a1 1 0 0 1-1 1H9a1 1 0 0 1-1-1V6Zm2 1v2h8V7h-8ZM0 13a1 1 0 0 1 1-1h1a1 1 0 1 1 0 2v6.998A1.006 1.006 0 0 0 3.003 22a1 1 0 0 1-.006 2A3.006 3.006 0 0 1 0 21.003V13Z"/><path d="M4 1a1 1 0 0 1 1-1h18a1 1 0 0 1 1 1v20.003A3.006 3.006 0 0 1 21.003 24H3a1 1 0 0 1-.003-2A1.006 1.006 0 0 0 4 20.998V1Zm2 1v19.003c-.001.343-.06.68-.173.997h15.171A1.006 1.006 0 0 0 22 20.998V2H6Z"/></g><defs><clipPath id="a"><path fill="#fff" d="M0 0h24v24H0z"/></clipPath></defs></svg>