<svg width="24" height="24" viewBox="0 0 24 24" xmlns="http://www.w3.org/2000/svg"><path d="M2.53 16.817v-6.434h.065L6.2 16.817h1.344v-9.62H6.008v6.4h-.066l-3.586-6.4H1v9.62h1.53Zm10.346-9.62H9.6v9.62h1.62v-3.228h1.643c1.769 0 2.777-1.374 2.777-3.185 0-1.797-.996-3.207-2.765-3.207Zm1.115 3.207c0 1.071-.534 1.691-1.427 1.691h-1.35V8.712h1.35c.893 0 1.427.614 1.427 1.692Zm2.603 3.791c.072 1.522 1.08 2.805 3.161 2.805C21.83 17 23 15.774 23 13.984c0-1.614-.876-2.361-2.201-2.713l-1.272-.346c-.72-.183-1.121-.564-1.121-1.141 0-.747.534-1.29 1.427-1.29.87 0 1.404.529 1.506 1.22h1.535C22.796 8.233 21.717 7 19.845 7c-1.805 0-3.059 1.149-3.059 2.91 0 1.46.804 2.319 2.075 2.657l1.266.346c.852.232 1.26.578 1.26 1.247 0 .79-.534 1.332-1.542 1.332-.965 0-1.577-.55-1.685-1.297h-1.566Z"/></svg>