<svg width="24" height="24" viewBox="0 0 24 24" fill="none" xmlns="http://www.w3.org/2000/svg">
<g clip-path="url(#clip0_1150_5536)">
<path fill-rule="evenodd" clip-rule="evenodd" d="M13 18C13 17.4477 12.5523 17 12 17C11.4477 17 11 17.4477 11 18V21H6C5.44772 21 5 21.4477 5 22C5 22.5523 5.44772 23 6 23H12H18C18.5523 23 19 22.5523 19 22C19 21.4477 18.5523 21 18 21H13V18Z" fill="black"/>
<path fill-rule="evenodd" clip-rule="evenodd" d="M0 2C0 1.44772 0.447715 1 1 1H23C23.5523 1 24 1.44772 24 2V18C24 18.5523 23.5523 19 23 19H1C0.447715 19 0 18.5523 0 18V2ZM2 3V17H22V3H2Z" fill="black"/>
</g>
<defs>
<clipPath id="clip0_1150_5536">
<rect width="24" height="24" fill="white"/>
</clipPath>
</defs>
</svg>
