<svg width="24" height="24" viewBox="0 0 24 24" xmlns="http://www.w3.org/2000/svg"><path d="M15.308 14.188 13.167 16.3a17.38 17.38 0 0 1-3.092-2.375A17.61 17.61 0 0 1 7.7 10.832l2.11-2.141A.918.918 0 0 0 10 7.686L7.8 2.558a.918.918 0 0 0-1.078-.525L2.688 3.1A.919.919 0 0 0 2 4.016a19.4 19.4 0 0 0 5.49 12.493A19.4 19.4 0 0 0 19.986 22a.915.915 0 0 0 .917-.687l1.066-4.036a.917.917 0 0 0-.524-1.078L16.316 14a.916.916 0 0 0-1.008.188Z" stroke="currentColor" stroke-width="2" stroke-linecap="round" stroke-linejoin="round" fill="transparent"/></svg>