<svg width="24" height="24" viewBox="0 0 24 24" xmlns="http://www.w3.org/2000/svg"><g clip-path="url(#a)" fill="currentColor"><path fill-rule="evenodd" clip-rule="evenodd" d="M10.783.934a2 2 0 0 1 2.434 0l9.68 7.423a2 2 0 0 1 .694 2.176l-3.712 12.056A2 2 0 0 1 17.967 24H6.034a2 2 0 0 1-1.912-1.412L.41 10.534a2 2 0 0 1 .695-2.176L10.783.934ZM2.797 11.285l2.863 9.298 1.823-2.625-1.685-5.653-3.001-1.02ZM16.68 21.849l-1.854-2.67H9.173l-1.854 2.67h9.362Zm-.228-3.984 1.739-5.556 3.011-1.024-2.863 9.298-1.887-2.718Zm-1.489-2.143-1.302-1.874 2.113-.719-.811 2.593ZM12 15.109l1.333 1.918h-2.665L12 15.11Zm-3.81-1.991 2.148.73-1.35 1.944-.798-2.674Zm-4.76-3.88 2.945 1.002 4.6-3.483V3.452L3.428 9.24Zm7.544 2.564-2.18-.74 2.18-1.652v2.392Zm2.052-2.391v2.391l2.18-.74-2.18-1.651Zm0-5.959v3.305l4.599 3.483 2.945-1.001-7.544-5.787Z"/></g><defs><clipPath id="a"><path fill="#fff" d="M0 0h24v24H0z"/></clipPath></defs></svg>