<svg width="24" height="24" viewBox="0 0 24 24" xmlns="http://www.w3.org/2000/svg"><g clip-path="url(#a)" fill-rule="evenodd" clip-rule="evenodd" fill="#454A55"><path d="M9.512 5.214c.45-.019.865.243 1.043.657l3.762 8.777.725-2.177a1.086 1.086 0 0 1 1.03-.742h3.259a1.086 1.086 0 1 1 0 2.172h-2.476l-1.381 4.144a1.086 1.086 0 0 1-2.029.084L9.684 9.352l-.726 2.177a1.086 1.086 0 0 1-1.03.743H4.67a1.086 1.086 0 1 1 0-2.172h2.475l1.382-4.145c.142-.427.534-.722.985-.741Z"/><path d="M3.204 0A3.204 3.204 0 0 0 0 3.204v17.592A3.204 3.204 0 0 0 3.204 24h17.592A3.204 3.204 0 0 0 24 20.796V3.204A3.204 3.204 0 0 0 20.796 0H3.204ZM2.009 3.204c0-.66.535-1.195 1.195-1.195h17.592c.66 0 1.195.535 1.195 1.195v17.592c0 .66-.535 1.195-1.195 1.195H3.204c-.66 0-1.195-.535-1.195-1.195V3.204Z"/></g><defs><clipPath id="a"><path fill="#fff" d="M0 0h24v24H0z"/></clipPath></defs></svg>