<svg width="24" height="24" viewBox="0 0 24 24" xmlns="http://www.w3.org/2000/svg"><path d="M7.318 19.273A4.317 4.317 0 0 1 3 14.954a4.317 4.317 0 0 1 4.318-4.318 4.317 4.317 0 0 1 4.318 4.319 4.317 4.317 0 0 1-4.318 4.318Zm0-6.477a2.165 2.165 0 0 0-2.159 2.159c0 1.187.972 2.159 2.16 2.159a2.165 2.165 0 0 0 2.158-2.16 2.165 2.165 0 0 0-2.159-2.159Zm4.318-2.16a4.317 4.317 0 0 1-4.318-4.318A4.317 4.317 0 0 1 11.636 2a4.317 4.317 0 0 1 4.319 4.318 4.317 4.317 0 0 1-4.319 4.318Zm0-6.477a2.166 2.166 0 0 0-2.159 2.16c0 1.187.972 2.158 2.16 2.158a2.165 2.165 0 0 0 2.159-2.159 2.166 2.166 0 0 0-2.16-2.159Zm6.046 19a4.317 4.317 0 0 1-4.318-4.318 4.317 4.317 0 0 1 4.318-4.318A4.317 4.317 0 0 1 22 18.84a4.317 4.317 0 0 1-4.318 4.318Zm0-6.477c-1.188 0-2.16.971-2.16 2.159 0 1.187.972 2.159 2.16 2.159a2.166 2.166 0 0 0 2.159-2.16 2.165 2.165 0 0 0-2.16-2.158Z" fill="currentColor"/></svg>