<svg width="24" height="24" viewBox="0 0 24 24" xmlns="http://www.w3.org/2000/svg"><g clip-path="url(#a)" fill-rule="evenodd" clip-rule="evenodd"><path d="M16.793 7.693a1 1 0 0 1 1.414 0c2.39 2.39 2.39 6.124 0 8.514a1 1 0 0 1-1.414-1.414c1.61-1.61 1.61-4.076 0-5.686a1 1 0 0 1 0-1.414Z"/><path d="M19.693 4.993a1 1 0 0 1 1.414 0c3.89 3.89 3.89 10.224 0 14.114a1 1 0 0 1-1.414-1.414c3.11-3.11 3.11-8.176 0-11.286a1 1 0 0 1 0-1.414Zm-12.486 2.7a1 1 0 0 1 0 1.414c-1.61 1.61-1.61 4.076 0 5.686a1 1 0 1 1-1.414 1.414c-2.39-2.39-2.39-6.124 0-8.514a1 1 0 0 1 1.414 0Z"/><path d="M4.307 4.993a1 1 0 0 1 0 1.414c-3.11 3.11-3.11 8.176 0 11.286a1 1 0 1 1-1.414 1.414c-3.89-3.89-3.89-10.224 0-14.114a1 1 0 0 1 1.414 0ZM12 11a1 1 0 1 0 0 2 1 1 0 0 0 0-2Zm-3 1a3 3 0 1 1 6 0 3 3 0 0 1-6 0Z"/></g><defs><clipPath id="a"><path fill="#fff" d="M0 0h24v24H0z"/></clipPath></defs></svg>