<svg width="24" height="24" viewBox="0 0 24 24" fill="none" xmlns="http://www.w3.org/2000/svg">
<path fill-rule="evenodd" clip-rule="evenodd" d="M12 1.49001C12.3806 1.49001 12.7283 1.70608 12.8967 2.04738L15.7541 7.83599L22.1438 8.7644C22.5205 8.81913 22.8335 9.08296 22.9511 9.44497C23.0687 9.80698 22.9706 10.2044 22.6981 10.4701L18.0745 14.9771L19.1656 21.341C19.23 21.7161 19.0758 22.0953 18.7678 22.319C18.4599 22.5427 18.0517 22.5723 17.7148 22.3952L12 19.3917L6.28526 22.3952C5.94834 22.5723 5.54012 22.5427 5.23221 22.319C4.9243 22.0953 4.77009 21.7161 4.83441 21.341L5.92557 14.9771L1.302 10.4701C1.02944 10.2044 0.931347 9.80698 1.04898 9.44497C1.16661 9.08296 1.47956 8.81913 1.85624 8.7644L8.24601 7.83599L11.1033 2.04738C11.2718 1.70608 11.6194 1.49001 12 1.49001ZM12 4.74926L9.80674 9.19263C9.66106 9.48775 9.37951 9.69229 9.05382 9.73961L4.14896 10.4523L7.69806 13.9119C7.93372 14.1417 8.04126 14.4726 7.98565 14.797L7.14799 19.6824L11.5348 17.3768C11.8261 17.2237 12.174 17.2237 12.4653 17.3768L16.8521 19.6824L16.0144 14.797C15.9588 14.4726 16.0663 14.1417 16.302 13.9119L19.8511 10.4523L14.9462 9.73961C14.6206 9.69229 14.339 9.48775 14.1933 9.19263L12 4.74926Z" fill="black"/>
</svg>
