<svg width="24" height="24" viewBox="0 0 24 24" xmlns="http://www.w3.org/2000/svg"><path fill-rule="evenodd" clip-rule="evenodd" d="M12 1.49a1 1 0 0 1 .897.557l2.857 5.789 6.39.928a1 1 0 0 1 .554 1.706l-4.623 4.507 1.09 6.364a1 1 0 0 1-1.45 1.054L12 19.392l-5.715 3.003a1 1 0 0 1-1.45-1.054l1.09-6.364-4.623-4.507a1 1 0 0 1 .554-1.706l6.39-.928 2.857-5.789A1 1 0 0 1 12 1.49Zm0 3.26L9.807 9.192a1 1 0 0 1-.753.547l-4.905.712 3.55 3.46a1 1 0 0 1 .287.885l-.838 4.885 4.387-2.305a1 1 0 0 1 .93 0l4.387 2.305-.838-4.885a1 1 0 0 1 .288-.885l3.55-3.46-4.906-.712a1 1 0 0 1-.753-.547L12 4.749Z"/></svg>