<svg width="24" height="24" viewBox="0 0 24 24" xmlns="http://www.w3.org/2000/svg"><g clip-path="url(#a)"><path fill-rule="evenodd" clip-rule="evenodd" d="M0 5a1 1 0 0 1 1-1h8a1 1 0 0 1 .707.293l9.414 9.414a3 3 0 0 1 0 4.243m0 0-5.17 5.171a3 3 0 0 1-4.244 0L.293 13.707A1 1 0 0 1 0 13V5m2 1v6.586l9.121 9.12v.001a1.001 1.001 0 0 0 1.415 0l5.17-5.171h.001a1.001 1.001 0 0 0 0-1.415L8.586 6H2Z"/><path fill-rule="evenodd" clip-rule="evenodd" d="M2 1a1 1 0 0 1 1-1h8a1 1 0 0 1 .707.293l10 10a1 1 0 0 1-1.414 1.414L10.586 2H3a1 1 0 0 1-1-1Z"/><path d="M6 12a2 2 0 1 0 0-4 2 2 0 0 0 0 4Z"/></g><defs><clipPath id="a"><path fill="#fff" d="M0 0h24v24H0z"/></clipPath></defs></svg>