<svg width="24" height="24" viewBox="0 0 24 24" xmlns="http://www.w3.org/2000/svg"><g clip-path="url(#a)" fill-rule="evenodd" clip-rule="evenodd"><path d="M0 1a1 1 0 0 1 1-1h5a1 1 0 0 1 0 2H2v9h4a1 1 0 1 1 0 2H1a1 1 0 0 1-1-1V1Z"/><path d="M5 1a1 1 0 0 1 1-1h12.427a4 4 0 0 1 3.95 3.392l1.076 7A4.001 4.001 0 0 1 19.5 15H13v5a4 4 0 0 1-4 4 1 1 0 0 1-.965-.737l-3-11A1 1 0 0 1 5 12V1Zm2 1v9.866l2.727 9.997A2 2 0 0 0 11 20v-6a1 1 0 0 1 1-1h7.5a2 2 0 0 0 1.977-2.304l-1.077-7A2 2 0 0 0 18.425 2H7Z"/></g><defs><clipPath id="a"><path fill="#fff" d="M0 0h24v24H0z"/></clipPath></defs></svg>