<svg width="24" height="24" viewBox="0 0 24 24" xmlns="http://www.w3.org/2000/svg"><path fill-rule="evenodd" clip-rule="evenodd" d="M6 13a1 1 0 0 1 1-1h10a1 1 0 1 1 0 2H7a1 1 0 0 1-1-1Zm0 5a1 1 0 0 1 1-1h10a1 1 0 1 1 0 2H7a1 1 0 0 1-1-1Z"/><path fill-rule="evenodd" clip-rule="evenodd" d="M7 0a1 1 0 0 0-1 1H2a1 1 0 0 0-1 1v21a1 1 0 0 0 1 1h20a1 1 0 0 0 1-1V2a1 1 0 0 0-1-1h-4a1 1 0 0 0-1-1H7Zm11 3h3v19H3V3h3v4a1 1 0 0 0 1 1h3a1 1 0 0 0 1-1 1 1 0 1 1 2 0 1 1 0 0 0 1 1h3a1 1 0 0 0 1-1V3ZM8 2v4h1.17a3 3 0 0 1 5.66 0H16V2H8Z"/></svg>