<svg width="24" height="24" viewBox="0 0 24 24" xmlns="http://www.w3.org/2000/svg"><g clip-path="url(#a)"><path fill-rule="evenodd" clip-rule="evenodd" d="M.812.812A2.773 2.773 0 0 1 2.773 0h8.454A2.773 2.773 0 0 1 14 2.773V6a1 1 0 1 1-2 0V2.773A.773.773 0 0 0 11.227 2H2.773A.773.773 0 0 0 2 2.773v7.454a.773.773 0 0 0 .773.773H3a1 1 0 0 1 1 1v.132l1.445-.964A1 1 0 0 1 6 11h2a1 1 0 1 1 0 2H6.303l-2.748 1.832A1 1 0 0 1 2 14v-1.11a2.773 2.773 0 0 1-2-2.663V2.773c0-.735.292-1.44.812-1.96Z"/><path fill-rule="evenodd" clip-rule="evenodd" d="M12.679 8a.99.99 0 0 1 .035 0h8.607A2.777 2.777 0 0 1 24 10.848v7.306a2.776 2.776 0 0 1-2 2.737V22a1 1 0 0 1-1.555.832L17.697 21H12.68A2.777 2.777 0 0 1 10 18.153v-7.306a2.777 2.777 0 0 1 2.68-2.846Zm7.32 12.131V20a1 1 0 0 1 1-1h.266a.777.777 0 0 0 .735-.833v-7.366a.777.777 0 0 0-.735-.801h-8.53a.777.777 0 0 0-.735.833v7.366a.777.777 0 0 0 .735.801H18a1 1 0 0 1 .555.168L20 20.13Z"/><path d="M10.287 5.113a10.17 10.17 0 0 0-1-.042c-.1.47-.26.924-.476 1.352a5.162 5.162 0 0 1-.777 1.134c.739.432 1.553.72 2.4.848-.3.389-.534.824-.693 1.288a8.641 8.641 0 0 1-2.662-1.275 8.993 8.993 0 0 1-2.787 1.29 4.05 4.05 0 0 0-.673-1.24 7.64 7.64 0 0 0 2.486-.918 6.126 6.126 0 0 1-.9-1.281 6.185 6.185 0 0 1-.483-1.2c-.413 0-.652.014-1 .042V3.845c.337.036.677.053 1.016.049H6.28v-.42a2.056 2.056 0 0 0-.042-.434h1.408c-.028.14-.042.284-.042.427v.427H9.27c.34.004.678-.013 1.016-.049v1.268Zm-4.224-.042c.18.64.518 1.223.98 1.7a3.96 3.96 0 0 0 .876-1.7H6.063Zm12.306 12.38-.317-1.2h-2.087l-.325 1.2h-1.907L15.829 11h2.316l2.122 6.451h-1.898Zm-.677-2.628-.277-1.054a24.71 24.71 0 0 1-.235-.91 22.1 22.1 0 0 1-.182-.8c-.027.149-.08.4-.156.738a74.12 74.12 0 0 1-.517 2.026h1.367Z"/></g><defs><clipPath id="a"><path fill="#fff" d="M0 0h24v24H0z"/></clipPath></defs></svg>