<svg width="24" height="24" viewBox="0 0 24 24" xmlns="http://www.w3.org/2000/svg"><path fill-rule="evenodd" clip-rule="evenodd" d="M14.486 3.015A2.5 2.5 0 0 1 19 4.5v1a2.495 2.495 0 0 1-3 2.45V7c0-1.53-.572-2.925-1.514-3.985Zm-1.908.926A3.991 3.991 0 0 1 14 7v2a4 4 0 0 1-8 0V7a4 4 0 0 1 6.578-3.059Zm.349-2.18A4.5 4.5 0 0 1 21 4.5v1a4.49 4.49 0 0 1-.397 1.852l1.964 1.178A2.949 2.949 0 0 1 24 11.06V15a1 1 0 0 1-1 1h-3.543c.35.572.543 1.237.543 1.929V22a1 1 0 0 1-1 1H1a1 1 0 0 1-1-1v-4.071c0-1.3.682-2.505 1.797-3.173l3.465-2.075A5.974 5.974 0 0 1 4 9V7a6 6 0 0 1 8.927-5.239ZM6.812 14.084l-3.987 2.388A1.7 1.7 0 0 0 2 17.929V21h16v-3.071a1.7 1.7 0 0 0-.826-1.458l-3.986-2.387A5.971 5.971 0 0 1 10 15a5.972 5.972 0 0 1-3.188-.916Zm7.926-1.403L16.942 14H22v-2.94a.948.948 0 0 0-.46-.814l-2.155-1.293a4.482 4.482 0 0 1-3.462 1.01 5.973 5.973 0 0 1-1.184 2.718Z"/></svg>