<svg width="24" height="24" viewBox="0 0 24 24" xmlns="http://www.w3.org/2000/svg"><g clip-path="url(#a)"><path d="M20.446 3.655V3h-.319l-.204.234.523.421Zm-8.029 9.183-.382.543.51.33.396-.452-.524-.421Zm-2.009-1.302-.523-.421-.487.557.628.407.382-.543Zm5.16-5.911.524.42.159-.182v-.238h-.683Zm0-1.97h.683V3h-.683v.655Zm-2.85 0V3h-.319l-.204.234.523.421ZM7.482 9.642l-.381.544.51.329.394-.452-.523-.421Zm-1.97-1.273-.523-.421-.488.558.63.407.381-.544ZM7.91 5.625l.523.421.16-.183v-.238H7.91Zm0-1.97h.683V3H7.91v.655Zm-2.853 0V3h-.319l-.205.234.524.421ZM.807 8.52.284 8.1l.523.42Zm-.124.143-.524-.42-.159.42h.683Zm0 2.977H0v.35l.301.194.382-.544Zm13.124 8.486-.381.544.51.33.395-.453-.524-.42Zm9.477-10.863.523.421.007-.008.007-.008-.537-.405Zm.033-.04.537.404L24 9.45v-.226h-.683Zm0-5.568H24V3h-.683v.655Zm-.303 5.474.523.421.16-.182v-.239h-.683ZM13.74 19.751l-.382.543.51.33.395-.452-.523-.421ZM.993 11.498H.31v.348l.3.195.383-.543Zm0-2.509.381-.543L.31 8.99h.683Zm12.374 8.012-.382.543.51.33.396-.452-.524-.421Zm9.646-11.044h.683V4.155l-1.206 1.38.524.422ZM1.06 8.68l-.523-.422.141.965.382-.543ZM5.2 3.947V3.29h-.318l-.205.234.523.422Zm2.407 0h.683V3.29h-.683v.656Zm0 1.573.524.42.16-.182V5.52h-.684Zm-2.54 2.913-.524-.42-.486.556.627.407.383-.543Zm2.474 1.605-.383.543.51.331.396-.453-.523-.42Zm5.32-6.091V3.29h-.318l-.205.235.524.42Zm2.429 0h.683V3.29h-.683v.656Zm0 1.573.522.422.16-.183v-.24h-.682Zm-5.33 6.074-.523-.422-.49.557.631.408.382-.543Zm2.516 1.628-.382.544.51.33.395-.452-.523-.422Zm8.11-9.275V3.29l-.523.234.523.422Zm2.428 0h.683a.67.67 0 0 0-.683-.656v.656Zm0 1.555.524.422.16-.183v-.239h-.683Zm-9.712 11.111-.383.543.51.33.396-.451-.523-.422Zm6.621-13.379-8.028 9.182 1.046.843 8.029-9.182-1.047-.843Zm-7.123 9.06-2.009-1.302-.764 1.087 2.01 1.302.764-1.087Zm-1.867-.338 5.16-5.91-1.047-.842-5.16 5.91 1.046.842Zm5.319-6.331v-1.97h-1.366v1.97h1.366ZM15.568 3h-2.85v1.31h2.85V3Zm-3.373.234L6.959 9.221l1.046.842 5.236-5.986-1.046-.843ZM7.863 9.098l-1.97-1.273-.762 1.088 1.97 1.273.762-1.088ZM6.035 8.79l2.398-2.744-1.046-.842-2.398 2.744 1.046.842Zm2.558-3.165v-1.97H7.227v1.97h1.366ZM7.91 3H5.057v1.31H7.91V3Zm-3.377.234L.284 8.1l1.047.843 4.25-4.865-1.048-.843ZM.283 8.1l-.124.143 1.048.84.124-.142L.284 8.1ZM0 8.663v2.977h1.366V8.663H0Zm.301 3.521 13.125 8.486.763-1.087-13.124-8.486L.3 12.184Zm14.03 8.363 9.476-10.863-1.047-.841-9.476 10.863 1.047.841Zm9.49-10.879.033-.04-1.074-.81-.033.04 1.074.81ZM24 9.223V3.655h-1.366v5.568H24ZM23.317 3h-2.871v1.31h2.871V3Zm-.827 5.708L13.217 19.33l1.047.842L23.537 9.55l-1.047-.842Zm-8.367 10.5L1.374 10.953.611 12.04l12.748 8.253.764-1.087Zm-12.448-7.71V8.989H.31v2.509h1.365ZM.611 9.533l12.374 8.011.764-1.087-12.375-8.01-.763 1.086Zm13.28 7.889 9.646-11.044-1.047-.842-9.646 11.044 1.047.842Zm8.44-11.465v3.172h1.366V5.957H22.33ZM1.582 9.102l4.14-4.734-1.046-.843L.536 8.26l1.046.843Zm3.617-4.5h2.407v-1.31H5.2v1.31Zm1.724-.655V5.52H8.29V3.947H6.923Zm.16 1.152-2.54 2.913 1.047.842L8.13 5.94l-1.047-.842Zm-2.4 3.877 2.474 1.605.765-1.086L5.448 7.89l-.765 1.086Zm3.38 1.483 5.32-6.091-1.046-.842-5.32 6.091 1.046.842Zm4.797-5.857h2.429v-1.31H12.86v1.31Zm1.746-.655V5.52h1.366V3.947h-1.366Zm.16 1.15-5.33 6.075 1.045.844 5.33-6.074-1.045-.844Zm-5.189 7.04 2.516 1.629.764-1.087-2.516-1.629-.764 1.087Zm3.421 1.507 8.11-9.276-1.046-.843-8.11 9.276 1.046.843Zm7.587-9.042h2.428v-1.31h-2.428v1.31Zm1.746-.655v1.555h1.366V3.947H22.33Zm.16 1.134-9.714 11.11 1.047.844 9.713-11.111-1.047-.843ZM13.682 16.07 1.44 8.137.677 9.224l12.241 7.932.765-1.086Z"/></g><defs><clipPath id="a"><path fill="#fff" d="M0 0h24v24H0z"/></clipPath></defs></svg>