<svg width="24" height="24" viewBox="0 0 24 24" xmlns="http://www.w3.org/2000/svg"><g clip-path="url(#a)"><path fill-rule="evenodd" clip-rule="evenodd" d="m13.57 17.465 1.12-3.082 1.618 4.414c.145.395.49.653.877.653h2.221c.404 0 .763-.284.895-.707l3.648-11.76a1.148 1.148 0 0 0-.061-.833.966.966 0 0 0-.596-.517l-1.47-.423-.01-.002c-.064-.019-.737-.204-1.307-.361-.465-.129-.943.147-1.113.642l-1.464 4.257-1.803-5.5a.972.972 0 0 0-.66-.628c-.461-.125-1.162-.306-1.71-.447-.472-.122-.95.17-1.109.674l-.887 2.82-1.186 3.465-4.071-8.415a.96.96 0 0 0-.628-.527L1.15.025C.796-.062.428.083.203.399a1.136 1.136 0 0 0-.106 1.107l9.724 21.91c.166.374.517.603.893.583.376-.019.707-.284.84-.672l2.015-5.862Zm-3.553-4.938L5.29 2.757l-3.314-.815 8.627 19.44 1.439-4.184-2.025-4.67Zm2.787 2.559 1.88-5.171 2.883 7.862H19l3.32-10.696-.876-.252-.816-.225-2.733 7.949-3.077-9.39-.91-.236-.726 2.307-1.667 4.876 1.29 2.976Z"/></g><defs><clipPath id="a"><path fill="#fff" d="M0 0h24v24H0z"/></clipPath></defs></svg>