<svg width="730" height="120" viewBox="0 0 730 120" fill="none" xmlns="http://www.w3.org/2000/svg">
<rect width="53.5" height="59" transform="translate(0 12.5)" fill="#F9F9FB"/>
<path d="M22.4521 48.5H27.4004C30.0986 48.5 31.6982 47.1729 31.6982 44.9492V44.9316C31.6982 43.2617 30.5996 42.0752 28.8682 41.8555V41.7148C30.0898 41.4951 31.0566 40.2998 31.0566 38.9902V38.9727C31.0566 37.0391 29.6328 35.8174 27.3037 35.8174H22.4521V48.5ZM26.9697 37.2148C28.543 37.2148 29.457 37.9619 29.457 39.2451V39.2627C29.457 40.5986 28.4814 41.2842 26.5654 41.2842H24.0342V37.2148H26.9697ZM27.0137 42.6465C29.0352 42.6465 30.0723 43.3936 30.0723 44.8525V44.8701C30.0723 46.3291 29.0703 47.1025 27.1631 47.1025H24.0342V42.6465H27.0137Z" fill="black"/>
<rect width="53.5" height="59" transform="translate(61.5 12.5)" fill="#E3E6EC"/>
<path d="M83.9521 48.5H88.9004C91.5986 48.5 93.1982 47.1729 93.1982 44.9492V44.9316C93.1982 43.2617 92.0996 42.0752 90.3682 41.8555V41.7148C91.5898 41.4951 92.5566 40.2998 92.5566 38.9902V38.9727C92.5566 37.0391 91.1328 35.8174 88.8037 35.8174H83.9521V48.5ZM88.4697 37.2148C90.043 37.2148 90.957 37.9619 90.957 39.2451V39.2627C90.957 40.5986 89.9814 41.2842 88.0654 41.2842H85.5342V37.2148H88.4697ZM88.5137 42.6465C90.5352 42.6465 91.5723 43.3936 91.5723 44.8525V44.8701C91.5723 46.3291 90.5703 47.1025 88.6631 47.1025H85.5342V42.6465H88.5137Z" fill="black"/>
<rect width="53.5" height="59" transform="translate(123 12.5)" fill="#D4D8E0"/>
<path d="M145.452 48.5H150.4C153.099 48.5 154.698 47.1729 154.698 44.9492V44.9316C154.698 43.2617 153.6 42.0752 151.868 41.8555V41.7148C153.09 41.4951 154.057 40.2998 154.057 38.9902V38.9727C154.057 37.0391 152.633 35.8174 150.304 35.8174H145.452V48.5ZM149.97 37.2148C151.543 37.2148 152.457 37.9619 152.457 39.2451V39.2627C152.457 40.5986 151.481 41.2842 149.565 41.2842H147.034V37.2148H149.97ZM150.014 42.6465C152.035 42.6465 153.072 43.3936 153.072 44.8525V44.8701C153.072 46.3291 152.07 47.1025 150.163 47.1025H147.034V42.6465H150.014Z" fill="black"/>
<rect width="53.5" height="59" transform="translate(184.5 12.5)" fill="#B8BEC9"/>
<path d="M206.952 48.5H211.9C214.599 48.5 216.198 47.1729 216.198 44.9492V44.9316C216.198 43.2617 215.1 42.0752 213.368 41.8555V41.7148C214.59 41.4951 215.557 40.2998 215.557 38.9902V38.9727C215.557 37.0391 214.133 35.8174 211.804 35.8174H206.952V48.5ZM211.47 37.2148C213.043 37.2148 213.957 37.9619 213.957 39.2451V39.2627C213.957 40.5986 212.981 41.2842 211.065 41.2842H208.534V37.2148H211.47ZM211.514 42.6465C213.535 42.6465 214.572 43.3936 214.572 44.8525V44.8701C214.572 46.3291 213.57 47.1025 211.663 47.1025H208.534V42.6465H211.514Z" fill="black"/>
<rect width="53.5" height="59" transform="translate(246 12.5)" fill="#9DA4B2"/>
<path d="M268.452 48.5H273.4C276.099 48.5 277.698 47.1729 277.698 44.9492V44.9316C277.698 43.2617 276.6 42.0752 274.868 41.8555V41.7148C276.09 41.4951 277.057 40.2998 277.057 38.9902V38.9727C277.057 37.0391 275.633 35.8174 273.304 35.8174H268.452V48.5ZM272.97 37.2148C274.543 37.2148 275.457 37.9619 275.457 39.2451V39.2627C275.457 40.5986 274.481 41.2842 272.565 41.2842H270.034V37.2148H272.97ZM273.014 42.6465C275.035 42.6465 276.072 43.3936 276.072 44.8525V44.8701C276.072 46.3291 275.07 47.1025 273.163 47.1025H270.034V42.6465H273.014Z" fill="black"/>
<rect width="53.5" height="59" transform="translate(307.5 12.5)" fill="#858C9B"/>
<path d="M329.785 48.5H331.279L334.197 38.4893H334.303L337.221 48.5H338.715L342.169 35.8174H340.517L337.994 46.127H337.889L335.05 35.8174H333.45L330.611 46.127H330.506L327.983 35.8174H326.331L329.785 48.5Z" fill="white"/>
<rect width="53.5" height="59" transform="translate(369 12.5)" fill="#6F7683"/>
<path d="M391.285 48.5H392.779L395.697 38.4893H395.803L398.721 48.5H400.215L403.669 35.8174H402.017L399.494 46.127H399.389L396.55 35.8174H394.95L392.111 46.127H392.006L389.483 35.8174H387.831L391.285 48.5Z" fill="white"/>
<rect width="53.5" height="59" transform="translate(430.5 12.5)" fill="#595F6C"/>
<path d="M452.785 48.5H454.279L457.197 38.4893H457.303L460.221 48.5H461.715L465.169 35.8174H463.517L460.994 46.127H460.889L458.05 35.8174H456.45L453.611 46.127H453.506L450.983 35.8174H449.331L452.785 48.5Z" fill="white"/>
<rect width="53.5" height="59" transform="translate(492 12.5)" fill="#454A55"/>
<path d="M514.285 48.5H515.779L518.697 38.4893H518.803L521.721 48.5H523.215L526.669 35.8174H525.017L522.494 46.127H522.389L519.55 35.8174H517.95L515.111 46.127H515.006L512.483 35.8174H510.831L514.285 48.5Z" fill="white"/>
<rect width="53.5" height="59" transform="translate(553.5 12.5)" fill="#32363E"/>
<path d="M575.785 48.5H577.279L580.197 38.4893H580.303L583.221 48.5H584.715L588.169 35.8174H586.517L583.994 46.127H583.889L581.05 35.8174H579.45L576.611 46.127H576.506L573.983 35.8174H572.331L575.785 48.5Z" fill="white"/>
<rect width="53.5" height="59" transform="translate(615 12.5)" fill="#1F2227"/>
<path d="M637.285 48.5H638.779L641.697 38.4893H641.803L644.721 48.5H646.215L649.669 35.8174H648.017L645.494 46.127H645.389L642.55 35.8174H640.95L638.111 46.127H638.006L635.483 35.8174H633.831L637.285 48.5Z" fill="white"/>
<rect width="53.5" height="59" transform="translate(676.5 12.5)" fill="#0C0D0F"/>
<path d="M698.785 48.5H700.279L703.197 38.4893H703.303L706.221 48.5H707.715L711.169 35.8174H709.517L706.994 46.127H706.889L704.05 35.8174H702.45L699.611 46.127H699.506L696.983 35.8174H695.331L698.785 48.5Z" fill="white"/>
<path d="M26.7412 98.3164C29.7559 98.3164 31.584 95.7588 31.584 91.6631V91.6455C31.584 87.5498 29.7559 85.001 26.7412 85.001C23.7266 85.001 21.916 87.5498 21.916 91.6455V91.6631C21.916 95.7588 23.7266 98.3164 26.7412 98.3164ZM26.7412 96.4795C25.124 96.4795 24.2012 94.6689 24.2012 91.6631V91.6455C24.2012 88.6396 25.124 86.8467 26.7412 86.8467C28.3584 86.8467 29.2988 88.6396 29.2988 91.6455V91.6631C29.2988 94.6689 28.3584 96.4795 26.7412 96.4795Z" fill="#595F6C"/>
<path d="M88.3291 98.3164C91.0713 98.3164 92.9961 96.5146 92.9961 93.8779V93.8604C92.9961 91.4346 91.2822 89.6768 88.918 89.6768C87.7227 89.6768 86.7383 90.1865 86.2109 91.0391H86.0615L86.4131 87.1807H92.2578V85.3174H84.6465L84.0312 92.7441H85.9736C86.123 92.4629 86.334 92.2168 86.5625 92.0234C87.0283 91.6016 87.6436 91.3906 88.3555 91.3906C89.8057 91.3906 90.8428 92.4277 90.8428 93.9043V93.9219C90.8428 95.416 89.8232 96.4619 88.3379 96.4619C87.0371 96.4619 86.0791 95.6357 85.9121 94.5986L85.9033 94.5371H83.8115L83.8203 94.6514C83.9873 96.7344 85.7363 98.3164 88.3291 98.3164Z" fill="#595F6C"/>
<path d="M143.747 98H146.015V85.3174H143.756L140.442 87.6465V89.7822L143.598 87.5498H143.747V98ZM154.188 98.3164C157.203 98.3164 159.031 95.7588 159.031 91.6631V91.6455C159.031 87.5498 157.203 85.001 154.188 85.001C151.174 85.001 149.363 87.5498 149.363 91.6455V91.6631C149.363 95.7588 151.174 98.3164 154.188 98.3164ZM154.188 96.4795C152.571 96.4795 151.648 94.6689 151.648 91.6631V91.6455C151.648 88.6396 152.571 86.8467 154.188 86.8467C155.806 86.8467 156.746 88.6396 156.746 91.6455V91.6631C156.746 94.6689 155.806 96.4795 154.188 96.4795Z" fill="#595F6C"/>
<path d="M200.932 98H209.738V96.1191H203.999V95.9346L206.539 93.4736C208.851 91.25 209.545 90.1074 209.545 88.666V88.6396C209.545 86.5039 207.77 85.001 205.3 85.001C202.654 85.001 200.809 86.6533 200.809 89.0176L200.817 89.0439L202.927 89.0527L202.936 89.0176C202.936 87.708 203.841 86.8203 205.186 86.8203C206.504 86.8203 207.304 87.6641 207.304 88.833V88.8594C207.304 89.835 206.82 90.4766 205.098 92.2168L200.932 96.4707V98ZM216.901 98.3164C219.916 98.3164 221.744 95.7588 221.744 91.6631V91.6455C221.744 87.5498 219.916 85.001 216.901 85.001C213.887 85.001 212.076 87.5498 212.076 91.6455V91.6631C212.076 95.7588 213.887 98.3164 216.901 98.3164ZM216.901 96.4795C215.284 96.4795 214.361 94.6689 214.361 91.6631V91.6455C214.361 88.6396 215.284 86.8467 216.901 86.8467C218.519 86.8467 219.459 88.6396 219.459 91.6455V91.6631C219.459 94.6689 218.519 96.4795 216.901 96.4795Z" fill="#595F6C"/>
<path d="M266.817 98.2549C269.63 98.2549 271.555 96.6992 271.555 94.4668V94.4492C271.555 92.6914 270.315 91.584 268.452 91.4082V91.3643C269.973 91.0479 271.106 90.002 271.106 88.4287V88.4111C271.106 86.4248 269.41 85.0625 266.8 85.0625C264.242 85.0625 262.511 86.5039 262.317 88.7012L262.309 88.7979H264.418L264.427 88.71C264.541 87.5762 265.464 86.8643 266.8 86.8643C268.153 86.8643 268.936 87.5498 268.936 88.71V88.7275C268.936 89.835 268.004 90.626 266.606 90.626H265.156V92.3135H266.65C268.276 92.3135 269.261 93.0518 269.261 94.3877V94.4053C269.261 95.583 268.285 96.4004 266.817 96.4004C265.332 96.4004 264.339 95.6357 264.216 94.5635L264.207 94.4668H262.045L262.054 94.5723C262.221 96.7432 264.04 98.2549 266.817 98.2549ZM278.604 98.3164C281.618 98.3164 283.446 95.7588 283.446 91.6631V91.6455C283.446 87.5498 281.618 85.001 278.604 85.001C275.589 85.001 273.778 87.5498 273.778 91.6455V91.6631C273.778 95.7588 275.589 98.3164 278.604 98.3164ZM278.604 96.4795C276.986 96.4795 276.063 94.6689 276.063 91.6631V91.6455C276.063 88.6396 276.986 86.8467 278.604 86.8467C280.221 86.8467 281.161 88.6396 281.161 91.6455V91.6631C281.161 94.6689 280.221 96.4795 278.604 96.4795Z" fill="#595F6C"/>
<path d="M329.398 98H331.569V95.5654H333.274V93.6934H331.569V85.3174H328.361C326.639 87.9365 324.837 90.8545 323.193 93.7109V95.5654H329.398V98ZM325.303 93.7461V93.6143C326.533 91.4609 328.001 89.1143 329.302 87.1279H329.434V93.7461H325.303ZM340.288 98.3164C343.303 98.3164 345.131 95.7588 345.131 91.6631V91.6455C345.131 87.5498 343.303 85.001 340.288 85.001C337.273 85.001 335.463 87.5498 335.463 91.6455V91.6631C335.463 95.7588 337.273 98.3164 340.288 98.3164ZM340.288 96.4795C338.671 96.4795 337.748 94.6689 337.748 91.6631V91.6455C337.748 88.6396 338.671 86.8467 340.288 86.8467C341.905 86.8467 342.846 88.6396 342.846 91.6455V91.6631C342.846 94.6689 341.905 96.4795 340.288 96.4795Z" fill="#595F6C"/>
<path d="M389.844 98.3164C392.586 98.3164 394.511 96.5146 394.511 93.8779V93.8604C394.511 91.4346 392.797 89.6768 390.433 89.6768C389.237 89.6768 388.253 90.1865 387.726 91.0391H387.576L387.928 87.1807H393.772V85.3174H386.161L385.546 92.7441H387.488C387.638 92.4629 387.849 92.2168 388.077 92.0234C388.543 91.6016 389.158 91.3906 389.87 91.3906C391.32 91.3906 392.357 92.4277 392.357 93.9043V93.9219C392.357 95.416 391.338 96.4619 389.853 96.4619C388.552 96.4619 387.594 95.6357 387.427 94.5986L387.418 94.5371H385.326L385.335 94.6514C385.502 96.7344 387.251 98.3164 389.844 98.3164ZM401.568 98.3164C404.583 98.3164 406.411 95.7588 406.411 91.6631V91.6455C406.411 87.5498 404.583 85.001 401.568 85.001C398.554 85.001 396.743 87.5498 396.743 91.6455V91.6631C396.743 95.7588 398.554 98.3164 401.568 98.3164ZM401.568 96.4795C399.951 96.4795 399.028 94.6689 399.028 91.6631V91.6455C399.028 88.6396 399.951 86.8467 401.568 86.8467C403.186 86.8467 404.126 88.6396 404.126 91.6455V91.6631C404.126 94.6689 403.186 96.4795 401.568 96.4795Z" fill="#595F6C"/>
<path d="M451.432 98.3164C454.183 98.3164 456.143 96.4355 456.143 93.8604V93.8428C456.143 91.4346 454.438 89.6592 452.003 89.6592C450.263 89.6592 449.155 90.5469 448.689 91.5488H448.514C448.514 91.4521 448.522 91.3555 448.522 91.2588C448.619 88.833 449.472 86.8643 451.484 86.8643C452.601 86.8643 453.383 87.4443 453.717 88.332L453.752 88.4199H455.976L455.958 88.3232C455.554 86.3809 453.813 85.001 451.484 85.001C448.294 85.001 446.369 87.5322 446.369 91.8037V91.8213C446.369 96.3916 448.725 98.3164 451.432 98.3164ZM448.909 93.8867V93.8691C448.909 92.4365 450.008 91.3994 451.44 91.3994C452.882 91.3994 453.928 92.4541 453.928 93.9219V93.9395C453.928 95.3545 452.82 96.4707 451.414 96.4707C450.008 96.4707 448.909 95.3369 448.909 93.8867ZM463.244 98.3164C466.259 98.3164 468.087 95.7588 468.087 91.6631V91.6455C468.087 87.5498 466.259 85.001 463.244 85.001C460.229 85.001 458.419 87.5498 458.419 91.6455V91.6631C458.419 95.7588 460.229 98.3164 463.244 98.3164ZM463.244 96.4795C461.627 96.4795 460.704 94.6689 460.704 91.6631V91.6455C460.704 88.6396 461.627 86.8467 463.244 86.8467C464.861 86.8467 465.802 88.6396 465.802 91.6455V91.6631C465.802 94.6689 464.861 96.4795 463.244 96.4795Z" fill="#595F6C"/>
<path d="M509.442 98H511.815L517.238 87.207V85.3174H508.414V87.1719H514.953V87.3125L509.442 98ZM523.944 98.3164C526.959 98.3164 528.787 95.7588 528.787 91.6631V91.6455C528.787 87.5498 526.959 85.001 523.944 85.001C520.93 85.001 519.119 87.5498 519.119 91.6455V91.6631C519.119 95.7588 520.93 98.3164 523.944 98.3164ZM523.944 96.4795C522.327 96.4795 521.404 94.6689 521.404 91.6631V91.6455C521.404 88.6396 522.327 86.8467 523.944 86.8467C525.562 86.8467 526.502 88.6396 526.502 91.6455V91.6631C526.502 94.6689 525.562 96.4795 523.944 96.4795Z" fill="#595F6C"/>
<path d="M574.291 98.2549C577.209 98.2549 579.239 96.7432 579.239 94.5723V94.5547C579.239 92.9287 578.062 91.6719 576.365 91.3291V91.2764C577.815 90.8896 578.782 89.8262 578.782 88.4639V88.4463C578.782 86.4951 576.919 85.0625 574.291 85.0625C571.663 85.0625 569.8 86.4951 569.8 88.4463V88.4639C569.8 89.8262 570.767 90.8896 572.217 91.2764V91.3291C570.529 91.6719 569.343 92.9287 569.343 94.5547V94.5723C569.343 96.7432 571.373 98.2549 574.291 98.2549ZM574.291 90.5557C572.964 90.5557 572.041 89.7822 572.041 88.6748V88.6572C572.041 87.5498 572.964 86.7764 574.291 86.7764C575.618 86.7764 576.541 87.5498 576.541 88.6572V88.6748C576.541 89.7822 575.618 90.5557 574.291 90.5557ZM574.291 96.5234C572.771 96.5234 571.689 95.6445 571.689 94.4229V94.4053C571.689 93.1748 572.753 92.2871 574.291 92.2871C575.82 92.2871 576.893 93.1748 576.893 94.4053V94.4229C576.893 95.6445 575.812 96.5234 574.291 96.5234ZM586.279 98.3164C589.294 98.3164 591.122 95.7588 591.122 91.6631V91.6455C591.122 87.5498 589.294 85.001 586.279 85.001C583.265 85.001 581.454 87.5498 581.454 91.6455V91.6631C581.454 95.7588 583.265 98.3164 586.279 98.3164ZM586.279 96.4795C584.662 96.4795 583.739 94.6689 583.739 91.6631V91.6455C583.739 88.6396 584.662 86.8467 586.279 86.8467C587.896 86.8467 588.837 88.6396 588.837 91.6455V91.6631C588.837 94.6689 587.896 96.4795 586.279 96.4795Z" fill="#595F6C"/>
<path d="M635.589 85.001C632.838 85.001 630.878 86.8818 630.878 89.457V89.4746C630.878 91.8828 632.583 93.6582 635.018 93.6582C636.758 93.6582 637.865 92.7705 638.331 91.7686H638.507C638.507 91.8652 638.498 91.9619 638.498 92.0586C638.401 94.4844 637.549 96.4531 635.536 96.4531C634.42 96.4531 633.638 95.873 633.304 94.9854L633.277 94.8975H631.045L631.062 94.9941C631.467 96.9365 633.207 98.3164 635.536 98.3164C638.727 98.3164 640.651 95.7852 640.651 91.5137V91.4961C640.651 86.9258 638.296 85.001 635.589 85.001ZM635.58 91.918C634.139 91.918 633.093 90.8633 633.093 89.3955V89.3779C633.093 87.9629 634.209 86.8467 635.606 86.8467C637.013 86.8467 638.111 87.9805 638.111 89.4307V89.4482C638.111 90.8809 637.013 91.918 635.58 91.918ZM647.744 98.3164C650.759 98.3164 652.587 95.7588 652.587 91.6631V91.6455C652.587 87.5498 650.759 85.001 647.744 85.001C644.729 85.001 642.919 87.5498 642.919 91.6455V91.6631C642.919 95.7588 644.729 98.3164 647.744 98.3164ZM647.744 96.4795C646.127 96.4795 645.204 94.6689 645.204 91.6631V91.6455C645.204 88.6396 646.127 86.8467 647.744 86.8467C649.361 86.8467 650.302 88.6396 650.302 91.6455V91.6631C650.302 94.6689 649.361 96.4795 647.744 96.4795Z" fill="#595F6C"/>
<path d="M691.262 98H693.529V85.3174H691.271L687.957 87.6465V89.7822L691.112 87.5498H691.262V98ZM701.703 98.3164C704.718 98.3164 706.546 95.7588 706.546 91.6631V91.6455C706.546 87.5498 704.718 85.001 701.703 85.001C698.688 85.001 696.878 87.5498 696.878 91.6455V91.6631C696.878 95.7588 698.688 98.3164 701.703 98.3164ZM701.703 96.4795C700.086 96.4795 699.163 94.6689 699.163 91.6631V91.6455C699.163 88.6396 700.086 86.8467 701.703 86.8467C703.32 86.8467 704.261 88.6396 704.261 91.6455V91.6631C704.261 94.6689 703.32 96.4795 701.703 96.4795ZM713.674 98.3164C716.688 98.3164 718.517 95.7588 718.517 91.6631V91.6455C718.517 87.5498 716.688 85.001 713.674 85.001C710.659 85.001 708.849 87.5498 708.849 91.6455V91.6631C708.849 95.7588 710.659 98.3164 713.674 98.3164ZM713.674 96.4795C712.057 96.4795 711.134 94.6689 711.134 91.6631V91.6455C711.134 88.6396 712.057 86.8467 713.674 86.8467C715.291 86.8467 716.231 88.6396 716.231 91.6455V91.6631C716.231 94.6689 715.291 96.4795 713.674 96.4795Z" fill="#595F6C"/>
</svg>
