<svg width="24" height="24" viewBox="0 0 24 24" fill="none" xmlns="http://www.w3.org/2000/svg">
<path fill-rule="evenodd" clip-rule="evenodd" d="M12 2C11.4477 2 11 2.44772 11 3C11 3.55228 11.4477 4 12 4C12.5523 4 13 3.55228 13 3C13 2.44772 12.5523 2 12 2ZM9 3C9 1.34315 10.3431 0 12 0C13.6569 0 15 1.34315 15 3C15 4.65685 13.6569 6 12 6C10.3431 6 9 4.65685 9 3ZM15 7H22C22.5523 7 23 7.44772 23 8C23 8.55229 22.5523 9 22 9H16V16V23C16 23.5523 15.5523 24 15 24C14.4477 24 14 23.5523 14 23V17H10V23C10 23.5523 9.55229 24 9 24C8.44772 24 8 23.5523 8 23V16V9H2C1.44772 9 1 8.55229 1 8C1 7.44772 1.44772 7 2 7H9H15ZM10 9V15H14V9H10Z" fill="black"/>
</svg>
