<svg width="24" height="24" viewBox="0 0 24 24" fill="none" xmlns="http://www.w3.org/2000/svg">
<path fill-rule="evenodd" clip-rule="evenodd" d="M12 0C12.5523 0 13 0.447715 13 1V13.5858L17.2929 9.29289C17.6834 8.90237 18.3166 8.90237 18.7071 9.29289C19.0976 9.68342 19.0976 10.3166 18.7071 10.7071L12.7071 16.7071C12.3166 17.0976 11.6834 17.0976 11.2929 16.7071L5.29289 10.7071C4.90237 10.3166 4.90237 9.68342 5.29289 9.29289C5.68342 8.90237 6.31658 8.90237 6.70711 9.29289L11 13.5858V1C11 0.447715 11.4477 0 12 0ZM2 15C2.55228 15 3 15.4477 3 16V21H21V16C21 15.4477 21.4477 15 22 15C22.5523 15 23 15.4477 23 16V22C23 22.5523 22.5523 23 22 23H2C1.44772 23 1 22.5523 1 22V16C1 15.4477 1.44772 15 2 15Z" fill="black"/>
</svg>
