<svg width="24" height="24" viewBox="0 0 24 24" fill="none" xmlns="http://www.w3.org/2000/svg">
<path fill-rule="evenodd" clip-rule="evenodd" d="M22.7909 1.83437C22.8651 1.2871 22.4816 0.783283 21.9344 0.709076C21.3871 0.634869 20.8833 1.01837 20.8091 1.56564L20.3635 4.85172C18.3593 2.47265 15.3419 0.999996 12 0.999996C5.94772 0.999996 1 5.94771 1 12C1 18.0523 5.94772 23 12 23C18.0523 23 23 18.0523 23 12C23 11.4477 22.5523 11 22 11C21.4477 11 21 11.4477 21 12C21 16.9477 16.9477 21 12 21C7.05228 21 3 16.9477 3 12C3 7.05228 7.05228 3 12 3C14.8296 3 17.3569 4.28239 18.9829 6.32221L15.1322 5.80878C14.5847 5.73579 14.0818 6.12041 14.0088 6.66785C13.9358 7.21529 14.3204 7.71824 14.8678 7.79124L20.8678 8.59124C21.4144 8.66411 21.9168 8.28079 21.9909 7.73437L22.7909 1.83437Z" fill="black"/>
</svg>
