<svg width="24" height="24" viewBox="0 0 24 24" fill="none" xmlns="http://www.w3.org/2000/svg">
<path fill-rule="evenodd" clip-rule="evenodd" d="M22.7071 1.29289C23.0976 1.68342 23.0976 2.31658 22.7071 2.70711L2.70711 22.7071C2.31658 23.0976 1.68342 23.0976 1.29289 22.7071C0.902369 22.3166 0.902369 21.6834 1.29289 21.2929L21.2929 1.29289C21.6834 0.902369 22.3166 0.902369 22.7071 1.29289Z" fill="black"/>
<path fill-rule="evenodd" clip-rule="evenodd" d="M2 11C2.55228 11 3 11.4477 3 12V21H12C12.5523 21 13 21.4477 13 22C13 22.5523 12.5523 23 12 23H2C1.44772 23 1 22.5523 1 22V12C1 11.4477 1.44772 11 2 11Z" fill="black"/>
</svg>
