<svg width="24" height="24" viewBox="0 0 24 24" fill="none" xmlns="http://www.w3.org/2000/svg">
<path fill-rule="evenodd" clip-rule="evenodd" d="M15.7071 4.29289C15.3166 3.90237 14.6834 3.90237 14.2929 4.29289C13.9024 4.68342 13.9024 5.31658 14.2929 5.70711L19.5858 11H2C1.44772 11 1 11.4477 1 12C1 12.5523 1.44772 13 2 13H19.5858L14.2929 18.2929C13.9024 18.6834 13.9024 19.3166 14.2929 19.7071C14.6834 20.0976 15.3166 20.0976 15.7071 19.7071L22.7071 12.7071C22.8902 12.524 22.9874 12.2877 22.9989 12.048C22.9996 12.032 23 12.016 23 12M22.9241 11.6172C22.8753 11.4993 22.803 11.3888 22.7071 11.2929L15.7071 4.29289M22.9241 11.6172C22.9719 11.7324 22.9988 11.8585 23 11.9908Z" fill="black"/>
</svg>
