<svg width="24" height="24" viewBox="0 0 24 24" fill="none" xmlns="http://www.w3.org/2000/svg">
<path fill-rule="evenodd" clip-rule="evenodd" d="M21 3.00001C21 2.62123 20.786 2.27497 20.4472 2.10558C20.1084 1.93619 19.703 1.97274 19.4 2.20001L7.4 11.2C7.14819 11.3889 7 11.6852 7 12C7 12.3148 7.14819 12.6112 7.4 12.8L19.4 21.8C19.703 22.0273 20.1084 22.0638 20.4472 21.8944C20.786 21.725 21 21.3788 21 21V3.00001ZM19 19L9.66667 12L19 5.00001V19ZM5 3.00001C5 2.44772 4.55228 2.00001 4 2.00001C3.44772 2.00001 3 2.44772 3 3.00001V21C3 21.5523 3.44772 22 4 22C4.55228 22 5 21.5523 5 21V3.00001Z" fill="black"/>
</svg>
