<svg width="24" height="24" viewBox="0 0 24 24" fill="none" xmlns="http://www.w3.org/2000/svg">
<path fill-rule="evenodd" clip-rule="evenodd" d="M7 1C7 0.447715 6.55228 0 6 0C5.44772 0 5 0.447715 5 1V2H3C1.34315 2 0 3.34315 0 5L0 8L0 20C0 21.6569 1.34315 23 3 23H21C22.6569 23 24 21.6569 24 20V8V5C24 3.34315 22.6569 2 21 2H19V1C19 0.447715 18.5523 0 18 0C17.4477 0 17 0.447715 17 1V2H7V1ZM22 7V5C22 4.44772 21.5523 4 21 4H19C19 4.55228 18.5523 5 18 5C17.4477 5 17 4.55228 17 4H7C7 4.55228 6.55228 5 6 5C5.44772 5 5 4.55228 5 4H3C2.44772 4 2 4.44772 2 5V7H22ZM2 9H22V20C22 20.5523 21.5523 21 21 21H3C2.44772 21 2 20.5523 2 20V9ZM5 11C4.44772 11 4 11.4477 4 12V13C4 13.5523 4.44772 14 5 14H7C7.55228 14 8 13.5523 8 13V12C8 11.4477 7.55228 11 7 11H5ZM11 11C10.4477 11 10 11.4477 10 12V13C10 13.5523 10.4477 14 11 14H13C13.5523 14 14 13.5523 14 13V12C14 11.4477 13.5523 11 13 11H11ZM4 17C4 16.4477 4.44772 16 5 16H7C7.55228 16 8 16.4477 8 17V18C8 18.5523 7.55228 19 7 19H5C4.44772 19 4 18.5523 4 18V17ZM11 16C10.4477 16 10 16.4477 10 17V18C10 18.5523 10.4477 19 11 19H13C13.5523 19 14 18.5523 14 18V17C14 16.4477 13.5523 16 13 16H11ZM16 12C16 11.4477 16.4477 11 17 11H19C19.5523 11 20 11.4477 20 12V13C20 13.5523 19.5523 14 19 14H17C16.4477 14 16 13.5523 16 13V12Z" fill="black"/>
</svg>
