<svg width="24" height="24" viewBox="0 0 24 24" fill="none" xmlns="http://www.w3.org/2000/svg">
<path fill-rule="evenodd" clip-rule="evenodd" d="M12 2C6.47715 2 2 6.47715 2 12C2 17.5228 6.47715 22 12 22C17.5228 22 22 17.5228 22 12C22 6.47715 17.5228 2 12 2ZM0 12C0 5.37258 5.37258 0 12 0C18.6274 0 24 5.37258 24 12C24 18.6274 18.6274 24 12 24C5.37258 24 0 18.6274 0 12ZM12 19C12.5523 19 13 18.5523 13 18C13 17.4477 12.5523 17 12 17C11.4477 17 11 17.4477 11 18C11 18.5523 11.4477 19 12 19ZM10.2572 7.47466C11.1017 7.10147 12.0665 6.9424 12.8824 7.01899C13.7229 7.09789 14.2142 7.39869 14.4193 7.73067C14.9156 8.53368 14.7199 9.65302 13.3946 10.7761C11.9126 12.0317 11 12.9928 11 14.5C11 15.0523 11.4477 15.5 12 15.5C12.5523 15.5 13 15.0523 13 14.5C13 14.0072 13.1694 13.5882 14.6875 12.3019C16.3621 10.883 17.3745 8.70831 16.1207 6.67932C15.4509 5.5953 14.2237 5.1361 13.0694 5.02775C11.8906 4.9171 10.5843 5.14352 9.44882 5.64533C8.94366 5.86857 8.71512 6.45905 8.93836 6.9642C9.1616 7.46936 9.75208 7.6979 10.2572 7.47466Z" fill="black"/>
</svg>
