<svg width="24" height="24" viewBox="0 0 24 24" fill="none" xmlns="http://www.w3.org/2000/svg">
<g clip-path="url(#clip0_236_2604)">
<path fill-rule="evenodd" clip-rule="evenodd" d="M10.5711 0.0904374C13.4845 -0.258945 16.4248 0.471186 18.8363 2.14279C21.2478 3.81439 22.9633 6.3116 23.6584 9.16228C24.3535 12.013 23.9801 15.0195 22.6087 17.6135C21.2374 20.2076 18.9631 22.2092 16.2159 23.2401C13.4688 24.271 10.4391 24.2596 7.6998 23.2081C6.19768 22.6315 4.83994 21.7641 3.69702 20.6688L3.95814 22.7452C4.02705 23.2932 3.63869 23.7933 3.09072 23.8622C2.54275 23.9311 2.04268 23.5428 1.97377 22.9948L1.24738 17.2186C1.23207 17.1146 1.23355 17.0099 1.25062 16.9082C1.29837 16.6237 1.46819 16.3631 1.73402 16.2087C1.76005 16.1935 1.78669 16.1796 1.81383 16.1669C2.04066 16.0608 2.28881 16.0472 2.5139 16.1121L8.19736 17.6957C8.72938 17.8439 9.04049 18.3954 8.89225 18.9274C8.74401 19.4594 8.19256 19.7706 7.66054 19.6223L4.64717 18.7827C5.68218 19.9055 6.96888 20.7853 8.4165 21.3409C10.6993 22.2172 13.224 22.2266 15.5133 21.3676C17.8026 20.5085 19.6978 18.8405 20.8406 16.6788C21.9834 14.5171 22.2946 12.0116 21.7153 9.63608C21.1361 7.26051 19.7065 5.1795 17.6969 3.7865C15.6874 2.3935 13.237 1.78506 10.8093 2.07621C8.3815 2.36736 6.14453 3.53793 4.52132 5.36659C2.8981 7.19526 2.00113 9.55528 2 12.0005C1.99975 12.5527 1.55182 13.0002 0.999539 13C0.447254 12.9997 -0.000254435 12.5518 0 11.9995C0.00135441 9.06532 1.07772 6.2333 3.02558 4.0389C4.97344 1.8445 7.6578 0.43982 10.5711 0.0904374ZM13 6C13 5.44772 12.5523 5 12 5C11.4477 5 11 5.44772 11 6V12C11 12.5523 11.4477 13 12 13H18C18.5523 13 19 12.5523 19 12C19 11.4477 18.5523 11 18 11H13V6Z" fill="black"/>
</g>
<defs>
<clipPath id="clip0_236_2604">
<rect width="24" height="24" fill="white"/>
</clipPath>
</defs>
</svg>
