<svg width="24" height="24" viewBox="0 0 24 24" fill="none" xmlns="http://www.w3.org/2000/svg">
<g clip-path="url(#clip0_236_2604)">
<path fill-rule="evenodd" clip-rule="evenodd" d="M11.1263 0.0316768C13.8804 -0.169367 16.6195 0.585555 18.8816 2.16912C21.1438 3.75268 22.7906 6.06797 23.5444 8.72448C24.2981 11.381 24.1125 14.2162 23.019 16.7518C21.9255 19.2874 19.991 21.3683 17.5417 22.6436C15.0925 23.9188 12.2784 24.3103 9.57401 23.752C6.86966 23.1938 4.4406 21.7199 2.69651 19.5791C0.95242 17.4382 3.92199e-05 14.7614 0 12C-7.86781e-06 11.4477 0.447701 11 0.999986 11C1.55227 11 1.99999 11.4477 2 12C2.00003 14.3011 2.79368 16.5318 4.24709 18.3159C5.7005 20.0999 7.72472 21.3281 9.97834 21.7933C12.232 22.2586 14.5771 21.9323 16.6181 20.8696C18.6592 19.8069 20.2713 18.0728 21.1825 15.9598C22.0938 13.8468 22.2484 11.4841 21.6203 9.27037C20.9922 7.05661 19.6199 5.1272 17.7347 3.80757C15.8496 2.48793 13.567 1.85883 11.2719 2.02637C9.35411 2.16637 7.52567 2.85551 5.99989 3.99989L7.79998 6.4L0.599976 6.8L2.99998 1.12278e-06L4.79989 2.39989C6.63082 1.02664 8.82494 0.199678 11.1263 0.0316768ZM12 6C12.5523 6 13 6.44772 13 7V11.5858L16.7071 15.2929C17.0976 15.6834 17.0976 16.3166 16.7071 16.7071C16.3166 17.0976 15.6834 17.0976 15.2929 16.7071L11.2929 12.7071C11.1054 12.5196 11 12.2652 11 12V7C11 6.44772 11.4477 6 12 6Z" fill="black"/>
</g>
<defs>
<clipPath id="clip0_236_2604">
<rect width="24" height="24" fill="white"/>
</clipPath>
</defs>
</svg>
