<svg width="24" height="24" viewBox="0 0 24 24" fill="none" xmlns="http://www.w3.org/2000/svg">
<path fill-rule="evenodd" clip-rule="evenodd" d="M14.9701 4.24253C15.1041 3.70673 14.7783 3.1638 14.2425 3.02985C13.7067 2.8959 13.1638 3.22166 13.0299 3.75746L9.02986 19.7575C8.89591 20.2933 9.22167 20.8362 9.75746 20.9701C10.2933 21.1041 10.8362 20.7783 10.9701 20.2425L14.9701 4.24253ZM6.70711 7.29289C7.09763 7.68341 7.09763 8.31658 6.70711 8.7071L3.41421 12L6.70711 15.2929C7.09763 15.6834 7.09763 16.3166 6.70711 16.7071C6.31658 17.0976 5.68342 17.0976 5.29289 16.7071L1.29289 12.7071C0.902369 12.3166 0.902369 11.6834 1.29289 11.2929L5.29289 7.29289C5.68342 6.90236 6.31658 6.90236 6.70711 7.29289ZM17.2929 7.29289C17.6834 6.90236 18.3166 6.90236 18.7071 7.29289L22.7071 11.2929C23.0976 11.6834 23.0976 12.3166 22.7071 12.7071L18.7071 16.7071C18.3166 17.0976 17.6834 17.0976 17.2929 16.7071C16.9024 16.3166 16.9024 15.6834 17.2929 15.2929L20.5858 12L17.2929 8.7071C16.9024 8.31658 16.9024 7.68341 17.2929 7.29289Z" fill="black"/>
</svg>
