<svg width="24" height="24" viewBox="0 0 24 24" fill="none" xmlns="http://www.w3.org/2000/svg">
<path fill-rule="evenodd" clip-rule="evenodd" d="M9.5 2.5C9.5 1.11929 10.6193 0 12 0C13.3807 0 14.5 1.11929 14.5 2.5C14.5 3.27642 14.1461 3.97017 13.5907 4.42871L15.4945 11.0912L19.1722 7.41353C19.061 7.13056 19 6.82241 19 6.5C19 5.11929 20.1193 4 21.5 4C22.8807 4 24 5.11929 24 6.5C24 7.76375 23.0623 8.8085 21.8447 8.97643L19.3184 18H21C21.5523 18 22 18.4477 22 19V23C22 23.5523 21.5523 24 21 24H3C2.44772 24 2 23.5523 2 23V19C2 18.4477 2.44772 18 3 18H4.68166L2.15536 8.97644C0.937735 8.80855 0 7.76378 0 6.5C0 5.11929 1.11929 4 2.5 4C3.88071 4 5 5.11929 5 6.5C5 6.82242 4.93896 7.13059 4.82782 7.41357L8.50544 11.0912L10.4092 4.42868C9.85392 3.97014 9.5 3.2764 9.5 2.5ZM5.97758 20C5.99218 20.0003 6.00681 20.0003 6.02149 20H17.9786C17.9933 20.0003 18.0079 20.0003 18.0225 20H20V22H4V20H5.97758ZM17.2415 18H6.75856L4.49277 9.90696L8.29293 13.7071C8.54347 13.9577 8.90788 14.0569 9.25086 13.968C9.59385 13.8792 9.8642 13.6154 9.96155 13.2748L12 6.14106L14.0384 13.2748C14.1357 13.6154 14.4061 13.8792 14.7491 13.968C15.0921 14.0569 15.4565 13.9577 15.707 13.7071L19.5074 9.90678L17.2415 18Z" fill="black"/>
</svg>
