<svg width="24" height="24" viewBox="0 0 24 24" fill="none" xmlns="http://www.w3.org/2000/svg">
<path fill-rule="evenodd" clip-rule="evenodd" d="M3 2C2.20435 2 1.44129 2.31607 0.87868 2.87868C0.316071 3.44129 0 4.20435 0 5L0 8C0 8.36594 0.199887 8.70266 0.521148 8.8779L11.5211 14.8779C11.8196 15.0407 12.1804 15.0407 12.4789 14.8779L23.4789 8.8779C23.8001 8.70266 24 8.36594 24 8V5C24 4.20435 23.6839 3.44129 23.1213 2.87868C22.5587 2.31607 21.7957 2 21 2H3ZM2.29289 4.29289C2.48043 4.10536 2.73478 4 3 4H21C21.2652 4 21.5196 4.10536 21.7071 4.29289C21.8946 4.48043 22 4.73478 22 5V7.40637L12 12.8609L2 7.40637V5C2 4.73478 2.10536 4.48043 2.29289 4.29289ZM2 13C2 12.4477 1.55228 12 1 12C0.447715 12 0 12.4477 0 13L0 19C0 19.7957 0.316071 20.5587 0.87868 21.1213C1.44129 21.6839 2.20435 22 3 22H21C21.7957 22 22.5587 21.6839 23.1213 21.1213C23.6839 20.5587 24 19.7957 24 19V13C24 12.4477 23.5523 12 23 12C22.4477 12 22 12.4477 22 13V19C22 19.2652 21.8946 19.5196 21.7071 19.7071C21.5196 19.8946 21.2652 20 21 20H3C2.73478 20 2.48043 19.8946 2.29289 19.7071C2.10536 19.5196 2 19.2652 2 19V13Z" fill="black"/>
</svg>
