<svg width="24" height="24" viewBox="0 0 24 24" fill="none" xmlns="http://www.w3.org/2000/svg">
<path fill-rule="evenodd" clip-rule="evenodd" d="M22.7071 2.70711C23.0976 2.31658 23.0976 1.68342 22.7071 1.29289C22.3166 0.902369 21.6834 0.902369 21.2929 1.29289L17.8224 4.76334C16.1664 3.74341 14.2043 3 12 3C9.10624 3 6.62978 4.28128 4.71524 5.78743C2.79861 7.29522 1.37305 9.08366 0.556238 10.2401L0.55623 10.2401L0.553589 10.2438C0.193496 10.7587 0.000366211 11.3717 0.000366211 12C0.000366211 12.6283 0.193496 13.2413 0.553589 13.7562L0.55358 13.7562L0.556238 13.7599C1.3458 14.8778 2.70416 16.5861 4.52504 18.0607L1.29289 21.2929C0.902369 21.6834 0.902369 22.3166 1.29289 22.7071C1.68342 23.0976 2.31658 23.0976 2.70711 22.7071L6.17758 19.2366C7.83365 20.2566 9.79577 21 12 21C14.8938 21 17.3703 19.7187 19.2848 18.2126C21.2015 16.7048 22.627 14.9163 23.4438 13.7599L23.4465 13.7562C23.8066 13.2413 23.9997 12.6283 23.9997 12C23.9997 11.3717 23.8066 10.7587 23.4465 10.2438L23.4438 10.2401C22.6543 9.12223 21.2959 7.41384 19.475 5.93922L22.7071 2.70711ZM16.3621 6.22367C15.0434 5.48253 13.578 5 12 5C9.71283 5 7.66229 6.01372 5.95183 7.35932C4.2446 8.70238 2.94775 10.3212 2.19134 11.3918C2.06703 11.5702 2.00037 11.7825 2.00037 12C2.00037 12.2175 2.06703 12.4298 2.19137 12.6082C2.94722 13.6781 4.24271 15.2953 5.94807 16.6377L7.8284 14.7574C7.30488 13.967 7 13.0191 7 12C7 9.23858 9.23858 7 12 7C13.0191 7 13.967 7.30488 14.7574 7.8284L16.3621 6.22367ZM16.1716 9.24261L18.052 7.36225C19.7573 8.70473 21.0529 10.3219 21.8087 11.3918C21.933 11.5702 21.9997 11.7825 21.9997 12C21.9997 12.2175 21.933 12.4298 21.8087 12.6083C21.0523 13.6789 19.7554 15.2976 18.0482 16.6407C16.3378 17.9863 14.2872 19 12 19C10.422 19 8.95665 18.5175 7.6379 17.7763L9.24261 16.1716C10.033 16.6951 10.9809 17 12 17C14.7614 17 17 14.7614 17 12C17 10.9809 16.6951 10.033 16.1716 9.24261ZM13.2934 9.29237C12.9018 9.10495 12.4631 9 12 9C10.3431 9 9 10.3431 9 12C9 12.4631 9.10495 12.9018 9.29237 13.2934L13.2934 9.29237ZM10.7066 14.7076L14.7076 10.7066C14.895 11.0982 15 11.5369 15 12C15 13.6569 13.6569 15 12 15C11.5369 15 11.0982 14.895 10.7066 14.7076Z" fill="black"/>
</svg>
