<svg width="24" height="24" viewBox="0 0 24 24" fill="none" xmlns="http://www.w3.org/2000/svg">
<path fill-rule="evenodd" clip-rule="evenodd" d="M2 1C2 0.447715 2.44772 0 3 0H15C15.1247 0 15.247 0.0232953 15.3611 0.067476C15.7349 0.203975 16 0.500002 16 0.500002L21.5 6C21.5 6 21.7958 6.26485 21.9323 6.63842C21.9766 6.75264 22 6.87512 22 7V23C22 23.5523 21.5523 24 21 24H3C2.44772 24 2 23.5523 2 23V1ZM4 2H14V7C14 7.55228 14.4477 8 15 8H20V22H4V2ZM7 6C6.44772 6 6 6.44772 6 7C6 7.55228 6.44772 8 7 8H11C11.5523 8 12 7.55228 12 7C12 6.44772 11.5523 6 11 6H7ZM6 12C6 11.4477 6.44772 11 7 11H17C17.5523 11 18 11.4477 18 12C18 12.5523 17.5523 13 17 13H7C6.44772 13 6 12.5523 6 12ZM7 16C6.44772 16 6 16.4477 6 17C6 17.5523 6.44772 18 7 18H17C17.5523 18 18 17.5523 18 17C18 16.4477 17.5523 16 17 16H7Z" fill="black"/>
</svg>
