<svg width="24" height="24" viewBox="0 0 24 24" fill="none" xmlns="http://www.w3.org/2000/svg">
<path fill-rule="evenodd" clip-rule="evenodd" d="M2 1C2 0.447715 2.44772 0 3 0L15 0C15.1247 0 15.247 0.0232953 15.3611 0.067476C15.7349 0.203975 16 0.500002 16 0.500002L21.5 6C21.5 6 21.7958 6.26485 21.9323 6.63842C21.9766 6.75264 22 6.87512 22 7V23C22 23.5523 21.5523 24 21 24H3C2.44772 24 2 23.5523 2 23V1ZM4 2H14V7C14 7.55228 14.4477 8 15 8H20V22H4V2ZM14.6819 10.3595L12.0246 12.7676L9.31651 10.3595C8.78647 9.88017 7.92795 9.88017 7.39763 10.3595C6.86731 10.8388 6.8676 11.6152 7.39763 12.0947L10.108 14.5008L7.44908 16.9053C6.91905 17.3846 6.91905 18.1609 7.44908 18.6405C7.97912 19.1196 8.83707 19.12 9.36796 18.6405L12.0246 16.234L14.6836 18.6385C15.2136 19.1176 16.0716 19.118 16.6025 18.6385C17.1325 18.1592 17.1325 17.3828 16.6025 16.9032L13.9413 14.5008L16.6002 12.0963C17.1302 11.617 17.1302 10.8406 16.6002 10.361C16.0702 9.88145 15.2134 9.88401 14.6819 10.3595Z" fill="black"/>
</svg>
