<svg width="24" height="24" viewBox="0 0 24 24" fill="none" xmlns="http://www.w3.org/2000/svg">
<path fill-rule="evenodd" clip-rule="evenodd" d="M2 1C2 0.447715 2.44772 0 3 0L15 0C15.1247 0 15.247 0.0232953 15.3611 0.067476C15.7349 0.203975 16 0.500002 16 0.500002L21.5 6C21.5 6 21.7958 6.26485 21.9323 6.63842C21.9766 6.75264 22 6.87512 22 7V23C22 23.5523 21.5523 24 21 24H3C2.44772 24 2 23.5523 2 23V1ZM4 2H14V7C14 7.55228 14.4477 8 15 8H20V22H4V2ZM12.6255 13.0418C12.5836 13.1635 12.5407 13.2835 12.4971 13.4025C12.8252 13.9428 13.2379 14.4122 13.7266 14.8145C14.9627 14.6274 15.8469 14.5824 15.9825 14.5769H16.1668C17.1776 14.5769 18 15.3093 18 16.2096C18 17.125 17.2109 17.8419 16.2036 17.8419C15.9535 17.8419 15.7112 17.8066 15.4861 17.738C14.6502 17.4873 13.887 17.1458 13.2132 16.7216C12.2188 16.9112 11.3198 17.1489 10.5342 17.4302C9.93303 18.4067 9.38319 19.1427 9.01912 19.5979C8.70885 19.9855 8.20268 20.217 7.66567 20.217C6.74829 20.217 6.00195 19.5523 6.00195 18.7352C6.00195 18.2933 6.15773 17.9256 6.46771 17.6405C7.14194 17.0276 8.02452 16.4909 9.09306 16.0432C9.58233 15.196 10.0067 14.3352 10.3565 13.4778C9.67601 11.9947 9.66786 10.7321 9.66786 10.7189C9.66786 9.89965 10.4137 9.23538 11.3336 9.23538C12.2534 9.23538 12.9993 9.89965 12.9978 10.7182C12.9978 11.6451 12.6968 12.7867 12.6255 13.0418ZM11.6668 10.719C11.6668 10.5554 11.5171 10.4222 11.3335 10.4222C11.1495 10.4222 11.0003 10.5551 11.0003 10.7189C11.0003 10.7942 11.0103 11.5825 11.381 12.5834C11.4624 12.2619 11.6668 11.3926 11.6668 10.719ZM7.33427 18.6718C7.33427 19.03 7.76969 19.1147 7.93243 18.9071C8.13629 18.6546 8.53408 18.141 9.00391 17.4197C8.41171 17.7151 7.86874 18.0619 7.42024 18.4701C7.36554 18.5199 7.33427 18.5942 7.33427 18.6718ZM10.523 16.157C10.8785 15.5109 11.2001 14.8503 11.4866 14.1775C11.8043 14.6611 12.2106 15.1456 12.7277 15.5933C12.0296 15.7363 11.2738 15.9179 10.523 16.157ZM16.1641 15.7673H15.9974C15.9825 15.7673 15.2964 15.8027 14.2915 15.9435C14.7603 16.2035 15.2964 16.433 15.9094 16.6162C15.9986 16.6439 16.0995 16.6579 16.2004 16.6579C16.4562 16.6579 16.6638 16.4723 16.6638 16.2451C16.6638 15.9666 16.4395 15.7673 16.1641 15.7673Z" fill="black"/>
</svg>
