<svg width="24" height="24" viewBox="0 0 24 24" fill="none" xmlns="http://www.w3.org/2000/svg">
<path fill-rule="evenodd" clip-rule="evenodd" d="M2 1C2 0.447715 2.44772 0 3 0L15 0C15.1247 0 15.247 0.0232953 15.3611 0.067476C15.7349 0.203975 16 0.500002 16 0.500002L21.5 6C21.5 6 21.7958 6.26485 21.9323 6.63842C21.9766 6.75264 22 6.87512 22 7V23C22 23.5523 21.5523 24 21 24H3C2.44772 24 2 23.5523 2 23V1ZM4 2H14V7C14 7.55228 14.4477 8 15 8H20V22H4V2ZM8.58064 13.0769C9.5312 13.0769 10.3021 12.388 10.3021 11.5385C10.3021 10.6889 9.53281 10 8.58064 10C7.62846 10 6.85919 10.6875 6.85919 11.5385C6.85919 12.3894 7.62846 13.0769 8.58064 13.0769ZM13.277 13.2692C13.0252 13.2692 12.7901 13.3817 12.6502 13.5689L10.5173 16.4327L9.88894 15.5899C9.82075 15.4974 9.72796 15.4214 9.61887 15.3688C9.50978 15.3162 9.38779 15.2886 9.26384 15.2885C9.01197 15.2885 8.77683 15.401 8.63712 15.5882L6.1265 18.9536C6.05088 19.0549 6.00746 19.1727 6.00088 19.2944C5.99429 19.416 6.02479 19.537 6.08911 19.6444C6.21849 19.8654 6.47402 20 6.70319 20H17.247C17.5248 20 17.78 19.8633 17.9109 19.6445C17.9752 19.5371 18.0057 19.4161 17.9991 19.2944C17.9925 19.1727 17.9491 19.055 17.8735 18.9536L13.8566 13.569C13.7665 13.3798 13.5298 13.2692 13.277 13.2692Z" fill="black"/>
</svg>
