<svg width="24" height="24" viewBox="0 0 24 24" fill="none" xmlns="http://www.w3.org/2000/svg">
<g clip-path="url(#clip0_1150_5542)">
<path fill-rule="evenodd" clip-rule="evenodd" d="M12 0.299988C5.4 0.299988 0 5.69999 0 12.3C0 17.6 3.4 22.1 8.2 23.7C8.8 23.8 9 23.4 9 23.1C9 22.8 9 22.1 9 21.1C5.7 21.8 5 19.5 5 19.5C4.5 18.1 3.7 17.7 3.7 17.7C2.5 17 3.7 17 3.7 17C4.9 17.1 5.5 18.2 5.5 18.2C6.6 20 8.3 19.5 9 19.2C9.1 18.4 9.4 17.9 9.8 17.6C7.1 17.3 4.3 16.3 4.3 11.7C4.3 10.4 4.8 9.29999 5.5 8.49999C5.5 8.09999 5 6.89999 5.7 5.29999C5.7 5.29999 6.7 4.99999 9 6.49999C10 6.19999 11 6.09999 12 6.09999C13 6.09999 14 6.19999 15 6.49999C17.3 4.89999 18.3 5.29999 18.3 5.29999C19 6.99999 18.5 8.19999 18.4 8.49999C19.2 9.29999 19.6 10.4 19.6 11.7C19.6 16.3 16.8 17.3 14.1 17.6C14.5 18 14.9 18.7 14.9 19.8C14.9 21.4 14.9 22.7 14.9 23.1C14.9 23.4 15.1 23.8 15.7 23.7C20.5 22.1 23.9 17.6 23.9 12.3C24 5.69999 18.6 0.299988 12 0.299988Z" fill="black"/>
</g>
<defs>
<clipPath id="clip0_1150_5542">
<rect width="24" height="24" fill="white"/>
</clipPath>
</defs>
</svg>
