<svg width="24" height="24" viewBox="0 0 24 24" fill="none" xmlns="http://www.w3.org/2000/svg">
<path fill-rule="evenodd" clip-rule="evenodd" d="M1 0C0.447715 0 0 0.447715 0 1V10C0 10.5523 0.447715 11 1 11H10C10.5523 11 11 10.5523 11 10V1C11 0.447715 10.5523 0 10 0H1ZM2 9V2H9V9H2ZM23 11C23.5523 11 24 10.5523 24 10V1C24 0.447715 23.5523 0 23 0H14C13.4477 0 13 0.447715 13 1V10C13 10.5523 13.4477 11 14 11H23ZM22 2V9H15V2H22ZM0 14C0 13.4477 0.447715 13 1 13H10C10.5523 13 11 13.4477 11 14V23C11 23.5523 10.5523 24 10 24H1C0.447715 24 0 23.5523 0 23V14ZM2 15V22H9V15H2ZM23 24C23.5523 24 24 23.5523 24 23V14C24 13.4477 23.5523 13 23 13H14C13.4477 13 13 13.4477 13 14V23C13 23.5523 13.4477 24 14 24H23ZM22 15V22H15V15H22Z" fill="black"/>
</svg>
