<svg width="24" height="24" viewBox="0 0 24 24" fill="none" xmlns="http://www.w3.org/2000/svg">
<path fill-rule="evenodd" clip-rule="evenodd" d="M6 1C5.44772 1 5 1.44772 5 2V6C5 6.55228 5.44772 7 6 7H10C10.5523 7 11 6.55228 11 6V2C11 1.44772 10.5523 1 10 1H6ZM7 5V3H9V5H7ZM6 9C5.44772 9 5 9.44771 5 10V14C5 14.5523 5.44772 15 6 15H10C10.5523 15 11 14.5523 11 14V10C11 9.44771 10.5523 9 10 9H6ZM7 13V11H9V13H7ZM5 18C5 17.4477 5.44772 17 6 17H10C10.5523 17 11 17.4477 11 18V22C11 22.5523 10.5523 23 10 23H6C5.44772 23 5 22.5523 5 22V18ZM7 19V21H9V19H7ZM14 1C13.4477 1 13 1.44772 13 2V6C13 6.55228 13.4477 7 14 7H18C18.5523 7 19 6.55228 19 6V2C19 1.44772 18.5523 1 18 1H14ZM15 5V3H17V5H15ZM13 10C13 9.44771 13.4477 9 14 9H18C18.5523 9 19 9.44771 19 10V14C19 14.5523 18.5523 15 18 15H14C13.4477 15 13 14.5523 13 14V10ZM15 11V13H17V11H15ZM14 17C13.4477 17 13 17.4477 13 18V22C13 22.5523 13.4477 23 14 23H18C18.5523 23 19 22.5523 19 22V18C19 17.4477 18.5523 17 18 17H14ZM15 21V19H17V21H15Z" fill="black"/>
</svg>
