<svg width="24" height="24" viewBox="0 0 24 24" fill="none" xmlns="http://www.w3.org/2000/svg">
<g clip-path="url(#clip0_792_2892)">
<path fill-rule="evenodd" clip-rule="evenodd" d="M11.4854 0.142507C11.8021 -0.0475024 12.1977 -0.0475024 12.5144 0.142507L22.5144 6.14251C22.8156 6.32323 22.9999 6.64874 22.9999 7C22.9999 7.35126 22.8156 7.67677 22.5144 7.85749L12.5144 13.8575C12.1977 14.0475 11.8021 14.0475 11.4854 13.8575L1.48541 7.85749C1.18421 7.67677 0.999907 7.35126 0.999907 7C0.999907 6.64874 1.18421 6.32323 1.48541 6.14251L11.4854 0.142507ZM3.94356 7L11.9999 11.8338L20.0563 7L11.9999 2.16619L3.94356 7ZM1.14241 11.4855C1.42656 11.0119 2.04082 10.8584 2.5144 11.1425L11.9999 16.8338L21.4854 11.1425C21.959 10.8584 22.5733 11.0119 22.8574 11.4855C23.1415 11.9591 22.988 12.5733 22.5144 12.8575L12.5144 18.8575C12.1977 19.0475 11.8021 19.0475 11.4854 18.8575L1.48541 12.8575C1.01183 12.5733 0.858266 11.9591 1.14241 11.4855ZM2.5144 16.1425C2.04082 15.8584 1.42656 16.0119 1.14241 16.4855C0.858266 16.9591 1.01183 17.5733 1.48541 17.8575L11.4854 23.8575C11.8021 24.0475 12.1977 24.0475 12.5144 23.8575L22.5144 17.8575C22.988 17.5733 23.1415 16.9591 22.8574 16.4855C22.5733 16.0119 21.959 15.8584 21.4854 16.1425L11.9999 21.8338L2.5144 16.1425Z" fill="black"/>
</g>
<defs>
<clipPath id="clip0_792_2892">
<rect width="24" height="24" fill="white"/>
</clipPath>
</defs>
</svg>
