<svg width="24" height="24" viewBox="0 0 24 24" fill="none" xmlns="http://www.w3.org/2000/svg">
<path fill-rule="evenodd" clip-rule="evenodd" d="M14.1071 4.20711C15.7166 2.59763 18.1834 2.59763 19.7929 4.20711C21.4001 5.8143 21.4023 8.27641 19.7997 9.88603L17.3074 12.2786C16.909 12.6611 16.8961 13.2941 17.2786 13.6925C17.6611 14.0909 18.2941 14.1039 18.6925 13.7214L21.1925 11.3214L21.2071 11.3071C23.5976 8.91658 23.5976 5.18342 21.2071 2.79289C18.8166 0.402369 15.0834 0.402369 12.6929 2.79289L9.89287 5.59289C7.50234 7.98342 7.50234 11.7166 9.89287 14.1071C10.2834 14.4976 10.9166 14.4976 11.3071 14.1071C11.6976 13.7166 11.6976 13.0834 11.3071 12.6929C9.69761 11.0834 9.69761 8.61658 11.3071 7.00711L14.1071 4.20711ZM14.1071 9.8929C13.7166 9.50237 13.0834 9.50237 12.6929 9.8929C12.3024 10.2834 12.3024 10.9166 12.6929 11.3071C14.3024 12.9166 14.3024 15.3834 12.6929 16.9929L9.89289 19.7929C8.28342 21.4024 5.81658 21.4024 4.20711 19.7929C2.59991 18.1857 2.59763 15.7236 4.20027 14.114L6.69253 11.7214C7.09094 11.3389 7.10386 10.7059 6.72139 10.3075C6.33891 9.90906 5.70588 9.89614 5.30747 10.2786L2.80747 12.6786L2.79289 12.6929C0.402369 15.0834 0.402369 18.8166 2.79289 21.2071C5.18342 23.5976 8.91658 23.5976 11.3071 21.2071L14.1071 18.4071C16.4976 16.0166 16.4976 12.2834 14.1071 9.8929Z" fill="black"/>
</svg>
