<svg width="24" height="24" viewBox="0 0 24 24" fill="none" xmlns="http://www.w3.org/2000/svg">
<g clip-path="url(#clip0_833_2976)">
<path fill-rule="evenodd" clip-rule="evenodd" d="M12.1 2.563e-06H12.0047C10.4287 -0.0143038 8.91125 0.597209 7.78546 1.70048C6.65844 2.80496 6.01623 4.31184 6.00005 5.88975L6 5.88975V5.9V7C6 7.55229 6.44772 8 7 8C7.55228 8 8 7.55229 8 7V5.90542C8.012 4.85957 8.43822 3.86106 9.18532 3.1289C9.93358 2.39561 10.9424 1.98953 11.9901 1.99995L11.99 2H12H12.0946C13.1404 2.012 14.1389 2.43822 14.8711 3.18532C15.6044 3.93358 16.0105 4.94244 16 5.99005L16 5.99005V6V7C16 7.55229 16.4477 8 17 8C17.5523 8 18 7.55229 18 7V6.00474C18.0143 4.42869 17.4028 2.91125 16.2995 1.78547C15.195 0.658445 13.6882 0.0162318 12.1103 5.51343e-05V2.563e-06H12.1ZM5 12C4.44772 12 4 12.4477 4 13V21C4 21.5523 4.44772 22 5 22H19C19.5523 22 20 21.5523 20 21V13C20 12.4477 19.5523 12 19 12H5ZM2 13C2 11.3431 3.34315 10 5 10H19C20.6569 10 22 11.3431 22 13V21C22 22.6569 20.6569 24 19 24H5C3.34315 24 2 22.6569 2 21V13ZM12 16C11.4477 16 11 16.4477 11 17C11 17.5523 11.4477 18 12 18C12.5523 18 13 17.5523 13 17C13 16.4477 12.5523 16 12 16ZM9 17C9 15.3431 10.3431 14 12 14C13.6569 14 15 15.3431 15 17C15 18.6569 13.6569 20 12 20C10.3431 20 9 18.6569 9 17Z" fill="black"/>
</g>
<defs>
<clipPath id="clip0_833_2976">
<rect width="24" height="24" fill="white"/>
</clipPath>
</defs>
</svg>
