<svg width="24" height="24" viewBox="0 0 24 24" fill="none" xmlns="http://www.w3.org/2000/svg">
<path fill-rule="evenodd" clip-rule="evenodd" d="M15 0C15.5523 0 16 0.447715 16 1V2H17C17.5523 2 18 2.44772 18 3C18 3.55228 17.5523 4 17 4H16V5C16 5.55228 15.5523 6 15 6C14.4477 6 14 5.55228 14 5V4H13C12.4477 4 12 3.55228 12 3C12 2.44772 12.4477 2 13 2H14V1C14 0.447715 14.4477 0 15 0ZM9.14435 2.7322C9.39317 3.00955 9.46716 3.40224 9.33633 3.75112C9.09442 4.3962 9 5.16387 9 5.99999C9 10.9477 13.0523 15 18 15C18.8361 15 19.6038 14.9056 20.2489 14.6637C20.5978 14.5328 20.9904 14.6068 21.2678 14.8556C21.5451 15.1045 21.6611 15.4868 21.5688 15.8478C20.3559 20.589 16.0583 24 11 24C4.94772 24 0 19.0523 0 13C0 7.9417 3.411 3.64405 8.15217 2.43119C8.51315 2.33885 8.89553 2.45486 9.14435 2.7322ZM7.047 4.94873C4.04111 6.38163 2 9.45685 2 13C2 17.9477 6.05228 22 11 22C14.5431 22 17.6184 19.9589 19.0513 16.953C18.6965 16.9866 18.3439 17 18 17C11.9477 17 7 12.0523 7 5.99999C7 5.65608 7.01344 5.30345 7.047 4.94873ZM21 6C21.5523 6 22 6.44772 22 7V8H23C23.5523 8 24 8.44771 24 9C24 9.55229 23.5523 10 23 10H22V11C22 11.5523 21.5523 12 21 12C20.4477 12 20 11.5523 20 11V10H19C18.4477 10 18 9.55229 18 9C18 8.44771 18.4477 8 19 8H20V7C20 6.44772 20.4477 6 21 6Z" fill="black"/>
</svg>
