<svg width="24" height="24" viewBox="0 0 24 24" fill="none" xmlns="http://www.w3.org/2000/svg">
<path fill-rule="evenodd" clip-rule="evenodd" d="M18.7071 1.29289C18.3166 0.902369 17.6834 0.902369 17.2929 1.29289C16.9024 1.68342 16.9024 2.31658 17.2929 2.70711L19.5858 5H19C16.0826 5 13.2847 6.15893 11.2218 8.22183C9.15893 10.2847 8 13.0826 8 16C8 16.5523 8.44772 17 9 17C9.55229 17 10 16.5523 10 16C10 13.6131 10.9482 11.3239 12.636 9.63604C14.3239 7.94821 16.6131 7 19 7H19.5858L17.2929 9.29289C16.9024 9.68342 16.9024 10.3166 17.2929 10.7071C17.6834 11.0976 18.3166 11.0976 18.7071 10.7071L22.7071 6.70711C22.8902 6.52405 22.9874 6.28768 22.9989 6.04797C22.9996 6.03199 23 6.016 23 6M23 5.99077C22.9976 5.73793 22.9 5.48581 22.7071 5.29289L18.7071 1.29289M1 8C1 7.44772 1.44772 7 2 7H7C7.55228 7 8 7.44772 8 8C8 8.55228 7.55228 9 7 9H3V21H17V15C17 14.4477 17.4477 14 18 14C18.5523 14 19 14.4477 19 15V22C19 22.5523 18.5523 23 18 23H2C1.44772 23 1 22.5523 1 22V8Z" fill="black"/>
</svg>
