<svg width="24" height="24" viewBox="0 0 24 24" fill="none" xmlns="http://www.w3.org/2000/svg">
<path fill-rule="evenodd" clip-rule="evenodd" d="M18 0L24 5L18 10V6.059C15.8013 6.30703 13.7708 7.35541 12.2954 9.00432C10.8201 10.6532 10.003 12.7874 10 15H8C8.00363 12.2573 9.0308 9.61476 10.8804 7.58962C12.73 5.56448 15.2689 4.3026 18 4.051V0ZM1.29289 22.7071C1.48043 22.8946 1.73478 23 2 23H18C18.2652 23 18.5196 22.8946 18.7071 22.7071C18.8946 22.5196 19 22.2652 19 22V14H17V21H3V7H8V5H2C1.73478 5 1.48043 5.10536 1.29289 5.29289C1.10536 5.48043 1 5.73478 1 6V22C1 22.2652 1.10536 22.5196 1.29289 22.7071Z" fill="black"/>
</svg>
