<svg width="24" height="24" viewBox="0 0 24 24" fill="none" xmlns="http://www.w3.org/2000/svg">
<path fill-rule="evenodd" clip-rule="evenodd" d="M22.691 1.73437C22.7652 1.1871 22.3817 0.683283 21.8344 0.609071C21.2871 0.53486 20.7833 0.918354 20.7091 1.46563L20.2655 4.73706C18.2617 2.42542 15.2879 0.999996 12 0.999996C5.94772 0.999996 1 5.94771 1 12C1 12.5523 1.44772 13 2 13C2.55228 13 3 12.5523 3 12C3 7.05228 7.05228 3 12 3C14.7844 3 17.2761 4.24175 18.9043 6.22505L15.0322 5.70877C14.4848 5.63578 13.9818 6.0204 13.9088 6.56784C13.8358 7.11528 14.2204 7.61824 14.7679 7.69123L20.7678 8.49122C21.3144 8.5641 21.8168 8.18078 21.8909 7.63437L22.691 1.73437ZM23.0001 12C23.0001 11.4477 22.5524 11 22.0001 11C21.4478 11 21.0001 11.4477 21.0001 12C21.0001 12.9378 20.8544 13.8422 20.5856 14.6926C20.4191 15.2192 20.7111 15.7811 21.2377 15.9475C21.7643 16.1139 22.3262 15.822 22.4926 15.2954C22.8218 14.2537 23.0001 13.1462 23.0001 12ZM3.99977 16.0634C3.75867 15.5666 3.16042 15.3592 2.66354 15.6003C2.16666 15.8414 1.95931 16.4397 2.20041 16.9365C2.67186 17.9082 3.28439 18.7931 4.01 19.5683C4.38741 19.9716 5.02022 19.9925 5.42344 19.6151C5.82666 19.2377 5.84758 18.6049 5.47017 18.2016C4.87978 17.5709 4.38232 16.8518 3.99977 16.0634ZM19.8484 19.6899C20.2349 19.2954 20.2285 18.6623 19.834 18.2757C19.4395 17.8892 18.8064 17.8956 18.4199 18.2901C17.7177 19.0067 16.8968 19.6076 15.9923 20.0594C15.4982 20.3062 15.2977 20.9068 15.5445 21.4008C15.7913 21.8949 16.3919 22.0954 16.886 21.8486C17.9914 21.2964 18.9926 20.5633 19.8484 19.6899ZM8.89137 20.4564C8.37244 20.2674 7.79853 20.5348 7.6095 21.0537C7.42046 21.5726 7.6879 22.1466 8.20683 22.3356C9.31038 22.7376 10.4948 22.9671 11.726 22.9967C12.2782 23.01 12.7365 22.5732 12.7498 22.021C12.7631 21.4689 12.3263 21.0106 11.7742 20.9973C10.7614 20.9729 9.79181 20.7844 8.89137 20.4564ZM9 10.5C9 11.3284 8.32843 12 7.5 12C6.67157 12 6 11.3284 6 10.5C6 9.67157 6.67157 9 7.5 9C8.32843 9 9 9.67157 9 10.5ZM18 10.5C18 11.3284 17.3284 12 16.5 12C15.6716 12 15 11.3284 15 10.5C15 9.67157 15.6716 9 16.5 9C17.3284 9 18 9.67157 18 10.5ZM7 16C7 15.4477 7.44772 15 8 15H16C16.5523 15 17 15.4477 17 16C17 16.5523 16.5523 17 16 17H8C7.44772 17 7 16.5523 7 16Z" fill="black"/>
</svg>
