<svg width="24" height="24" viewBox="0 0 24 24" fill="none" xmlns="http://www.w3.org/2000/svg">
<path fill-rule="evenodd" clip-rule="evenodd" d="M19.878 2.99997C19.5806 2.99997 19.2953 3.11808 19.0849 3.32834L11.8966 10.526C12.2234 10.7121 12.5245 10.9414 12.7916 11.2084C13.06 11.4769 13.2904 11.7798 13.477 12.1087L20.6707 4.91413C20.8809 4.70373 20.999 4.41846 20.999 4.12101C20.999 3.82364 20.881 3.53844 20.6708 3.32807C20.4605 3.11798 20.1753 2.99997 19.878 2.99997ZM10.1453 11.9995C10.01 12.0192 9.87127 12.0112 9.73853 11.9754C9.46654 11.9844 9.19835 12.0435 8.94749 12.1499C8.6779 12.2642 8.43367 12.4308 8.22893 12.6402L8.22253 12.6467C8.08483 12.785 7.89155 13.1278 7.70079 13.7237C7.52103 14.2853 7.38049 14.9499 7.27365 15.6039C7.19759 16.0694 7.14054 16.5175 7.09865 16.9013C7.48251 16.8595 7.93056 16.8024 8.39613 16.7263C9.05011 16.6195 9.7147 16.479 10.2763 16.2992C10.8722 16.1085 11.215 15.9152 11.3533 15.7775L11.3598 15.771C11.5691 15.5663 11.7358 15.3221 11.8501 15.0525C11.9613 14.7905 12.0208 14.5095 12.0255 14.225C12.0004 14.1156 11.9938 14.0028 12.0059 13.8916C11.9806 13.7049 11.9316 13.5217 11.8596 13.3466C11.7483 13.0758 11.5844 12.8297 11.3774 12.6226C11.1703 12.4156 10.9242 12.2517 10.6534 12.1404C10.4899 12.0732 10.3193 12.026 10.1453 11.9995ZM17.6704 1.91437L9.61667 9.9787C9.11807 10.0018 8.62706 10.1134 8.1667 10.3086C7.6549 10.5256 7.19111 10.8417 6.80204 11.2388C6.31472 11.73 6.00618 12.4574 5.796 13.114C5.57432 13.8065 5.41473 14.578 5.29982 15.2814C5.18419 15.9892 5.10994 16.6524 5.06456 17.1371C5.04181 17.3802 5.02616 17.5799 5.01615 17.72C5.01114 17.7901 5.00754 17.8453 5.00515 17.8836L5.00246 17.9282L5.00175 17.9405L5.00147 17.9456C4.9861 18.2292 5.09205 18.5063 5.29288 18.7071C5.49371 18.908 5.77117 19.0139 6.05477 18.9985L6.0595 18.9982L6.07183 18.9975L6.11641 18.9949C6.15473 18.9925 6.20994 18.9889 6.28 18.9838C6.42005 18.9738 6.61983 18.9582 6.86287 18.9354C7.3476 18.8901 8.01081 18.8158 8.71859 18.7002C9.42198 18.5853 10.1935 18.4257 10.886 18.204C11.5426 17.9938 12.27 17.6853 12.7613 17.1979C13.1583 16.8089 13.4744 16.3451 13.6914 15.8333C13.8853 15.376 13.9967 14.8885 14.0208 14.3934L22.0853 6.32789C22.6704 5.74246 22.999 4.94867 22.999 4.12101C22.999 3.29335 22.6699 2.49911 22.0849 1.91368C21.4995 1.32862 20.7057 0.999969 19.878 0.999969C19.0503 0.999969 18.2559 1.32931 17.6704 1.91437ZM6.05477 18.9985L5.99999 18C6.05407 18.9986 6.05462 18.9985 6.05477 18.9985ZM5.99999 18L5.00147 17.9456C5.00146 17.9458 5.00145 17.9459 5.99999 18ZM2 1C1.44772 1 1 1.44772 1 2V22C1 22.5523 1.44772 23 2 23H22C22.5523 23 23 22.5523 23 22V12C23 11.4477 22.5523 11 22 11C21.4477 11 21 11.4477 21 12V21H3V3H12C12.5523 3 13 2.55228 13 2C13 1.44772 12.5523 1 12 1H2Z" fill="black"/>
</svg>
