<svg width="24" height="24" viewBox="0 0 24 24" fill="none" xmlns="http://www.w3.org/2000/svg">
<path fill-rule="evenodd" clip-rule="evenodd" d="M13 1C13 0.447715 12.5523 0 12 0C11.4477 0 11 0.447715 11 1V2C11 2.55228 11.4477 3 12 3C12.5523 3 13 2.55228 13 2V1ZM3.49284 3.49291C3.88337 3.10238 4.51653 3.10238 4.90706 3.49291L5.60706 4.19291C5.99758 4.58343 5.99758 5.21659 5.60706 5.60712C5.21653 5.99764 4.58337 5.99764 4.19284 5.60712L3.49284 4.90712C3.10232 4.51659 3.10232 3.88343 3.49284 3.49291ZM0 12C0 11.4477 0.447715 11 1 11H2C2.55228 11 3 11.4477 3 12C3 12.5523 2.55228 13 2 13H1C0.447715 13 0 12.5523 0 12ZM20.5072 3.4929C20.8977 3.88343 20.8977 4.51659 20.5072 4.90712L19.8072 5.60712C19.4167 5.99764 18.7835 5.99764 18.393 5.60712C18.0025 5.2166 18.0025 4.58343 18.393 4.19291L19.093 3.49291C19.4835 3.10238 20.1167 3.10238 20.5072 3.4929ZM22 11C21.4477 11 21 11.4477 21 12C21 12.5523 21.4477 13 22 13H23C23.5523 13 24 12.5523 24 12C24 11.4477 23.5523 11 23 11H22ZM18.393 18.3929C18.7835 18.0024 19.4167 18.0024 19.8072 18.3929L20.5072 19.0929C20.8977 19.4834 20.8977 20.1166 20.5072 20.5071C20.1167 20.8976 19.4835 20.8976 19.093 20.5071L18.393 19.8071C18.0025 19.4166 18.0025 18.7834 18.393 18.3929ZM13 22C13 21.4477 12.5523 21 12 21C11.4477 21 11 21.4477 11 22V23C11 23.5523 11.4477 24 12 24C12.5523 24 13 23.5523 13 23V22ZM5.60706 18.3929C5.99758 18.7834 5.99758 19.4166 5.60706 19.8071L4.90706 20.5071C4.51653 20.8976 3.88337 20.8976 3.49284 20.5071C3.10232 20.1166 3.10232 19.4834 3.49285 19.0929L4.19285 18.3929C4.58337 18.0024 5.21654 18.0024 5.60706 18.3929ZM7 12C7 9.23858 9.23858 7 12 7C14.7614 7 17 9.23858 17 12C17 14.7614 14.7614 17 12 17C9.23858 17 7 14.7614 7 12ZM12 5C8.13401 5 5 8.13401 5 12C5 15.866 8.13401 19 12 19C15.866 19 19 15.866 19 12C19 8.13401 15.866 5 12 5Z" fill="black"/>
</svg>
