<svg width="24" height="24" viewBox="0 0 24 24" fill="none" xmlns="http://www.w3.org/2000/svg">
<g clip-path="url(#clip0_587_2800)">
<path fill-rule="evenodd" clip-rule="evenodd" d="M22.5303 2.53033C22.8232 2.23744 22.8232 1.76256 22.5303 1.46967C22.2374 1.17678 21.7625 1.17678 21.4696 1.46967L19.4966 3.44266L2.4 3.44266C1.07452 3.44266 0 4.51718 0 5.84266L0 18.0141C0 19.3396 1.07452 20.4141 2.4 20.4141H2.5252L1.4696 21.4697C1.17671 21.7626 1.17671 22.2374 1.4696 22.5303C1.7625 22.8232 2.23737 22.8232 2.53026 22.5303L22.5303 2.53033ZM4.0252 18.9141L8.53509 14.4042H6.30488L5.54318 16.728H3.59979L6.86013 7.69081H9.10962L10.7319 12.2073L17.9966 4.94266H2.4C1.90294 4.94266 1.5 5.3456 1.5 5.84266V18.0141C1.5 18.5111 1.90294 18.9141 2.4 18.9141H4.0252ZM7.94465 18.9141H21.6C22.0971 18.9141 22.5 18.5111 22.5 18.0141V5.84266C22.5 5.43107 22.2237 5.08401 21.8465 4.97683L22.9574 3.86311C23.5871 4.29571 24 5.02096 24 5.84266V18.0141C24 19.3396 22.9255 20.4141 21.6 20.4141H6.44846L7.94465 18.9141ZM10.2662 16.5863L11.7651 15.0836L12.3557 16.728H10.3127L10.2662 16.5863ZM13.4306 13.4138L17.1182 9.71687C17.7556 9.88853 18.2272 10.2601 18.435 10.7694H18.5205V8.31101L19.6146 7.21412H20.3998V16.728H18.5561V15.6025H18.4635C18.2286 16.3176 17.3459 16.8141 16.2496 16.8141C14.5411 16.8141 13.4306 15.6621 13.4306 13.7355V13.4138ZM18.5205 12.7159C18.5205 11.6632 17.8371 11.0012 16.8974 11.0012C15.9506 11.0012 15.3527 11.6698 15.3527 12.8682V13.5501C15.3527 14.7551 15.9578 15.4304 16.9259 15.4304C17.8798 15.4304 18.5205 14.7683 18.5205 13.6229V12.7159ZM9.16657 13.0734L7.97776 9.41881H7.89233L6.70352 13.0734H9.16657Z" fill="black"/>
</g>
<defs>
<clipPath id="clip0_587_2800">
<rect width="24" height="24" fill="white"/>
</clipPath>
</defs>
</svg>
