<svg width="24" height="24" viewBox="0 0 24 24" fill="none" xmlns="http://www.w3.org/2000/svg">
<path fill-rule="evenodd" clip-rule="evenodd" d="M1 0C0.447715 0 0 0.447715 0 1L0 12C0 12.5523 0.447715 13 1 13H5.2362L8.03524 23.2631C8.15389 23.6982 8.54905 24 9 24C10.0609 24 11.0783 23.5786 11.8284 22.8284C12.5786 22.0783 13 21.0609 13 20V15H19.5H19.5C20.0767 15 20.6466 14.8753 21.1705 14.6344C21.6945 14.3935 22.1602 14.0422 22.5357 13.6045C22.9112 13.1669 23.1876 12.6532 23.346 12.0987C23.5044 11.5442 23.541 10.962 23.4534 10.392L23.4534 10.3919L22.3764 3.392L22.3764 3.39193C22.2312 2.44827 21.7533 1.58765 21.0291 0.965577C20.3048 0.343489 19.3818 0.00100046 18.427 0L18.426 0L6 0L1 0ZM5 2H2V11H5V2ZM7 11.8661V2H18.4254C18.9026 2.00061 19.3639 2.17184 19.726 2.48279C20.0881 2.79383 20.3271 3.22416 20.3996 3.696L20.3996 3.69607L21.4766 10.696L21.4766 10.6961C21.5204 10.981 21.5021 11.2721 21.4229 11.5493C21.3437 11.8266 21.2055 12.0834 21.0178 12.3023C20.83 12.5211 20.5972 12.6968 20.3352 12.8172C20.0732 12.9376 19.7883 13 19.5 13H19.5H12C11.4477 13 11 13.4477 11 14V20C11 20.5304 10.7893 21.0391 10.4142 21.4142C10.2166 21.6118 9.98194 21.7638 9.72653 21.8634L7 11.8661Z" fill="black"/>
</svg>
