<svg width="24" height="24" viewBox="0 0 24 24" fill="none" xmlns="http://www.w3.org/2000/svg">
<path fill-rule="evenodd" clip-rule="evenodd" d="M9 0C8.54905 0 8.15389 0.301821 8.03524 0.736883L5.2362 11H1C0.447715 11 0 11.4477 0 12L0 23C0 23.5523 0.447715 24 1 24H6H18.426H18.427C19.3818 23.999 20.3048 23.6565 21.0291 23.0344C21.7533 22.4124 22.2312 21.5517 22.3764 20.6081L22.3764 20.608L23.4534 13.6081L23.4534 13.608C23.541 13.038 23.5044 12.4558 23.346 11.9013C23.1876 11.3468 22.9112 10.8331 22.5357 10.3955C22.1602 9.95778 21.6945 9.60647 21.1705 9.36561C20.6466 9.12475 20.0767 9.00003 19.5 9H19.5H13V4C13 2.93913 12.5786 1.92172 11.8284 1.17157C11.0783 0.421427 10.0609 0 9 0ZM5 22V13H2V22H5ZM7 12.1339L9.72653 2.13663C9.98194 2.23622 10.2166 2.38819 10.4142 2.58579C10.7893 2.96086 11 3.46957 11 4V10C11 10.5523 11.4477 11 12 11H19.5H19.5C19.7883 11 20.0732 11.0624 20.3352 11.1828C20.5972 11.3032 20.83 11.4789 21.0178 11.6977C21.2055 11.9166 21.3437 12.1734 21.4229 12.4507C21.5021 12.7279 21.5204 13.019 21.4766 13.3039L21.4766 13.304L20.3996 20.3039L20.3996 20.304C20.3271 20.7758 20.0881 21.2062 19.726 21.5172C19.3638 21.8283 18.9023 21.9995 18.425 22H7V12.1339Z" fill="black"/>
</svg>
