<svg width="24" height="24" viewBox="0 0 24 24" fill="none" xmlns="http://www.w3.org/2000/svg">
<path fill-rule="evenodd" clip-rule="evenodd" d="M15.7071 1.29289C15.3166 0.902369 14.6834 0.902369 14.2929 1.29289C13.9024 1.68342 13.9024 2.31658 14.2929 2.70711L15.2014 3.6156L4.18067 9.76645L2.70711 8.29289C2.31658 7.90237 1.68342 7.90237 1.29289 8.29289C0.902369 8.68342 0.902369 9.31658 1.29289 9.70711L3.28676 11.701C3.29626 11.7109 3.30595 11.7206 3.3158 11.73L7.08579 15.5L1.29289 21.2929C0.902369 21.6834 0.902369 22.3166 1.29289 22.7071C1.68342 23.0976 2.31658 23.0976 2.70711 22.7071L8.5 16.9142L12.2673 20.6815C12.2784 20.6932 12.2899 20.7047 12.3018 20.716L14.2929 22.7071C14.6834 23.0976 15.3166 23.0976 15.7071 22.7071C16.0976 22.3166 16.0976 21.6834 15.7071 21.2929L14.2335 19.8193L20.3844 8.7986L21.2929 9.70711C21.6834 10.0976 22.3166 10.0976 22.7071 9.70711C23.0976 9.31658 23.0976 8.68342 22.7071 8.29289L20.8779 6.46373C20.8685 6.45389 20.8588 6.44422 20.8489 6.43473L17.568 3.15382C17.5568 3.142 17.5453 3.13048 17.5335 3.11929L15.7071 1.29289ZM12.7635 18.3493L18.9144 7.32862L16.6714 5.08558L5.65065 11.2364L9.20711 14.7929L12.7635 18.3493Z" fill="black"/>
</svg>
