<svg width="24" height="24" viewBox="0 0 24 24" fill="none" xmlns="http://www.w3.org/2000/svg">
<g clip-path="url(#clip0_236_2632)">
<path fill-rule="evenodd" clip-rule="evenodd" d="M11.4381 2.15354C11.6084 2.05103 11.8033 1.99686 12.002 1.99686C12.2007 1.99686 12.3957 2.05103 12.5659 2.15354C12.7361 2.25604 12.8751 2.40299 12.9681 2.57859L12.9681 2.57868L21.876 19.4186L21.8764 19.4194C21.963 19.5841 22.0054 19.7685 21.9996 19.9545C21.9938 20.1408 21.9399 20.3224 21.8431 20.4817C21.7462 20.641 21.6098 20.7724 21.447 20.8632C21.2842 20.9541 21.1007 21.0012 20.9143 21V21H20.908H3.09202C2.84105 21 2.77653 20.9798 2.77114 20.9781L2.77096 20.978L2.76965 20.9776C2.75377 20.9728 2.75128 20.972 2.5557 20.8625C2.39323 20.7715 2.25707 20.64 2.16046 20.4808C2.06386 20.3216 2.0101 20.1401 2.00441 19.954C1.99873 19.7682 2.04116 19.584 2.12757 19.4194L2.12801 19.4186L11.0359 2.57868L11.036 2.57859C11.1289 2.40299 11.2679 2.25604 11.4381 2.15354ZM12.002 -0.00314331C11.4397 -0.00314331 10.888 0.150152 10.4063 0.440256C9.92461 0.730361 9.53111 1.1463 9.26812 1.64333L9.26807 1.64342L0.359074 18.4854L0.358035 18.4874C0.110618 18.9576 -0.0108857 19.4839 0.00534284 20.0151C0.0215714 20.5462 0.174979 21.0641 0.450646 21.5184C0.726313 21.9726 1.11485 22.3478 1.57848 22.6075L1.62288 22.6327C1.74346 22.7016 1.94185 22.8149 2.17892 22.8884C2.46118 22.9759 2.75418 23 3.09202 23H20.905C21.4357 23.0028 21.9582 22.8683 22.4217 22.6097C22.8861 22.3504 23.2755 21.9753 23.5519 21.5209C23.8282 21.0665 23.9822 20.5482 23.9987 20.0165C24.0152 19.4849 23.8937 18.9581 23.646 18.4874L23.645 18.4854L14.736 1.64342L14.7359 1.64333C14.4729 1.1463 14.0794 0.73036 13.5977 0.440256C13.116 0.150152 12.5643 -0.00314331 12.002 -0.00314331ZM12 7.00001C12.5523 7.00001 13 7.44772 13 8.00001V14C13 14.5523 12.5523 15 12 15C11.4477 15 11 14.5523 11 14V8.00001C11 7.44772 11.4477 7.00001 12 7.00001ZM12 19C12.8284 19 13.5 18.3284 13.5 17.5C13.5 16.6716 12.8284 16 12 16C11.1716 16 10.5 16.6716 10.5 17.5C10.5 18.3284 11.1716 19 12 19Z" fill="black"/>
</g>
<defs>
<clipPath id="clip0_236_2632">
<rect width="24" height="24" fill="white"/>
</clipPath>
</defs>
</svg>
