<svg width="24" height="24" viewBox="0 0 24 24" fill="none" xmlns="http://www.w3.org/2000/svg">
<path fill-rule="evenodd" clip-rule="evenodd" d="M1 1C0.447715 1 0 1.44772 0 2L0 16C0 16.5523 0.447715 17 1 17H19.5858L16.2929 20.2929C15.9024 20.6834 15.9024 21.3166 16.2929 21.7071C16.6834 22.0976 17.3166 22.0976 17.7071 21.7071L22.7071 16.7071C23.0976 16.3166 23.0976 15.6834 22.7071 15.2929L17.7071 10.2929C17.3166 9.90237 16.6834 9.90237 16.2929 10.2929C15.9024 10.6834 15.9024 11.3166 16.2929 11.7071L19.5858 15H2V3H16C16.5523 3 17 2.55228 17 2C17 1.44772 16.5523 1 16 1H1Z" fill="black"/>
</svg>
