<svg width="730" height="350" viewBox="0 0 730 350" fill="none" xmlns="http://www.w3.org/2000/svg">
<rect width="730" height="350" rx="8" fill="#E3E6EC"/>
<path d="M74.4531 94.7215C85.0532 94.7215 91.3245 89.6434 91.3245 81.6517V81.6239C91.3245 75.2139 87.3841 71.773 78.8929 70.1358L74.7861 69.3589C70.485 68.5541 68.5981 67.4164 68.5981 65.252V65.2243C68.5981 62.9211 70.707 61.2284 74.4531 61.2284C78.116 61.2284 80.6966 62.8656 81.0019 65.5018L81.0296 65.807H90.492L90.4643 65.2243C90.1036 57.954 84.415 53.2367 74.3699 53.2367C65.1849 53.2367 58.4974 58.2038 58.4974 65.918V65.9457C58.4974 72.0783 62.6875 75.9909 70.6237 77.4616L74.7306 78.2386C79.4202 79.1543 81.1961 80.2087 81.1961 82.4842V82.5119C81.1961 85.0093 78.6987 86.7298 74.6473 86.7298C70.7347 86.7298 67.7378 85.0371 67.2384 82.4564L67.1829 82.1512H57.7204L57.7482 82.6506C58.1922 90.3094 64.4912 94.7215 74.4531 94.7215ZM104.45 94.4162C108.39 94.4162 111.387 92.6958 113.107 89.7267H113.302V94H123.125V73.3825C123.125 67.2499 117.769 63.1431 109.639 63.1431C101.231 63.1431 96.2083 67.1667 95.7366 73.0495L95.7089 73.4102H104.561L104.616 73.1327C104.949 71.5788 106.503 70.3578 109.139 70.3578C111.887 70.3578 113.302 71.7175 113.302 73.9097V75.4082L106.42 75.8521C98.6225 76.3794 94.2382 79.5705 94.2382 85.2591V85.2868C94.2382 90.5591 98.3728 94.4162 104.45 94.4162ZM103.895 84.6486V84.6208C103.895 82.8171 105.255 81.6794 108.002 81.5129L113.302 81.1522V83.1779C113.302 85.7308 111.054 87.6177 107.891 87.6177C105.477 87.6177 103.895 86.5355 103.895 84.6486ZM127.842 94H137.693V76.8511C137.693 73.4935 139.636 71.1626 142.771 71.1626C145.99 71.1626 147.627 73.1882 147.627 76.6569V94H157.45V74.5479C157.45 67.3887 153.704 63.1431 147.072 63.1431C142.494 63.1431 139.386 65.3075 137.887 69.1091H137.693V63.7813H127.842V94ZM173.795 94H183.978V79.071H199.49V71.2735H183.978V62.1441H201.044V53.9582H173.795V94ZM204.874 94H214.724V77.9611C214.724 73.66 216.972 71.3845 221.107 71.3845C222.272 71.3845 223.41 71.6065 224.242 71.9395V63.5316C223.493 63.2818 222.633 63.1431 221.689 63.1431C218.138 63.1431 215.751 65.3075 214.919 69.1369H214.724V63.7813H204.874V94ZM235.536 94.4162C239.477 94.4162 242.473 92.6958 244.194 89.7267H244.388V94H254.211V73.3825C254.211 67.2499 248.856 63.1431 240.725 63.1431C232.317 63.1431 227.295 67.1667 226.823 73.0495L226.795 73.4102H235.647L235.703 73.1327C236.036 71.5788 237.59 70.3578 240.226 70.3578C242.973 70.3578 244.388 71.7175 244.388 73.9097V75.4082L237.506 75.8521C229.709 76.3794 225.325 79.5705 225.325 85.2591V85.2868C225.325 90.5591 229.459 94.4162 235.536 94.4162ZM234.981 84.6486V84.6208C234.981 82.8171 236.341 81.6794 239.088 81.5129L244.388 81.1522V83.1779C244.388 85.7308 242.14 87.6177 238.977 87.6177C236.563 87.6177 234.981 86.5355 234.981 84.6486ZM258.929 94H268.78V76.8511C268.78 73.4935 270.722 71.1626 273.858 71.1626C277.076 71.1626 278.714 73.1882 278.714 76.6569V94H288.537V74.5479C288.537 67.3887 284.791 63.1431 278.159 63.1431C273.58 63.1431 270.472 65.3075 268.974 69.1091H268.78V63.7813H258.929V94ZM307.628 94.6382C316.341 94.6382 321.641 89.3659 321.836 82.3454V82.1512H312.817L312.762 82.4287C312.373 85.3146 310.625 87.1737 307.739 87.1737C304.243 87.1737 302.245 84.2323 302.245 78.9045V78.8768C302.245 73.6322 304.298 70.6076 307.711 70.6076C310.597 70.6076 312.373 72.55 312.762 75.3527L312.789 75.6301H321.836L321.808 75.4359C321.669 68.2489 316.064 63.1431 307.545 63.1431C298.138 63.1431 292.255 69.1091 292.255 78.849V78.8768C292.255 88.6722 298.11 94.6382 307.628 94.6382ZM330.466 60.5347C333.324 60.5347 335.488 58.3148 335.488 55.6786C335.488 53.0424 333.324 50.8503 330.466 50.8503C327.635 50.8503 325.443 53.0424 325.443 55.6786C325.443 58.3148 327.635 60.5347 330.466 60.5347ZM325.554 94H335.377V63.7813H325.554V94ZM353.47 94.6382C361.766 94.6382 367.427 90.6701 367.427 84.4266V84.3988C367.427 79.8757 364.652 77.3783 358.242 76.1019L352.915 75.0474C350.056 74.4647 349.141 73.6877 349.141 72.3835V72.3558C349.141 70.7741 350.695 69.7751 353.109 69.7751C355.828 69.7751 357.354 71.2458 357.576 73.0217L357.604 73.2437H366.595L366.567 73.0217C366.484 67.6107 361.85 63.1431 353.109 63.1431C344.84 63.1431 339.678 66.8892 339.678 72.9107V72.9385C339.678 77.5448 342.758 80.625 348.669 81.7627L353.997 82.8171C356.688 83.3721 357.66 84.1213 357.66 85.481V85.5088C357.66 87.0627 356.078 88.0062 353.47 88.0062C350.584 88.0062 349.03 86.813 348.558 84.7596L348.502 84.5376H338.957L338.985 84.7873C339.651 90.6701 344.479 94.6382 353.47 94.6382ZM385.381 94.6382C394.094 94.6382 399.394 89.3659 399.588 82.3454V82.1512H390.57L390.514 82.4287C390.126 85.3146 388.378 87.1737 385.492 87.1737C381.996 87.1737 379.998 84.2323 379.998 78.9045V78.8768C379.998 73.6322 382.051 70.6076 385.464 70.6076C388.35 70.6076 390.126 72.55 390.514 75.3527L390.542 75.6301H399.588L399.561 75.4359C399.422 68.2489 393.817 63.1431 385.298 63.1431C375.891 63.1431 370.008 69.1091 370.008 78.849V78.8768C370.008 88.6722 375.863 94.6382 385.381 94.6382ZM417.764 94.6382C427.282 94.6382 433.22 88.8942 433.22 78.9045V78.849C433.22 68.9981 427.171 63.1431 417.764 63.1431C408.385 63.1431 402.308 69.0536 402.308 78.849V78.9045C402.308 88.8664 408.191 94.6382 417.764 94.6382ZM417.792 87.1737C414.379 87.1737 412.297 84.2323 412.297 78.9045V78.849C412.297 73.6322 414.434 70.6076 417.764 70.6076C421.094 70.6076 423.258 73.6322 423.258 78.849V78.9045C423.258 84.2046 421.149 87.1737 417.792 87.1737Z" fill="#EE0000"/>
<path d="M60.6399 140H62.7484V133.311H66.7897L70.4093 140H72.8809L68.9685 132.983C71.077 132.316 72.3655 130.5 72.3655 128.157V128.134C72.3655 125.088 70.2336 123.097 66.9771 123.097H60.6399V140ZM62.7484 131.449V124.971H66.696C68.8631 124.971 70.1867 126.166 70.1867 128.181V128.204C70.1867 130.277 68.9568 131.449 66.7897 131.449H62.7484ZM79.7218 140.234C82.3809 140.234 84.3722 138.641 84.7705 136.626L84.7939 136.509H82.7909L82.7557 136.615C82.4043 137.657 81.3149 138.43 79.7687 138.43C77.6016 138.43 76.2194 136.966 76.1725 134.459H84.9462V133.71C84.9462 130.055 82.9197 127.583 79.593 127.583C76.2662 127.583 74.1109 130.172 74.1109 133.944V133.956C74.1109 137.786 76.2194 140.234 79.7218 140.234ZM79.5813 129.387C81.3618 129.387 82.6737 130.5 82.8729 132.866H76.2077C76.4302 130.594 77.8125 129.387 79.5813 129.387ZM92.162 144.334C95.4653 144.334 97.5386 142.483 97.5386 139.66V127.818H95.5004V129.879H95.4536C94.7039 128.52 93.3451 127.583 91.6231 127.583C88.5307 127.583 86.4104 130.043 86.4104 133.827V133.839C86.4104 137.646 88.5072 140.117 91.5763 140.117C93.3216 140.117 94.7273 139.25 95.4536 137.903H95.5004V139.461C95.5004 141.347 94.2822 142.53 92.1385 142.53C90.4752 142.53 89.3155 141.991 88.9289 141.113L88.8821 141.007H86.8321L86.8556 141.113C87.2538 142.917 89.1515 144.334 92.162 144.334ZM92.0214 138.313C89.8543 138.313 88.4955 136.603 88.4955 133.839V133.827C88.4955 131.121 89.8543 129.387 92.0214 129.387C94.083 129.387 95.5004 131.144 95.5004 133.827V133.839C95.5004 136.544 94.0947 138.313 92.0214 138.313ZM104.333 140.234C106.183 140.234 107.425 139.403 108.081 138.266H108.128V140H110.166V127.818H108.128V134.986C108.128 137.06 106.875 138.43 104.953 138.43C103.079 138.43 102.154 137.341 102.154 135.361V127.818H100.116V135.724C100.116 138.501 101.662 140.234 104.333 140.234ZM112.931 140H114.969V123.097H112.931V140ZM121.283 140.234C122.911 140.234 124.375 139.356 125.09 138.02H125.136V140H127.175V131.578C127.175 129.141 125.371 127.583 122.489 127.583C119.619 127.583 117.874 129.2 117.698 131.203L117.686 131.332H119.654L119.678 131.226C119.912 130.137 120.896 129.387 122.466 129.387C124.164 129.387 125.136 130.289 125.136 131.777V132.796L121.646 132.995C118.846 133.159 117.23 134.459 117.23 136.533V136.556C117.23 138.77 118.858 140.234 121.283 140.234ZM119.315 136.556V136.533C119.315 135.396 120.252 134.67 121.88 134.576L125.136 134.377V135.373C125.136 137.142 123.661 138.465 121.739 138.465C120.275 138.465 119.315 137.728 119.315 136.556ZM129.763 140H131.802V132.48C131.802 130.629 132.833 129.528 134.414 129.528C134.906 129.528 135.339 129.586 135.503 129.645V127.665C135.339 127.642 135.035 127.583 134.683 127.583C133.313 127.583 132.259 128.474 131.849 129.879H131.802V127.818H129.763V140Z" fill="#454A55"/>
<path fill-rule="evenodd" clip-rule="evenodd" d="M153.02 130.499C152.457 130.499 152 130.948 152 131.5C152 131.569 152.007 131.636 152.019 131.701C152.107 132.155 152.491 132.5 152.982 132.5H167.435L161.796 137.776C161.745 137.824 161.7 137.875 161.661 137.93C161.39 138.314 161.421 138.844 161.762 139.19C161.81 139.24 161.863 139.284 161.919 139.322C162.31 139.587 162.849 139.557 163.205 139.225L170.684 132.225C170.886 132.033 171 131.775 171 131.5C171 131.5 171 131.5 171 131.5C171 131.225 170.886 130.962 170.683 130.776C170.683 130.776 170.683 130.776 170.683 130.776L163.203 123.776C163.072 123.654 162.917 123.572 162.753 123.531C162.535 123.477 162.302 123.494 162.093 123.582C161.972 123.634 161.858 123.71 161.761 123.81C161.712 123.859 161.67 123.913 161.634 123.969C161.382 124.362 161.438 124.89 161.796 125.224L167.435 130.499H153.02Z" fill="#454A55"/>
<path d="M189.488 140H196.575C200.182 140 202.373 138.173 202.373 135.221V135.197C202.373 132.972 200.756 131.308 198.378 131.097V131.039C200.194 130.793 201.565 129.165 201.565 127.349V127.326C201.565 124.76 199.585 123.097 196.504 123.097H189.488V140ZM195.743 125.451C197.535 125.451 198.578 126.271 198.578 127.736V127.759C198.578 129.352 197.406 130.242 195.227 130.242H192.51V125.451H195.743ZM195.708 132.433C198.074 132.433 199.292 133.323 199.292 135.022V135.045C199.292 136.744 198.097 137.646 195.883 137.646H192.51V132.433H195.708ZM209.729 140.246C213.372 140.246 215.738 137.821 215.738 133.792V133.768C215.738 129.762 213.337 127.326 209.718 127.326C206.11 127.326 203.72 129.786 203.72 133.768V133.792C203.72 137.81 206.074 140.246 209.729 140.246ZM209.741 137.892C207.878 137.892 206.695 136.404 206.695 133.792V133.768C206.695 131.191 207.902 129.692 209.718 129.692C211.568 129.692 212.763 131.179 212.763 133.768V133.792C212.763 136.392 211.58 137.892 209.741 137.892ZM217.695 140H220.611V123.097H217.695V140ZM227.71 140.246C229.502 140.246 230.873 139.356 231.576 137.892H231.646V140H234.563V123.097H231.646V129.715H231.576C230.873 128.228 229.455 127.326 227.698 127.326C224.582 127.326 222.579 129.774 222.579 133.78V133.792C222.579 137.786 224.571 140.246 227.71 140.246ZM228.589 137.786C226.714 137.786 225.555 136.263 225.555 133.792V133.78C225.555 131.308 226.726 129.786 228.589 129.786C230.381 129.786 231.646 131.355 231.646 133.78V133.792C231.646 136.228 230.392 137.786 228.589 137.786Z" fill="#454A55"/>
<path fill-rule="evenodd" clip-rule="evenodd" d="M253.02 130.499C252.457 130.499 252 130.948 252 131.5C252 131.569 252.007 131.636 252.019 131.701C252.107 132.155 252.491 132.5 252.982 132.5H267.435L261.796 137.776C261.745 137.824 261.7 137.875 261.661 137.93C261.39 138.314 261.421 138.844 261.762 139.19C261.81 139.24 261.863 139.284 261.919 139.322C262.31 139.587 262.849 139.557 263.205 139.225L270.684 132.225C270.886 132.033 271 131.775 271 131.5C271 131.5 271 131.5 271 131.5C271 131.225 270.886 130.962 270.683 130.776C270.683 130.776 270.683 130.776 270.683 130.776L263.203 123.776C263.072 123.654 262.917 123.572 262.753 123.531C262.535 123.477 262.302 123.494 262.093 123.582C261.972 123.634 261.858 123.71 261.761 123.81C261.712 123.859 261.67 123.913 261.634 123.969C261.382 124.362 261.438 124.89 261.796 125.224L267.435 130.499H253.02Z" fill="#454A55"/>
<path d="M289.171 140H297.758C301.377 140 303.72 138.067 303.72 135.127V135.104C303.72 132.901 301.799 131.215 299.526 131.156V131.062C301.494 130.816 303.005 129.34 303.005 127.384V127.361C303.005 124.69 300.967 123.097 297.477 123.097H289.171V140ZM296.129 126.494C297.395 126.494 298.179 127.126 298.179 128.146V128.169C298.179 129.27 297.406 129.938 295.919 129.938H294.138V126.494H296.129ZM296.153 132.925C297.793 132.925 298.66 133.581 298.66 134.74V134.764C298.66 135.947 297.781 136.603 296.258 136.603H294.138V132.925H296.153ZM305.149 140H309.952V123.097H305.149V140ZM315.727 140.164C317.39 140.164 318.597 139.473 319.323 138.243H319.417V140H324.219V131.203C324.219 128.579 321.818 126.787 318.222 126.787C314.45 126.787 312.213 128.509 312.013 131.144L312.002 131.297H316.289L316.312 131.179C316.418 130.652 316.968 130.219 317.952 130.219C318.936 130.219 319.417 130.687 319.417 131.437V131.964L316.699 132.14C313.255 132.374 311.334 133.745 311.334 136.24V136.252C311.334 138.477 313.115 140.164 315.727 140.164ZM316.02 135.9V135.888C316.02 135.244 316.476 134.846 317.496 134.776L319.417 134.635V135.455C319.417 136.31 318.632 136.943 317.484 136.943C316.594 136.943 316.02 136.58 316.02 135.9ZM332.454 140.281C336.413 140.281 338.733 137.915 338.733 134.752V134.682H334.363L334.352 134.799C334.235 135.982 333.59 136.72 332.513 136.72C331.236 136.72 330.58 135.607 330.58 133.534V133.522C330.58 131.484 331.271 130.348 332.513 130.348C333.544 130.348 334.235 131.097 334.352 132.269L334.363 132.386H338.733V132.316C338.733 128.977 336.191 126.787 332.419 126.787C328.272 126.787 325.707 129.317 325.707 133.511V133.522C325.707 137.751 328.261 140.281 332.454 140.281ZM340.22 140H345.023V136.275L345.644 135.467L348.326 140H353.844L349.24 132.585L353.539 127.068H348.256L345.117 131.742H345.023V123.097H340.22V140Z" fill="#454A55"/>
<path d="M64.0654 233.781H65.5244L65.6738 225.309H63.916L64.0654 233.781ZM64.8037 238.158C65.5156 238.158 66.0166 237.648 66.0166 236.937C66.0166 236.216 65.5156 235.706 64.8037 235.706C64.0918 235.706 63.582 236.216 63.582 236.937C63.582 237.648 64.0918 238.158 64.8037 238.158ZM74.709 230.318H75.9746L76.1592 225.317H74.5244L74.709 230.318ZM77.9609 230.318H79.2266L79.4111 225.317H77.7764L77.9609 230.318ZM89.1846 238L89.9053 234.458H92.7969L92.0674 238H93.3242L94.0537 234.458H96.3477L96.5938 233.192H94.3086L94.9678 229.993H97.165L97.4111 228.736H95.2227L95.9258 225.317H94.6689L93.9658 228.736H91.0742L91.7773 225.317H90.5293L89.8262 228.736H87.6465L87.3916 229.993H89.5713L88.9209 233.192H86.8379L86.5918 234.458H88.6572L87.9365 238H89.1846ZM90.1689 233.192L90.8193 229.993H93.7109L93.0605 233.192H90.1689ZM107.888 239.274H108.942V237.798C111.017 237.631 112.739 236.444 112.739 234.335V234.317C112.739 232.48 111.474 231.549 109.215 231.004L108.942 230.942V226.908C110.129 227.058 110.973 227.787 111.087 228.965V228.982L112.616 228.974V228.965C112.546 227.031 110.973 225.713 108.942 225.528V224.043H107.888V225.528C105.805 225.722 104.319 227.005 104.319 228.886V228.903C104.319 230.626 105.497 231.602 107.686 232.129L107.888 232.182V236.409C106.358 236.242 105.682 235.372 105.523 234.282V234.265L103.994 234.273V234.282C104.064 236.321 105.796 237.596 107.888 237.789V239.274ZM105.849 228.798V228.78C105.849 227.937 106.552 227.093 107.888 226.908V230.688C106.376 230.318 105.849 229.65 105.849 228.798ZM108.995 232.445C110.735 232.867 111.21 233.482 111.21 234.44V234.458C111.21 235.469 110.577 236.295 108.942 236.427V232.437L108.995 232.445ZM122.908 231.988C124.525 231.988 125.51 230.67 125.51 228.569V228.561C125.51 226.46 124.525 225.15 122.908 225.15C121.291 225.15 120.315 226.46 120.315 228.561V228.569C120.315 230.67 121.291 231.988 122.908 231.988ZM123.857 238L132.488 225.317H131.064L122.434 238H123.857ZM122.908 230.942C122.038 230.942 121.537 230.055 121.537 228.569V228.561C121.537 227.075 122.038 226.196 122.908 226.196C123.778 226.196 124.288 227.075 124.288 228.561V228.569C124.288 230.055 123.778 230.942 122.908 230.942ZM131.996 238.167C133.613 238.167 134.598 236.849 134.598 234.748V234.739C134.598 232.639 133.613 231.329 131.996 231.329C130.379 231.329 129.403 232.639 129.403 234.739V234.748C129.403 236.849 130.379 238.167 131.996 238.167ZM131.996 237.121C131.126 237.121 130.625 236.233 130.625 234.748V234.739C130.625 233.254 131.126 232.375 131.996 232.375C132.866 232.375 133.376 233.254 133.376 234.739V234.748C133.376 236.233 132.866 237.121 131.996 237.121ZM146.155 238.237C147.948 238.237 149.319 237.692 150.304 236.761L151.429 238H153.415V237.991L151.2 235.627C151.912 234.432 152.255 232.894 152.255 231.162V230.934H150.778V231.153C150.778 232.393 150.567 233.544 150.119 234.476L147.008 231.153C149.021 230.081 149.75 229.132 149.75 227.884V227.866C149.75 226.214 148.388 225.019 146.516 225.019C144.661 225.019 143.281 226.231 143.281 227.849V227.866C143.281 228.736 143.694 229.51 144.881 230.828L144.415 231.057C142.701 231.9 141.866 233.069 141.866 234.607V234.625C141.866 236.743 143.633 238.237 146.155 238.237ZM144.793 227.954V227.937C144.793 226.961 145.514 226.275 146.524 226.275C147.553 226.275 148.265 226.943 148.265 227.919V227.937C148.265 228.789 147.755 229.431 146.164 230.257C145.153 229.158 144.793 228.613 144.793 227.954ZM143.448 234.52V234.502C143.448 233.456 144.116 232.568 145.329 231.988L145.751 231.786L149.311 235.68C148.59 236.444 147.588 236.901 146.296 236.901C144.6 236.901 143.448 235.935 143.448 234.52ZM160.771 230.318H162.037L162.222 225.317H160.587L160.771 230.318ZM173.762 241.164H175.045C173.771 239.538 172.821 236.04 172.821 232.964C172.821 229.914 173.771 226.39 175.045 224.764H173.762C172.039 227.04 171.266 229.703 171.266 232.964C171.266 236.233 172.048 238.888 173.762 241.164ZM183.324 241.164C185.038 238.888 185.82 236.233 185.82 232.964C185.82 229.703 185.047 227.04 183.324 224.764H182.041C183.315 226.39 184.265 229.914 184.265 232.964C184.265 236.04 183.315 239.538 182.041 241.164H183.324ZM196.657 231.637H197.861L197.765 229.396L199.619 230.564L200.217 229.633L198.178 228.552L200.217 227.479L199.619 226.548L197.765 227.717L197.861 225.476H196.657L196.754 227.726L194.891 226.548L194.293 227.479L196.332 228.552L194.293 229.633L194.891 230.564L196.754 229.387L196.657 231.637ZM207.582 233.605H211.52V237.631H212.943V233.605H216.881V232.182H212.943V228.156H211.52V232.182H207.582V233.605ZM224 241.226H225.134L226.514 236.225H224.765L224 241.226ZM234.661 233.605H240.567V232.182H234.661V233.605ZM249.594 238.088C250.227 238.088 250.736 237.569 250.736 236.945C250.736 236.312 250.227 235.803 249.594 235.803C248.97 235.803 248.451 236.312 248.451 236.945C248.451 237.569 248.97 238.088 249.594 238.088ZM262.804 224.764H261.336L257.328 241.164H258.796L262.804 224.764ZM273.535 238.299C276.339 238.299 278.026 235.741 278.026 231.663V231.646C278.026 227.567 276.339 225.019 273.535 225.019C270.731 225.019 269.062 227.567 269.062 231.646V231.663C269.062 235.741 270.731 238.299 273.535 238.299ZM273.535 236.919C271.716 236.919 270.652 234.897 270.652 231.663V231.646C270.652 228.411 271.716 226.407 273.535 226.407C275.354 226.407 276.436 228.411 276.436 231.646V231.663C276.436 234.897 275.354 236.919 273.535 236.919ZM288.793 238H290.375V225.317H288.802L285.427 227.743V229.413L288.652 227.075H288.793V238ZM299.103 238H307.312V236.576H301.3V236.436L304.183 233.456C306.477 231.092 307.101 230.037 307.101 228.587V228.569C307.101 226.521 305.404 225.019 303.189 225.019C300.764 225.019 299.023 226.636 299.015 228.886L299.032 228.895L300.544 228.903L300.553 228.886C300.553 227.392 301.563 226.398 303.084 226.398C304.578 226.398 305.483 227.4 305.483 228.736V228.754C305.483 229.861 305.009 230.521 303.392 232.27L299.103 236.91V238ZM319.344 238.211C321.884 238.211 323.747 236.646 323.747 234.528V234.511C323.747 232.709 322.49 231.558 320.645 231.399V231.364C322.227 231.03 323.334 229.958 323.334 228.394V228.376C323.334 226.451 321.743 225.106 319.326 225.106C316.953 225.106 315.318 226.486 315.116 228.552L315.107 228.64H316.628L316.637 228.552C316.769 227.269 317.832 226.478 319.326 226.478C320.873 226.478 321.743 227.242 321.743 228.569V228.587C321.743 229.853 320.688 230.784 319.177 230.784H317.656V232.12H319.247C321.022 232.12 322.139 232.99 322.139 234.546V234.563C322.139 235.908 321.005 236.84 319.344 236.84C317.656 236.84 316.505 235.979 316.382 234.73L316.373 234.643H314.853L314.861 234.748C315.028 236.752 316.725 238.211 319.344 238.211ZM337.168 238H338.715V235.372H340.517V233.957H338.715V225.317H336.421C334.646 227.963 332.703 231.057 330.989 233.931V235.372H337.168V238ZM332.606 233.966V233.86C333.986 231.531 335.647 228.912 337.071 226.785H337.177V233.966H332.606ZM352.188 238.299C354.764 238.299 356.601 236.515 356.601 233.957V233.939C356.601 231.487 354.887 229.703 352.505 229.703C351.354 229.703 350.36 230.169 349.798 231.021H349.657L350.088 226.732H355.897V225.317H348.84L348.172 232.604H349.543C349.701 232.305 349.903 232.059 350.123 231.848C350.668 231.329 351.389 231.074 352.232 231.074C353.876 231.074 355.054 232.278 355.054 233.966V233.983C355.054 235.697 353.894 236.901 352.206 236.901C350.721 236.901 349.622 235.935 349.473 234.722L349.464 234.651H347.943L347.952 234.748C348.137 236.778 349.824 238.299 352.188 238.299ZM368.694 238.299C371.252 238.299 373.133 236.462 373.133 233.931V233.913C373.133 231.479 371.357 229.668 368.976 229.668C367.262 229.668 366.066 230.591 365.601 231.628H365.434C365.434 231.531 365.434 231.426 365.442 231.329C365.539 228.684 366.479 226.434 368.782 226.434C370.065 226.434 370.953 227.093 371.34 228.156L371.375 228.253H372.966L372.939 228.139C372.509 226.267 370.927 225.019 368.8 225.019C365.724 225.019 363.922 227.55 363.922 231.874V231.892C363.922 236.664 366.374 238.299 368.694 238.299ZM365.812 233.913V233.904C365.812 232.252 367.06 231.048 368.703 231.048C370.347 231.048 371.542 232.261 371.542 233.948V233.966C371.542 235.609 370.268 236.901 368.677 236.901C367.068 236.901 365.812 235.583 365.812 233.913ZM381.263 238H382.924L388.566 226.785V225.317H380.173V226.732H386.958V226.855L381.263 238ZM400.379 238.211C403.068 238.211 404.984 236.699 404.984 234.572V234.555C404.984 232.99 403.886 231.689 402.26 231.312V231.276C403.648 230.846 404.527 229.791 404.527 228.455V228.438C404.527 226.521 402.778 225.106 400.379 225.106C397.979 225.106 396.23 226.521 396.23 228.438V228.455C396.23 229.791 397.109 230.846 398.498 231.276V231.312C396.872 231.689 395.773 232.99 395.773 234.555V234.572C395.773 236.699 397.689 238.211 400.379 238.211ZM400.379 230.688C398.85 230.688 397.804 229.817 397.804 228.587V228.569C397.804 227.339 398.85 226.469 400.379 226.469C401.908 226.469 402.954 227.339 402.954 228.569V228.587C402.954 229.817 401.908 230.688 400.379 230.688ZM400.379 236.831C398.63 236.831 397.382 235.847 397.382 234.476V234.458C397.382 233.069 398.621 232.076 400.379 232.076C402.137 232.076 403.376 233.069 403.376 234.458V234.476C403.376 235.847 402.128 236.831 400.379 236.831ZM416.753 225.019C414.195 225.019 412.314 226.855 412.314 229.387V229.404C412.314 231.839 414.09 233.649 416.472 233.649C418.186 233.649 419.381 232.727 419.847 231.689H420.014C420.014 231.786 420.014 231.892 420.005 231.988C419.908 234.634 418.968 236.884 416.665 236.884C415.382 236.884 414.494 236.225 414.107 235.161L414.072 235.064H412.481L412.508 235.179C412.938 237.051 414.521 238.299 416.647 238.299C419.724 238.299 421.525 235.768 421.525 231.443V231.426C421.525 226.653 419.073 225.019 416.753 225.019ZM416.744 232.27C415.101 232.27 413.905 231.057 413.905 229.369V229.352C413.905 227.708 415.18 226.416 416.771 226.416C418.379 226.416 419.636 227.734 419.636 229.404V229.413C419.636 231.065 418.388 232.27 416.744 232.27ZM430.385 231.285C431.018 231.285 431.527 230.767 431.527 230.143C431.527 229.51 431.018 229 430.385 229C429.761 229 429.242 229.51 429.242 230.143C429.242 230.767 429.761 231.285 430.385 231.285ZM430.385 238.088C431.018 238.088 431.527 237.569 431.527 236.945C431.527 236.312 431.018 235.803 430.385 235.803C429.761 235.803 429.242 236.312 429.242 236.945C429.242 237.569 429.761 238.088 430.385 238.088ZM440.791 231.285C441.424 231.285 441.934 230.767 441.934 230.143C441.934 229.51 441.424 229 440.791 229C440.167 229 439.648 229.51 439.648 230.143C439.648 230.767 440.167 231.285 440.791 231.285ZM439.156 241.226H440.29L441.67 236.225H439.921L439.156 241.226ZM449.765 233.641L458.624 237.552V236.049L451.162 232.867L458.624 229.694V228.244L449.765 232.155V233.641ZM466.06 231.232H475.13V229.809H466.06V231.232ZM466.06 235.97H475.13V234.546H466.06V235.97ZM491.425 232.155L482.565 228.244V229.747L490.027 232.92L482.565 236.102V237.552L491.425 233.641V232.155ZM501.181 234.08H502.719V233.509C502.719 232.586 503.035 232.094 504.151 231.435C505.276 230.758 505.988 229.782 505.988 228.411V228.394C505.988 226.592 504.477 225.221 502.262 225.221C499.792 225.221 498.526 226.732 498.43 228.622V228.64L499.924 228.631L499.941 228.622C500.029 227.374 500.873 226.592 502.2 226.592C503.51 226.592 504.354 227.392 504.354 228.473V228.49C504.354 229.422 503.958 229.976 502.938 230.6C501.734 231.32 501.172 232.111 501.181 233.271V234.08ZM502.068 238.158C502.78 238.158 503.281 237.648 503.281 236.937C503.281 236.216 502.78 235.706 502.068 235.706C501.356 235.706 500.847 236.216 500.847 236.937C500.847 237.648 501.356 238.158 502.068 238.158ZM520.684 240.057C521.791 240.057 522.854 239.898 523.646 239.626V238.519C523.092 238.773 521.905 238.94 520.701 238.94C516.939 238.94 514.514 236.523 514.514 232.779V232.762C514.514 229.114 516.983 226.495 520.42 226.495C523.936 226.495 526.344 228.666 526.344 231.83V231.848C526.344 234.001 525.632 235.398 524.524 235.398C523.892 235.398 523.531 235.038 523.531 234.423V229.264H522.204V230.336H522.063C521.721 229.571 520.93 229.097 520.007 229.097C518.205 229.097 516.948 230.591 516.948 232.718V232.735C516.948 234.959 518.179 236.462 520.007 236.462C521.035 236.462 521.826 235.961 522.204 235.064H522.345L522.354 235.117C522.494 235.97 523.268 236.541 524.278 236.541C526.3 236.541 527.583 234.722 527.583 231.865V231.848C527.583 228.042 524.691 225.388 520.534 225.388C516.228 225.388 513.274 228.367 513.274 232.709V232.727C513.274 237.209 516.148 240.057 520.684 240.057ZM520.209 235.223C519.058 235.223 518.354 234.291 518.354 232.771V232.753C518.354 231.224 519.049 230.31 520.227 230.31C521.422 230.31 522.187 231.259 522.187 232.753V232.771C522.187 234.265 521.413 235.223 520.209 235.223ZM535.959 241.164H539.773V239.969H537.436V225.959H539.773V224.764H535.959V241.164ZM547.007 224.764H545.539L549.547 241.164H551.015L547.007 224.764ZM560.604 241.164V224.764H556.789V225.959H559.127V239.969H556.789V241.164H560.604ZM570.781 230.828L573.69 226.539L576.6 230.828H578.217L574.402 225.317H572.979L569.164 230.828H570.781ZM584.422 240.303H594.925V238.879H584.422V240.303ZM604.848 227.207H606.184L604.628 224.219H602.817L604.848 227.207ZM619.745 241.164H620.229V239.925H619.877C618.638 239.925 618.137 239.354 618.137 237.947V235.117C618.137 233.852 617.504 233.192 616.212 233.061V232.85C617.504 232.718 618.137 232.059 618.137 230.793V227.98C618.137 226.574 618.638 226.003 619.877 226.003H620.229V224.764H619.745C617.671 224.764 616.695 225.739 616.695 227.787V230.248C616.695 231.654 616.212 232.12 614.762 232.12V233.79C616.212 233.79 616.695 234.256 616.695 235.662V238.141C616.695 240.188 617.671 241.164 619.745 241.164ZM627.611 241.164H629.035V225.317H627.611V241.164ZM636.901 241.164C638.976 241.164 639.951 240.188 639.951 238.141V235.662C639.951 234.256 640.435 233.79 641.885 233.79V232.12C640.435 232.12 639.951 231.654 639.951 230.248V227.787C639.951 225.739 638.976 224.764 636.901 224.764H636.418V226.003H636.77C638.009 226.003 638.51 226.574 638.51 227.98V230.793C638.51 232.059 639.143 232.718 640.435 232.85V233.061C639.143 233.192 638.51 233.852 638.51 235.117V237.947C638.51 239.354 638.009 239.925 636.77 239.925H636.418V241.164H636.901ZM655.358 234.273C656.519 234.273 657.31 233.808 657.854 233.184V231.795C657.301 232.437 656.554 232.92 655.499 232.92C654.146 232.92 652.81 231.443 651.28 231.443C650.12 231.443 649.329 231.909 648.784 232.533V233.922C649.338 233.28 650.085 232.797 651.14 232.797C652.502 232.797 653.829 234.273 655.358 234.273ZM62.6064 265H64.2676L65.542 261.37H70.5869L71.8613 265H73.5225L68.8467 252.317H67.2822L62.6064 265ZM67.9941 254.365H68.1348L70.1211 260.025H66.0078L67.9941 254.365ZM80.8086 265H85.7568C88.4551 265 90.0547 263.673 90.0547 261.449V261.432C90.0547 259.762 88.9561 258.575 87.2246 258.355V258.215C88.4463 257.995 89.4131 256.8 89.4131 255.49V255.473C89.4131 253.539 87.9893 252.317 85.6602 252.317H80.8086V265ZM85.3262 253.715C86.8994 253.715 87.8135 254.462 87.8135 255.745V255.763C87.8135 257.099 86.8379 257.784 84.9219 257.784H82.3906V253.715H85.3262ZM85.3701 259.146C87.3916 259.146 88.4287 259.894 88.4287 261.353V261.37C88.4287 262.829 87.4268 263.603 85.5195 263.603H82.3906V259.146H85.3701ZM102.808 265.299C105.506 265.299 107.51 263.796 107.932 261.476V261.458H106.332L106.314 261.476C105.919 262.935 104.574 263.84 102.808 263.84C100.364 263.84 98.835 261.845 98.835 258.672V258.654C98.835 255.481 100.364 253.478 102.799 253.478C104.548 253.478 105.901 254.506 106.323 256.132L106.332 256.149H107.923L107.932 256.132C107.554 253.697 105.471 252.019 102.799 252.019C99.3535 252.019 97.209 254.567 97.209 258.654V258.672C97.209 262.75 99.3623 265.299 102.808 265.299ZM115.648 265H119.999C123.77 265 125.984 262.653 125.984 258.663V258.646C125.984 254.664 123.761 252.317 119.999 252.317H115.648V265ZM117.23 263.576V253.741H119.894C122.706 253.741 124.367 255.569 124.367 258.663V258.681C124.367 261.766 122.724 263.576 119.894 263.576H117.23ZM133.789 265H141.646V263.576H135.371V259.217H141.321V257.811H135.371V253.741H141.646V252.317H133.789V265ZM149.574 265H151.156V259.507H156.772V258.101H151.156V253.741H157.273V252.317H149.574V265ZM170.193 265.299C173.437 265.299 175.581 263.225 175.581 260.096V258.549H170.439V259.938H173.999V260.245C173.999 262.39 172.47 263.84 170.202 263.84C167.653 263.84 166.062 261.854 166.062 258.663V258.646C166.062 255.499 167.68 253.478 170.193 253.478C172.083 253.478 173.357 254.374 173.876 256.009L173.902 256.097H175.502L175.484 256.009C174.983 253.601 173.006 252.019 170.193 252.019C166.722 252.019 164.445 254.646 164.445 258.646V258.663C164.445 262.715 166.687 265.299 170.193 265.299ZM183.447 265H185.029V259.226H191.99V265H193.572V252.317H191.99V257.802H185.029V252.317H183.447V265ZM201.869 265H203.451V252.317H201.869V265ZM214.464 265.299C216.811 265.299 218.199 263.875 218.199 261.476V252.317H216.617V261.458C216.617 263.005 215.861 263.84 214.455 263.84C213.198 263.84 212.574 263.04 212.478 262.082L212.469 261.994H210.887L210.896 262.117C211.027 263.937 212.267 265.299 214.464 265.299ZM226.496 265H228.078V260.57L229.599 258.892L234.178 265H236.226L230.688 257.793L235.76 252.317H233.773L228.219 258.479H228.078V252.317H226.496V265ZM243.424 265H251.123V263.576H245.006V252.317H243.424V265ZM258.717 265H260.193V255.314H260.29L264.298 265H265.634L269.642 255.314H269.738V265H271.215V252.317H269.378L265.036 262.899H264.896L260.554 252.317H258.717V265ZM279.512 265H281.076V255.165H281.217L288.099 265H289.637V252.317H288.072V262.188H287.932L281.05 252.317H279.512V265ZM303.26 265.299C306.881 265.299 309.078 262.706 309.078 258.663V258.646C309.078 254.585 306.863 252.019 303.26 252.019C299.674 252.019 297.441 254.576 297.441 258.646V258.663C297.441 262.715 299.621 265.299 303.26 265.299ZM303.26 263.84C300.623 263.84 299.059 261.801 299.059 258.663V258.646C299.059 255.481 300.676 253.478 303.26 253.478C305.853 253.478 307.461 255.481 307.461 258.646V258.663C307.461 261.801 305.861 263.84 303.26 263.84ZM316.883 265H318.465V260.474H321.664C324.046 260.474 325.733 258.795 325.733 256.387V256.369C325.733 253.961 324.046 252.317 321.664 252.317H316.883V265ZM321.26 253.724C323.07 253.724 324.116 254.717 324.116 256.387V256.404C324.116 258.074 323.07 259.067 321.26 259.067H318.465V253.724H321.26ZM338.715 265.299C339.567 265.299 340.341 265.158 341.035 264.877L342.16 266.433H343.936L342.283 264.165C343.725 263.031 344.533 261.115 344.533 258.663V258.646C344.533 254.585 342.318 252.019 338.715 252.019C335.129 252.019 332.896 254.576 332.896 258.646V258.663C332.896 262.715 335.076 265.299 338.715 265.299ZM338.715 263.84C336.078 263.84 334.514 261.801 334.514 258.663V258.646C334.514 255.481 336.131 253.478 338.715 253.478C341.308 253.478 342.916 255.481 342.916 258.646V258.663C342.916 260.518 342.354 261.994 341.36 262.891L340.253 261.37H338.478L340.112 263.62C339.69 263.761 339.216 263.84 338.715 263.84ZM352.338 265H353.92V259.981H357.04L359.756 265H361.61L358.675 259.735C360.266 259.234 361.224 257.863 361.224 256.105V256.088C361.224 253.812 359.624 252.317 357.181 252.317H352.338V265ZM353.92 258.575V253.724H356.97C358.604 253.724 359.589 254.629 359.589 256.141V256.158C359.589 257.705 358.666 258.575 357.04 258.575H353.92ZM373.317 265.299C376.147 265.299 378.002 263.822 378.002 261.449V261.44C378.002 259.612 376.956 258.549 374.311 257.96L372.904 257.644C371.182 257.266 370.487 256.58 370.487 255.569V255.561C370.487 254.233 371.709 253.486 373.291 253.478C374.943 253.469 375.998 254.295 376.174 255.411L376.191 255.525H377.773L377.765 255.402C377.633 253.513 375.866 252.019 373.335 252.019C370.716 252.019 368.879 253.504 368.87 255.604V255.613C368.87 257.45 369.969 258.619 372.509 259.182L373.915 259.489C375.655 259.876 376.385 260.597 376.385 261.651V261.66C376.385 262.952 375.128 263.84 373.405 263.84C371.577 263.84 370.259 263.04 370.145 261.774L370.136 261.678H368.554L368.562 261.774C368.747 263.84 370.54 265.299 373.317 265.299ZM388.997 265H390.579V253.741H394.666V252.317H384.91V253.741H388.997V265ZM407.199 265.299C410.346 265.299 412.227 263.4 412.227 260.641V252.317H410.645V260.535C410.645 262.486 409.396 263.84 407.199 263.84C405.002 263.84 403.736 262.486 403.736 260.535V252.317H402.154V260.641C402.154 263.4 404.053 265.299 407.199 265.299ZM424.171 265H425.735L430.411 252.317H428.75L425.023 262.952H424.883L421.156 252.317H419.495L424.171 265ZM440.325 265H441.819L444.737 254.989H444.843L447.761 265H449.255L452.709 252.317H451.057L448.534 262.627H448.429L445.59 252.317H443.99L441.151 262.627H441.046L438.523 252.317H436.871L440.325 265ZM459.345 265H461.138L464.557 259.938H464.609L467.984 265H469.883L465.594 258.707V258.672L469.979 252.317H468.178L464.75 257.424H464.697L461.305 252.317H459.397L463.669 258.593V258.628L459.345 265ZM480.948 265H482.53V259.542L487.03 252.317H485.229L481.81 257.951H481.669L478.25 252.317H476.448L480.948 259.542V265ZM493.965 265H503.343V263.576H496.048V263.436L503.193 253.442V252.317H494.211V253.741H501.146V253.882L493.965 263.875V265ZM66.0254 292.167C67.2998 292.167 68.293 291.613 68.8906 290.603H69.0312V292H70.5605V285.514C70.5605 283.545 69.2686 282.358 66.957 282.358C64.9355 282.358 63.4941 283.36 63.248 284.846L63.2393 284.898H64.7686L64.7773 284.872C65.0234 284.134 65.7705 283.712 66.9043 283.712C68.3193 283.712 69.0312 284.345 69.0312 285.514V286.375L66.3154 286.542C64.1094 286.674 62.8613 287.649 62.8613 289.337V289.354C62.8613 291.077 64.2236 292.167 66.0254 292.167ZM64.4258 289.319V289.302C64.4258 288.361 65.0586 287.852 66.5 287.764L69.0312 287.605V288.467C69.0312 289.82 67.8975 290.84 66.3418 290.84C65.2432 290.84 64.4258 290.277 64.4258 289.319ZM83.1289 292.167C85.5283 292.167 87.1016 290.225 87.1016 287.271V287.254C87.1016 284.283 85.5371 282.358 83.1289 282.358C81.8281 282.358 80.6943 283.009 80.1758 284.02H80.0352V278.764H78.5059V292H80.0352V290.488H80.1758C80.7559 291.543 81.8105 292.167 83.1289 292.167ZM82.7773 290.813C81.0547 290.813 80 289.46 80 287.271V287.254C80 285.065 81.0547 283.712 82.7773 283.712C84.5088 283.712 85.5371 285.048 85.5371 287.254V287.271C85.5371 289.478 84.5088 290.813 82.7773 290.813ZM98.4131 292.167C100.689 292.167 101.964 290.945 102.351 289.231L102.368 289.135L100.856 289.144L100.839 289.196C100.487 290.251 99.6787 290.813 98.4043 290.813C96.7168 290.813 95.627 289.416 95.627 287.236V287.219C95.627 285.083 96.6992 283.712 98.4043 283.712C99.7666 283.712 100.61 284.468 100.848 285.399L100.856 285.426H102.377L102.368 285.373C102.087 283.686 100.707 282.358 98.4043 282.358C95.75 282.358 94.0625 284.274 94.0625 287.219V287.236C94.0625 290.242 95.7588 292.167 98.4131 292.167ZM113.17 292.167C114.488 292.167 115.543 291.543 116.123 290.488H116.264V292H117.793V278.764H116.264V284.02H116.123C115.604 283.009 114.471 282.358 113.17 282.358C110.762 282.358 109.197 284.283 109.197 287.254V287.271C109.197 290.225 110.771 292.167 113.17 292.167ZM113.521 290.813C111.79 290.813 110.762 289.478 110.762 287.271V287.254C110.762 285.048 111.79 283.712 113.521 283.712C115.244 283.712 116.299 285.065 116.299 287.254V287.271C116.299 289.46 115.244 290.813 113.521 290.813ZM129.658 292.167C131.891 292.167 133.244 290.901 133.569 289.618L133.587 289.548H132.058L132.022 289.627C131.768 290.198 130.977 290.805 129.693 290.805C128.006 290.805 126.925 289.662 126.881 287.702H133.701V287.104C133.701 284.274 132.137 282.358 129.562 282.358C126.986 282.358 125.316 284.362 125.316 287.289V287.298C125.316 290.269 126.951 292.167 129.658 292.167ZM129.553 283.721C130.95 283.721 131.987 284.608 132.146 286.48H126.907C127.074 284.679 128.146 283.721 129.553 283.721ZM141.77 292H143.299V283.791H145.452V282.525H143.299V281.515C143.299 280.478 143.738 279.941 144.828 279.941C145.101 279.941 145.355 279.95 145.54 279.985V278.764C145.224 278.702 144.89 278.676 144.521 278.676C142.719 278.676 141.77 279.581 141.77 281.471V282.525H140.196V283.791H141.77V292ZM156.623 295.34C159.207 295.34 160.842 293.986 160.842 291.868V282.525H159.312V284.09H159.207C158.627 283.018 157.59 282.358 156.254 282.358C153.775 282.358 152.246 284.283 152.246 286.938V286.955C152.246 289.609 153.767 291.508 156.219 291.508C157.52 291.508 158.592 290.919 159.189 289.873H159.33V291.789C159.33 293.187 158.319 293.986 156.623 293.986C155.261 293.986 154.417 293.477 154.25 292.756L154.241 292.747H152.659L152.642 292.756C152.879 294.312 154.338 295.34 156.623 295.34ZM156.553 290.154C154.795 290.154 153.811 288.836 153.811 286.955V286.938C153.811 285.057 154.795 283.712 156.553 283.712C158.302 283.712 159.365 285.057 159.365 286.938V286.955C159.365 288.836 158.311 290.154 156.553 290.154ZM168.84 292H170.369V286.393C170.369 284.731 171.327 283.712 172.839 283.712C174.351 283.712 175.054 284.529 175.054 286.234V292H176.583V285.865C176.583 283.615 175.396 282.358 173.27 282.358C171.872 282.358 170.984 282.947 170.51 283.949H170.369V278.764H168.84V292ZM185.223 280.697C185.803 280.697 186.277 280.223 186.277 279.643C186.277 279.062 185.803 278.588 185.223 278.588C184.643 278.588 184.168 279.062 184.168 279.643C184.168 280.223 184.643 280.697 185.223 280.697ZM184.449 292H185.979V282.525H184.449V292ZM194.715 280.697C195.295 280.697 195.77 280.223 195.77 279.643C195.77 279.062 195.295 278.588 194.715 278.588C194.135 278.588 193.66 279.062 193.66 279.643C193.66 280.223 194.135 280.697 194.715 280.697ZM192.57 295.252C194.557 295.252 195.479 294.417 195.479 292.466V282.525H193.95V292.492C193.95 293.538 193.563 293.898 192.535 293.898H192.307V295.252H192.57ZM203.521 292H205.051V288.405L205.938 287.544L209.489 292H211.414L207.011 286.507L211.142 282.525H209.287L205.191 286.665H205.051V278.764H203.521V292ZM218.357 292H219.887V278.764H218.357V292ZM227.885 292H229.414V286.129C229.414 284.793 230.354 283.712 231.594 283.712C232.789 283.712 233.562 284.441 233.562 285.566V292H235.092V285.909C235.092 284.705 235.962 283.712 237.28 283.712C238.616 283.712 239.258 284.406 239.258 285.804V292H240.787V285.452C240.787 283.466 239.706 282.358 237.772 282.358C236.463 282.358 235.382 283.018 234.872 284.02H234.731C234.292 283.035 233.396 282.358 232.112 282.358C230.873 282.358 229.977 282.947 229.555 283.967H229.414V282.525H227.885V292ZM248.609 292H250.139V286.393C250.139 284.731 251.097 283.712 252.608 283.712C254.12 283.712 254.823 284.529 254.823 286.234V292H256.353V285.865C256.353 283.615 255.166 282.358 253.039 282.358C251.642 282.358 250.754 282.947 250.279 283.949H250.139V282.525H248.609V292ZM268.077 292.167C270.775 292.167 272.445 290.304 272.445 287.271V287.254C272.445 284.213 270.775 282.358 268.077 282.358C265.379 282.358 263.709 284.213 263.709 287.254V287.271C263.709 290.304 265.379 292.167 268.077 292.167ZM268.077 290.813C266.284 290.813 265.273 289.504 265.273 287.271V287.254C265.273 285.013 266.284 283.712 268.077 283.712C269.87 283.712 270.881 285.013 270.881 287.254V287.271C270.881 289.504 269.87 290.813 268.077 290.813ZM279.881 295.164H281.41V290.506H281.551C282.069 291.517 283.203 292.167 284.504 292.167C286.912 292.167 288.477 290.242 288.477 287.271V287.254C288.477 284.301 286.903 282.358 284.504 282.358C283.186 282.358 282.131 282.982 281.551 284.037H281.41V282.525H279.881V295.164ZM284.152 290.813C282.43 290.813 281.375 289.46 281.375 287.271V287.254C281.375 285.065 282.43 283.712 284.152 283.712C285.884 283.712 286.912 285.048 286.912 287.254V287.271C286.912 289.478 285.884 290.813 284.152 290.813ZM302.539 295.164H304.068V282.525H302.539V284.107H302.434C301.827 283.026 300.711 282.358 299.437 282.358C297.02 282.358 295.455 284.283 295.455 287.254V287.271C295.455 290.225 297.028 292.167 299.437 292.167C300.79 292.167 301.88 291.578 302.398 290.576H302.539V295.164ZM299.797 290.813C298.057 290.813 297.02 289.478 297.02 287.271V287.254C297.02 285.048 298.057 283.712 299.788 283.712C301.502 283.712 302.583 285.074 302.583 287.254V287.271C302.583 289.442 301.502 290.813 299.797 290.813ZM311.961 292H313.49V286.129C313.49 284.74 314.527 283.817 315.986 283.817C316.32 283.817 316.61 283.853 316.927 283.905V282.42C316.777 282.394 316.452 282.358 316.162 282.358C314.879 282.358 313.991 282.938 313.631 283.932H313.49V282.525H311.961V292ZM327.131 292.167C329.284 292.167 330.928 290.998 330.928 289.311V289.293C330.928 287.939 330.066 287.166 328.282 286.735L326.823 286.384C325.707 286.111 325.232 285.707 325.232 285.065V285.048C325.232 284.213 326.059 283.633 327.184 283.633C328.326 283.633 329.064 284.151 329.267 284.898H330.77C330.559 283.352 329.179 282.358 327.192 282.358C325.18 282.358 323.668 283.545 323.668 285.118V285.127C323.668 286.489 324.468 287.263 326.243 287.685L327.711 288.036C328.88 288.317 329.363 288.766 329.363 289.407V289.425C329.363 290.286 328.458 290.893 327.184 290.893C325.971 290.893 325.215 290.374 324.96 289.583H323.396C323.571 291.147 325.021 292.167 327.131 292.167ZM341.729 292.07C342.028 292.07 342.318 292.035 342.617 291.982V290.682C342.336 290.708 342.187 290.717 341.914 290.717C340.93 290.717 340.543 290.269 340.543 289.152V283.791H342.617V282.525H340.543V280.073H338.961V282.525H337.467V283.791H338.961V289.539C338.961 291.35 339.778 292.07 341.729 292.07ZM353.138 292.167C354.526 292.167 355.484 291.596 355.95 290.585H356.091V292H357.62V282.525H356.091V288.133C356.091 289.794 355.203 290.813 353.533 290.813C352.021 290.813 351.406 289.996 351.406 288.291V282.525H349.877V288.66C349.877 290.901 350.984 292.167 353.138 292.167ZM368.22 292H369.767L373.273 282.525H371.656L369.063 290.33H368.923L366.33 282.525H364.713L368.22 292ZM382.186 292H383.715L385.824 284.67H385.965L388.083 292H389.621L392.275 282.525H390.755L388.892 290.102H388.751L386.633 282.525H385.183L383.064 290.102H382.924L381.061 282.525H379.531L382.186 292ZM398.604 292H400.317L402.567 288.423H402.708L404.949 292H406.742L403.481 287.201L406.698 282.525H404.984L402.761 286.05H402.62L400.37 282.525H398.568L401.847 287.263L398.604 292ZM414.67 295.322C416.349 295.322 417.131 294.707 417.913 292.58L421.613 282.525H420.005L417.412 290.321H417.271L414.67 282.525H413.035L416.542 292.009L416.366 292.571C416.023 293.661 415.496 294.057 414.626 294.057C414.415 294.057 414.178 294.048 413.993 294.013V295.27C414.204 295.305 414.468 295.322 414.67 295.322ZM428.478 292H435.772V290.734H430.306V290.594L435.746 283.659V282.525H428.486V283.791H433.944V283.932L428.478 290.893V292Z" fill="#454A55"/>
</svg>
