<svg width="24" height="24" viewBox="0 0 24 24" fill="none" xmlns="http://www.w3.org/2000/svg">
<path fill-rule="evenodd" clip-rule="evenodd" d="M13.7474 6.33564C13.5644 6.12979 13.3047 6.00852 13.0294 6.00043C12.7541 5.99234 12.4876 6.09815 12.2929 6.29289L7 11.5858L2.70711 7.29289C2.31658 6.90237 1.68342 6.90237 1.29289 7.29289C0.902369 7.68342 0.902369 8.31658 1.29289 8.70711L6.29289 13.7071C6.68342 14.0976 7.31658 14.0976 7.70711 13.7071L12.9572 8.45703L19.662 16H15C14.4477 16 14 16.4477 14 17C14 17.5523 14.4477 18 15 18H22C22.5523 18 23 17.5523 23 17V10C23 9.44772 22.5523 9 22 9C21.4477 9 21 9.44772 21 10V14.4948L13.7474 6.33564Z" fill="black"/>
</svg>
