<svg width="24" height="24" viewBox="0 0 24 24" fill="none" xmlns="http://www.w3.org/2000/svg">
<path fill-rule="evenodd" clip-rule="evenodd" d="M15 5.99999C14.4477 5.99999 14 6.44771 14 6.99999C14 7.55228 14.4477 7.99999 15 7.99999H19.7108L12.9596 15.5454L7.70711 10.2929C7.31658 9.90236 6.68342 9.90236 6.29289 10.2929L1.29289 15.2929C0.902369 15.6834 0.902369 16.3166 1.29289 16.7071C1.68342 17.0976 2.31658 17.0976 2.70711 16.7071L7 12.4142L12.2929 17.7071C12.4872 17.9014 12.753 18.0072 13.0277 17.9996C13.3025 17.992 13.562 17.8716 13.7452 17.6668L21 9.55853V14C21 14.5523 21.4477 15 22 15C22.5523 15 23 14.5523 23 14V6.99999C23 6.44771 22.5523 5.99999 22 5.99999H15Z" fill="black"/>
</svg>
