<svg width="24" height="24" viewBox="0 0 24 24" xmlns="http://www.w3.org/2000/svg">
    <path d="M16.571 21H7.43C5.535 21 4 19.405 4 17.437v-2.671c0-.494.384-.891.857-.891.474 0 .857.399.857.89v2.672c0 .98.772 1.782 1.715 1.782h9.142c.943 0 1.715-.802 1.715-1.782v-2.671c0-.492.384-.891.857-.891s.857.399.857.89v2.672C20 19.404 18.464 21 16.571 21Zm-3.985-6.179 4.857-4.75a.913.913 0 0 0 .037-1.258.834.834 0 0 0-1.211-.038l-3.412 3.334V2.89c0-.492-.382-.891-.857-.891s-.857.399-.857.89v9.219L7.729 8.772a.83.83 0 0 0-1.21.041.9.9 0 0 0-.233.609c0 .236.09.473.27.648l4.857 4.75a.83.83 0 0 0 1.173.001Z"/>
</svg>
