<svg width="24" height="24" viewBox="0 0 24 24" fill="none" xmlns="http://www.w3.org/2000/svg">
<path fill-rule="evenodd" clip-rule="evenodd" d="M22.7071 2.70711C23.0976 2.31658 23.0976 1.68342 22.7071 1.29289C22.3166 0.902369 21.6834 0.902369 21.2929 1.29289L3 19.5858V12C3 11.4477 2.55228 11 2 11C1.44772 11 1 11.4477 1 12V21.9998V22C1 22.1356 1.02699 22.2649 1.07588 22.3828C1.12468 22.5007 1.19702 22.6112 1.29289 22.7071C1.47595 22.8902 1.71232 22.9874 1.95203 22.9989C1.96801 22.9996 1.984 23 2 23C2.00033 23 2.00065 23 2.00098 23H12C12.5523 23 13 22.5523 13 22C13 21.4477 12.5523 21 12 21H4.41421L22.7071 2.70711Z" fill="black"/>
</svg>
