<svg width="24" height="24" viewBox="0 0 24 24" fill="none" xmlns="http://www.w3.org/2000/svg">
<path fill-rule="evenodd" clip-rule="evenodd" d="M2 12C2 6.47715 6.47715 2 12 2C14.4013 2 16.6048 2.84636 18.3287 4.25703L4.25703 18.3287C2.84636 16.6048 2 14.4013 2 12ZM3.33405 20.3007C3.37677 20.3745 3.4297 20.444 3.49284 20.5071C3.55598 20.5702 3.62546 20.6232 3.69923 20.6659C5.85469 22.7311 8.77916 24 12 24C18.6274 24 24 18.6274 24 12C24 8.77906 22.731 5.85452 20.6657 3.69904C20.623 3.62536 20.5701 3.55596 20.5071 3.49289C20.444 3.42982 20.3746 3.37693 20.3009 3.33423C18.1454 1.26897 15.2209 0 12 0C5.37258 0 0 5.37258 0 12C0 15.2208 1.26889 18.1453 3.33405 20.3007ZM19.7429 5.67124C21.1536 7.39511 22 9.59872 22 12C22 17.5228 17.5228 22 12 22C9.59872 22 7.39511 21.1536 5.67124 19.7429L19.7429 5.67124Z" fill="black"/>
</svg>
