<svg width="24" height="24" viewBox="0 0 24 24" xmlns="http://www.w3.org/2000/svg">
    <path d="M20.482 6.087H3.48c-.522 0-.98-.47-.98-1.004C2.5 4.47 2.958 4 3.48 4h17.002c.56 0 1.018.47 1.018 1.004 0 .613-.458 1.083-1.018 1.083Zm0 13.913H3.48c-.522 0-.98-.47-.98-1.004 0-.535.458-1.083.98-1.083h17.002c.56 0 1.018.47 1.018 1.004 0 .535-.458 1.083-1.018 1.083Zm0-6.957H3.48c-.522 0-.98-.47-.98-1.043 0-.574.458-1.043.98-1.043h17.002c.56 0 1.018.47 1.018 1.043 0 .574-.458 1.043-1.018 1.043Z"/>
</svg>
