<svg width="24" height="24" viewBox="0 0 24 24" fill="none" xmlns="http://www.w3.org/2000/svg">
<g clip-path="url(#clip0_619_2793)">
<path d="M1 22C0.447715 22 0 21.5523 0 21C0 20.4477 0.447715 20 1 20H23C23.5523 20 24 20.4477 24 21C24 21.5523 23.5523 22 23 22H1Z" fill="black"/>
<path d="M4 16C3.44772 16 3 15.5523 3 15C3 14.4477 3.44772 14 4 14H20C20.5523 14 21 14.4477 21 15C21 15.5523 20.5523 16 20 16H4Z" fill="black"/>
<path d="M6 9C6 9.55229 6.44772 10 7 10H17C17.5523 10 18 9.55229 18 9C18 8.44771 17.5523 8 17 8H7C6.44772 8 6 8.44771 6 9Z" fill="black"/>
<path d="M10 4C9.44771 4 9 3.55228 9 3C9 2.44772 9.44771 2 10 2H14C14.5523 2 15 2.44772 15 3C15 3.55228 14.5523 4 14 4H10Z" fill="black"/>
</g>
<defs>
<clipPath id="clip0_619_2793">
<rect width="24" height="24" fill="white"/>
</clipPath>
</defs>
</svg>
