<svg width="24" height="24" viewBox="0 0 24 24" xmlns="http://www.w3.org/2000/svg">
    <path d="M20.652 15.799c-.775-.793-2.23-1.985-2.23-5.877 0-2.961-2.184-5.328-5.138-5.907v-.796C13.284 2.548 12.707 2 12 2s-1.286.548-1.286 1.219v.795c-2.952.58-5.137 2.945-5.137 5.908 0 3.892-1.456 5.084-2.23 5.877-.24.247-.346.54-.346.826.005.624.522 1.219 1.29 1.219h15.42c.767 0 1.285-.595 1.29-1.219a1.184 1.184 0 0 0-.348-.826Zm-14.94.217c.853-1.067 1.787-2.834 1.787-6.071v-.023c0-2.358 2.013-4.266 4.5-4.266 2.486 0 4.5 1.91 4.5 4.266v.024c0 3.236.931 5.003 1.787 6.07H5.712Zm6.25 5.484c1.459 0 2.608-1.09 2.608-2.438H9.428c0 1.349 1.149 2.438 2.535 2.438Z"/>
</svg>
