<svg width="24" height="24" viewBox="0 0 24 24" fill="none" xmlns="http://www.w3.org/2000/svg">
<path fill-rule="evenodd" clip-rule="evenodd" d="M5 2C4.73478 2 4.48043 2.10536 4.29289 2.29289C4.10536 2.48043 4 2.73478 4 3V20.3005L11.5144 16.1258C11.8164 15.9581 12.1836 15.9581 12.4856 16.1258L20 20.3005V3C20 2.73478 19.8946 2.48043 19.7071 2.29289C19.5196 2.10536 19.2652 2 19 2H5ZM2.87868 0.87868C3.44129 0.316071 4.20435 0 5 0H19C19.7957 0 20.5587 0.316071 21.1213 0.87868C21.6839 1.44129 22 2.20435 22 3V22C22 22.3543 21.8125 22.6822 21.5071 22.8619C21.2017 23.0416 20.8241 23.0462 20.5144 22.8742L12 18.144L3.48564 22.8742C3.17591 23.0462 2.79825 23.0416 2.49287 22.8619C2.18749 22.6822 2 22.3543 2 22V3C2 2.20435 2.31607 1.44129 2.87868 0.87868Z" fill="black"/>
</svg>
