<svg width="24" height="24" viewBox="0 0 24 24" xmlns="http://www.w3.org/2000/svg">
    <path d="M18.429 4.5H16.82V2.937A.944.944 0 0 0 15.893 2c-.496 0-1 .42-1 .938V4.5H9.107V2.937A.95.95 0 0 0 8.143 2a.95.95 0 0 0-.964.938V4.5H5.57C4.151 4.5 3 5.62 3 7v12.5C3 20.88 4.151 22 5.571 22H18.43c1.419 0 2.57-1.12 2.57-2.5V7c0-1.38-1.153-2.5-2.571-2.5Zm.642 5v4.063h-6.107V9.5h6.107Zm-8.035 0v4.063H4.929V9.5h6.107Zm-6.107 10v-4.063h6.107v4.688H5.57a.635.635 0 0 1-.642-.625Zm13.5.625h-5.465v-4.688h6.107V19.5a.635.635 0 0 1-.642.625Z"/>
</svg>
