<svg width="24" height="24" viewBox="0 0 24 24" xmlns="http://www.w3.org/2000/svg">
    <path d="M18.429 4.5H16.82V2.937A.944.944 0 0 0 15.893 2c-.496 0-1 .42-1 .938V4.5H9.107V2.937A.95.95 0 0 0 8.143 2a.95.95 0 0 0-.964.938V4.5H5.57C4.151 4.5 3 5.62 3 7v12.5C3 20.88 4.151 22 5.571 22H18.43c1.419 0 2.57-1.12 2.57-2.5V7c0-1.38-1.153-2.5-2.571-2.5Zm.642 15a.635.635 0 0 1-.642.625H5.57a.635.635 0 0 1-.642-.625v-10H19.07v10ZM8.75 15.715h2.286v2.187c0 .555.43.973.964.973.533 0 .928-.42.928-.902v-2.258h2.25c.533 0 .928-.42.928-.902 0-.483-.431-.903-.928-.903h-2.25v-2.258A.91.91 0 0 0 12 10.75c-.534 0-.964.418-.964.902v2.223H8.75a.941.941 0 0 0-.929.938c0 .519.43.902.929.902Z"/>
</svg>
