<svg width="24" height="24" viewBox="0 0 24 24" fill="none" xmlns="http://www.w3.org/2000/svg">
<path fill-rule="evenodd" clip-rule="evenodd" d="M1 1C0.447715 1 0 1.44772 0 2C0 2.55228 0.447715 3 1 3H3.12448L5.00877 17.1322C5.07501 17.629 5.4988 18 6 18H20C20.4767 18 20.8871 17.6635 20.9806 17.1961L22.9806 7.19612C23.0393 6.90234 22.9633 6.5977 22.7733 6.36601C22.5834 6.13432 22.2996 6 22 6H5.54218L4.99123 1.86784C4.92499 1.37103 4.5012 1 4 1H1ZM6.87552 16L5.80885 8H20.7802L19.1802 16H6.87552ZM6 20C4.89543 20 4 20.8954 4 22C4 23.1046 4.89543 24 6 24C7.10457 24 8 23.1046 8 22C8 20.8954 7.10457 20 6 20ZM18 22C18 20.8954 18.8954 20 20 20C21.1046 20 22 20.8954 22 22C22 23.1046 21.1046 24 20 24C18.8954 24 18 23.1046 18 22Z" fill="black"/>
</svg>
