<svg width="24" height="24" viewBox="0 0 24 24" xmlns="http://www.w3.org/2000/svg">
    <path d="M7.08 17.625c-.92 0-1.635.756-1.635 1.688 0 .931.746 1.687 1.635 1.687.89 0 1.636-.756 1.636-1.688 0-.931-.684-1.687-1.636-1.687Zm10 0c-.92 0-1.635.756-1.635 1.688 0 .931.746 1.687 1.636 1.687.889 0 1.635-.756 1.635-1.688 0-.931-.684-1.687-1.635-1.687Zm3.695-13.052a1.098 1.098 0 0 0-.887-.448H5.205l-.052-.44A.839.839 0 0 0 4.333 3h-2.53A.826.826 0 0 0 1 3.812c0 .498.373.876.802.876h1.81l2.094 11.127c.107.397.45.685.85.685h11.39c.46 0 .833-.378.833-.812 0-.5-.372-.876-.834-.876H7.247l-.32-1.687h11.056c.496 0 .932-.333 1.069-.816l1.905-6.718c.096-.374.03-.734-.182-1.018Zm-3.212 6.864H6.611L5.553 5.814h13.602l-1.592 5.625Z"/>
</svg>
