<svg width="24" height="24" viewBox="0 0 24 24" xmlns="http://www.w3.org/2000/svg">
    <path d="M12 2C6.477 2 2 6.477 2 12s4.477 10 10 10 10-4.477 10-10S17.523 2 12 2Zm0 18.125c-4.48 0-8.125-3.645-8.125-8.125S7.52 3.875 12 3.875 20.125 7.52 20.125 12 16.48 20.125 12 20.125Zm0-5c-.703 0-1.25.547-1.25 1.25s.512 1.25 1.25 1.25c.668 0 1.25-.547 1.25-1.25s-.582-1.25-1.25-1.25ZM13.293 7h-1.996a2.718 2.718 0 0 0-2.735 2.734c0 .508.43.938.938.938a.95.95 0 0 0 .938-.938c0-.468.355-.859.824-.859h1.996c.504 0 .93.39.93.86 0 .312-.157.55-.43.706l-2.227 1.364a.964.964 0 0 0-.469.82v.625c0 .508.43.938.938.938a.95.95 0 0 0 .938-.938v-.078l1.761-1.094c.82-.508 1.328-1.406 1.328-2.344C16.062 8.211 14.852 7 13.293 7Z"/>
</svg>
