<svg width="24" height="24" viewBox="0 0 24 24" xmlns="http://www.w3.org/2000/svg">
    <path d="M12 2C6.477 2 2 6.477 2 12s4.477 10 10 10 10-4.477 10-10S17.523 2 12 2Zm0 18.125c-4.48 0-8.125-3.645-8.125-8.125S7.52 3.875 12 3.875 20.125 7.52 20.125 12 16.48 20.125 12 20.125Zm1.563-5h-.626v-3.438A.938.938 0 0 0 12 10.75h-1.25a.94.94 0 0 0-.938.938.94.94 0 0 0 .938.937h.313v2.5h-.626a.94.94 0 0 0-.937.938.94.94 0 0 0 .938.937h3.124a.938.938 0 0 0 0-1.875ZM12 9.5A1.25 1.25 0 1 0 12 7a1.25 1.25 0 0 0 0 2.5Z"/>
</svg>
