<svg width="24" height="24" viewBox="0 0 24 24" xmlns="http://www.w3.org/2000/svg">
    <path d="M15.129 8.836a.937.937 0 0 0-1.326 0L12 10.676l-1.871-1.84a.937.937 0 1 0-1.326 1.326l1.837 1.837-1.804 1.837a.937.937 0 1 0 1.326 1.326L12 13.324l1.837 1.837a.937.937 0 1 0 1.326-1.325l-1.837-1.838 1.837-1.837a.911.911 0 0 0-.034-1.325ZM12 2C6.477 2 2 6.477 2 12s4.477 10 10 10 10-4.477 10-10S17.523 2 12 2Zm0 18.125c-4.48 0-8.125-3.645-8.125-8.125S7.52 3.875 12 3.875 20.125 7.52 20.125 12 16.48 20.125 12 20.125Z"/>
</svg>
