<svg width="24" height="24" viewBox="0 0 24 24" xmlns="http://www.w3.org/2000/svg">
    <path d="M10.718 8.746a.964.964 0 0 0-1.363 0l-2.572 2.571a.964.964 0 0 0 0 1.364l2.572 2.571c.222.191.471.284.716.284a.965.965 0 0 0 .682-1.646L8.862 12l1.89-1.89a.938.938 0 0 0-.034-1.364Zm3.857 0a.964.964 0 1 0-1.363 1.363L15.138 12l-1.89 1.89a.964.964 0 0 0 1.362 1.363l2.572-2.571a.964.964 0 0 0 0-1.364l-2.607-2.572ZM18.43 3H5.57A2.571 2.571 0 0 0 3 5.571V18.43A2.571 2.571 0 0 0 5.571 21H18.43A2.571 2.571 0 0 0 21 18.429V5.57A2.573 2.573 0 0 0 18.429 3Zm.642 15.429a.644.644 0 0 1-.642.642H5.57a.644.644 0 0 1-.642-.642V5.57c0-.354.288-.642.642-.642h12.86c.354 0 .642.288.642.642v12.86Z"/>
</svg>
