<svg width="24" height="24" viewBox="0 0 24 24" fill="none" xmlns="http://www.w3.org/2000/svg">
<path fill-rule="evenodd" clip-rule="evenodd" d="M11 0C5.14444 0 0 3.83304 0 9C0 10.9506 0.762489 12.7271 2 14.1675V19C2 19.3466 2.17944 19.6684 2.47423 19.8506C2.76903 20.0328 3.13715 20.0494 3.44714 19.8945L7.49823 17.8693C9.14089 19.8029 11.9337 21 15 21C15.5316 21 16.0495 20.9623 16.5516 20.8939L20.5527 22.8944C20.8627 23.0494 21.2309 23.0329 21.5257 22.8506C21.8205 22.6684 22 22.3466 22 22V18.4032C23.2146 17.2355 24 15.7143 24 14C24 12.2757 23.2052 10.748 21.9784 9.57729C21.9927 9.38684 22 9.19436 22 9C22 3.83304 16.8556 0 11 0ZM19.9509 9.72129C19.9341 9.78597 19.924 9.85188 19.9204 9.91794C19.3486 13.2064 15.7534 16 11 16C9.98248 16 9.00617 15.8623 8.09102 15.6179C7.8551 15.5549 7.60428 15.5803 7.38586 15.6895L7.36624 15.6993C7.35732 15.7036 7.34843 15.7081 7.33959 15.7127L4 17.3821V13.785C4 13.5312 3.90346 13.2868 3.72996 13.1015C2.62566 11.9221 2 10.5052 2 9C2 5.33096 5.80956 2 11 2C16.1904 2 20 5.33096 20 9C20 9.24219 19.9834 9.48291 19.9509 9.72129ZM10.8264 17.9989C10.8841 17.9996 10.942 18 11 18C15.6573 18 19.8648 15.5751 21.3918 11.9829C21.7909 12.6157 22 13.3003 22 14C22 15.1654 21.421 16.2878 20.3515 17.1987C20.1285 17.3887 20 17.667 20 17.96V20.382L17.1632 18.9636C16.9748 18.8694 16.7614 18.8371 16.5536 18.8713C16.0508 18.954 15.5322 19 15 19C13.406 19 11.9728 18.6174 10.8264 17.9989Z" fill="black"/>
</svg>
