<svg width="24" height="24" viewBox="0 0 24 24" xmlns="http://www.w3.org/2000/svg">
    <path d="M7.61 10.093c-.693 0-1.254.57-1.254 1.247 0 .746.56 1.32 1.254 1.32s1.22-.572 1.22-1.284c0-.711-.522-1.283-1.22-1.283Zm4.39-.036c-.695 0-1.219.572-1.219 1.283 0 .712.559 1.247 1.22 1.247.66 0 1.219-.571 1.219-1.247 0-.675-.522-1.283-1.22-1.283Zm4.39.036c-.695 0-1.218.572-1.218 1.284 0 .711.558 1.283 1.219 1.283.696 0 1.254-.572 1.254-1.284 0-.713-.556-1.283-1.254-1.283ZM12 3c-5.542 0-9.999 3.734-9.999 8.34 0 1.91.78 3.66 2.074 5.065-.583 1.584-1.798 2.922-1.818 2.937a.982.982 0 0 0-.18 1.043.857.857 0 0 0 .83.615c2.41 0 4.276-1.032 5.452-1.855 1.132.361 2.358.572 3.642.572 5.542 0 9.999-3.734 9.999-8.304S17.543 3 12 3Zm0 14.792a9.952 9.952 0 0 1-3.071-.486l-.892-.286-.764.552a8.317 8.317 0 0 1-2.253 1.163 9.963 9.963 0 0 0 .779-1.614l.416-1.123-.808-.877c-.705-.773-1.557-2.052-1.557-3.745 0-3.538 3.654-6.415 8.118-6.415 4.463 0 8.118 2.877 8.118 6.415 0 3.54-3.585 6.416-8.085 6.416Z"/>
</svg>
