<svg width="24" height="24" viewBox="0 0 24 24" fill="none" xmlns="http://www.w3.org/2000/svg">
<path fill-rule="evenodd" clip-rule="evenodd" d="M12 2C6.47715 2 2 6.47715 2 12C2 17.5228 6.47715 22 12 22C17.5228 22 22 17.5228 22 12C22 6.47715 17.5228 2 12 2ZM0 12C0 5.37258 5.37258 0 12 0C18.6274 0 24 5.37258 24 12C24 18.6274 18.6274 24 12 24C5.37258 24 0 18.6274 0 12ZM17.7071 6.29289C17.9962 6.58203 18.0802 7.01808 17.9191 7.39392L14.9191 14.3939C14.818 14.6299 14.6299 14.818 14.3939 14.9191L7.39392 17.9191C7.01808 18.0802 6.58203 17.9962 6.29289 17.7071C6.00375 17.418 5.91978 16.9819 6.08085 16.6061L9.08085 9.60608C9.182 9.37007 9.37007 9.182 9.60608 9.08085L16.6061 6.08085C16.9819 5.91978 17.418 6.00375 17.7071 6.29289ZM10.7616 10.7616L8.90394 15.0961L13.2384 13.2384L10.7616 10.7616Z" fill="black"/>
</svg>
