<svg width="24" height="24" viewBox="0 0 24 24" xmlns="http://www.w3.org/2000/svg">
    <path d="M15.021 7.605 10.45 9.648a1.467 1.467 0 0 0-.63.617l-2.09 4.473c-.491 1.052.618 2.137 1.694 1.656l4.572-2.044a1.47 1.47 0 0 0 .629-.615l2.09-4.473c.492-1.086-.618-2.137-1.693-1.657Zm-1.896 5.278c-.5.488-1.308.488-1.807 0a1.23 1.23 0 0 1 0-1.768 1.298 1.298 0 0 1 1.807 0c.499.49.499 1.28 0 1.768ZM12.222 2C6.576 2 2 6.477 2 12s4.576 10 10.222 10 10.222-4.477 10.222-10S17.868 2 12.222 2Zm0 18.125c-4.58 0-8.305-3.645-8.305-8.125s3.725-8.125 8.305-8.125S20.528 7.52 20.528 12s-3.726 8.125-8.306 8.125Z"/>
</svg>
