<svg width="24" height="24" viewBox="0 0 24 24" xmlns="http://www.w3.org/2000/svg">
    <path d="M20.613 6.286c-.765 0-1.386.64-1.386 1.428 0 .322.122.604.296.842l-3.108 2.56c-.206.17-.45.252-.691.252-.403 0-.797-.226-.994-.633l-1.997-4.114c.392-.252.638-.68.638-1.192 0-.79-.59-1.429-1.355-1.429-.767 0-1.418.64-1.418 1.429 0 .512.276.94.669 1.192L9.3 10.736c-.198.375-.593.632-.995.632-.24 0-.485-.08-.691-.25L4.508 8.555c.175-.238.265-.552.265-.842 0-.789-.62-1.428-1.386-1.428C2.62 6.286 2 6.926 2 7.714c0 .79.62 1.429 1.387 1.429.008 0 .016-.004.024-.004l1.752 9.921c.127.544.585.94 1.122.94h11.461a1.12 1.12 0 0 0 1.092-.938l1.751-9.925a.086.086 0 0 0 .024.006c.766 0 1.387-.64 1.387-1.429s-.62-1.428-1.387-1.428Zm-3.331 12H6.75l-1.175-6.657 1.003.826a2.73 2.73 0 0 0 1.73.627c1.059 0 2.01-.606 2.483-1.58l1.225-2.527 1.226 2.526c.473.974 1.424 1.58 2.482 1.58.627 0 1.241-.223 1.731-.627l1.003-.827-1.176 6.659Z"/>
</svg>
