<svg width="24" height="24" viewBox="0 0 24 24" xmlns="http://www.w3.org/2000/svg">
    <path d="M8.793 6.39a.454.454 0 0 0-.312.132l-.954.99a.436.436 0 0 0-.132.312c0 .24.2.44.446.44h.623a.432.432 0 0 0 .312-.127l.37-.366a.451.451 0 0 0 .127-.313v-.625c0-.243-.199-.442-.48-.442ZM12 2C6.477 2 2 6.477 2 12s4.477 10 10 10 10-4.477 10-10S17.523 2 12 2Zm6.469 13.75a.708.708 0 0 1-.43-.19l-.677-.68a1.24 1.24 0 0 0-.885-.366h-.714l-1.684-1.45a1.79 1.79 0 0 0-1.16-.425h-1.216c-.321 0-.638.093-.917.254l-1.673 1.005c-.534.318-.86.899-.86 1.524v.933c0 .556.26 1.084.709 1.42l.865.655c.34.254.96.46 1.382.46h.79c.332 0 .604.264.622.59.004-.001-.003 0 0 0l.006.613c-.209.016-.416.032-.627.032-4.48 0-8.125-3.645-8.125-8.125S7.52 3.875 12 3.875c.113 0 .224.012.336.017L10.87 5.046a.309.309 0 0 0-.128.249v.78c0 .17.142.312.313.312h.624a.312.312 0 0 0 .312-.312v-.312l.63-.624h.808a.444.444 0 0 1 .312.755l-1.05 1.044a.445.445 0 0 1-.17.107l-1.561.518a.31.31 0 0 0-.215.296c0 .259-.1.503-.279.683l-.787.786a.614.614 0 0 0-.185.439v.985c0 .346.28.624.624.624h.866c.237 0 .45-.132.558-.341l.365-.732a.328.328 0 0 1 .283-.17h.118a.31.31 0 0 1 .313.312c0 .17.142.312.312.312h.63c.17 0 .311-.142.311-.312v-.086c0-.136.085-.253.213-.297l1.235-.41a.629.629 0 0 0 .426-.594v-.175a.63.63 0 0 1 .624-.624h1.433c.241 0 .445.2.445.443v.366a.447.447 0 0 1-.445.439h-1.249a.438.438 0 0 0-.312.131l-.369.366a.443.443 0 0 0 .312.75h.625c.118 0 .231.05.317.132l.364.366a.43.43 0 0 1 .127.312v.336l-.487.488a.468.468 0 0 0-.004.653l1.253 1.273a.593.593 0 0 0 .445.186h.9c-.14.434-.318.851-.526 1.25h-.733Z"/>
</svg>
