<svg width="24" height="24" viewBox="0 0 24 24" fill="none" xmlns="http://www.w3.org/2000/svg">
<g clip-path="url(#clip0_650_2909)">
<path fill-rule="evenodd" clip-rule="evenodd" d="M11.5672 2.00919C9.80764 2.08412 8.16576 2.61374 6.75611 3.48357L7.35699 3.97746C7.39048 4.00499 7.42215 4.03468 7.4518 4.06632L9.0968 5.82232C9.30523 6.04482 9.40077 6.35024 9.3563 6.65185L8.9523 9.39185C8.90491 9.7133 8.70429 9.99169 8.41434 10.1383L5.92706 11.3964L5.28632 11.943L5.47365 12.2626L6.70497 13.5816C6.81306 13.6974 6.8921 13.8372 6.93558 13.9895L7.64158 16.4625C7.74989 16.8419 7.625 17.2495 7.32275 17.5031L5.61445 18.9364L5.46558 19.57C7.21818 21.0842 9.50214 22 12 22C17.5228 22 22 17.5228 22 12C22 9.79152 21.2841 7.75025 20.0717 6.09561L19.3364 6.51276C19.2208 6.57838 19.0932 6.62028 18.9611 6.63599L15.9611 6.99299C15.6941 7.02477 15.4255 6.94766 15.216 6.77907L12.932 4.94107C12.7847 4.82248 12.674 4.66454 12.6128 4.48557L12.0272 2.77341L11.5672 2.00919ZM18.6987 4.5751C17.3826 3.38702 15.7492 2.54388 13.9408 2.18821L14.4115 3.56445L16.1423 4.95732L18.5247 4.67381L18.6987 4.5751ZM12.1804 0.00132516C18.7246 0.0977455 24 5.43281 24 12C24 18.6274 18.6274 24 12 24C8.76759 24 5.83368 22.7219 3.67604 20.6436C3.66767 20.6358 3.65944 20.6278 3.65136 20.6197C1.39963 18.4384 0 15.3827 0 12C0 5.37258 5.37258 -2.74181e-06 12 -2.74181e-06C12.0314 -2.74181e-06 12.0627 0.000117718 12.0941 0.000358201C12.1229 -0.000563973 12.1517 -0.000234829 12.1804 0.00132516ZM3.87963 17.8373C3.93303 17.7556 3.99846 17.6815 4.07425 17.6179L5.54036 16.3878L5.07857 14.7702L3.93603 13.5464C3.88573 13.4925 3.84154 13.4332 3.80427 13.3696L3.13727 12.2316C2.89219 11.8135 2.98224 11.2798 3.35095 10.9652L4.71995 9.79724C4.78039 9.74567 4.84676 9.70149 4.91766 9.66563L7.04928 8.5875L7.30731 6.83749L6.03672 5.48117L5.12859 4.73472C3.20197 6.55753 2 9.13839 2 12C2 14.1787 2.69677 16.1947 3.87963 17.8373ZM15.1827 9.21749C15.364 9.15383 15.5598 9.14375 15.7467 9.18844L18.1047 9.75244C18.3863 9.81982 18.625 10.006 18.7588 10.2629L19.8938 12.4409C20.0344 12.7105 20.0446 13.0295 19.9216 13.3075L18.9936 15.4055L18.9932 15.4064L18.0392 17.5574C17.9844 17.6809 17.9052 17.792 17.8064 17.884L16.0434 19.525C15.8744 19.6822 15.6563 19.7762 15.426 19.791L13.087 19.941C12.7666 19.9615 12.4559 19.827 12.2516 19.5793L10.8576 17.8893C10.6629 17.6533 10.587 17.3412 10.6515 17.0422L11.077 15.0695L10.7113 13.1248C10.6575 12.8389 10.7309 12.5438 10.9123 12.3164L12.5053 10.3194C12.6224 10.1726 12.7785 10.0617 12.9557 9.99949L15.1827 9.21749ZM15.5676 11.202L13.8895 11.7913L12.7615 13.2054L13.0798 14.8982C13.1044 15.0291 13.1026 15.1636 13.0746 15.2938L12.7087 16.9903L13.4692 17.9123L14.9419 17.8179L16.2939 16.5595L17.1645 14.5965L17.1649 14.5956L17.8979 12.9385L17.1959 11.5915L15.5676 11.202Z" fill="black"/>
</g>
<defs>
<clipPath id="clip0_650_2909">
<rect width="24" height="24" fill="white"/>
</clipPath>
</defs>
</svg>
