<svg width="24" height="24" viewBox="0 0 24 24" xmlns="http://www.w3.org/2000/svg">
    <path d="M21.878 11.36C19.997 6.983 16.268 4 12 4c-4.267 0-7.997 2.986-9.88 7.36A2.26 2.26 0 0 0 2 12c0 .178.054.45.12.608C4.004 17.018 7.733 20 12 20s7.997-2.985 9.878-7.36A2.49 2.49 0 0 0 22 12c0-.179-.056-.45-.122-.64ZM12 18.287c-3.454 0-6.639-2.411-8.32-6.254C5.369 8.122 8.55 5.714 12 5.714c3.454 0 6.639 2.411 8.32 6.254-1.72 3.91-4.869 6.318-8.32 6.318ZM12 7.43c-2.455 0-4.444 2.046-4.444 4.571s1.99 4.571 4.444 4.571c2.453 0 4.444-2.047 4.444-4.567 0-2.525-1.99-4.575-4.444-4.575Zm0 7.428c-1.532 0-2.778-1.282-2.778-2.857 0-.027.007-.052.008-.078.176.046.357.078.548.078C11.005 12 12 10.977 12 9.714c0-.195-.03-.383-.076-.563.027-.001.052-.008.076-.008 1.532 0 2.778 1.282 2.778 2.859 0 1.573-1.247 2.855-2.778 2.855Z"/>
</svg>
