<svg width="24" height="24" viewBox="0 0 24 24" xmlns="http://www.w3.org/2000/svg">
    <path d="m22.689 19.52-3.559-2.856a13.829 13.829 0 0 0 2.655-4.018c.066-.156.12-.425.12-.6s-.054-.444-.12-.6C19.92 7.1 16.23 4.188 12.003 4.188c-2.155 0-4.167.773-5.873 2.1L2.334 3.18a.812.812 0 0 0-1.158.144.859.859 0 0 0 .14 1.186L21.64 20.82a.811.811 0 0 0 1.158-.144c.314-.335.249-.867-.109-1.155Zm-8.128-6.525-2.808-2.222c.115-.332.219-.652.219-1.011 0-.193-.03-.378-.075-.556.057 0 .082-.008.106-.008 1.516 0 2.75 1.264 2.75 2.82 0 .346-.079.67-.192.977Zm1.334 1.07a4.441 4.441 0 0 0 .509-2.046c0-2.49-1.97-4.511-4.401-4.511-1.108 0-2.108.43-2.878 1.123l-1.65-1.324c1.364-.96 2.915-1.49 4.528-1.49 3.42 0 6.574 2.378 8.238 6.167a11.604 11.604 0 0 1-2.428 3.589l-1.918-1.508Zm-3.892 2.459a4.27 4.27 0 0 0 1.317-.229l-1.909-1.532a2.761 2.761 0 0 1-1.857-1.49L7.63 11.727c-.007.098-.028.19-.028.289 0 2.49 1.97 4.508 4.402 4.508Zm0 1.69c-3.42 0-6.575-2.377-8.239-6.167.373-.853.829-1.62 1.335-2.319l-1.305-1.08a14.123 14.123 0 0 0-1.575 2.769c-.065.155-.15.423-.15.599 0 .175.054.443.12.6 1.865 4.345 5.556 7.258 9.782 7.258 1.563 0 3.052-.405 4.404-1.132l-1.474-1.183a6.826 6.826 0 0 1-2.898.655Z"/>
</svg>
