<svg width="24" height="24" viewBox="0 0 24 24" xmlns="http://www.w3.org/2000/svg">
    <path d="M22 12.06c0-1.921-.547-3.804-1.577-5.423a10.018 10.018 0 0 0-4.235-3.713A9.948 9.948 0 0 0 5.506 4.41 10.064 10.064 0 0 0 2.43 9.14a10.118 10.118 0 0 0-.054 5.65 10.067 10.067 0 0 0 2.982 4.788 9.975 9.975 0 0 0 5.08 2.416v-7.026h-2.54V12.06h2.54V9.844a3.567 3.567 0 0 1 .976-2.846 3.525 3.525 0 0 1 2.8-1.067c.75.01 1.498.076 2.239.196v2.479h-1.26a1.436 1.436 0 0 0-1.188.393 1.454 1.454 0 0 0-.438 1.178v1.886h2.774l-.444 2.907h-2.335V22a9.986 9.986 0 0 0 6.043-3.403A10.094 10.094 0 0 0 22 12.06Z"/>
</svg>
