<svg width="24" height="24" viewBox="0 0 24 24" xmlns="http://www.w3.org/2000/svg">
    <path d="m19.22 5.465-3.109-2.77A2.855 2.855 0 0 0 14.225 2H6.667C5.194 2 4 3.063 4 4.375v14.25C4 19.936 5.194 21 6.667 21h10.666C18.8 21 20 19.931 20 18.625V7.143c0-.627-.28-1.232-.78-1.678ZM18 18.625c0 .328-.299.594-.667.594H6.668c-.369 0-.667-.266-.667-.594L6 4.38c0-.328.298-.594.667-.594h6.666V6.75c0 .656.597 1.188 1.334 1.188h3.295v10.687H18Zm-5.03-5.79a.606.606 0 0 0-.485.232l-1.652 2.21-.486-.65a.561.561 0 0 0-.21-.17.638.638 0 0 0-.274-.063.606.606 0 0 0-.486.232l-1.945 2.598a.473.473 0 0 0-.029.533c.1.17.299.274.476.274h8.167a.597.597 0 0 0 .514-.274.473.473 0 0 0-.029-.533l-3.111-4.157c-.07-.146-.253-.231-.45-.231Zm-3.637-.148c.737 0 1.334-.531 1.334-1.187s-.596-1.188-1.334-1.188C8.596 10.313 8 10.844 8 11.5c0 .657.596 1.188 1.333 1.188Z"/>
</svg>
