<svg width="24" height="24" viewBox="0 0 24 24" xmlns="http://www.w3.org/2000/svg">
    <path d="m19.22 5.465-3.109-2.77A2.855 2.855 0 0 0 14.225 2H6.667C5.194 2 4 3.063 4 4.375v14.25C4 19.936 5.194 21 6.667 21h10.666C18.8 21 20 19.931 20 18.625V7.143c0-.627-.28-1.232-.78-1.678ZM18 18.625c0 .328-.299.594-.667.594H6.668c-.369 0-.667-.266-.667-.594L6 4.38c0-.328.298-.594.667-.594h6.666V6.75c0 .656.597 1.188 1.334 1.188h3.295v10.687H18Zm-5.583-6.008c.036-.1.072-.2.107-.302.06-.214.312-1.17.312-1.947.002-.686-.623-1.243-1.394-1.243-.771 0-1.396.557-1.396 1.243 0 .011.007 1.07.577 2.312-.293.719-.649 1.44-1.059 2.15-.895.375-1.635.825-2.2 1.338-.26.24-.39.547-.39.918 0 .684.625 1.241 1.394 1.241.45 0 .874-.194 1.134-.518.305-.382.766-.999 1.27-1.817a15.093 15.093 0 0 1 2.245-.594 7.738 7.738 0 0 0 1.904.852c.189.058.392.087.602.087.844 0 1.505-.6 1.505-1.368 0-.754-.69-1.368-1.536-1.368h-.155c-.113.005-.854.042-1.89.2a4.66 4.66 0 0 1-1.03-1.184ZM8.592 17.23c-.137.174-.502.103-.502-.197a.23.23 0 0 1 .072-.17 5.85 5.85 0 0 1 1.328-.88 15.35 15.35 0 0 1-.898 1.247Zm2.85-7.11c.153 0 .279.111.279.248 0 .565-.171 1.293-.24 1.563-.31-.84-.319-1.5-.319-1.563 0-.137.125-.248.28-.248Zm-.68 4.805c.298-.541.568-1.095.808-1.659.266.406.607.812 1.04 1.187a18.27 18.27 0 0 0-1.848.472Zm4.588-.326h.14c.23 0 .418.167.418.4 0 .19-.174.346-.388.346a.834.834 0 0 1-.244-.035 6.8 6.8 0 0 1-1.356-.564 17.353 17.353 0 0 1 1.43-.147Z"/>
</svg>
