<svg width="24" height="24" viewBox="0 0 24 24" xmlns="http://www.w3.org/2000/svg">
    <path d="m19.22 5.648-3.109-2.916A2.773 2.773 0 0 0 14.225 2H6.667C5.194 2 4 3.12 4 4.5v15C4 20.88 5.194 22 6.667 22h10.666C18.8 22 20 20.875 20 19.5V7.414c0-.66-.28-1.297-.78-1.766ZM18 19.5c0 .345-.299.625-.667.625H6.668c-.369 0-.667-.28-.667-.625L6 4.505c0-.345.298-.625.667-.625h6.666V7c0 .69.597 1.25 1.334 1.25h3.295V19.5H18ZM8 12.937c0 .52.45.938 1 .938h6c.554 0 1-.418 1-.938 0-.519-.446-.937-1-.937H9c-.55 0-1 .422-1 .938Zm7 2.813H9c-.55 0-1 .422-1 .938 0 .515.448.937 1 .937h6c.552 0 1-.42 1-.938 0-.517-.446-.937-1-.937Z"/>
</svg>
