<svg width="24" height="24" viewBox="0 0 24 24" xmlns="http://www.w3.org/2000/svg">
    <path d="m19.22 5.465-3.109-2.77A2.855 2.855 0 0 0 14.225 2H6.667C5.194 2 4 3.063 4 4.375v14.25C4 19.936 5.194 21 6.667 21h10.666C18.8 21 20 19.931 20 18.625V7.143c0-.627-.28-1.232-.78-1.678ZM18 18.625c0 .328-.299.594-.667.594H6.668c-.369 0-.667-.266-.667-.594L6 4.38c0-.328.298-.594.667-.594h6.666V6.75c0 .656.597 1.188 1.334 1.188H18v10.687Zm-4.042-7.756L12 12.617l-1.996-1.748a1.089 1.089 0 0 0-1.414 0 .823.823 0 0 0 0 1.26l1.998 1.746-1.96 1.745a.823.823 0 0 0 0 1.26c.39.348 1.023.348 1.414 0L12 15.133l1.96 1.745c.39.348 1.022.348 1.414 0a.823.823 0 0 0 0-1.26l-1.962-1.743 1.96-1.745a.823.823 0 0 0 0-1.26 1.091 1.091 0 0 0-1.414 0Z"/>
</svg>
