<svg width="24" height="24" viewBox="0 0 24 24" fill="none" xmlns="http://www.w3.org/2000/svg">
<g clip-path="url(#clip0_223_3143)">
<path fill-rule="evenodd" clip-rule="evenodd" d="M2.04109 4.02747C2.03272 4.01719 2.02583 4.00802 2.02019 4C2.05975 3.94376 2.16028 3.83137 2.40635 3.6727C2.84108 3.39239 3.5364 3.10214 4.48494 2.84344C6.3677 2.32996 9.02505 2 12 2C14.975 2 17.6323 2.32996 19.5151 2.84344C20.4636 3.10214 21.1589 3.39239 21.5937 3.6727C21.8397 3.83136 21.9402 3.94376 21.9798 4C21.9741 4.00809 21.9672 4.01735 21.9587 4.02774C21.9461 4.04117 21.9339 4.05499 21.9219 4.06924C21.8628 4.13135 21.7625 4.21844 21.5937 4.3273C21.1589 4.60761 20.4636 4.89786 19.5151 5.15656C17.6323 5.67003 14.975 6 12 6C9.02505 6 6.3677 5.67003 4.48494 5.15656C3.5364 4.89786 2.84108 4.60761 2.40635 4.3273C2.23773 4.21857 2.13745 4.13157 2.0783 4.06948C2.06622 4.05506 2.05381 4.04105 2.04109 4.02747ZM0.537207 5.34487C0.225518 4.98578 0 4.54005 0 4C0 3.05621 0.688758 2.40048 1.32252 1.99183C2.00105 1.55431 2.91664 1.19812 3.95871 0.913916C6.05717 0.341608 8.89982 0 12 0C15.1002 0 17.9428 0.341608 20.0413 0.913916C21.0834 1.19812 21.9989 1.55431 22.6775 1.99183C23.3112 2.40048 24 3.05621 24 4C24 4.53993 23.7746 4.98558 23.463 5.34463L15 16.3403V23C15 23.5523 14.5523 24 14 24H10C9.44773 24 9.00001 23.5523 9.00001 23V16.3403L0.537207 5.34487ZM19.4905 7.22693L13.2076 15.3901C13.073 15.5649 13 15.7794 13 16V22H11V16C11 15.7794 10.927 15.5649 10.7925 15.3901L4.50957 7.22694C6.54221 7.71399 9.1633 8 12 8C14.8367 8 17.4578 7.71399 19.4905 7.22693Z" fill="black"/>
</g>
<defs>
<clipPath id="clip0_223_3143">
<rect width="24" height="24" fill="white"/>
</clipPath>
</defs>
</svg>
