<svg width="24" height="24" viewBox="0 0 24 24" fill="none" xmlns="http://www.w3.org/2000/svg">
<path fill-rule="evenodd" clip-rule="evenodd" d="M4.6 2.20001C4.29698 1.97274 3.89157 1.93619 3.55279 2.10558C3.214 2.27497 3 2.62123 3 3.00001V21C3 21.3788 3.214 21.725 3.55279 21.8944C3.89157 22.0638 4.29698 22.0273 4.6 21.8L16.6 12.8C16.8518 12.6112 17 12.3148 17 12C17 11.6852 16.8518 11.3889 16.6 11.2L4.6 2.20001ZM14.3333 12L5 19V5.00001L14.3333 12ZM21 3.00001C21 2.44772 20.5523 2.00001 20 2.00001C19.4477 2.00001 19 2.44772 19 3.00001V21C19 21.5523 19.4477 22 20 22C20.5523 22 21 21.5523 21 21V3.00001Z" fill="black"/>
</svg>
