<svg width="24" height="24" viewBox="0 0 24 24" xmlns="http://www.w3.org/2000/svg">
    <path d="M12 13.875c-1.57 0-3.046.693-4.055 1.9a.936.936 0 0 0 .119 1.318.944.944 0 0 0 1.324-.122 3.376 3.376 0 0 1 2.577-1.221c.976 0 1.964.44 2.612 1.22a.936.936 0 1 0 1.443-1.196c-1.008-1.204-2.45-1.899-4.02-1.899Zm-3.16-2.5c.695 0 1.25-.557 1.25-1.25s-.555-1.25-1.25-1.25c-.69 0-1.25.557-1.25 1.25s.594 1.25 1.25 1.25ZM12 2C6.477 2 2 6.477 2 12s4.477 10 10 10 10-4.477 10-10S17.523 2 12 2Zm0 18.125c-4.48 0-8.125-3.645-8.125-8.125S7.52 3.875 12 3.875 20.125 7.52 20.125 12 16.48 20.125 12 20.125Zm3.125-11.25c-.695 0-1.25.557-1.25 1.25s.555 1.25 1.25 1.25c.69 0 1.25-.557 1.25-1.25s-.559-1.25-1.25-1.25Z"/>
</svg>
