<svg width="24" height="24" viewBox="0 0 24 24" xmlns="http://www.w3.org/2000/svg">
    <path d="M21 14.193a.926.926 0 0 0-.448-.794l-1.194-.704c.024-.209.035-.454.035-.695 0-.241-.012-.486-.035-.728l1.194-.704A.926.926 0 0 0 21 9.774c0-.79-1.789-4.757-3.066-4.757a.87.87 0 0 0-.449.124l-1.188.704a7.036 7.036 0 0 0-1.236-.732V3.706a.91.91 0 0 0-.665-.886 9.15 9.15 0 0 0-4.793 0 .91.91 0 0 0-.664.886v1.408a7.045 7.045 0 0 0-1.236.732l-1.189-.704a.869.869 0 0 0-.448-.124C4.888 5.018 3 8.792 3 9.775c0 .321.167.625.448.794l1.194.704a7.59 7.59 0 0 0 0 1.455l-1.193.704a.91.91 0 0 0-.449.761c0 .79 1.79 4.758 3.066 4.758a.87.87 0 0 0 .449-.125l1.189-.704c.386.286.8.532 1.236.733v1.407a.91.91 0 0 0 .664.887 7.969 7.969 0 0 0 2.364.351c.807 0 1.613-.107 2.397-.32a.91.91 0 0 0 .665-.886v-1.408a7.043 7.043 0 0 0 1.236-.732l1.189.704a.868.868 0 0 0 .448.124c1.21.002 3.097-3.776 3.097-4.789Zm-3.225 2.746-1.583-.937c-1.526 1.128-1.173.918-2.872 1.703v1.864a7.446 7.446 0 0 1-2.64 0v-1.864c-1.704-.787-1.35-.577-2.872-1.703l-1.583.937a7.745 7.745 0 0 1-1.321-2.342l1.55-.901c-.061-.95-.108-1.321-.108-1.696 0-.372.046-.745.138-1.698l-1.58-.93a7.748 7.748 0 0 1 1.321-2.345l1.584.938c1.525-1.128 1.172-.918 2.871-1.703V4.399a7.452 7.452 0 0 1 2.641 0v1.864c1.703.788 1.349.577 2.872 1.703l1.583-.937a7.737 7.737 0 0 1 1.32 2.342l-1.582.933c.092.952.138 1.323.138 1.695 0 .372-.046.745-.138 1.698l1.58.933c-.3.855-.75 1.649-1.319 2.31Zm-5.774-8.535c-1.918 0-3.482 1.6-3.482 3.563 0 1.962 1.563 3.562 3.482 3.562 1.918 0 3.482-1.6 3.482-3.562 0-1.962-1.564-3.563-3.482-3.563Zm0 5.377c-.961 0-1.741-.798-1.741-1.781 0-.983.78-1.781 1.74-1.781.962 0 1.742.799 1.742 1.781 0 .982-.78 1.781-1.741 1.781Z"/>
</svg>
