<svg width="24" height="24" viewBox="0 0 24 24" xmlns="http://www.w3.org/2000/svg">
    <path fill-rule="evenodd" clip-rule="evenodd" d="M12.03 2C6.504 2 1.98 6.523 1.98 12.052A10.04 10.04 0 0 0 8.847 21.6c.502.084.67-.252.67-.503v-1.675c-2.764.586-3.35-1.34-3.35-1.34-.42-1.173-1.09-1.508-1.09-1.508-1.005-.586 0-.586 0-.586 1.006.083 1.508 1.005 1.508 1.005.922 1.508 2.346 1.089 2.932.837.084-.67.335-1.088.67-1.34-2.262-.251-4.607-1.089-4.607-4.942 0-1.089.419-2.01 1.005-2.68 0-.335-.419-1.34.168-2.68 0 0 .837-.252 2.764 1.004.838-.25 1.675-.335 2.513-.335.838 0 1.675.084 2.513.335 1.926-1.34 2.764-1.005 2.764-1.005.586 1.424.168 2.43.084 2.68.67.67 1.005 1.592 1.005 2.681 0 3.853-2.345 4.69-4.607 4.942.335.335.67.922.67 1.843v2.764c0 .252.168.587.67.503A10.04 10.04 0 0 0 22 12.05C22.083 6.524 17.559 2 12.03 2Z"/>
</svg>
