<svg width="24" height="24" viewBox="0 0 24 24" xmlns="http://www.w3.org/2000/svg">
    <path d="m21.472 7.512-8.835-3.388A1.618 1.618 0 0 0 12 4c-.225 0-.447.041-.662.123l-8.836 3.39A.82.82 0 0 0 2 8.285c0 .348.201.658.502.773l1.875.72a4.79 4.79 0 0 0-.767 1.806c-.358.163-.61.544-.61.986 0 .334.15.62.373.816l-.776 4.989c-.05.326.184.624.493.624h1.82c.309 0 .544-.297.493-.624l-.776-4.989A1.13 1.13 0 0 0 5 12.571a1.08 1.08 0 0 0-.397-.833c.13-.587.399-1.129.779-1.575l5.956 2.285a1.846 1.846 0 0 0 1.325 0l8.834-3.388A.82.82 0 0 0 22 8.286c0-.348-.2-.657-.528-.774Zm-9.313 3.422a.438.438 0 0 1-.315 0l-4.36-1.67 4.663-1.538c.264-.087.411-.387.33-.67-.08-.283-.361-.445-.625-.354l-5.94 1.959-.976-.375 6.878-2.65a.437.437 0 0 1 .316 0l6.932 2.65-6.903 2.648Zm3.975 1.32.366 3.756c0 .355-1.547 1.383-4.5 1.383-2.953 0-4.5-1.029-4.5-1.384l.366-3.754-1.44-.552-.422 4.222C6 17.972 9.02 19 12 19c2.981 0 6-1.028 5.997-3.074l-.422-4.222-1.44.55Z"/>
</svg>
