<svg width="24" height="24" viewBox="0 0 24 24" xmlns="http://www.w3.org/2000/svg">
    <path d="M9.6 15.857H7.2c-.66 0-1.2.578-1.2 1.286v2.571C6 20.422 6.54 21 7.2 21h2.4c.66 0 1.2-.578 1.2-1.286v-2.571c0-.707-.54-1.286-1.2-1.286ZM9 19.071H7.8v-1.285H9v1.285Zm7.8-3.214h-2.4c-.66 0-1.2.578-1.2 1.286v2.571c0 .708.54 1.286 1.2 1.286h2.4c.66 0 1.2-.578 1.2-1.286v-2.571c0-.707-.54-1.286-1.2-1.286Zm-.6 3.214H15v-1.285h1.2v1.285ZM16.8 3h-2.4c-.66 0-1.2.578-1.2 1.286v2.571c0 .708.54 1.286 1.2 1.286h2.4c.66 0 1.2-.578 1.2-1.286V4.286C18 3.578 17.46 3 16.8 3Zm-.6 3.214H15V4.93h1.2v1.285Zm.6 3.215h-2.4c-.66 0-1.2.577-1.2 1.285v2.572c0 .708.54 1.285 1.2 1.285h2.4c.66 0 1.2-.577 1.2-1.285v-2.572c0-.707-.54-1.285-1.2-1.285Zm-.6 3.214H15v-1.286h1.2v1.286ZM9.6 9.429H7.2c-.66 0-1.2.577-1.2 1.285v2.572c0 .708.54 1.285 1.2 1.285h2.4c.66 0 1.2-.577 1.2-1.285v-2.572c0-.707-.54-1.285-1.2-1.285ZM9 12.643H7.8v-1.286H9v1.286ZM9.6 3H7.2C6.54 3 6 3.578 6 4.286v2.571c0 .708.54 1.286 1.2 1.286h2.4c.66 0 1.2-.578 1.2-1.286V4.286C10.8 3.578 10.26 3 9.6 3ZM9 6.214H7.8V4.93H9v1.285Z"/>
</svg>
