<svg width="24" height="24" viewBox="0 0 24 24" xmlns="http://www.w3.org/2000/svg">
    <path d="M11.429 13.125a.569.569 0 0 0-.572.563v3.374c0 .31.257.563.572.563a.568.568 0 0 0 .571-.563v-3.375a.569.569 0 0 0-.571-.562Zm2.285 0a.569.569 0 0 0-.571.563v3.374c0 .311.256.563.54.563.283 0 .603-.253.603-.563v-3.375c-.032-.309-.257-.562-.572-.562Zm3.747-3.052a2.637 2.637 0 0 0-2.033-.965h-.49c-.133 0-.265.01-.396.03a2.598 2.598 0 0 0-1.563-.513h-.409V5.531C12.57 4.136 11.416 3 9.998 3c-1.418 0-2.57 1.136-2.57 2.531v5.924c-.398-.19-.743-.18-.934-.18C4.91 11.276 4 12.586 4 13.732a2.4 2.4 0 0 0 .5 1.466l2.79 3.663A5.48 5.48 0 0 0 11.632 21h3.918c.225 0 .458-.034.648-.093a4.731 4.731 0 0 0 2.613-1.422A4.277 4.277 0 0 0 20 16.507v-3.864c0-1.395-1.132-2.53-2.54-2.57Zm.825 6.434c0 .69-.258 1.338-.73 1.83-.448.48-1.037.797-1.775.934a.785.785 0 0 1-.231.041h-3.918a3.751 3.751 0 0 1-2.97-1.462L5.87 14.187a.758.758 0 0 1-.155-.457c0-.574.518-.765.776-.765.159 0 .429.055.619.306l1.004 1.318c.11.145.281.226.457.226.427 0 .572-.376.572-.563v-8.72c0-.466.385-.845.825-.845.472 0 .857.38.857.844v4.595a.57.57 0 0 0 .573.563c.441 0 .463-.377 1.091-.377h.49c.768 0 .663.676 1.24.676.288 0 .35-.193.72-.193h.49c.962 0 .62.964 1.455.964h.503c.495 0 .898.397.898.884v3.864ZM16 13.125a.569.569 0 0 0-.571.563v3.374c0 .311.255.563.571.563a.567.567 0 0 0 .571-.563v-3.375a.569.569 0 0 0-.571-.562Z"/>
</svg>
