<svg width="24" height="24" viewBox="0 0 24 24" fill="none" xmlns="http://www.w3.org/2000/svg">
<g clip-path="url(#clip0_236_2463)">
<path fill-rule="evenodd" clip-rule="evenodd" d="M11.3668 1.22604C11.7352 0.924652 12.2649 0.924652 12.6333 1.22604L23.6333 10.226C24.0607 10.5758 24.1237 11.2058 23.774 11.6332C23.4243 12.0607 22.7942 12.1237 22.3668 11.774L12 3.29206L1.63327 11.774C1.20582 12.1237 0.5758 12.0607 0.226073 11.6332C-0.123655 11.2058 -0.0606525 10.5758 0.366792 10.226L11.3668 1.22604ZM9.00003 17C9.00003 16.4477 9.44775 16 10 16H14C14.5523 16 15 16.4477 15 17V22H19V13C19 12.4477 19.4477 12 20 12C20.5523 12 21 12.4477 21 13V23C21 23.5523 20.5523 24 20 24H14H10H4.00003C3.44775 24 3.00003 23.5523 3.00003 23V13C3.00003 12.4477 3.44775 12 4.00003 12C4.55231 12 5.00003 12.4477 5.00003 13V22H9.00003V17ZM13 22V18H11V22H13ZM11 10C10.4477 10 10 10.4477 10 11V13C10 13.5523 10.4477 14 11 14H13C13.5523 14 14 13.5523 14 13V11C14 10.4477 13.5523 10 13 10H11Z" fill="black"/>
</g>
<defs>
<clipPath id="clip0_236_2463">
<rect width="24" height="24" fill="white"/>
</clipPath>
</defs>
</svg>
