<svg width="24" height="24" viewBox="0 0 24 24" xmlns="http://www.w3.org/2000/svg">
    <path d="M22.709 11.539 12.644 3.212A1.102 1.102 0 0 0 12.017 3c-.21 0-.455.07-.593.21l-10.1 8.329a.863.863 0 0 0-.324.647c0 .596.524.892.918.892.21 0 .421-.07.594-.211l.936-.74v6.932c0 1.643 1.37 2.941 3.06 2.941h10.983c1.69 0 3.026-1.332 3.06-2.94v-6.934l.937.772a.933.933 0 0 0 .593.212c.389 0 .919-.299.919-.893 0-.25-.077-.503-.291-.678Zm-8.89 8.677H10.18v-5.32h3.638v5.32Zm4.896-1.19c0 .654-.55 1.19-1.224 1.19h-1.802v-5.618c0-.82-.686-1.487-1.53-1.487H9.875c-.846 0-1.53.666-1.53 1.487v5.618H6.508c-.673 0-1.224-.536-1.224-1.19v-8.327c0-.036-.016-.066-.02-.101l6.718-5.536 6.699 5.554v8.41h.034Z"/>
</svg>
