<svg width="24" height="24" viewBox="0 0 24 24" xmlns="http://www.w3.org/2000/svg">
    <path d="m3.92 8.853 7.43 3.024c.204.08.428.091.618.091.225 0 .447-.041.658-.126l7.425-3.021c.587-.228.949-.727.949-1.353 0-.625-.361-1.125-.92-1.352l-7.43-2.993a1.78 1.78 0 0 0-1.307.003L3.92 6.147c-.56.228-.92.759-.92 1.321 0 .563.361 1.125.92 1.385Zm8.1-4.163 6.905 2.78-6.947 2.812L5.074 7.5l6.947-2.811Zm8.058 10.457a.842.842 0 0 0-.994 1.287L11.98 19.31l-7.067-2.876a.843.843 0 0 0-.993-1.288c-.559.197-.92.76-.92 1.354 0 .594.361 1.124.92 1.351l7.43 3.026c.204.08.428.123.618.123.225 0 .447-.042.658-.126l7.425-3.022c.587-.259.949-.758.949-1.352 0-.594-.362-1.157-.921-1.354Zm0-4.5a.84.84 0 0 0-1.1.463.841.841 0 0 0 .106.824L11.98 14.81l-7.067-2.873a.84.84 0 0 0 .106-.825.841.841 0 0 0-1.1-.463c-.558.194-.919.76-.919 1.355 0 .594.361 1.121.92 1.349l7.428 3.024c.206.082.43.126.65.126.224 0 .447-.044.658-.129l7.425-3.021c.557-.26.919-.787.919-1.35 0-.562-.362-1.16-.921-1.357Z"/>
</svg>
