<svg width="24" height="24" viewBox="0 0 24 24" xmlns="http://www.w3.org/2000/svg">
    <path d="M20.684 5.312a4.487 4.487 0 0 0-3.083-1.314 4.386 4.386 0 0 0-3.253 1.314L12.543 7.09c.45.232.872.516 1.25.871l1.587-1.587a2.993 2.993 0 0 1 2.121-.877c.768 0 1.537.292 2.122.877a3.006 3.006 0 0 1 0 4.243l-3.535 3.535c-1.134 1.134-3.109 1.133-4.243 0a2.971 2.971 0 0 1-.448-3.65 2.01 2.01 0 0 0-1.36-.514c-.021 0-.042.005-.063.006a4.437 4.437 0 0 0-.51 2.035c0 1.202.47 2.333 1.32 3.181a4.47 4.47 0 0 0 3.18 1.319 4.467 4.467 0 0 0 3.182-1.318l3.534-3.535A4.712 4.712 0 0 0 22 8.494c0-1.153-.466-2.304-1.316-3.182ZM8.62 17.594a2.993 2.993 0 0 1-2.122.877 2.993 2.993 0 0 1-2.121-.877 3.005 3.005 0 0 1 0-4.244L7.91 9.816c1.134-1.135 3.11-1.134 4.244 0a2.971 2.971 0 0 1 .448 3.65c.351.324.84.514 1.36.514.02 0 .041-.006.062-.006.32-.626.509-1.314.509-2.037a4.467 4.467 0 0 0-1.319-3.18 4.47 4.47 0 0 0-3.181-1.32 4.467 4.467 0 0 0-3.181 1.32l-3.536 3.562A4.48 4.48 0 0 0 2 15.5c0 1.153.439 2.305 1.316 3.181a4.502 4.502 0 0 0 6.364 0l1.776-1.775a5.477 5.477 0 0 1-1.25-.87L8.62 17.593Z"/>
</svg>
