<svg width="24" height="24" viewBox="0 0 24 24" xmlns="http://www.w3.org/2000/svg">
    <path d="M19.429 2c-2.521 0-4.572 2.13-4.572 4.75v2.375H6.286C5.023 9.125 4 10.19 4 11.5v7.125C4 19.937 5.023 21 6.286 21h11.428C18.977 21 20 19.937 20 18.625V11.5c0-1.312-1.023-2.375-2.286-2.375h-1.143V6.75c0-1.637 1.282-2.969 2.858-2.969 1.575 0 2.857 1.332 2.857 2.969v2.672c0 .493.385.89.857.89.471 0 .857-.398.857-.89V6.75C24 4.13 21.95 2 19.429 2Zm-1.715 8.906c.315 0 .572.267.572.594v7.125a.584.584 0 0 1-.572.594H6.286a.584.584 0 0 1-.572-.594V11.5c0-.327.257-.594.572-.594h11.428ZM12 16.844c.473 0 .857-.4.857-.89v-1.782c0-.49-.382-.89-.857-.89s-.857.398-.857.89v1.781c0 .494.386.89.857.89Z"/>
</svg>
