<svg width="24" height="24" viewBox="0 0 24 24" xmlns="http://www.w3.org/2000/svg">
    <path d="M17.714 9.138h-1.143V6.725C16.571 4.1 14.521 2 12 2 9.48 2 7.429 4.135 7.429 6.725v2.413H6.286C5.023 9.138 4 10.204 4 11.517v7.104C4 19.935 5.023 21 6.286 21h11.428C18.977 21 20 19.935 20 18.62v-7.103c0-1.313-1.025-2.38-2.286-2.38Zm-8.571-2.38c0-1.64 1.282-2.974 2.857-2.974 1.575 0 2.857 1.335 2.857 2.974v2.38H9.143v-2.38Zm9.143 11.896a.584.584 0 0 1-.572.595H6.286a.584.584 0 0 1-.572-.595v-7.137c0-.328.257-.595.572-.595h11.428c.315 0 .572.267.572.595v7.137Z"/>
</svg>
