<svg width="24" height="24" viewBox="0 0 24 24" fill="none" xmlns="http://www.w3.org/2000/svg">
<g clip-path="url(#clip0_833_3000)">
<path fill-rule="evenodd" clip-rule="evenodd" d="M12.1 2.563e-06H12.0047C10.4287 -0.0143038 8.91125 0.597209 7.78546 1.70048C6.65844 2.80496 6.01623 4.31184 6.00005 5.88975L6 5.88975V5.9V10H5C3.34315 10 2 11.3431 2 13V21C2 22.6569 3.34315 24 5 24H19C20.6569 24 22 22.6569 22 21V13C22 11.3431 20.6569 10 19 10H8V5.90542C8.012 4.85957 8.43822 3.86106 9.18532 3.1289C9.93358 2.39561 10.9424 1.98953 11.9901 1.99995L11.99 2H12H12.0946C13.1404 2.012 14.1389 2.43822 14.8711 3.18532C15.6044 3.93358 16.0105 4.94244 16 5.99005C15.9946 6.54231 16.4378 6.99446 16.9901 6.99995C17.5423 7.00545 17.9945 6.56221 18 6.00995C18.0157 4.43204 17.404 2.91249 16.2995 1.78547C15.195 0.658445 13.6882 0.0162318 12.1103 5.51343e-05V2.563e-06H12.1ZM7.0014 12C7.00093 12 7.00047 12 7 12C6.99953 12 6.99907 12 6.9986 12H5C4.44772 12 4 12.4477 4 13V21C4 21.5523 4.44772 22 5 22H19C19.5523 22 20 21.5523 20 21V13C20 12.4477 19.5523 12 19 12H7.0014ZM12 16C11.4477 16 11 16.4477 11 17C11 17.5523 11.4477 18 12 18C12.5523 18 13 17.5523 13 17C13 16.4477 12.5523 16 12 16ZM9 17C9 15.3431 10.3431 14 12 14C13.6569 14 15 15.3431 15 17C15 18.6569 13.6569 20 12 20C10.3431 20 9 18.6569 9 17Z" fill="black"/>
</g>
<defs>
<clipPath id="clip0_833_3000">
<rect width="24" height="24" fill="white"/>
</clipPath>
</defs>
</svg>
