<svg width="24" height="24" viewBox="0 0 24 24" fill="none" xmlns="http://www.w3.org/2000/svg">
<path fill-rule="evenodd" clip-rule="evenodd" d="M10 3C6.13401 3 3 6.13401 3 10C3 13.866 6.13401 17 10 17C13.866 17 17 13.866 17 10C17 6.13401 13.866 3 10 3ZM1 10C1 5.02944 5.02944 1 10 1C14.9706 1 19 5.02944 19 10C19 14.9706 14.9706 19 10 19C5.02944 19 1 14.9706 1 10ZM17.2929 17.2929C17.6834 16.9024 18.3166 16.9024 18.7071 17.2929L22.7071 21.2929C23.0976 21.6834 23.0976 22.3166 22.7071 22.7071C22.3166 23.0976 21.6834 23.0976 21.2929 22.7071L17.2929 18.7071C16.9024 18.3166 16.9024 17.6834 17.2929 17.2929ZM7.87868 7.87868C8.44129 7.31607 9.20435 7 10 7C10.5523 7 11 6.55228 11 6C11 5.44772 10.5523 5 10 5C8.67392 5 7.40215 5.52678 6.46447 6.46447C5.52678 7.40215 5 8.67392 5 10C5 10.5523 5.44772 11 6 11C6.55228 11 7 10.5523 7 10C7 9.20435 7.31607 8.44129 7.87868 7.87868Z" fill="black"/>
</svg>
