<svg width="24" height="24" viewBox="0 0 24 24" xmlns="http://www.w3.org/2000/svg">
    <path d="M15.438 14.5h-6.91a.938.938 0 0 0 0 1.875h6.878c.516 0 .937-.42.937-.938 0-.517-.39-.937-.905-.937ZM8.84 11.375c.695 0 1.25-.557 1.25-1.25s-.555-1.25-1.25-1.25c-.69 0-1.25.557-1.25 1.25s.594 1.25 1.25 1.25Zm6.285-2.5c-.695 0-1.25.557-1.25 1.25s.555 1.25 1.25 1.25c.69 0 1.25-.557 1.25-1.25s-.559-1.25-1.25-1.25ZM12 2C6.477 2 2 6.477 2 12s4.477 10 10 10 10-4.477 10-10S17.523 2 12 2Zm0 18.125c-4.48 0-8.125-3.645-8.125-8.125S7.52 3.875 12 3.875 20.125 7.52 20.125 12 16.48 20.125 12 20.125Z"/>
</svg>
