<svg width="24" height="24" viewBox="0 0 24 24" xmlns="http://www.w3.org/2000/svg">
    <path d="M14.113 16.223a4.191 4.191 0 0 1-3.46-.886 4.18 4.18 0 0 1-1.524-3.233c0-1.503.814-2.903 2.117-3.647a1.23 1.23 0 0 0 .622-1.288c-.087-.523-.481-.92-1.036-1.014a7.418 7.418 0 0 0-6.13 1.603A7.466 7.466 0 0 0 2 13.513C2 17.643 5.36 21 9.492 21a7.459 7.459 0 0 0 5.817-2.77c.335-.405.375-.975.104-1.425a1.24 1.24 0 0 0-1.3-.582Zm-4.62 2.905a5.622 5.622 0 0 1-5.618-5.615c0-1.673.739-3.246 2.027-4.316a5.607 5.607 0 0 1 3.023-1.269 6.094 6.094 0 0 0-1.671 4.177c0 1.815.803 3.52 2.203 4.676a6.052 6.052 0 0 0 3.224 1.356 5.59 5.59 0 0 1-3.189.991ZM13.25 3.496l.485 1.161a.17.17 0 0 0 .14.086.17.17 0 0 0 .14-.086l.485-1.161 1.163-.485c.048.012.087-.051.087-.14a.17.17 0 0 0-.086-.139L14.5 2.248l-.485-1.162a.17.17 0 0 0-.14-.086.17.17 0 0 0-.14.086l-.485 1.162-1.164.52a.17.17 0 0 0-.086.139c0 .053.038.116.086.14l1.164.449Zm8.578 5.997L19.5 8.522l-.972-2.325c-.051-.1-.16-.206-.278-.206a.317.317 0 0 0-.278.17L17 8.523l-2.33.97c-.1.056-.17.16-.17.278 0 .117.068.224.17.278l2.33.97.972 2.325c.055.104.16.17.278.17a.317.317 0 0 0 .278-.17l.972-2.325 2.33-.97a.31.31 0 0 0-.002-.555Z"/>
</svg>
