<svg width="24" height="24" viewBox="0 0 24 24" xmlns="http://www.w3.org/2000/svg">
    <path fill-rule="evenodd" clip-rule="evenodd" d="M5.373 4.65a.736.736 0 0 0-.723.75v7.65h14.7V5.4a.736.736 0 0 0-.723-.75H5.373Zm13.977 9.9H4.65v1.35c0 .428.336.75.723.75h13.254a.736.736 0 0 0 .723-.75v-1.35ZM3.15 15.9c0 1.23.982 2.25 2.223 2.25h5.877v1.2H7.5a.75.75 0 0 0 0 1.5h9a.75.75 0 0 0 0-1.5h-3.75v-1.2h5.877c1.241 0 2.223-1.02 2.223-2.25V5.4c0-1.23-.982-2.25-2.223-2.25H5.373C4.132 3.15 3.15 4.17 3.15 5.4v10.5Z"/>
</svg>
