<svg width="24" height="24" viewBox="0 0 24 24" xmlns="http://www.w3.org/2000/svg">
    <path d="M19.778 5H4.222C2.995 5 2 5.895 2 7v10c0 1.105.995 2 2.222 2h15.556C21.005 19 22 18.105 22 17V7c0-1.105-.997-2-2.222-2Zm.555 12c0 .276-.249.5-.555.5H4.222c-.306 0-.555-.224-.555-.5V7c0-.276.249-.5.555-.5h15.556c.306 0 .555.224.555.5v10ZM6.167 8c-.459 0-.834.338-.834.722v6.5c0 .44.375.778.802.778.49 0 .865-.338.865-.75V8.722C7 8.338 6.625 8 6.167 8Zm2.5 0c-.306 0-.556.225-.556.472v7c0 .303.25.528.556.528.305 0 .555-.225.555-.5V8.472c0-.247-.25-.472-.555-.472Zm9.413 0c-.274 0-.524.225-.524.472v7c0 .303.25.528.524.528s.524-.225.524-.472v-7c.031-.303-.187-.528-.524-.528Zm-3.024 0c-.459 0-.833.338-.833.722v6.5c0 .412.374.722.833.722.458 0 .833-.338.833-.722v-6.5c0-.384-.375-.722-.833-.722Zm-3.89 0c-.458 0-.833.338-.833.722v6.5c0 .44.375.778.834.778.458 0 .833-.338.833-.722V8.722c0-.384-.375-.722-.833-.722Z"/>
</svg>
