<svg width="24" height="24" viewBox="0 0 24 24" xmlns="http://www.w3.org/2000/svg">
    <path d="M8.563 19.071H5.75c-1.031 0-1.875-.867-1.875-1.928V6.857c0-1.06.844-1.928 1.875-1.928h2.813a.95.95 0 0 0 .937-.965A.95.95 0 0 0 8.562 3H5.75C3.679 3 2 4.727 2 6.857v10.286C2 19.273 3.679 21 5.75 21h2.813c.519 0 .937-.43.937-.964a.949.949 0 0 0-.938-.965Zm13.12-7.77L15.73 5.909a1.287 1.287 0 0 0-1.41-.22 1.32 1.32 0 0 0-.758 1.196v2.223H8.875c-.862 0-1.563.72-1.563 1.607v2.571c0 .886.701 1.607 1.563 1.607h4.688v2.223c0 .512.297.98.758 1.194a1.283 1.283 0 0 0 1.41-.22l5.953-5.348A.968.968 0 0 0 22 12.02a.958.958 0 0 0-.316-.72Zm-6.245 4.476v-2.849h-6.25V11h6.25V8.187l4.21 3.799-4.21 3.79Z"/>
</svg>
