<svg width="24" height="24" viewBox="0 0 24 24" fill="none" xmlns="http://www.w3.org/2000/svg">
<path fill-rule="evenodd" clip-rule="evenodd" d="M5 0C4.44772 0 4 0.447715 4 1V23C4 23.5523 4.44772 24 5 24H19C19.5523 24 20 23.5523 20 23V20C20 19.4477 19.5523 19 19 19C18.4477 19 18 19.4477 18 20V22H6V2H18V4C18 4.55228 18.4477 5 19 5C19.5523 5 20 4.55228 20 4V1C20 0.447715 19.5523 0 19 0H5ZM16.2929 7.29289C16.6834 6.90237 17.3166 6.90237 17.7071 7.29289L22 12C22 12.016 21.9996 12.032 21.9989 12.048C21.9874 12.2877 21.8902 12.524 21.7071 12.7071L17.7071 16.7071C17.3166 17.0976 16.6834 17.0976 16.2929 16.7071C15.9024 16.3166 15.9024 15.6834 16.2929 15.2929L18.5858 13H9C8.44772 13 8 12.5523 8 12C8 11.4477 8.44772 11 9 11H18.5858L16.2929 8.70711C15.9024 8.31658 15.9024 7.68342 16.2929 7.29289ZM17.7071 7.29289L22 11.9908C21.9976 11.7379 21.9 11.4858 21.7071 11.2929L17.7071 7.29289Z" fill="black"/>
</svg>
