<svg width="24" height="24" viewBox="0 0 24 24" xmlns="http://www.w3.org/2000/svg">
    <path d="m23.727 7.267-5.25-5.023a.861.861 0 0 0-1.237.036.902.902 0 0 0 .036 1.26l3.65 3.516h-5.958c-1.486-.101-2.864.523-3.91 1.579a5.7 5.7 0 0 0-1.641 4.037v3.239c0 .492.392.858.875.858s.875-.33.875-.825v-3.272c0-1.054.399-2.038 1.122-2.77.712-.717 1.608-1.133 2.67-1.096h5.964l-3.65 3.515a.903.903 0 0 0-.035 1.261c.172.152.403.28.636.28.215 0 .432-.08.6-.244l5.25-5.023c.178-.202.276-.436.276-.681a.894.894 0 0 0-.273-.647Zm-7.602 8.974c-.483 0-.875.4-.875.86v1.75c0 .164-.131.264-.292.264H5.042c-.161 0-.292-.133-.292-.264V8.806c0-.164.131-.264.292-.264h2.041c.483 0 .875-.4.875-.859a.877.877 0 0 0-.875-.859H5.042A2.057 2.057 0 0 0 3 8.873v10.079C3 20.066 3.916 21 5.042 21h9.916A2.057 2.057 0 0 0 17 18.951v-1.75c0-.558-.39-.96-.875-.96Z"/>
</svg>
