<svg width="24" height="24" viewBox="0 0 24 24" xmlns="http://www.w3.org/2000/svg">
    <path d="M19.565 5.283a.807.807 0 0 0-1.179-.052.906.906 0 0 0-.049 1.237c2.675 3.05 2.675 8.013 0 11.065a.906.906 0 0 0 .05 1.236.807.807 0 0 0 1.178-.051c3.247-3.703 3.247-9.733 0-13.435Zm-3.944 2.82a.905.905 0 0 0-.076 1.235c1.214 1.45 1.214 3.81 0 5.26a.905.905 0 0 0 .076 1.235c.158.113.354.218.55.218.232 0 .462-.1.627-.297 1.747-2.088 1.747-5.484 0-7.573a.865.865 0 0 0-1.177-.078ZM5.614 5.232a.807.807 0 0 0-1.179.05c-3.247 3.705-3.247 9.732 0 13.436a.808.808 0 0 0 1.178.051.906.906 0 0 0 .05-1.237c-2.675-3.05-2.675-8.013 0-11.065a.906.906 0 0 0-.05-1.235Zm2.764 2.87a.836.836 0 0 0-1.177.114c-1.748 2.087-1.748 5.483 0 7.572a.81.81 0 0 0 1.177.08.905.905 0 0 0 .076-1.235c-1.214-1.45-1.214-3.81 0-5.261.306-.365.271-.92-.076-1.27Zm3.621 2.44c-.767 0-1.39.653-1.39 1.425 0 .773.623 1.491 1.39 1.491.768 0 1.39-.653 1.39-1.425 0-.773-.622-1.491-1.39-1.491Z"/>
</svg>
