<svg width="24" height="24" viewBox="0 0 24 24" xmlns="http://www.w3.org/2000/svg">
    <path fill-rule="evenodd" clip-rule="evenodd" d="M12 3.936a8.16 8.16 0 0 1 4.936 1.654l-1.7 1.577a.5.5 0 0 0 .271.862l5.248.728a.5.5 0 0 0 .567-.538l-.446-5.197a.5.5 0 0 0-.839-.323L18.28 4.335A9.97 9.97 0 0 0 12 2.132c-5.514 0-10 4.452-10 9.924 0 .281.02.557.043.832l1.803-.28-.006-.082c-.01-.155-.022-.31-.022-.47 0-4.477 3.67-8.12 8.182-8.12Zm8.177 8.128a.92.92 0 0 1 .914-.91.9.9 0 0 1 .904.91c-.02 1.234-.107 1.79-.461 2.963a.9.9 0 0 1-1.133.593.919.919 0 0 1-.597-1.145c.288-.96.357-1.405.373-2.41ZM6.015 18.931a.915.915 0 0 0 .045-1.289c-.65-.711-.893-1.063-1.33-1.922a.917.917 0 0 0-1.214-.418.899.899 0 0 0-.417 1.214c.534 1.05.84 1.49 1.644 2.37a.897.897 0 0 0 1.272.045Zm5.786 1.238c.498.02.893.431.88.93a.893.893 0 0 1-.924.873c-1.346-.054-1.951-.167-3.203-.596a.894.894 0 0 1-.544-1.155.913.913 0 0 1 1.157-.543c1.036.356 1.516.446 2.634.491Zm7.315-2.455c.36.35.368.93.009 1.282-.967.946-1.478 1.317-2.694 1.945a.894.894 0 0 1-1.206-.398.914.914 0 0 1 .404-1.221c.995-.514 1.403-.81 2.208-1.598a.916.916 0 0 1 1.28-.01Zm-9.618-6.957a1.25 1.25 0 1 1-2.502 0 1.25 1.25 0 0 1 2.502 0Zm7.506 0a1.25 1.25 0 1 1-2.502 0 1.25 1.25 0 0 1 2.502 0Zm-9.34 4.586a1 1 0 0 1 1-1h6.672a1 1 0 1 1 0 2H8.664a1 1 0 0 1-1-1Z"/>
</svg>
