<svg width="24" height="24" viewBox="0 0 24 24" xmlns="http://www.w3.org/2000/svg">
    <path d="M15.125 11.375c.69 0 1.25-.557 1.25-1.25s-.56-1.25-1.25-1.25c-.695 0-1.25.557-1.25 1.25s.555 1.25 1.25 1.25Zm-6.285 0c.695 0 1.25-.557 1.25-1.25s-.555-1.25-1.25-1.25c-.69 0-1.25.557-1.25 1.25s.594 1.25 1.25 1.25Zm6.441 2.836A4.263 4.263 0 0 1 12 15.75a4.25 4.25 0 0 1-3.283-1.538.939.939 0 0 0-1.32-.122.941.941 0 0 0-.12 1.32A6.132 6.132 0 0 0 12 17.626c1.828 0 3.552-.81 4.723-2.216a.932.932 0 0 0-.119-1.318.942.942 0 0 0-1.323.119ZM12 2C6.477 2 2 6.477 2 12s4.477 10 10 10 10-4.477 10-10S17.523 2 12 2Zm0 18.125c-4.48 0-8.125-3.645-8.125-8.125S7.52 3.875 12 3.875 20.125 7.52 20.125 12 16.48 20.125 12 20.125Z"/>
</svg>
