<svg width="24" height="24" viewBox="0 0 24 24" fill="none" xmlns="http://www.w3.org/2000/svg">
<path fill-rule="evenodd" clip-rule="evenodd" d="M12 3C13.989 3 15.873 3.65 17.43 4.833L14.709 7.376L22.313 8.438L21.667 0.854004L18.907 3.442C16.957 1.862 14.545 1 12 1C5.935 1 1 5.935 1 12C1 12.311 1.021 12.617 1.047 12.922L3.031 12.612L3.02455 12.5205C3.01227 12.3481 3 12.1759 3 12C3 7.037 7.037 3 12 3ZM21 11H23C23 13.523 22.946 13.863 22.19 16.25L20.284 15.646C20.976 13.461 21 13.301 21 11ZM4.69311 20.298L6.15211 18.931C4.61211 17.286 4.54511 17.188 3.56211 15.163L1.76311 16.036C2.83711 18.25 3.00511 18.496 4.69311 20.298ZM12.7739 21.022L12.7249 23.021C10.1099 22.957 9.69294 22.877 7.26694 21.993L7.95194 20.114C10.1629 20.919 10.3779 20.963 12.7739 21.022ZM19.1191 17.576L20.5481 18.975C18.7111 20.85 18.3491 21.118 15.9921 22.295L15.0971 20.506C17.2371 19.438 17.4401 19.292 19.1191 17.576ZM9 10.5C9 11.3284 8.32843 12 7.5 12C6.67157 12 6 11.3284 6 10.5C6 9.67157 6.67157 9 7.5 9C8.32843 9 9 9.67157 9 10.5ZM18 10.5C18 11.3284 17.3284 12 16.5 12C15.6716 12 15 11.3284 15 10.5C15 9.67157 15.6716 9 16.5 9C17.3284 9 18 9.67157 18 10.5ZM7 16C7 15.4477 7.44772 15 8 15H16C16.5523 15 17 15.4477 17 16C17 16.5523 16.5523 17 16 17H8C7.44772 17 7 16.5523 7 16Z" fill="black"/>
</svg>
