<svg width="24" height="24" viewBox="0 0 24 24" fill="none" xmlns="http://www.w3.org/2000/svg">
<path fill-rule="evenodd" clip-rule="evenodd" d="M12.7682 2.35982C12.5782 2.13182 12.2968 2 12 2C11.7032 2 11.4218 2.13182 11.2318 2.35982L6.23179 8.35982C5.98339 8.6579 5.92984 9.07277 6.09442 9.42416C6.259 9.77554 6.61199 10 7.00001 10H17C17.388 10 17.741 9.77554 17.9056 9.42416C18.0702 9.07277 18.0166 8.6579 17.7682 8.35982L12.7682 2.35982ZM12 4.56205L14.865 8H9.13505L12 4.56205ZM7.00001 14C6.61199 14 6.259 14.2245 6.09442 14.5758C5.92984 14.9272 5.98339 15.3421 6.23179 15.6402L11.2318 21.6402C11.4218 21.8682 11.7032 22 12 22C12.2968 22 12.5782 21.8682 12.7682 21.6402L17.7682 15.6402C18.0166 15.3421 18.0702 14.9272 17.9056 14.5758C17.741 14.2245 17.388 14 17 14H7.00001ZM12 19.438L9.13505 16H14.865L12 19.438Z" fill="black"/>
</svg>
