<svg width="24" height="24" viewBox="0 0 24 24" xmlns="http://www.w3.org/2000/svg">
    <path d="m20.974 8.364-5.462-.79-2.442-4.913C12.855 2.22 12.426 2 11.967 2c-.392 0-.821.219-1.038.66L8.485 7.575l-5.46.79c-.98.141-1.373 1.34-.662 2.026l3.951 3.789-.933 5.433C5.246 20.38 5.866 21 6.56 21c.184 0 .373-.044.555-.14L12 18.313l4.885 2.55c.181.094.37.137.554.137.694 0 1.314-.616 1.181-1.388l-.935-5.4 3.952-3.788c.71-.72.319-1.919-.663-2.06Zm-5.16 5.533.836 4.828-4.373-2.282a.6.6 0 0 0-.555 0L7.35 18.725l.836-4.828c.033-.193-.064-.39-.172-.527L4.481 9.953l4.885-.707a.597.597 0 0 0 .448-.325L12 4.523l2.187 4.397a.595.595 0 0 0 .449.325l4.884.706-3.533 3.418a.592.592 0 0 0-.173.528Z"/>
</svg>
