<svg width="24" height="24" viewBox="0 0 24 24" xmlns="http://www.w3.org/2000/svg">
    <path d="M12 7.625a4.375 4.375 0 1 0 0 8.75 4.375 4.375 0 0 0 0-8.75Zm0 6.875A2.503 2.503 0 0 1 9.5 12c0-1.379 1.121-2.5 2.5-2.5s2.5 1.121 2.5 2.5-1.121 2.5-2.5 2.5Zm0-8.125c.518 0 .938-.42.938-.938v-2.5a.937.937 0 1 0-1.876 0v2.5c0 .52.422.938.938.938Zm0 11.25a.938.938 0 0 0-.938.938v2.5a.938.938 0 0 0 1.876 0v-2.5a.938.938 0 0 0-.938-.938Zm9.063-6.563h-2.5a.938.938 0 0 0 0 1.876h2.5A.935.935 0 0 0 22 12a.935.935 0 0 0-.938-.938ZM6.374 12a.938.938 0 0 0-.938-.938h-2.5A.939.939 0 0 0 2 12c0 .516.42.938.938.938h2.5A.935.935 0 0 0 6.375 12Zm10.93 3.977a.937.937 0 0 0-1.326 1.325l1.768 1.769a.934.934 0 0 0 1.325 0 .937.937 0 0 0 0-1.326l-1.767-1.768ZM6.695 8.023a.939.939 0 0 0 1.328-1.325l-1.77-1.77a.937.937 0 1 0-1.325 1.326l1.767 1.77Zm9.946.274c.24 0 .48-.092.663-.275l1.767-1.769a.937.937 0 1 0-1.326-1.325l-1.767 1.768a.937.937 0 0 0 .663 1.6Zm-9.946 7.68-1.767 1.768a.937.937 0 1 0 1.326 1.326l1.767-1.769a.937.937 0 1 0-1.326-1.325Z"/>
</svg>
