<svg width="24" height="24" viewBox="0 0 24 24" xmlns="http://www.w3.org/2000/svg">
    <path d="M17.676 9.827 11.86 3.823C11.397 3.346 10.588 3 9.933 3H3.802C2.808 3 2 3.834 2 4.86v6.33c0 .673.335 1.508.797 1.985l5.816 6.006c.53.546 1.228.819 1.923.819.695 0 1.394-.273 1.924-.82l5.213-5.382a2.878 2.878 0 0 0 .003-3.971Zm-1.25 2.682-5.213 5.381a.936.936 0 0 1-1.353 0l-5.815-6.003c-.131-.135-.28-.507-.28-.697V4.86l.037-.038h6.132c.185 0 .544.153.676.289l5.815 6.003c.376.352.376 1.012 0 1.395ZM7 7.25c0 .503-.395.91-.883.91a.896.896 0 0 1-.882-.91c0-.505.395-.91.882-.91.488 0 .883.405.883.91Zm13.547 1.013-4.989-5.005a.864.864 0 0 0-1.248.019.932.932 0 0 0 .019 1.288l4.981 4.997c.599.617.928 1.438.928 2.31 0 .873-.33 1.694-.93 2.313L15.2 18.451a.931.931 0 0 0 .004 1.287.86.86 0 0 0 1.243-.007l4.107-4.261A5.142 5.142 0 0 0 22 11.87c0-1.36-.512-2.64-1.453-3.607Z"/>
</svg>
