<svg width="24" height="24" viewBox="0 0 24 24" xmlns="http://www.w3.org/2000/svg">
    <path fill-rule="evenodd" clip-rule="evenodd" d="M22.53 2.53a.75.75 0 0 0-1.06-1.06l-3.388 3.387H4a2 2 0 0 0-2 2V17a2 2 0 0 0 1.94 2l-2.47 2.47a.75.75 0 1 0 1.06 1.06l20-20ZM5.44 17.5l3.508-3.508H7.254l-.635 1.936H5l2.717-7.53h1.875L10.9 12.04l5.682-5.683H4a.5.5 0 0 0-.5.5V17a.5.5 0 0 0 .5.5h1.44Zm3.607 0H20a.5.5 0 0 0 .5-.5V6.857a.5.5 0 0 0-.359-.48l1.092-1.095c.467.367.767.936.767 1.575V17a2 2 0 0 1-2 2H7.55l1.497-1.5Zm1.567-1.572h1.683l-.446-1.24-1.237 1.24Zm2.578-2.584v.09c0 1.606.926 2.566 2.35 2.566.913 0 1.649-.414 1.844-1.01h.078v.938H19V8h-.477l-1.09 1.091v1.872h-.07c-.158-.388-.5-.68-.962-.836l-3.209 3.217Zm4.242-.76c0-.876-.57-1.428-1.353-1.428-.789 0-1.287.557-1.287 1.556v.568c0 1.004.504 1.567 1.311 1.567.795 0 1.329-.552 1.329-1.506v-.756Zm-7.795.299-.99-3.046h-.072l-.99 3.046h2.052Z"/>
</svg>
