<svg width="24" height="24" viewBox="0 0 24 24" xmlns="http://www.w3.org/2000/svg">
    <path d="M5.75 8.392h-2.5c-.69 0-1.25.576-1.25 1.25v8.964c0 .71.56 1.25 1.25 1.25h2.5c.69 0 1.25-.576 1.25-1.25V9.678c0-.675-.559-1.286-1.25-1.286ZM22 9.834c0-1.482-1.174-2.688-2.616-2.688h-3.9c.371-1.004.579-1.872.579-2.382C16.063 3.406 15.038 2 13.325 2c-1.82 0-2.319 1.303-2.72 2.35C9.37 7.586 8.25 7.019 8.25 8.107c0 .516.405.964.938.964a.917.917 0 0 0 .585-.211c2.998-2.466 2.264-4.93 3.553-4.93.628 0 .861.512.861.835 0 .297-.296 1.59-.997 2.877a.982.982 0 0 0-.12.47c0 .56.446.929.937.929h5.375a.807.807 0 0 1 .743.794.751.751 0 0 1-.69.752.953.953 0 0 0-.874.962c0 .622.445.64.445 1.162 0 1.02-1.368.495-1.368 1.693 0 .451.25.524.25.894 0 .91-1.163.553-1.163 1.633 0 .182.043.24.043.38 0 .42-.333.762-.741.762h-2.052c-1 0-1.993-.34-2.793-.957L9.75 16.01a.915.915 0 0 0-.562-.194c-.54 0-.938.457-.938.966 0 .293.13.58.375.769l1.432 1.106A6.456 6.456 0 0 0 13.977 20h2.052c1.38 0 2.514-1.105 2.609-2.5a2.693 2.693 0 0 0 1.101-2.569 2.71 2.71 0 0 0 1.144-2.221c0-.213-.025-.424-.073-.628.717-.516 1.19-1.315 1.19-2.248Z"/>
</svg>
