<svg width="24" height="24" viewBox="0 0 24 24" xmlns="http://www.w3.org/2000/svg">
    <path d="M7 15.285v-9c0-.71-.56-1.249-1.25-1.249h-2.5c-.69 0-1.25.576-1.25 1.25v8.964c0 .71.56 1.25 1.25 1.25h2.5c.691.071 1.25-.504 1.25-1.215Zm13.809-2.366a2.735 2.735 0 0 0-1.07-2.85c.016-.122.024-.244.024-.367 0-.896-.432-1.711-1.126-2.203C18.542 6.105 17.407 5 16.027 5h-2.051a6.455 6.455 0 0 0-3.918 1.342L8.625 7.447a.966.966 0 0 0-.375.769c0 .512.402.966.939.966a.914.914 0 0 0 .562-.194l1.432-1.105a4.604 4.604 0 0 1 2.793-.957h2.051c.409 0 .741.342.741.762 0 .14-.043.198-.043.38 0 1.083 1.163.72 1.163 1.633 0 .371-.25.44-.25.894a.96.96 0 0 0 .765.948c.35.067.604.38.604.745 0 .524-.445.537-.445 1.162 0 .504.379.927.873.962.385-.007.69.359.69.716 0 .42-.333.761-.741.761h-5.376c-.486 0-.938.403-.938.928 0 .163.04.325.12.471.7 1.36.998 2.65.998 2.947 0 .324-.234.836-.862.836-.49 0-.558-.037-.974-1.128-.967-2.528-2.412-4.014-3.164-4.014-.539 0-.938.453-.938.964 0 .283.12.563.352.754C11.301 19.866 10.258 23 13.324 23c1.715 0 2.739-1.406 2.739-2.765 0-.51-.209-1.414-.58-2.383h3.901c1.409 0 2.616-1.205 2.616-2.723 0-.896-.473-1.732-1.191-2.21Z"/>
</svg>
