<svg width="24" height="24" viewBox="0 0 24 24" xmlns="http://www.w3.org/2000/svg">
    <path d="m16.236 11.52-.222-5.645h.944c.485 0 .875-.42.875-.973 0-.482-.39-.902-.875-.902H7.042c-.484 0-.875.42-.875.902 0 .553.391.973.875.973h1.134l-.394 5.633C6.03 12.547 5 14.19 5 15.992c0 .969.736 1.758 1.64 1.758h4.485v5.313c0 .519.394.937.875.937s.875-.42.875-.938V17.75h4.484c.904 0 1.641-.79 1.641-1.758 0-1.793-1.024-3.433-2.764-4.473Zm-3.361 4.355H6.753c.052-1.16.878-2.246 2.232-2.918l.465-.232.48-6.85h4.33l.268 6.84.483.24c1.357.674 2.184 1.76 2.235 2.92h-4.371Z"/>
</svg>
