<svg width="24" height="24" viewBox="0 0 24 24" xmlns="http://www.w3.org/2000/svg">
    <path d="M21.777 18.469 13.45 3.844A1.647 1.647 0 0 0 12.007 3c-.562 0-1.124.281-1.48.844l-8.32 14.625C1.6 19.589 2.399 21 3.683 21h16.651c1.279 0 2.08-1.406 1.443-2.531Zm-17.71.602 7.905-13.95 7.974 13.95H4.066Zm7.94-3.813c-.678 0-1.227.566-1.227 1.264 0 .697.55 1.263 1.229 1.263.678 0 1.225-.566 1.225-1.263-.001-.697-.548-1.263-1.227-1.263Zm-.937-6.15v3.856c0 .535.422.965.937.965.515 0 .937-.432.937-.965V9.107c0-.53-.418-.964-.937-.964-.52 0-.937.434-.937.964Z"/>
</svg>
