<svg width="24" height="24" viewBox="0 0 24 24" xmlns="http://www.w3.org/2000/svg">
    <path d="M24 5.204c-.863.384-1.725.671-2.683.767.958-.575 1.725-1.534 2.108-2.588-.958.575-1.917.959-2.97 1.15A4.64 4.64 0 0 0 17.004 3a4.704 4.704 0 0 0-4.697 4.696c0 .383 0 .767.096 1.054A13.232 13.232 0 0 1 2.63 3.767c-.479.766-.67 1.533-.67 2.395 0 1.63.862 3.067 2.108 3.93-.767 0-1.534-.192-2.109-.575v.096c0 2.3 1.63 4.216 3.738 4.6-.383.095-.767.191-1.246.191-.288 0-.575 0-.863-.096.575 1.917 2.3 3.259 4.409 3.259-1.63 1.245-3.642 2.012-5.846 2.012-.383 0-.767 0-1.15-.096a13.415 13.415 0 0 0 7.188 2.109c8.72 0 13.416-7.188 13.416-13.417V7.6c.959-.67 1.725-1.533 2.396-2.396Z"/>
</svg>
