<svg width="24" height="24" viewBox="0 0 24 24" fill="none" xmlns="http://www.w3.org/2000/svg">
<path fill-rule="evenodd" clip-rule="evenodd" d="M7 7C7 4.23858 9.23858 2 12 2C14.7614 2 17 4.23858 17 7C17 9.76142 14.7614 12 12 12C9.23858 12 7 9.76142 7 7ZM16.3186 12.5094C17.9512 11.2279 19 9.23644 19 7C19 3.13401 15.866 0 12 0C8.13401 0 5 3.13401 5 7C5 9.23644 6.0488 11.2279 7.68138 12.5094C3.22811 13.9168 0 18.0813 0 23C0 23.5523 0.447715 24 1 24C1.55228 24 2 23.5523 2 23C2 18.0293 6.02928 14 11 14H12H13C17.9707 14 22 18.0293 22 23C22 23.5523 22.4477 24 23 24C23.5523 24 24 23.5523 24 23C24 18.0813 20.7719 13.9168 16.3186 12.5094Z" fill="black"/>
</svg>
