<svg width="24" height="24" viewBox="0 0 24 24" xmlns="http://www.w3.org/2000/svg">
    <path d="M13.714 13.688h-3.428C6.814 13.688 4 16.457 4 19.875 4 20.496 4.512 21 5.143 21h13.714c.631 0 1.143-.504 1.143-1.125 0-3.417-2.814-6.188-6.286-6.188ZM5.75 19.311c.282-2.218 2.207-3.937 4.536-3.937h3.428c2.327 0 4.254 1.72 4.536 3.938H5.75ZM12 12c2.525 0 4.571-2.015 4.571-4.5S14.525 3 12 3 7.429 5.015 7.429 7.5C7.429 9.986 9.475 12 12 12Zm0-7.313c1.575 0 2.857 1.262 2.857 2.813 0 1.55-1.282 2.813-2.857 2.813-1.575 0-2.857-1.263-2.857-2.813 0-1.55 1.282-2.813 2.857-2.813Z"/>
</svg>
