<svg width="24" height="24" viewBox="0 0 24 24" xmlns="http://www.w3.org/2000/svg">
    <path fill-rule="evenodd" clip-rule="evenodd" d="M1.913 11.966a.956.956 0 0 0 .584.43.949.949 0 0 0 .264.035c.308 0 .762-.148.922-.614.299-.869.828-1.948 1.493-2.807.674-.87 1.446-1.46 2.224-1.46.848 0 1.534.575 2.14 1.492.603.913 1.09 2.113 1.556 3.261l.003.007c.545 1.345 1.14 2.81 1.976 3.938.845 1.137 1.954 1.952 3.525 1.952 1.812 0 3.159-1.272 4.06-2.558a12.676 12.676 0 0 0 1.495-2.936.8.8 0 0 0-.066-.67l-.001-.002a.951.951 0 0 0-.586-.43.95.95 0 0 0-.259-.034c-.31 0-.766.147-.926.613-.299.868-.828 1.948-1.493 2.807-.674.87-1.446 1.46-2.224 1.46-.848 0-1.534-.575-2.14-1.492-.603-.913-1.09-2.113-1.556-3.261l-.003-.007c-.545-1.345-1.139-2.81-1.976-3.938C10.08 6.615 8.97 5.8 7.4 5.8c-1.811 0-3.158 1.272-4.059 2.558a12.738 12.738 0 0 0-1.496 2.935.8.8 0 0 0 .068.673Zm19.33-.196Z"/>
</svg>
