<svg width="16" height="16" viewBox="0 0 16 16" xmlns="http://www.w3.org/2000/svg">
    <path d="M14 12.375v-1.75a.866.866 0 0 0-.857-.875.866.866 0 0 0-.857.875v1.75a.866.866 0 0 1-.857.875H4.57a.866.866 0 0 1-.857-.875v-1.75a.866.866 0 0 0-.857-.875.866.866 0 0 0-.857.875v1.75C2 13.825 3.151 15 4.571 15h6.858C12.849 15 14 13.824 14 12.375Zm-5.395-2.007 3.429-3.5a.888.888 0 0 0 0-1.237.844.844 0 0 0-1.212 0L8.857 7.639V1.875A.866.866 0 0 0 8 1a.866.866 0 0 0-.857.875v5.764L5.177 5.632a.845.845 0 0 0-1.212 0 .888.888 0 0 0 0 1.237l3.428 3.5c.336.34.878.34 1.212-.001Z"/>
</svg>
