<svg width="16" height="16" viewBox="0 0 16 16" xmlns="http://www.w3.org/2000/svg">
    <path d="M2 13.688C2 14.412 2.576 15 3.286 15h9.428c.71 0 1.286-.588 1.286-1.313V6.25H2v7.438Zm8.571-5.25c0-.241.193-.438.429-.438h.857c.236 0 .429.197.429.438v.874a.433.433 0 0 1-.429.438H11a.434.434 0 0 1-.429-.438v-.874Zm0 3.5c0-.242.192-.438.429-.438h.857c.237 0 .429.196.429.438v.874a.433.433 0 0 1-.429.438H11a.433.433 0 0 1-.429-.438v-.874Zm-3.428-3.5c0-.241.193-.438.428-.438h.858c.235 0 .428.197.428.438v.874a.433.433 0 0 1-.428.438H7.57a.434.434 0 0 1-.428-.438v-.874Zm0 3.5c0-.241.193-.438.428-.438h.858c.236 0 .428.196.428.438v.874a.433.433 0 0 1-.428.438H7.57a.434.434 0 0 1-.428-.438v-.874Zm-3.429-3.5c0-.241.192-.438.429-.438H5c.236 0 .429.197.429.438v.874A.435.435 0 0 1 5 9.75h-.857a.434.434 0 0 1-.429-.438v-.874Zm0 3.5c0-.241.192-.438.429-.438H5c.236 0 .429.197.429.438v.874A.435.435 0 0 1 5 13.25h-.857a.434.434 0 0 1-.429-.438v-.874Zm9-9.188H11.43v-.9a.864.864 0 0 0-.86-.85.864.864 0 0 0-.857.85v.9H6.286v-.9A.864.864 0 0 0 5.429 1a.864.864 0 0 0-.858.85v.9H3.286C2.576 2.75 2 3.338 2 4.063v1.312h12V4.062c0-.724-.576-1.312-1.286-1.312Z"/>
</svg>
