<svg width="16" height="16" viewBox="0 0 16 16" fill="none" xmlns="http://www.w3.org/2000/svg">
<g clip-path="url(#clip0_218_107)">
<path fill-rule="evenodd" clip-rule="evenodd" d="M13 2L15 2C15.552 2 16 2.448 16 3L16 5L-8.74228e-07 5L-5.24537e-07 3C-4.28022e-07 2.448 0.448 2 1 2L3 2L3 5.24537e-07L5 8.74228e-07L5 2L11 2L11 0L13 0L13 2ZM0 15L-1.04907e-06 6L16 6L16 15C16 15.6 15.6 16 15 16L1 16C0.4 16 0 15.6 0 15ZM9 12L11 12L11 10L9 10L9 8L7 8L7 10L5 10L5 12L7 12L7 14L9 14L9 12Z" fill="black"/>
</g>
<defs>
<clipPath id="clip0_218_107">
<rect width="16" height="16" fill="white"/>
</clipPath>
</defs>
</svg>
