<svg width="16" height="16" viewBox="0 0 16 16" xmlns="http://www.w3.org/2000/svg">
    <path d="M2 13.688C2 14.412 2.576 15 3.286 15h9.428c.71 0 1.286-.588 1.286-1.313V6.25H2v7.438Zm3.833-3.72h1.524V8.414c0-.34.287-.632.643-.632.356 0 .619.294.619.632v1.531h1.5c.38.025.667.317.667.681a.623.623 0 0 1-.619.632H8.619v1.53c0 .39-.263.682-.619.682a.623.623 0 0 1-.619-.632v-1.58H5.833a.622.622 0 0 1-.619-.632c0-.364.287-.656.619-.656Zm6.881-7.218H11.43v-.9a.864.864 0 0 0-.86-.85.864.864 0 0 0-.857.85v.9H6.286v-.9A.864.864 0 0 0 5.429 1a.864.864 0 0 0-.858.85v.9H3.286C2.576 2.75 2 3.338 2 4.063v1.312h12V4.062c0-.724-.576-1.312-1.286-1.312Z"/>
</svg>
