<svg width="16" height="16" viewBox="0 0 16 16" xmlns="http://www.w3.org/2000/svg">
    <path d="M11.256 11.75c-.644 0-1.144.504-1.144 1.125S10.634 14 11.256 14c.623 0 1.145-.504 1.145-1.125s-.479-1.125-1.145-1.125Zm-7 0c-.644 0-1.145.504-1.145 1.125S3.634 14 4.256 14s1.145-.504 1.145-1.125-.479-1.125-1.145-1.125Zm9.587-8.702a.782.782 0 0 0-.622-.298H2.944l-.037-.293A.58.58 0 0 0 2.333 2H.561C.261 2 0 2.252 0 2.541c0 .29.261.584.561.584H1.83l1.465 7.418A.623.623 0 0 0 3.89 11h7.973c.322 0 .583-.252.583-.541a.576.576 0 0 0-.583-.584h-7.49L4.15 8.75h7.74a.774.774 0 0 0 .747-.544l1.334-4.479a.754.754 0 0 0-.127-.679Z"/>
</svg>
