<svg width="16" height="16" viewBox="0 0 16 16" xmlns="http://www.w3.org/2000/svg">
    <path d="M8 1a7 7 0 0 0-7 7 7 7 0 0 0 7 7 7 7 0 0 0 7-7 7 7 0 0 0-7-7Zm0 10.938a.864.864 0 0 1-.875-.876.85.85 0 0 1 .875-.874.88.88 0 0 1 .875.874.88.88 0 0 1-.875.876Zm1.89-3.883-1.234.765v.055c0 .355-.3.656-.656.656a.665.665 0 0 1-.656-.656v-.438c0-.218.11-.437.328-.574l1.558-.93a.584.584 0 0 0 .301-.519c0-.328-.298-.601-.626-.601H7.508a.591.591 0 0 0-.602.601c0 .356-.3.656-.656.656a.665.665 0 0 1-.656-.656c0-1.066.847-1.914 1.89-1.914H8.88c1.116 0 1.964.848 1.964 1.914a1.92 1.92 0 0 1-.955 1.64Z"/>
</svg>
