<svg width="16" height="16" viewBox="0 0 16 16" xmlns="http://www.w3.org/2000/svg">
    <path d="M14.863 6.588C14.659 5.532 13.122.998 8 1c-2.173-.001-3.812.909-4.948 2.051l-.932-.933A.656.656 0 0 0 1 2.582v3.547c0 .257.209.466.466.466H5.01a.656.656 0 0 0 .464-1.12L4.372 4.371C5.902 2.832 7.635 2.866 8 2.866c2.716-.001 4.585 1.978 5.014 4.013A5.144 5.144 0 0 1 8 13.132a5.09 5.09 0 0 1-2.318-.557.94.94 0 0 0-1.099.16c-.441.442-.34 1.196.216 1.484A6.919 6.919 0 0 0 8 15c4.325 0 7.735-3.926 6.863-8.412ZM8 4.267c-.385 0-.7.315-.7.7v3.5a.7.7 0 0 0 .28.56l1.867 1.4a.63.63 0 0 0 .393.14.7.7 0 0 0 .421-1.26L8.7 8.117v-3.15a.7.7 0 0 0-.7-.7Z"/>
</svg>
