<svg width="16" height="16" viewBox="0 0 16 16" fill="none" xmlns="http://www.w3.org/2000/svg">
<g clip-path="url(#clip0_752_2803)">
<path fill-rule="evenodd" clip-rule="evenodd" d="M5.7 14.9C5.8 15 5.9 15 6 15C6.4 15 6.8 14.7 7 14.3L11 2.3C11.2 1.7 10.9 1.2 10.4 0.999995C9.8 0.799995 9.3 1.1 9.1 1.6L5.1 13.6C4.9 14.2 5.2 14.7 5.7 14.9ZM12.7 11.7L11.3 10.3L13.6 8.00001L11.3 5.7L12.7 4.3L15.7 7.3C16.1 7.7 16.1 8.3 15.7 8.7L12.7 11.7ZM3.3 11.7L0.299999 8.7C-0.100001 8.3 -0.100001 7.7 0.299999 7.3L3.3 4.3L4.7 5.7L2.4 8.00001L4.7 10.3L3.3 11.7Z" fill="black"/>
</g>
<defs>
<clipPath id="clip0_752_2803">
<rect width="16" height="16" fill="white"/>
</clipPath>
</defs>
</svg>
