<svg width="16" height="16" viewBox="0 0 16 16" xmlns="http://www.w3.org/2000/svg">
    <path d="M7.988 2C4.115 2 1.001 4.494 1.001 7.572c0 1.329.585 2.544 1.56 3.5-.342 1.35-1.486 2.553-1.5 2.566a.205.205 0 0 0-.041.234.21.21 0 0 0 .199.128c1.815 0 3.153-.85 3.851-1.377a8.53 8.53 0 0 0 2.942.52c3.873 0 6.988-2.495 6.988-5.548S11.862 2 7.988 2Zm-3.53 6.429c-.487 0-.877-.382-.877-.833a.88.88 0 0 1 .877-.857c.486 0 .876.381.876.857 0 .475-.367.833-.876.833Zm3.53 0a.838.838 0 0 1-.851-.833c0-.451.39-.857.851-.857.462 0 .852.381.852.857 0 .475-.364.833-.852.833Zm3.482 0c-.486 0-.877-.382-.877-.833a.88.88 0 0 1 .877-.857c.486 0 .877.381.877.857 0 .475-.368.833-.877.833Z"/>
</svg>
