<svg width="16" height="16" viewBox="0 0 16 16" xmlns="http://www.w3.org/2000/svg">
    <path d="M15 5.554a.976.976 0 0 1-.97.982c-.007 0-.012-.003-.018-.003l-1.226 6.823a.78.78 0 0 1-.764.644H4a.779.779 0 0 1-.763-.645L2.01 6.533c-.006 0-.011.003-.04.003A.977.977 0 0 1 1 5.554a.99.99 0 0 1 .97-.983.99.99 0 0 1 .971.983c0 .22-.085.414-.207.578l2.175 1.76a.772.772 0 0 0 1.18-.261l1.398-2.829a.97.97 0 0 1-.469-.82c0-.542.457-.982.993-.982s.949.44.949.982a.969.969 0 0 1-.469.82L9.89 7.631a.772.772 0 0 0 1.18.262l2.175-1.76c-.1-.164-.185-.38-.185-.58 0-.542.434-.982.97-.982.537 0 .971.44.971.983Z"/>
</svg>
