<svg width="16" height="16" viewBox="0 0 16 16" xmlns="http://www.w3.org/2000/svg">
    <path d="M8 1a7 7 0 0 0-7 7 7 7 0 0 0 7 7 7 7 0 0 0 7-7 7 7 0 0 0-7-7Zm5.688 7c0 .61-.1 1.198-.279 1.75h-.63a.42.42 0 0 1-.311-.13l-.878-.89a.328.328 0 0 1 .004-.458l.34-.34v-.236a.298.298 0 0 0-.089-.218l-.255-.256a.32.32 0 0 0-.221-.092h-.437a.31.31 0 0 1-.219-.526l.258-.256a.307.307 0 0 1 .219-.092h.874c.169 0 .311-.14.311-.307v-.257c0-.17-.142-.31-.31-.31H11.06a.44.44 0 0 0-.437.437v.122a.44.44 0 0 1-.298.417l-.864.286a.219.219 0 0 0-.15.209v.058a.22.22 0 0 1-.218.218h-.44a.22.22 0 0 1-.219-.218.218.218 0 0 0-.219-.219h-.082a.23.23 0 0 0-.199.12l-.255.511c-.076.147-.227.215-.416.215h-.582a.436.436 0 0 1-.437-.437v-.665a.43.43 0 0 1 .13-.307l.549-.55a.666.666 0 0 0 .196-.477.22.22 0 0 1 .152-.209l1.092-.361a.312.312 0 0 0 .12-.076l.735-.73A.31.31 0 0 0 9 3.197h-.566l-.44.437v.218c0 .12-.096.219-.219.219h-.438a.22.22 0 0 1-.218-.219v-.546c0-.068.033-.133.09-.174l1.025-.808c3.027.125 5.453 2.619 5.453 5.676ZM4.775 5.077c0-.082.033-.16.093-.219l.692-.694a.318.318 0 0 1 .218-.092c.173 0 .312.14.312.311v.438c0 .082-.033.16-.09.218l-.258.257a.301.301 0 0 1-.22.09h-.438a.309.309 0 0 1-.309-.31v.001Zm3.662 8.589-.004-.43c-.003 0 .002 0 0 0a.44.44 0 0 0-.437-.413h-.552c-.295 0-.729-.144-.967-.321l-.605-.458a1.242 1.242 0 0 1-.498-.995v-.653c0-.438.228-.845.603-1.067l1.172-.704c.195-.112.417-.177.642-.177h.851c.298 0 .586.106.811.297l1.18 1.015h.5c.234 0 .456.093.618.257l.474.475c.08.078.187.122.302.133h.514c-.889 1.67-2.603 2.887-4.604 3.04Z"/>
</svg>
