<svg width="16" height="16" viewBox="0 0 16 16" xmlns="http://www.w3.org/2000/svg">
    <path d="M14.915 7.6C13.598 4.864 10.987 3 8 3S2.402 4.866 1.084 7.6A1.272 1.272 0 0 0 1 8c0 .111.038.281.084.38C2.403 11.136 5.013 13 8 13c2.987 0 5.598-1.866 6.915-4.6.046-.119.085-.308.085-.4 0-.112-.039-.281-.085-.4ZM11.5 8c0 1.773-1.567 3.214-3.498 3.214C6.07 11.214 4.5 9.774 4.5 8c0-1.775 1.568-3.214 3.5-3.214S11.5 6.226 11.5 8ZM8 5.857c-.056 0-.136.01-.207.018.13.205.207.442.207.696C8 7.361 7.304 8 6.444 8c-.277 0-.556-.074-.76-.19-.008.067-.017.136-.017.19 0 1.163 1.045 2.143 2.333 2.143 1.288 0 2.333-.96 2.333-2.143 0-1.183-1.067-2.143-2.333-2.143Z"/>
</svg>
