<svg width="16" height="16" viewBox="0 0 16 16" xmlns="http://www.w3.org/2000/svg">
    <g clip-path="url(#a)">
        <path d="M8.127 10.26 5.644 8.432C5.852 9.478 6.826 10.27 8 10.27c.044 0 .084-.008.127-.01Zm-.128 1.136c-1.987 0-3.6-1.512-3.6-3.354 0-.16.028-.311.028-.465L2.031 5.78A9.232 9.232 0 0 0 .886 7.622a1.156 1.156 0 0 0-.109.399c0 .117.039.295.087.399 1.356 2.892 4.04 4.83 7.112 4.83a7.22 7.22 0 0 0 3.203-.753L9.316 11.13A3.375 3.375 0 0 1 8 11.396Zm7.77 1.62-2.587-1.902a9.182 9.182 0 0 0 1.93-2.674c.048-.104.087-.283.087-.399 0-.117-.04-.295-.087-.4-1.356-2.891-4.04-4.83-7.112-4.83-1.568 0-3.03.515-4.27 1.398L.97 2.14a.625.625 0 0 0-.37-.12.615.615 0 0 0-.473.215.539.539 0 0 0 .102.79L15.007 13.88a.628.628 0 0 0 .842-.095c.228-.223.18-.577-.08-.77ZM11.578 8.02a3.13 3.13 0 0 1-.449 1.6l-.963-.709c.13-.273.212-.572.212-.892 0-1.221-1.075-2.25-2.378-2.25-.057 0-.139.01-.211.018.131.217.189.466.189.733 0 .238-.064.46-.17.66l-2.22-1.646A3.682 3.682 0 0 1 8 4.645c1.987 0 3.577 1.515 3.577 3.376Z"/>
    </g>
    <defs>
        <clipPath id="a">
            <path fill="#fff" d="M0 0h16v16H0z"/>
        </clipPath>
    </defs>
</svg>
