<svg width="16" height="16" viewBox="0 0 16 16" xmlns="http://www.w3.org/2000/svg">
    <path d="M15 8.043a7.072 7.072 0 0 0-1.104-3.797 7.013 7.013 0 0 0-2.965-2.599 6.964 6.964 0 0 0-7.477 1.04A7.045 7.045 0 0 0 1.3 5.997a7.08 7.08 0 0 0-.038 3.956 7.047 7.047 0 0 0 2.088 3.352c1 .894 2.234 1.48 3.555 1.69v-4.918H5.13V8.043h1.777V6.49a2.497 2.497 0 0 1 .684-1.993 2.468 2.468 0 0 1 1.96-.746c.525.007 1.048.053 1.567.137v1.735h-.882a1.005 1.005 0 0 0-1.078.653 1.022 1.022 0 0 0-.06.447v1.32h1.942l-.31 2.035H9.093V15a6.99 6.99 0 0 0 4.23-2.382A7.065 7.065 0 0 0 15 8.043Z"/>
</svg>
