<svg width="16" height="16" viewBox="0 0 16 16" xmlns="http://www.w3.org/2000/svg">
    <path d="M7.792 6.281a.206.206 0 0 0-.209-.203.206.206 0 0 0-.208.203c0 .053.008.592.238 1.276.051-.22.179-.814.179-1.276ZM9.667 1v3.25H13L9.667 1ZM5.083 11.725c0 .245.273.304.375.162.127-.175.375-.528.67-1.02-.37.202-.71.44-.99.719a.2.2 0 0 0-.055.139Zm3.75-7.475V1H4.25C3.56 1 3 1.546 3 2.219V12.78c0 .674.56 1.22 1.25 1.22h7.5c.69 0 1.25-.546 1.25-1.219V5.062H9.69c-.484 0-.857-.363-.857-.812Zm1.771 4.672c.632 0 1.146.501 1.146 1.117 0 .626-.493 1.117-1.123 1.117-.156 0-.308-.024-.449-.071a5.55 5.55 0 0 1-1.42-.695 10.48 10.48 0 0 0-1.675.484 14.98 14.98 0 0 1-.947 1.484c-.217.266-.511.423-.846.423-.573 0-1.04-.454-1.04-1.013 0-.303.097-.554.291-.75.421-.419.973-.786 1.641-1.092.306-.58.572-1.17.79-1.756a5.459 5.459 0 0 1-.43-1.889c0-.56.467-1.015 1.041-1.015.575 0 1.042.455 1.042 1.015 0 .612-.188 1.416-.233 1.59l-.08.247c.204.367.46.691.767.966a12.72 12.72 0 0 1 1.41-.162h.115Zm-3.528 1.082a11.6 11.6 0 0 1 1.378-.386 4.565 4.565 0 0 1-.776-.97c-.18.461-.38.913-.602 1.356Zm3.552.34a.286.286 0 0 0 .289-.282.316.316 0 0 0-.313-.328H10.5c-.009.001-.438.025-1.066.121.293.178.628.335 1.011.46.055.019.12.029.183.029Z"/>
</svg>
