<svg width="16" height="16" viewBox="0 0 16 16" xmlns="http://www.w3.org/2000/svg">
    <path d="M8.833 4.25V1H4.25C3.56 1 3 1.546 3 2.219V12.78c0 .674.56 1.22 1.25 1.22h7.5c.69 0 1.25-.546 1.25-1.219V5.062H9.69c-.484 0-.857-.363-.857-.812ZM5.5 6.688c.46 0 .833.363.833.812a.823.823 0 0 1-.833.813.822.822 0 0 1-.833-.813c0-.45.373-.813.833-.813Zm5.784 5.471a.415.415 0 0 1-.367.216H5.083a.419.419 0 0 1-.367-.215.398.398 0 0 1 .02-.417l1.39-2.03c.054-.113.184-.182.345-.182.162 0 .27.068.347.181l.349.51 1.18-1.727a.419.419 0 0 1 .348-.182c.14 0 .27.067.347.18l2.222 3.25a.395.395 0 0 1 .02.416ZM9.667 1v3.25H13L9.667 1Z"/>
</svg>
