<svg width="16" height="16" viewBox="0 0 16 16" xmlns="http://www.w3.org/2000/svg">
    <path d="M9.667 1v3.5H13L9.667 1Zm-.834 3.5V1H4.25C3.56 1 3 1.588 3 2.313v11.374C3 14.412 3.56 15 4.25 15h7.5c.69 0 1.25-.588 1.25-1.313V5.376H9.69a.858.858 0 0 1-.857-.875Zm1.25 7.875H5.917a.429.429 0 0 1-.417-.438.43.43 0 0 1 .417-.437h4.166c.23 0 .417.196.417.438a.43.43 0 0 1-.417.437Zm0-1.75H5.917a.429.429 0 0 1-.417-.438.43.43 0 0 1 .417-.437h4.166c.23 0 .417.196.417.438a.43.43 0 0 1-.417.437Zm.417-2.188a.43.43 0 0 1-.417.438H5.917a.429.429 0 0 1-.417-.438A.43.43 0 0 1 5.917 8h4.166c.23 0 .417.197.417.438Z"/>
</svg>
