<svg width="16" height="16" viewBox="0 0 16 16" xmlns="http://www.w3.org/2000/svg">
    <path d="M9.667 1v3.25H13L9.667 1Zm-.834 3.25V1H4.25C3.56 1 3 1.546 3 2.219V12.78c0 .674.56 1.22 1.25 1.22h7.5c.69 0 1.25-.546 1.25-1.219V5.062H9.69c-.484 0-.857-.363-.857-.812Zm1.253 3.659L8.883 9.125l1.225 1.194a.599.599 0 0 1 0 .862.636.636 0 0 1-.884 0L8 9.986 6.775 11.18a.636.636 0 0 1-.884 0 .599.599 0 0 1 0-.862l1.226-1.193-1.226-1.216a.599.599 0 0 1 0-.862.636.636 0 0 1 .883 0L8 8.264 9.225 7.07a.636.636 0 0 1 .884 0c.244.238.243.623-.023.839Z"/>
</svg>
