<svg width="16" height="16" viewBox="0 0 16 16" xmlns="http://www.w3.org/2000/svg">
    <path d="M14 9.93a.42.42 0 0 0-.202-.358l-1.149-.683c.052-.29.082-.607.082-.889 0-.282-.03-.6-.082-.89l1.148-.682A.419.419 0 0 0 14 6.07c0-.358-1.034-2.514-1.573-2.514a.397.397 0 0 0-.204.056l-1.15.685a4.7 4.7 0 0 0-1.495-.889V2.04a.406.406 0 0 0-.309-.401A6.001 6.001 0 0 0 8 1.5c-.436 0-.86.05-1.269.139a.407.407 0 0 0-.308.401v1.368a4.699 4.699 0 0 0-1.494.888L3.777 3.61a.396.396 0 0 0-.203-.056C3.088 3.555 2 5.636 2 6.07c0 .144.077.283.202.357l1.149.684c-.052.29-.083.584-.083.889 0 .305.031.6.083.89l-1.149.682A.42.42 0 0 0 2 9.93c0 .358 1.034 2.514 1.574 2.514a.395.395 0 0 0 .203-.056l1.151-.685c.441.388.948.689 1.495.888v1.368c0 .19.127.362.308.401.411.09.833.14 1.246.14.414 0 .86-.05 1.27-.139.202-.062.33-.211.33-.402v-1.368a4.69 4.69 0 0 0 1.494-.888l1.152.685a.397.397 0 0 0 .203.056c.485 0 1.574-2.08 1.574-2.514Zm-6 .101c-1.087 0-1.972-.911-1.972-2.031S6.913 5.969 8 5.969c1.086 0 1.97.911 1.97 2.031S9.086 10.031 8 10.031Z"/>
</svg>
