<svg width="16" height="16" viewBox="0 0 16 16" xmlns="http://www.w3.org/2000/svg">
    <path fill-rule="evenodd" clip-rule="evenodd" d="M7.941 1C4.107 1 .969 4.137.969 7.972c0 3.05 2.005 5.664 4.793 6.623.349.087.436-.174.436-.349v-1.22c-1.917.436-2.353-.871-2.353-.871-.348-.784-.784-1.046-.784-1.046-.61-.436.087-.436.087-.436.697.088 1.046.697 1.046.697.61 1.134 1.655.785 2.004.61.087-.435.262-.784.436-.958-1.569-.174-3.137-.784-3.137-3.486 0-.784.261-1.394.697-1.83-.087-.174-.349-.872.087-1.83 0 0 .61-.174 1.917.697a5.619 5.619 0 0 1 1.743-.261c.61 0 1.22.087 1.743.261 1.307-.871 1.917-.697 1.917-.697.349.958.174 1.656.087 1.83.436.523.698 1.133.698 1.83 0 2.702-1.656 3.225-3.225 3.399.262.348.523.784.523 1.394v1.917c0 .175.087.436.523.349C12.996 13.636 15 11.022 15 7.972 14.913 4.137 11.775 1 7.941 1Z"/>
</svg>
