<svg width="16" height="16" viewBox="0 0 16 16" fill="none" xmlns="http://www.w3.org/2000/svg">
<g clip-path="url(#clip0_587_2503)">
<path fill-rule="evenodd" clip-rule="evenodd" d="M8 0.199997C3.6 0.199997 0 3.8 0 8.2C0 11.7 2.3 14.7 5.5 15.8C5.9 15.9 6 15.6 6 15.4C6 15.2 6 14.7 6 14C3.8 14.5 3.3 13 3.3 13C2.9 12.1 2.4 11.8 2.4 11.8C1.7 11.3 2.5 11.3 2.5 11.3C3.3 11.4 3.7 12.1 3.7 12.1C4.4 13.4 5.6 13 6 12.8C6.1 12.3 6.3 11.9 6.5 11.7C4.7 11.5 2.9 10.8 2.9 7.7C2.9 6.8 3.2 6.1 3.7 5.6C3.6 5.4 3.3 4.6 3.8 3.5C3.8 3.5 4.5 3.3 6 4.3C6.6 4.1 7.3 4 8 4C8.7 4 9.4 4.1 10 4.3C11.5 3.3 12.2 3.5 12.2 3.5C12.6 4.6 12.4 5.4 12.3 5.6C12.8 6.2 13.1 6.9 13.1 7.7C13.1 10.8 11.2 11.4 9.4 11.6C9.7 12 10 12.5 10 13.2C10 14.3 10 15.1 10 15.4C10 15.6 10.1 15.9 10.6 15.8C13.8 14.7 16.1 11.7 16.1 8.2C16 3.8 12.4 0.199997 8 0.199997Z" fill="black"/>
</g>
<defs>
<clipPath id="clip0_587_2503">
<rect width="16" height="16" fill="white"/>
</clipPath>
</defs>
</svg>
