<svg width="16" height="16" viewBox="0 0 16 16" xmlns="http://www.w3.org/2000/svg">
    <g clip-path="url(#a)">
        <path d="M15.578 5.575 8.51 3.09a1.6 1.6 0 0 0-1.06 0L.4 5.575a.602.602 0 0 0 0 1.135l1.5.528a3.367 3.367 0 0 0-.613 1.324.786.786 0 0 0-.488.724c0 .244.12.454.298.598l-.62 3.658A.395.395 0 0 0 .871 14h1.456a.395.395 0 0 0 .394-.457l-.62-3.66a.801.801 0 0 0 .298-.597.768.768 0 0 0-.318-.612c.105-.43.32-.828.623-1.154L7.47 9.195a1.6 1.6 0 0 0 1.06 0L15.6 6.71a.602.602 0 0 0 .4-.567.593.593 0 0 0-.422-.568Zm-6.8 4.359c-.236.09-.505.137-.778.137s-.543-.046-.8-.136L3.57 8.659l-.37 3.507C3.2 13.18 5.327 14 8 14c2.627 0 4.8-.82 4.8-1.834l-.37-3.508-3.652 1.276Z"/>
    </g>
    <defs>
        <clipPath id="a">
            <path fill="#fff" d="M0 0h16v16H0z"/>
        </clipPath>
    </defs>
</svg>
