<svg width="16" height="16" viewBox="0 0 16 16" xmlns="http://www.w3.org/2000/svg">
    <path d="M5.857 2H3.286C2.576 2 2 2.576 2 3.286v2.571c0 .71.576 1.286 1.286 1.286h2.571c.71 0 1.286-.576 1.286-1.286V3.286C7.143 2.576 6.567 2 5.857 2Zm6.857 6.857h-2.571c-.71 0-1.286.576-1.286 1.286v2.571c0 .71.576 1.286 1.286 1.286h2.571c.71 0 1.286-.576 1.286-1.286v-2.571c0-.71-.576-1.286-1.286-1.286Zm0-6.857h-2.571c-.71 0-1.286.576-1.286 1.286v2.571c0 .71.576 1.286 1.286 1.286h2.571c.71 0 1.286-.576 1.286-1.286V3.286C14 2.576 13.424 2 12.714 2ZM5.857 8.857H3.286c-.71 0-1.286.576-1.286 1.286v2.571C2 13.424 2.576 14 3.286 14h2.571c.71 0 1.286-.576 1.286-1.286v-2.571c0-.71-.576-1.286-1.286-1.286Z"/>
</svg>
