<svg width="16" height="16" viewBox="0 0 16 16" xmlns="http://www.w3.org/2000/svg">
    <path d="M6.4 2H4.8c-.44 0-.8.385-.8.857v1.714c0 .472.36.858.8.858h1.6c.44 0 .8-.386.8-.858V2.857C7.2 2.385 6.84 2 6.4 2Zm0 4.286H4.8c-.44 0-.8.385-.8.857v1.714c0 .472.36.857.8.857h1.6c.44 0 .8-.385.8-.857V7.143c0-.472-.36-.857-.8-.857Zm0 4.285H4.8c-.44 0-.8.386-.8.858v1.714c0 .472.36.857.8.857h1.6c.44 0 .8-.385.8-.857v-1.714c0-.472-.36-.858-.8-.858ZM11.2 2H9.6c-.44 0-.8.385-.8.857v1.714c0 .472.36.858.8.858h1.6c.44 0 .8-.386.8-.858V2.857c0-.472-.36-.857-.8-.857Zm0 4.286H9.6c-.44 0-.8.385-.8.857v1.714c0 .472.36.857.8.857h1.6c.44 0 .8-.385.8-.857V7.143c0-.472-.36-.857-.8-.857Zm0 4.285H9.6c-.44 0-.8.386-.8.858v1.714c0 .472.36.857.8.857h1.6c.44 0 .8-.385.8-.857v-1.714c0-.472-.36-.858-.8-.858Z"/>
</svg>
