<svg width="16" height="16" viewBox="0 0 16 16" xmlns="http://www.w3.org/2000/svg">
    <path d="M12.714 7.125c-.245 0-.472.074-.666.195a1.293 1.293 0 0 0-1.262-1.07c-.466 0-.87.255-1.096.634-.134-.61-.632-1.072-1.261-1.072-.331 0-.63.132-.858.341v-4.06C7.571 1.49 7.092 1 6.524 1c-.616 0-1.095.49-1.095 1.094v8.824l-1.5-2.043a1.06 1.06 0 0 0-.858-.438A1.084 1.084 0 0 0 2 9.533c0 .228.07.459.214.655l2.444 3.325A3.636 3.636 0 0 0 7.57 15h2.572C12.27 15 14 13.234 14 11.062V8.438c0-.725-.576-1.313-1.286-1.313ZM8.43 11.938a.433.433 0 0 1-.429.437.433.433 0 0 1-.429-.438V9.313c0-.241.193-.438.429-.438s.429.196.429.438v2.624Zm1.714 0a.433.433 0 0 1-.429.437.433.433 0 0 1-.428-.438V9.313c0-.241.193-.438.428-.438.236 0 .429.196.429.438v2.624Zm1.714 0a.433.433 0 0 1-.428.437.433.433 0 0 1-.429-.438V9.313c0-.241.193-.438.429-.438.235 0 .428.196.428.438v2.624Z"/>
</svg>
