<svg width="16" height="16" viewBox="0 0 16 16" xmlns="http://www.w3.org/2000/svg">
    <path d="m13.71 7.539-1.362-.616-3.787 1.716A1.38 1.38 0 0 1 8 8.76c-.195 0-.38-.042-.56-.12L3.653 6.923l-1.362.616c-.387.176-.387.762 0 .937l5.46 2.475a.593.593 0 0 0 .499 0l5.46-2.475c.387-.175.387-.761 0-.937ZM2.29 5.469l5.46 2.48c.159.07.34.07.499 0l5.46-2.48c.387-.175.387-.761 0-.937l-5.46-2.48a.614.614 0 0 0-.499 0l-5.46 2.48c-.387.176-.387.762 0 .938Zm11.419 5.065-1.357-.615-3.794 1.72a1.357 1.357 0 0 1-1.118 0L3.647 9.92l-1.357.616c-.387.176-.387.762 0 .938l5.46 2.474c.159.07.34.07.499 0l5.46-2.474c.388-.177.388-.763 0-.939Z"/>
</svg>
