<svg width="16" height="16" viewBox="0 0 16 16" xmlns="http://www.w3.org/2000/svg">
    <path d="M13.404 2H2.522A.51.51 0 0 0 2 2.522v10.956c0 .224.224.447.522.447h10.956a.51.51 0 0 0 .522-.521V2.522c-.075-.298-.298-.522-.596-.522Zm-7.9 10.137H3.788V6.472h1.789v5.665h-.075Zm-.82-6.41c-.597 0-1.044-.522-1.044-1.044 0-.596.447-1.043 1.043-1.043a1.02 1.02 0 0 1 1.044 1.043c-.075.522-.522 1.044-1.044 1.044Zm7.453 6.41h-1.79V9.379c0-.67 0-1.49-.894-1.49s-1.043.745-1.043 1.49v2.832H6.62V6.472h1.714v.745c.224-.447.82-.894 1.64-.894 1.789 0 2.087 1.193 2.087 2.683v3.13h.075Z"/>
</svg>
