<svg width="16" height="16" viewBox="0 0 16 16" xmlns="http://www.w3.org/2000/svg">
    <path d="M1.906 13.11c.623.594 1.395.89 2.187.89a3.11 3.11 0 0 0 2.187-.89l.948-.931a3.78 3.78 0 0 1-.916-.645c-.07-.068-.13-.14-.192-.212l-.83.816c-.32.314-.726.487-1.197.487-.452 0-.877-.173-1.196-.487a1.637 1.637 0 0 1-.496-1.175c0-.444.176-.862.496-1.176l2.915-2.864a1.776 1.776 0 0 1 1.195-.486 1.7 1.7 0 0 1 1.197.487c.321.315.516.732.516 1.176 0 .445-.176.862-.496 1.176l-.097.075a.99.99 0 0 0 .164.238.992.992 0 0 0 .702.286c.261 0 .506-.1.692-.279a2.988 2.988 0 0 0-.49-3.643 3.112 3.112 0 0 0-2.188-.89 3.11 3.11 0 0 0-2.187.89L1.906 8.815a3 3 0 0 0 0 4.294ZM9.88 5.677l.83-.814a1.773 1.773 0 0 1 1.196-.488c.452 0 .877.173 1.197.487a1.64 1.64 0 0 1 0 2.351l-2.916 2.863a1.656 1.656 0 0 1-1.195.486c-.47 0-.877-.172-1.197-.486A1.636 1.636 0 0 1 7.301 8.9c0-.444.176-.861.495-1.175l.077-.076a.968.968 0 0 0-.163-.24 1.002 1.002 0 0 0-1.394-.005 2.988 2.988 0 0 0 .49 3.643c.623.594 1.395.89 2.187.89.792 0 1.582-.296 2.185-.889l2.916-2.864a3 3 0 0 0 0-4.295A3.115 3.115 0 0 0 11.907 3a3.11 3.11 0 0 0-2.187.89l-.948.931c.33.172.644.378.917.645.07.067.129.14.192.21Z"/>
</svg>
