<svg width="16" height="16" viewBox="0 0 16 16" fill="none" xmlns="http://www.w3.org/2000/svg">
<g clip-path="url(#clip0_833_2931)">
<path fill-rule="evenodd" clip-rule="evenodd" d="M10 6L12 6L12 4C12 2.93913 11.5786 1.92172 10.8284 1.17157C10.0783 0.421427 9.06086 1.40941e-06 8 1.22392e-06C6.93913 1.03843e-06 5.92172 0.421427 5.17157 1.17157C4.42143 1.92172 4 2.93913 4 4L4 6L6 6L6 4C6 3.46957 6.21071 2.96086 6.58578 2.58579C6.96086 2.21071 7.46957 2 8 2C8.53043 2 9.03914 2.21071 9.41421 2.58579C9.78928 2.96086 10 3.46957 10 4L10 6ZM2 7L14 7C14.2652 7 14.5196 7.10536 14.7071 7.29289C14.8946 7.48043 15 7.73478 15 8L15 15C15 15.2652 14.8946 15.5196 14.7071 15.7071C14.5196 15.8946 14.2652 16 14 16L2 16C1.73478 16 1.48043 15.8946 1.29289 15.7071C1.10536 15.5196 0.999997 15.2652 0.999997 15L0.999999 8C0.999999 7.73478 1.10536 7.48043 1.29289 7.29289C1.48043 7.10536 1.73478 7 2 7ZM6.88886 12.6629C7.21776 12.8827 7.60444 13 8 13C8.53043 13 9.03914 12.7893 9.41421 12.4142C9.78928 12.0391 10 11.5304 10 11C10 10.6044 9.8827 10.2178 9.66294 9.88886C9.44317 9.55996 9.13082 9.30362 8.76537 9.15224C8.39991 9.00087 7.99778 8.96126 7.60982 9.03843C7.22186 9.1156 6.86549 9.30608 6.58579 9.58579C6.30608 9.86549 6.1156 10.2219 6.03843 10.6098C5.96126 10.9978 6.00086 11.3999 6.15224 11.7654C6.30361 12.1308 6.55996 12.4432 6.88886 12.6629Z" fill="black"/>
</g>
<defs>
<clipPath id="clip0_833_2931">
<rect width="16" height="16" fill="white"/>
</clipPath>
</defs>
</svg>
