<svg width="16" height="16" viewBox="0 0 16 16" xmlns="http://www.w3.org/2000/svg">
    <g clip-path="url(#a)">
        <path d="M13.075 2.016C11.136 1.82 9.5 3.403 9.5 5.375V7.25H4.444C3.647 7.25 3 7.923 3 8.75v3.75c0 .828.647 1.5 1.444 1.5h7.223c.797 0 1.444-.672 1.444-1.5V8.75c0-.829-.647-1.5-1.444-1.5h-.723V5.375c0-1.099.915-1.98 1.995-1.865.92.1 1.617.995 1.617 1.975v1.39a.37.37 0 0 0 .36.375h.723A.37.37 0 0 0 16 6.875v-1.35c0-1.762-1.237-3.338-2.925-3.509Z"/>
    </g>
    <defs>
        <clipPath id="a">
            <path fill="#fff" d="M0 0h16v16H0z"/>
        </clipPath>
    </defs>
</svg>
