<svg width="16" height="16" viewBox="0 0 16 16" fill="none" xmlns="http://www.w3.org/2000/svg">
<g clip-path="url(#clip0_609_3336)">
<path fill-rule="evenodd" clip-rule="evenodd" d="M11 1C11 1.55228 10.5523 2 10 2C9.44772 2 9 1.55228 9 1C9 0.447715 9.44771 1.65189e-06 10 1.74846e-06C10.5523 1.84502e-06 11 0.447715 11 1ZM-1.55613e-06 8.9C-9.79135e-07 5.6 2.2 2.8 5.2 2C3.8 7.3 8.7 12.2 14 10.8C13.1 13.8 10.4 16 7.1 16C3.2 16 0 12.8 -1.55613e-06 8.9ZM15 8C15.5523 8 16 7.55228 16 7C16 6.44772 15.5523 6 15 6C14.4477 6 14 6.44772 14 7C14 7.55228 14.4477 8 15 8ZM11 6C11 6.55228 10.5523 7 10 7C9.44772 7 9 6.55228 9 6C9 5.44772 9.44771 5 10 5C10.5523 5 11 5.44772 11 6Z" fill="black"/>
</g>
<defs>
<clipPath id="clip0_609_3336">
<rect width="16" height="16" fill="white"/>
</clipPath>
</defs>
</svg>
