<svg width="16" height="16" viewBox="0 0 16 16" fill="none" xmlns="http://www.w3.org/2000/svg">
<g clip-path="url(#clip0_587_2708)">
<path d="M1.11232 10.8901V7.0296H1.16031L3.7819 10.8901H4.759V5.11839H3.64231V8.95772H3.59433L0.985823 5.11839H0V10.8901H1.11232Z" fill="black"/>
<path d="M8.63686 5.11839H6.25518V10.8901H7.43293V8.95349H8.62814C9.91494 8.95349 10.6478 8.12896 10.6478 7.04228C10.6478 5.96406 9.92366 5.11839 8.63686 5.11839ZM9.4482 7.04228C9.4482 7.68499 9.05998 8.05708 8.41003 8.05708H7.42857V6.02748H8.41003C9.05998 6.02748 9.4482 6.39535 9.4482 7.04228Z" fill="black"/>
<path d="M11.3413 9.31712C11.3937 10.2304 12.1265 11 13.6401 11C15.1494 11 16 10.2643 16 9.19027C16 8.22199 15.3631 7.77378 14.3991 7.56237L13.4744 7.35518C12.9509 7.24524 12.6587 7.01691 12.6587 6.67019C12.6587 6.22199 13.0469 5.89641 13.6968 5.89641C14.3293 5.89641 14.7176 6.21353 14.7917 6.62791H15.9084C15.8517 5.73996 15.0665 5 13.7056 5C12.3926 5 11.4809 5.68922 11.4809 6.7463C11.4809 7.62156 12.0654 8.13742 12.9902 8.34038L13.9106 8.54757C14.53 8.6871 14.8266 8.89429 14.8266 9.29598C14.8266 9.76956 14.4384 10.0951 13.7056 10.0951C13.0033 10.0951 12.5583 9.76533 12.4798 9.31712H11.3413Z" fill="black"/>
</g>
<defs>
<clipPath id="clip0_587_2708">
<rect width="16" height="16" fill="white"/>
</clipPath>
</defs>
</svg>
