<svg width="16" height="16" viewBox="0 0 16 16" xmlns="http://www.w3.org/2000/svg">
    <path d="M1.973 10.89V7.03h.042l2.294 3.86h.855V5.118h-.977v3.84h-.042l-2.282-3.84H1v5.772h.973Zm6.584-5.772H6.473v5.772h1.03V8.953H8.55c1.126 0 1.767-.824 1.767-1.91 0-1.079-.634-1.925-1.76-1.925Zm.71 1.924c0 .643-.34 1.015-.908 1.015H7.5v-2.03h.859c.568 0 .908.368.908 1.015Zm1.657 2.275c.046.913.687 1.683 2.011 1.683C14.255 11 15 10.264 15 9.19c0-.968-.557-1.416-1.4-1.628l-.81-.207c-.458-.11-.714-.338-.714-.685 0-.448.34-.774.909-.774.553 0 .893.318.958.732h.977C14.87 5.74 14.183 5 12.992 5c-1.149 0-1.946.69-1.946 1.746 0 .876.511 1.391 1.32 1.594l.806.208c.542.14.801.346.801.748 0 .474-.34.8-.98.8-.615 0-1.005-.33-1.073-.779h-.996Z"/>
</svg>
