<svg width="16" height="16" viewBox="0 0 16 16" xmlns="http://www.w3.org/2000/svg">
    <path d="M13.833 3H2.167C1.523 3 1 3.48 1 4.071v7.858C1 12.52 1.523 13 2.167 13h11.666c.644 0 1.167-.48 1.167-1.071V4.07C15 3.48 14.477 3 13.833 3Zm-9.722 7.5c0 .196-.175.357-.389.357h-.778c-.213 0-.388-.16-.388-.357v-5c0-.196.175-.357.388-.357h.778c.214 0 .39.16.39.357v5Zm1.556 0c0 .196-.175.357-.39.357-.213 0-.388-.16-.388-.357V5.48c0-.176.175-.337.389-.337.214 0 .389.16.389.337v5.02Zm1.555 0c0 .196-.175.357-.389.357-.214 0-.389-.16-.389-.357V5.48c0-.176.175-.337.39-.337.213 0 .388.16.388.337v5.02Zm3.111 0c0 .196-.175.357-.389.357h-.777c-.214 0-.39-.16-.39-.357v-5c0-.196.176-.357.39-.357h.777c.214 0 .39.16.39.357v5Zm3.111 0c0 .196-.175.357-.388.357h-.778c-.214 0-.39-.16-.39-.357V5.48c0-.176.176-.337.368-.337h.8c.213 0 .388.16.388.357v5Z"/>
</svg>
