<svg width="16" height="16" viewBox="0 0 16 16" xmlns="http://www.w3.org/2000/svg">
    <path d="M3.625 14h1.75a.865.865 0 0 0 .875-.857.865.865 0 0 0-.875-.857h-1.75a.866.866 0 0 1-.875-.857V4.57c0-.473.392-.857.875-.857h1.75a.866.866 0 0 0 .875-.857A.866.866 0 0 0 5.375 2h-1.75C2.175 2 1 3.151 1 4.571v6.858C1 12.849 2.175 14 3.625 14Zm11.178-6.469-3.94-3.643a.663.663 0 0 0-1 .114.634.634 0 0 0-.108.354l-.002 1.929h-3.5a.866.866 0 0 0-.876.857v1.714c0 .473.392.857.876.857h3.5l.002 1.905c0 .125.038.248.108.353a.668.668 0 0 0 1 .114l3.94-3.643c.263-.217.263-.667 0-.91Z"/>
</svg>
