<svg width="16" height="16" viewBox="0 0 16 16" xmlns="http://www.w3.org/2000/svg">
    <g clip-path="url(#a)">
        <path d="m15.827 4.65-3.668-3.515c-.32-.307-.826-.058-.826.42v1.887c-3.47.041-6.222.765-6.222 4.187 0 1.38.855 2.749 1.8 3.464.295.223.715-.057.607-.419-.98-3.26.704-3.976 3.815-4v1.888c0 .479.506.727.827.42l3.667-3.515c.23-.199.23-.596 0-.817Zm-3.716 6.117c-.43 0-.778.365-.778.814v.791H3.555V4.256h.778c.43 0 .778-.364.778-.814 0-.45-.348-.814-.778-.814h-.778C2.696 2.628 2 3.357 2 4.256v8.116C2 13.271 2.696 14 3.555 14h7.778c.859 0 1.555-.729 1.555-1.628v-.79c0-.451-.347-.815-.777-.815Z"/>
    </g>
    <defs>
        <clipPath id="a">
            <path fill="#fff" d="M0 0h16v16H0z"/>
        </clipPath>
    </defs>
</svg>
