<svg width="16" height="16" viewBox="0 0 16 16" xmlns="http://www.w3.org/2000/svg">
    <path d="M5.465 5.216a.577.577 0 0 0-.824.081c-1.223 1.49-1.223 3.917 0 5.409.115.14.277.212.439.212a.56.56 0 0 0 .385-.155.656.656 0 0 0 .053-.882c-.85-1.036-.85-2.722 0-3.758a.687.687 0 0 0-.053-.907Zm7.999-1.904a.744.744 0 0 0-1.093-.129.875.875 0 0 0-.12 1.172A6.03 6.03 0 0 1 13.443 8c0 1.341-.412 2.602-1.194 3.622a.875.875 0 0 0 .12 1.172.666.666 0 0 0 .486.206.758.758 0 0 0 .607-.312C14.456 11.365 15 9.701 15 8c0-1.7-.544-3.364-1.536-4.688ZM2.556 8c0-1.341.412-2.602 1.194-3.622a.875.875 0 0 0-.12-1.172.746.746 0 0 0-1.094.128C1.546 4.636 1 6.3 1 8c0 1.7.545 3.365 1.536 4.688a.76.76 0 0 0 .607.312c.17 0 .342-.06.486-.183a.875.875 0 0 0 .12-1.172A6.028 6.028 0 0 1 2.557 8Zm8.803-2.703a.558.558 0 0 0-.824-.057.656.656 0 0 0-.053.882c.85 1.036.85 2.721 0 3.758a.656.656 0 0 0 .053.882.56.56 0 0 0 .824-.057c1.223-1.491 1.223-3.918 0-5.408ZM8 6.542c-.751 0-1.361.653-1.361 1.458 0 .805.61 1.458 1.361 1.458S9.361 8.805 9.361 8c0-.805-.61-1.458-1.361-1.458Z"/>
</svg>
