<svg width="16" height="16" viewBox="0 0 16 16" xmlns="http://www.w3.org/2000/svg">
    <g clip-path="url(#a)">
        <path fill-rule="evenodd" clip-rule="evenodd" d="M8 1.1c1.873 0 3.65.759 4.948 2.052L14 2l1.475 4.424a.5.5 0 0 1-.643.629L10.5 5.5l1.035-.935A5.023 5.023 0 0 0 8 3.1a5.006 5.006 0 0 0-4.556 7.065c.23.503.14 1.126-.307 1.45-.448.323-1.08.225-1.338-.264A6.958 6.958 0 0 1 1 8.1c0-3.86 3.141-7 7-7Zm6.667 9.136c.169-.526-.206-1.045-.75-1.136-.545-.092-1.052.281-1.25.797-.06.155-.127.306-.202.454-.25.494-.186 1.12.248 1.463.434.342 1.07.27 1.346-.207.251-.434.455-.894.608-1.371Zm-3.118 2.702c.327.445.234 1.079-.253 1.338a6.99 6.99 0 0 1-1.16.49c-.525.17-1.044-.204-1.136-.748-.092-.545.282-1.052.797-1.251.101-.04.201-.081.3-.127.5-.232 1.124-.147 1.452.298ZM7 14.016c-.091.545-.61.92-1.136.75a7.025 7.025 0 0 1-1.294-.563c-.48-.271-.56-.906-.224-1.344.337-.438.963-.51 1.459-.267.13.064.263.122.398.174.515.199.888.706.797 1.25Zm.125-7.141a.875.875 0 1 1-1.75 0 .875.875 0 0 1 1.75 0Zm2.625.875a.875.875 0 1 0 0-1.75.875.875 0 0 0 0 1.75ZM6 9h4a1 1 0 1 1 0 2H6a1 1 0 1 1 0-2Z"/>
    </g>
    <defs>
        <clipPath id="a">
            <path fill="#fff" d="M0 0h16v16H0z"/>
        </clipPath>
    </defs>
</svg>
