<svg width="16" height="16" viewBox="0 0 16 16" xmlns="http://www.w3.org/2000/svg">
    <path d="M4.287 5.216a.657.657 0 0 0 .93-.928L3.976 3.05a.656.656 0 1 0-.927.928l1.237 1.238ZM8 4.062a.656.656 0 0 0 .656-.656v-1.75a.656.656 0 1 0-1.312 0v1.75c0 .364.295.656.656.656ZM4.062 8a.656.656 0 0 0-.656-.656h-1.75a.657.657 0 0 0 0 1.312h1.75A.655.655 0 0 0 4.062 8Zm7.186-2.592a.653.653 0 0 0 .465-.192l1.237-1.239a.656.656 0 1 0-.928-.928l-1.238 1.239a.656.656 0 0 0 .464 1.12ZM8 11.938a.656.656 0 0 0-.656.656v1.75a.656.656 0 0 0 1.312 0v-1.75A.656.656 0 0 0 8 11.938Zm-3.713-1.154-1.238 1.238a.656.656 0 1 0 .928.928l1.238-1.238a.656.656 0 1 0-.928-.928Zm10.057-3.44h-1.75a.656.656 0 0 0 0 1.312h1.75A.655.655 0 0 0 15 8a.655.655 0 0 0-.656-.656Zm-2.63 3.44a.656.656 0 1 0-.929.927l1.238 1.239a.654.654 0 0 0 .928 0 .656.656 0 0 0 0-.928l-1.238-1.238ZM8 4.937a3.062 3.062 0 1 0 0 6.125 3.062 3.062 0 0 0 0-6.124Z"/>
</svg>
