<svg width="16" height="16" viewBox="0 0 16 16" xmlns="http://www.w3.org/2000/svg">
    <path d="m13.983 5.406-3.492-3.239a.64.64 0 0 0-.873.012.57.57 0 0 0 .013.834l3.487 3.233c.415.397.647.93.647 1.495 0 .564-.231 1.095-.651 1.496l-2.875 2.76a.57.57 0 0 0 .002.833c.116.11.273.17.436.17a.63.63 0 0 0 .438-.174l2.874-2.757A3.202 3.202 0 0 0 15 7.74c0-.88-.36-1.71-1.017-2.335Zm-1.876 1.348-4.56-4.351C7.315 2.18 6.857 2 6.527 2H1.722C1.323 2 1 2.308 1 2.688v4.586c0 .313.19.75.422.972l4.56 4.351a1.491 1.491 0 0 0 2.039 0l4.086-3.899a1.33 1.33 0 0 0 0-1.944ZM3.882 5.536c-.454 0-.823-.352-.823-.786 0-.434.369-.786.823-.786.455 0 .824.352.824.786 0 .435-.368.786-.824.786Z"/>
</svg>
