<svg width="16" height="16" viewBox="0 0 16 16" xmlns="http://www.w3.org/2000/svg">
    <g clip-path="url(#a)">
        <path fill-rule="evenodd" clip-rule="evenodd" d="M15.04 1.52A.75.75 0 1 0 13.96.48L11.53 3H3a2 2 0 0 0-2 2v6a2 2 0 0 0 1.095 1.784L.46 14.479a.75.75 0 0 0 1.08 1.042l13.5-14ZM3.58 11.244l-.66.685H2l2.329-7.53h1.607l1.027 3.337L5.95 8.787l-.822-2.95h-.06l-.85 3.046h1.64l-1.07 1.109h-.855l-.351 1.251Zm4.162-.978 1.28-1.327v.496c0 1.606.793 2.566 2.014 2.566.783 0 1.413-.414 1.581-1.01h.066v.938H14V4h-.216l.508-.527C14.725 3.84 15 4.388 15 5v6a2 2 0 0 1-2 2H5.105l1.542-1.599.148.527h1.46l-.513-1.663Zm4.916-3.302V5.168l-.914.948c.41.154.714.45.853.847h.06Zm0 1.622c0-.877-.489-1.43-1.16-1.43-.676 0-1.103.558-1.103 1.557v.568c0 1.004.432 1.567 1.124 1.567.681 0 1.139-.552 1.139-1.506v-.756Z"/>
    </g>
    <defs>
        <clipPath id="a">
            <path fill="#fff" d="M0 0h16v16H0z"/>
        </clipPath>
    </defs>
</svg>
