<svg width="16" height="16" viewBox="0 0 16 16" xmlns="http://www.w3.org/2000/svg">
    <path d="M3.625 4.001h-1.75c-.483 0-.875.384-.875.833v5.976c0 .473.392.833.875.833h1.75c.483 0 .875-.384.875-.833V4.858A.866.866 0 0 0 3.625 4Zm10.153 5.576c.213-.228.347-.53.347-.865 0-.629-.461-1.15-1.07-1.262a1.284 1.284 0 0 0-.714-1.906.947.947 0 0 0 .034-.259c0-.71-.588-1.285-1.313-1.285H9.459c-.947 0-1.867.3-2.624.857l-.934.685a1.27 1.27 0 0 0-.525 1.005l.003 4.286c.002.375.167.748.49 1l.445.35C8.553 13.962 7.546 16 9.271 16c.847 0 1.353-.657 1.353-1.289 0-.405-.321-1.556-.944-2.572h4.008c.725 0 1.312-.575 1.312-1.285 0-.68-.541-1.232-1.222-1.277Z"/>
</svg>
