<svg width="16" height="16" viewBox="0 0 16 16" xmlns="http://www.w3.org/2000/svg">
    <g clip-path="url(#a)">
        <path d="M16 3.406c-.563.281-1.125.375-1.781.469.656-.375 1.125-.938 1.312-1.688-.562.376-1.219.563-1.969.75A3.274 3.274 0 0 0 11.313 2c-1.593 0-3 1.406-3 3.094 0 .281 0 .468.094.656-2.531-.094-4.875-1.313-6.375-3.188-.281.47-.375.938-.375 1.594 0 1.032.563 1.969 1.407 2.532-.47 0-.938-.188-1.407-.375 0 1.5 1.032 2.718 2.438 3-.282.093-.563.093-.844.093-.188 0-.375 0-.563-.094a3.038 3.038 0 0 0 2.907 2.157c-1.032.844-2.344 1.312-3.844 1.312H1c1.406.844 3 1.406 4.688 1.406 5.625 0 8.718-4.687 8.718-8.718v-.375c.656-.469 1.219-1.032 1.594-1.688Z"/>
    </g>
    <defs>
        <clipPath id="a">
            <path fill="#fff" d="M0 0h16v16H0z"/>
        </clipPath>
    </defs>
</svg>
