<svg width="730" height="433" viewBox="0 0 730 433" fill="none" xmlns="http://www.w3.org/2000/svg">
<line x1="50" y1="373" x2="728" y2="373" stroke="#595F6C" stroke-width="4" stroke-linecap="round"/>
<line x1="48.5" y1="296.5" x2="729.5" y2="296.5" stroke="#9DA4B2" stroke-linecap="round" stroke-dasharray="8 8"/>
<line x1="48.5" y1="218.5" x2="729.5" y2="218.5" stroke="#9DA4B2" stroke-linecap="round" stroke-dasharray="8 8"/>
<line x1="48.5" y1="140.5" x2="729.5" y2="140.5" stroke="#9DA4B2" stroke-linecap="round" stroke-dasharray="8 8"/>
<line x1="48.5" y1="62.5" x2="729.5" y2="62.5" stroke="#9DA4B2" stroke-linecap="round" stroke-dasharray="8 8"/>
<path d="M1.3418 69H10.9834V67.0928H4.17188V66.9346L10.8164 57.8291V56.3174H1.52637V58.2246H8.0127V58.3828L1.3418 67.4883V69ZM19.0869 69H21.2578V66.5654H22.9629V64.6934H21.2578V56.3174H18.0498C16.3271 58.9365 14.5254 61.8545 12.8818 64.7109V66.5654H19.0869V69ZM14.9912 64.7461V64.6143C16.2217 62.4609 17.6895 60.1143 18.9902 58.1279H19.1221V64.7461H14.9912Z" fill="#6F7683"/>
<path d="M1.35938 147H11.001V145.093H4.18945V144.935L10.834 135.829V134.317H1.54395V136.225H8.03027V136.383L1.35938 145.488V147ZM18.1377 147.255C20.9502 147.255 22.875 145.699 22.875 143.467V143.449C22.875 141.691 21.6357 140.584 19.7725 140.408V140.364C21.293 140.048 22.4268 139.002 22.4268 137.429V137.411C22.4268 135.425 20.7305 134.062 18.1201 134.062C15.5625 134.062 13.8311 135.504 13.6377 137.701L13.6289 137.798H15.7383L15.7471 137.71C15.8613 136.576 16.7842 135.864 18.1201 135.864C19.4736 135.864 20.2559 136.55 20.2559 137.71V137.728C20.2559 138.835 19.3242 139.626 17.9268 139.626H16.4766V141.313H17.9707C19.5967 141.313 20.5811 142.052 20.5811 143.388V143.405C20.5811 144.583 19.6055 145.4 18.1377 145.4C16.6523 145.4 15.6592 144.636 15.5361 143.563L15.5273 143.467H13.3652L13.374 143.572C13.541 145.743 15.3604 147.255 18.1377 147.255Z" fill="#6F7683"/>
<path d="M1.81641 225H11.458V223.093H4.64648V222.935L11.291 213.829V212.317H2.00098V214.225H8.4873V214.383L1.81641 223.488V225ZM14.0068 225H22.8135V223.119H17.0742V222.935L19.6143 220.474C21.9258 218.25 22.6201 217.107 22.6201 215.666V215.64C22.6201 213.504 20.8447 212.001 18.375 212.001C15.7295 212.001 13.8838 213.653 13.8838 216.018L13.8926 216.044L16.002 216.053L16.0107 216.018C16.0107 214.708 16.916 213.82 18.2607 213.82C19.5791 213.82 20.3789 214.664 20.3789 215.833V215.859C20.3789 216.835 19.8955 217.477 18.1729 219.217L14.0068 223.471V225Z" fill="#6F7683"/>
<path d="M4.24219 302H13.8838V300.093H7.07227V299.935L13.7168 290.829V289.317H4.42676V291.225H10.9131V291.383L4.24219 300.488V302ZM19.5352 302H21.8027V289.317H19.5439L16.2305 291.646V293.782L19.3857 291.55H19.5352V302Z" fill="#6F7683"/>
<path d="M53.9766 400.316C56.9912 400.316 58.8193 397.759 58.8193 393.663V393.646C58.8193 389.55 56.9912 387.001 53.9766 387.001C50.9619 387.001 49.1514 389.55 49.1514 393.646V393.663C49.1514 397.759 50.9619 400.316 53.9766 400.316ZM53.9766 398.479C52.3594 398.479 51.4365 396.669 51.4365 393.663V393.646C51.4365 390.64 52.3594 388.847 53.9766 388.847C55.5938 388.847 56.5342 390.64 56.5342 393.646V393.663C56.5342 396.669 55.5938 398.479 53.9766 398.479ZM66.1494 395.878H72.0205V393.892H66.1494V395.878ZM79.7812 400H82.0488V395.808H84.8438C87.4189 395.808 89.1592 394.103 89.1592 391.571V391.554C89.1592 389.014 87.4189 387.317 84.8438 387.317H79.7812V400ZM84.29 389.172C85.916 389.172 86.8652 390.042 86.8652 391.562V391.58C86.8652 393.101 85.916 393.979 84.29 393.979H82.0488V389.172H84.29ZM91.6641 400H99.75V398.093H93.9316V387.317H91.6641V400ZM101.253 400H103.626L104.681 396.722H109.374L110.438 400H112.811L108.311 387.317H105.753L101.253 400ZM106.957 389.673H107.106L108.812 394.973H105.252L106.957 389.673ZM114.99 400H117.179V391.264H117.319L123.551 400H125.511V387.317H123.331V396.054H123.19L116.959 387.317H114.99V400ZM128.648 400H136.857V398.093H130.916V394.463H136.532V392.661H130.916V389.225H136.857V387.317H128.648V400Z" fill="#6F7683"/>
<path d="M48 290C48 287.791 49.7909 286 52 286H153C155.209 286 157 287.791 157 290V297H48V290Z" fill="#EE0000"/>
<path d="M239 212C239 209.791 240.791 208 243 208H344C346.209 208 348 209.791 348 212V219H239V212Z" fill="#EE0000"/>
<path d="M430 134C430 131.791 431.791 130 434 130H535C537.209 130 539 131.791 539 134V141H430V134Z" fill="#EE0000"/>
<path d="M621 56C621 53.7909 622.791 52 625 52H726C728.209 52 730 53.7909 730 56V63H621V56Z" fill="#EE0000"/>
</svg>
