<svg width="16" height="16" viewBox="0 0 16 16" xmlns="http://www.w3.org/2000/svg"><g clip-path="url(#a)"><path fill-rule="evenodd" clip-rule="evenodd" d="m15.247 1.153.724 2.916a1 1 0 0 1-.73 1.212l-4.355 1.081c.073.205.112.42.114.638a1.99 1.99 0 0 1-.277 1l3.149 5.504A1 1 0 0 1 13 15a1 1 0 0 1-.868-.5L8.991 9a2 2 0 0 1-1.96-1.682l-2.99.743a1 1 0 0 1-1.215-.73v-.016l-1.342.333a1 1 0 0 1-1.212-.729l-.233-.942a1 1 0 0 1 .73-1.212l1.342-.336-.005-.017a1 1 0 0 1 .73-1.212l11.2-2.776a1 1 0 0 1 1.211.729ZM7.13 9.506a1 1 0 0 1 .665.383A1 1 0 0 1 7.869 11l-2 3.5A1 1 0 0 1 5 15a.988.988 0 0 1-.795-.39 1 1 0 0 1-.073-1.11l2-3.5a1 1 0 0 1 .998-.494Z"/></g><defs><clipPath id="a"><path fill="#fff" d="M0 0h16v16H0z"/></clipPath></defs></svg>