<svg width="16" height="16" viewBox="0 0 16 16" xmlns="http://www.w3.org/2000/svg"><g clip-path="url(#a)"><path d="M15.333 12H.667a.666.666 0 0 0-.667.667v2.666c0 .369.298.667.667.667h14.666a.666.666 0 0 0 .667-.667v-2.666a.666.666 0 0 0-.667-.667ZM8.549.955 8 .16l-.549.794C7.015 1.587 6 3.148 6 4c0 1.103.897 2 2 2s2-.897 2-2c0-.852-1.015-2.413-1.451-3.045Zm4.784 6.378H2.667A.666.666 0 0 0 2 8v2.667h12V8a.666.666 0 0 0-.667-.667Z"/></g><defs><clipPath id="a"><path d="M0 0h16v16H0z"/></clipPath></defs></svg>