<svg width="16" height="16" viewBox="0 0 16 16" xmlns="http://www.w3.org/2000/svg"><path fill-rule="evenodd" clip-rule="evenodd" d="M8 1c-1.873 0-3.65.759-4.948 2.052L.9.9.2 7.3l6.4-.7-2.135-2.135A5.023 5.023 0 0 1 8 3c2.757 0 5 2.243 5 5 0 1.06-.327 2.072-.947 2.928l1.621 1.173A6.96 6.96 0 0 0 15 8c0-3.86-3.141-7-7-7ZM2.502 12.333a6.996 6.996 0 0 1-1.405-3.168l1.973-.331a4.982 4.982 0 0 0 1.003 2.26l-1.571 1.239Zm4.332 2.57a7.015 7.015 0 0 1-2.976-1.259l1.186-1.611c.624.459 1.358.77 2.122.898l-.332 1.972Zm2.001-1.973.33 1.973a6.997 6.997 0 0 0 3.098-1.351l-1.219-1.586a4.99 4.99 0 0 1-2.209.964ZM9 5V4H7v3.778a1 1 0 0 0 .257.669l2 2.222.669.743 1.486-1.338-.669-.743L9 7.394V5Z"/></svg>