<svg width="16" height="16" viewBox="0 0 16 16" xmlns="http://www.w3.org/2000/svg" fill="currentColor"><g clip-path="url(#a)"><path d="M12.5 2c-.242 0-.482.026-.719.075a4.482 4.482 0 0 0-7.562 0A3.5 3.5 0 1 0 3.5 9h9a3.5 3.5 0 1 0 0-7ZM3 10v1.586l-.945.945c-.1-.02-.203-.03-.305-.031a1.75 1.75 0 1 0 1.75 1.75 1.7 1.7 0 0 0-.031-.3l1.238-1.238A1 1 0 0 0 5 12v-2H3Zm6 2.818V10H7v2.818a1.75 1.75 0 1 0 2 0Zm5.25-.318c-.1.002-.201.012-.3.031l-.95-.945V10h-2v2a1 1 0 0 0 .293.707l1.238 1.238a1.6 1.6 0 0 0-.031.3 1.75 1.75 0 1 0 1.75-1.75v.005Z"/></g><defs><clipPath id="a"><path fill="#fff" d="M0 0h16v16H0z"/></clipPath></defs></svg>