<svg width="16" height="16" viewBox="0 0 16 16" xmlns="http://www.w3.org/2000/svg"><g clip-path="url(#a)"><path fill-rule="evenodd" clip-rule="evenodd" d="M1.915 6.483c-.055.009-.11.014-.165.017A1.75 1.75 0 1 1 3.5 4.75c-.002.29-.077.573-.217.826l2.468 2.468L7.112 3.25a1.75 1.75 0 1 1 1.776 0l1.361 4.794 2.468-2.468a1.726 1.726 0 0 1-.217-.826 1.75 1.75 0 1 1 1.75 1.75 1.485 1.485 0 0 1-.165-.017L12.462 12H3.538L1.915 6.483ZM2 14h12a1 1 0 1 1 0 2H2a1 1 0 1 1 0-2Z"/></g><defs><clipPath id="a"><path fill="#fff" d="M0 0h16v16H0z"/></clipPath></defs></svg>