<svg width="16" height="16" viewBox="0 0 16 16" xmlns="http://www.w3.org/2000/svg"><g clip-path="url(#a)"><path fill-rule="evenodd" clip-rule="evenodd" d="M0 8c0-4.4 3.6-8 8-8s8 3.6 8 8-3.6 8-8 8-8-3.6-8-8Zm4.1 4.6C5.2 13.5 6.5 14 8 14c3.3 0 6-2.7 6-6 0-1.3-.4-2.5-1-3.5-1 .3-2.8.3-3 .3-.555 0-.733-.314-1.032-.844A11.63 11.63 0 0 0 8.7 3.5a6.424 6.424 0 0 0-.415-.472C7.977 2.7 7.63 2.328 7.5 2c-1.1.1-2 .5-2.8 1 .7.8 1.4 2.3.7 3.1-.266.354-.786.61-1.283.855C3.49 7.264 2.9 7.555 2.9 8c0 .423.397.895.807 1.382.172.205.345.411.493.618.6.8.5 1.8-.1 2.6Zm3.9-4c-.1-1.1 1-1.9 2.2-1.9 1.3 0 2.2.8 2.2 1.9.1 2-2.5 4.4-3.8 3.9-.667-.303-.635-.754-.574-1.62.04-.56.092-1.297-.026-2.28Z"/></g><defs><clipPath id="a"><path fill="#fff" d="M0 0h16v16H0z"/></clipPath></defs></svg>