<svg width="16" height="16" viewBox="0 0 16 16" fill="none" xmlns="http://www.w3.org/2000/svg">
<g clip-path="url(#clip0_650_2942)">
<path fill-rule="evenodd" clip-rule="evenodd" d="M-1.39876e-06 8C-6.29444e-07 3.6 3.6 6.29445e-07 8 1.39877e-06C12.4 0 16 3.6 16 8C16 12.4 12.4 16 8 16C3.6 16 0 12.4 -1.39876e-06 8ZM4.1 12.6C5.2 13.5 6.5 14 8 14C11.3 14 14 11.3 14 8C14 6.7 13.6 5.5 13 4.5C12 4.8 10.2 4.8 10 4.8C9.44488 4.8 9.2671 4.48556 8.96792 3.95642C8.88984 3.81831 8.80349 3.66558 8.7 3.5C8.59678 3.36237 8.44621 3.20107 8.28494 3.02831C7.9775 2.69896 7.63119 2.32797 7.5 2C6.4 2.1 5.5 2.5 4.7 3C5.4 3.8 6.1 5.3 5.4 6.1C5.13441 6.45412 4.61409 6.71027 4.1166 6.95519C3.49021 7.26356 2.9 7.55412 2.9 8C2.9 8.42282 3.29728 8.8953 3.70689 9.38245C3.87854 9.58658 4.05235 9.79329 4.2 10C4.8 10.8 4.7 11.8 4.1 12.6ZM8.00001 8.6C7.90001 7.5 9.00001 6.7 10.2 6.7C11.5 6.7 12.4 7.5 12.4 8.6C12.5 10.6 9.90001 13 8.60002 12.5C7.93268 12.1967 7.96463 11.7461 8.02603 10.8804C8.06583 10.3191 8.11801 9.58333 8.00001 8.6Z" fill="black"/>
</g>
<defs>
<clipPath id="clip0_650_2942">
<rect width="16" height="16" fill="white"/>
</clipPath>
</defs>
</svg>
