<svg width="16" height="16" viewBox="0 0 16 16" xmlns="http://www.w3.org/2000/svg"><g clip-path="url(#a)"><path fill-rule="evenodd" clip-rule="evenodd" d="M11.6 3 14.3.3c.4-.4 1-.4 1.4 0 .4.4.4 1 0 1.4l-14 14c-.2.2-.4.3-.7.3-.3 0-.5-.1-.7-.3-.4-.4-.4-1 0-1.4l2.5-2.5C1.8 10.9.9 9.9.4 9.1c-.5-.6-.5-1.5 0-2.2C1.6 5.1 4.4 2 8 2c1.3 0 2.5.4 3.6 1ZM5 8c0 .5.1.9.3 1.3l4-4C8.9 5.1 8.5 5 8 5 6.3 5 5 6.3 5 8Zm1.4 5.8 8.2-8.2c.175.22.35.42.51.6.202.232.378.432.49.6.5.7.5 1.6 0 2.3-1.2 1.8-4 4.9-7.6 4.9-.5 0-1.1-.1-1.6-.2Z"/></g><defs><clipPath id="a"><path fill="#fff" d="M0 0h16v16H0z"/></clipPath></defs></svg>