<svg width="16" height="16" viewBox="0 0 16 16" fill="none" xmlns="http://www.w3.org/2000/svg">
<g clip-path="url(#clip0_587_2664)">
<path d="M16 8.04799C16.0003 6.51908 15.5625 5.02209 14.7385 3.73427C13.9144 2.44646 12.7385 1.42176 11.3501 0.781499C9.96173 0.141242 8.41893 -0.0877531 6.90442 0.121627C5.38991 0.331008 3.96712 0.969994 2.80451 1.96293C1.6419 2.95586 0.788165 4.26115 0.344396 5.72425C-0.0993733 7.18734 -0.114591 8.74696 0.300544 10.2184C0.71568 11.6899 1.54378 13.0116 2.68679 14.027C3.82981 15.0425 5.23986 15.7091 6.75 15.948V10.36H4.719V8.04799H6.75V6.28499C6.70627 5.87344 6.7536 5.45731 6.88863 5.06609C7.02366 4.67487 7.24309 4.31814 7.53136 4.02118C7.81964 3.72422 8.1697 3.4943 8.55674 3.34772C8.94379 3.20114 9.35833 3.14149 9.771 3.17299C10.371 3.18088 10.9696 3.23302 11.562 3.32899V5.29999H10.554C10.3823 5.27754 10.2077 5.29398 10.0432 5.34811C9.87874 5.40224 9.72853 5.49266 9.6037 5.61268C9.47887 5.73271 9.38263 5.87927 9.3221 6.04151C9.26157 6.20376 9.23829 6.37754 9.254 6.54999V8.04999H11.473L11.118 10.362H9.25V15.953C11.1322 15.6552 12.8464 14.6954 14.0838 13.2462C15.3213 11.797 16.0008 9.95364 16 8.04799Z" fill="black"/>
</g>
<defs>
<clipPath id="clip0_587_2664">
<rect width="16" height="16" fill="white"/>
</clipPath>
</defs>
</svg>
