<svg width="16" height="16" viewBox="0 0 16 16" xmlns="http://www.w3.org/2000/svg"><g clip-path="url(#a)"><path d="M1 0h14a1 1 0 0 1 1 1v10a1 1 0 0 1-1 1h-5l-6 4v-4H1a1 1 0 0 1-1-1V1a1 1 0 0 1 1-1Z"/><path d="m11.572 4.646-2.158-.329-.966-2.049c-.169-.357-.728-.357-.897 0l-.964 2.05-2.159.328c-.408.062-.574.59-.277.894l1.562 1.595-.368 2.252c-.07.426.358.754.725.552L8 8.876l1.93 1.063c.364.2.796-.122.726-.552l-.369-2.252L11.85 5.54c.297-.304.131-.832-.277-.894Z" fill="#fff"/></g><defs><clipPath id="a"><path fill="#fff" d="M0 0h16v16H0z"/></clipPath></defs></svg>