<svg width="16" height="16" viewBox="0 0 16 16" xmlns="http://www.w3.org/2000/svg"><path fill-rule="evenodd" clip-rule="evenodd" d="M9 6h6v9c0 .6-.4 1-1 1H2c-.6 0-1-.4-1-1V1c0-.6.4-1 1-1h7v6Zm2-6v4h4l-4-4Zm.5 11.773c0-.615-.514-1.117-1.146-1.117h-.114c-.086.003-.638.036-1.411.163a3.728 3.728 0 0 1-.767-.966l.08-.247c.045-.175.233-.978.233-1.59A1.03 1.03 0 0 0 7.333 7a1.03 1.03 0 0 0-1.041 1.016c0 .01.005.873.43 1.889a14.97 14.97 0 0 1-.79 1.755c-.668.306-1.22.674-1.64 1.093a1.022 1.022 0 0 0-.292.75c0 .558.467 1.013 1.04 1.013.335 0 .63-.158.846-.424.228-.311.571-.815.947-1.483a10.48 10.48 0 0 1 1.675-.485c.42.29.898.524 1.42.695.141.047.293.072.449.072.63 0 1.123-.491 1.123-1.118Zm-4.167-3.96c.115 0 .209.09.209.203 0 .462-.128 1.056-.179 1.275a4.36 4.36 0 0 1-.238-1.275c0-.112.094-.204.208-.204ZM5.208 13.62c-.102.142-.375.083-.375-.162a.2.2 0 0 1 .055-.139c.28-.28.62-.517.99-.719a13.61 13.61 0 0 1-.67 1.02Zm1.618-1.883a11.6 11.6 0 0 1 1.378-.386 4.564 4.564 0 0 1-.776-.969c-.18.46-.38.913-.602 1.355Zm3.84.058c0 .155-.13.282-.288.282a.585.585 0 0 1-.183-.029 4.845 4.845 0 0 1-1.011-.46c.59-.09 1.006-.116 1.06-.12h.11c.172 0 .313.137.313.327Z"/></svg>