<svg width="16" height="16" viewBox="0 0 16 16" xmlns="http://www.w3.org/2000/svg"><g clip-path="url(#a)"><g clip-path="url(#b)"><path d="M15.333 3.333h-7l-2-2.666H.667A.667.667 0 0 0 0 1.333v12a2 2 0 0 0 2 2h12a2 2 0 0 0 2-2V4a.666.666 0 0 0-.667-.667Zm-8 8.667H5.286a2.633 2.633 0 0 1-2.62-2.581v-.094A2.63 2.63 0 0 1 5.25 6.667h2.084V8h-2a1.324 1.324 0 0 0-.97.4A1.29 1.29 0 0 0 4 9.321v.073a1.315 1.315 0 0 0 1.321 1.273h2.012V12Zm2-3.333a.667.667 0 1 1 0 1.333H6.667a.667.667 0 0 1 0-1.333h2.666Zm4 .675A2.631 2.631 0 0 1 10.751 12H8.667v-1.333h2.072A1.298 1.298 0 0 0 12 9.347v-.074A1.296 1.296 0 0 0 10.68 8H8.666V6.667h2a2.649 2.649 0 0 1 2.666 2.581v.094Z"/></g></g><defs><clipPath id="a"><path fill="#fff" d="M0 0h16v16H0z"/></clipPath><clipPath id="b"><path fill="#fff" d="M0 0h16v16H0z"/></clipPath></defs></svg>