<svg width="16" height="16" viewBox="0 0 16 16" fill="none" xmlns="http://www.w3.org/2000/svg">
<g clip-path="url(#clip0_1707_3082)">
<path d="M15.5 4H7.768L5.916 1.223C5.87038 1.15445 5.80854 1.09823 5.73597 1.05932C5.6634 1.02042 5.58234 1.00004 5.5 1H0.5C0.367392 1 0.240215 1.05268 0.146447 1.14645C0.0526784 1.24021 0 1.36739 0 1.5L0 13C0 13.5304 0.210714 14.0391 0.585786 14.4142C0.960859 14.7893 1.46957 15 2 15H14C14.5304 15 15.0391 14.7893 15.4142 14.4142C15.7893 14.0391 16 13.5304 16 13V4.5C16 4.36739 15.9473 4.24021 15.8536 4.14645C15.7598 4.05268 15.6326 4 15.5 4Z" fill="black"/>
</g>
<defs>
<clipPath id="clip0_1707_3082">
<rect width="16" height="16" fill="white"/>
</clipPath>
</defs>
</svg>
