<svg width="16" height="16" viewBox="0 0 16 16" xmlns="http://www.w3.org/2000/svg"><g clip-path="url(#a)"><path d="M8 0C3.6 0 0 3.6 0 8s3.6 8 8 8 8-3.6 8-8-3.6-8-8-8Zm2 5c.6 0 1 .4 1 1s-.4 1-1 1-1-.4-1-1 .4-1 1-1ZM6 5c.6 0 1 .4 1 1s-.4 1-1 1-1-.4-1-1 .4-1 1-1Zm5.2 7.9c-.1 0-.2.1-.3.1-.4 0-.8-.3-.9-.7-.4-.8-1.2-1.3-2-1.3s-1.6.5-1.9 1.3c-.2.5-.8.8-1.3.6-.5-.2-.8-.8-.6-1.3C4.8 10.1 6.3 9 8 9c1.7 0 3.2 1.1 3.8 2.7.2.5-.1 1.1-.6 1.2Z"/></g><defs><clipPath id="a"><path fill="#fff" d="M0 0h16v16H0z"/></clipPath></defs></svg>