<svg width="16" height="16" viewBox="0 0 16 16" xmlns="http://www.w3.org/2000/svg"><g clip-path="url(#a)"><path d="m15.621 7.015-1.8-.451A5.99 5.99 0 0 0 13.13 4.9l.956-1.593a.5.5 0 0 0-.075-.611l-.711-.707a.5.5 0 0 0-.611-.075L11.1 2.87a5.99 5.99 0 0 0-1.664-.69L8.985.379A.5.5 0 0 0 8.5 0h-1a.5.5 0 0 0-.485.379l-.451 1.8A5.992 5.992 0 0 0 4.9 2.87l-1.593-.956a.5.5 0 0 0-.611.075l-.707.711a.5.5 0 0 0-.075.611L2.87 4.9a5.99 5.99 0 0 0-.69 1.664l-1.8.451A.5.5 0 0 0 0 7.5v1a.5.5 0 0 0 .379.485l1.8.451c.145.586.378 1.147.691 1.664l-.956 1.593a.5.5 0 0 0 .075.611l.707.707a.5.5 0 0 0 .611.075L4.9 13.13a5.989 5.989 0 0 0 1.664.69l.451 1.8A.5.5 0 0 0 7.5 16h1a.5.5 0 0 0 .485-.379l.451-1.8a5.988 5.988 0 0 0 1.664-.69l1.593.956a.5.5 0 0 0 .611-.075l.707-.707a.5.5 0 0 0 .075-.611L13.13 11.1a5.988 5.988 0 0 0 .69-1.664l1.8-.451A.5.5 0 0 0 16 8.5v-1a.5.5 0 0 0-.379-.485ZM8 11a3 3 0 1 1 0-6 3 3 0 0 1 0 6Z"/></g><defs><clipPath id="a"><path fill="#fff" d="M0 0h16v16H0z"/></clipPath></defs></svg>