<svg width="16" height="16" viewBox="0 0 16 16" xmlns="http://www.w3.org/2000/svg"><g clip-path="url(#a)"><path d="M6 9c.6 0 1 .4 1 1v5c0 .6-.4 1-1 1H1c-.6 0-1-.4-1-1v-5c0-.6.4-1 1-1h5Zm9 0c.6 0 1 .4 1 1v5c0 .6-.4 1-1 1h-5c-.6 0-1-.4-1-1v-5c0-.6.4-1 1-1h5ZM1 15h5v-5H1v5ZM6 0c.6 0 1 .4 1 1v5c0 .6-.4 1-1 1H1c-.6 0-1-.4-1-1V1c0-.6.4-1 1-1h5Zm9 0c.6 0 1 .4 1 1v5c0 .6-.4 1-1 1h-5c-.6 0-1-.4-1-1V1c0-.6.4-1 1-1h5ZM1 6h5V1H1v5Zm9 0h5V1h-5v5Z"/></g><defs><clipPath id="a"><path fill="#fff" d="M0 0h16v16H0z"/></clipPath></defs></svg>