<svg width="16" height="16" viewBox="0 0 16 16" xmlns="http://www.w3.org/2000/svg"><g clip-path="url(#a)"><path d="M11.024 8.94a.667.667 0 0 0-.943.943l1.88 1.88-.878.878-1.88-1.88a.666.666 0 1 0-.942.942l1.704 1.706c-.48.2-1 .286-1.52.251-.047.47-.232.917-.534 1.282.25.043.503.065.757.067a4.656 4.656 0 0 0 3.3-1.365l1.405-1.424a.666.666 0 0 0-.004-.94l-2.345-2.34Zm-9.81-.37a2.43 2.43 0 0 1 .682-.466A4.035 4.035 0 0 1 6.055 2.06l.288-.289c.283-.282.592-.537.924-.76A5.379 5.379 0 0 0 .88 9.001c.094-.156.206-.3.333-.43Zm6.078 3.617L4.147 9.042a1.74 1.74 0 0 0-2.462 2.462l3.146 3.145a1.74 1.74 0 1 0 2.461-2.462Z"/><path d="M14.424 2.243a5.38 5.38 0 0 0-7.61 0l-3.09 3.09.471.472a2.083 2.083 0 0 0 2.943 0L8.333 4.61l5.616 5.717.476-.476a5.38 5.38 0 0 0 0-7.61h-.001Z"/></g><defs><clipPath id="a"><path fill="#fff" d="M0 0h16v16H0z"/></clipPath></defs></svg>