<svg width="16" height="16" viewBox="0 0 16 16" fill="none" xmlns="http://www.w3.org/2000/svg">
<g clip-path="url(#clip0_650_2743)">
<path d="M12.424 5.603L7 5V1.5C7 0.672 6.328 0 5.5 0C4.672 0 4 0.672 4 1.5V9H3V7H2.5C1.672 7 1 7.672 1 8.5V10.333C1 11.415 1.351 12.468 2 13.333L4 16H13L14.966 9.446C15.504 7.652 14.285 5.809 12.424 5.603ZM8 13H7V8H8V13ZM11 13H10V8H11V13Z" fill="black"/>
</g>
<defs>
<clipPath id="clip0_650_2743">
<rect width="16" height="16" fill="white"/>
</clipPath>
</defs>
</svg>
