<svg width="16" height="16" viewBox="0 0 16 16" xmlns="http://www.w3.org/2000/svg"><path fill="currentColor" d="M12.5 12c-1.807 0-3.24-1.199-4.5-2.463C6.74 10.801 5.307 12 3.5 12 1.57 12 0 10.206 0 8s1.57-4 3.5-4C5.307 4 6.74 5.199 8 6.463 9.26 5.199 10.693 4 12.5 4 14.43 4 16 5.794 16 8s-1.57 4-3.5 4ZM9.501 8c.973.958 1.936 1.714 2.999 1.714.827 0 1.5-.769 1.5-1.714s-.673-1.714-1.5-1.714c-1.063 0-2.026.756-2.999 1.714ZM3.5 6.286C2.673 6.286 2 7.055 2 8s.673 1.714 1.5 1.714c1.063 0 2.026-.756 2.999-1.714-.973-.958-1.936-1.714-2.999-1.714Z"/></svg>