<svg width="16" height="16" viewBox="0 0 16 16" xmlns="http://www.w3.org/2000/svg"><g clip-path="url(#a)"><path fill-rule="evenodd" clip-rule="evenodd" d="m5.3 10.7.7.7L7.4 10l-.7-.7c-1-1-1-2.6 0-3.6l3-3c1-1 2.6-1 3.6 0s1 2.6 0 3.6l-.7.7L14 8.4l.7-.7c1.8-1.8 1.8-4.6 0-6.4-.9-.8-2-1.3-3.2-1.3-1.2 0-2.3.4-3.2 1.3l-3 3c-1.8 1.8-1.8 4.6 0 6.4Zm-4 4c.9.8 2 1.3 3.2 1.3 1.2 0 2.4-.5 3.2-1.3l3-3c1.8-1.8 1.8-4.6 0-6.4l-.7-.7L8.6 6l.7.7c1 1 1 2.6 0 3.6l-3 3c-1 1-2.6 1-3.6 0s-1-2.6 0-3.6l.7-.7L2 7.6l-.7.7c-1.8 1.8-1.8 4.6 0 6.4Z"/></g><defs><clipPath id="a"><path fill="#fff" d="M0 0h16v16H0z"/></clipPath></defs></svg>