<svg width="16" height="16" viewBox="0 0 16 16" xmlns="http://www.w3.org/2000/svg"><g clip-path="url(#a)"><path d="M15.3 0H.7C.3 0 0 .3 0 .7v14.7c0 .3.3.6.7.6h14.7c.4 0 .7-.3.7-.7V.7c-.1-.4-.4-.7-.8-.7ZM4.7 13.6H2.4V6h2.4v7.6h-.1ZM3.6 5c-.8 0-1.4-.7-1.4-1.4 0-.8.6-1.4 1.4-1.4.8 0 1.4.6 1.4 1.4-.1.7-.7 1.4-1.4 1.4Zm10 8.6h-2.4V9.9c0-.9 0-2-1.2-2s-1.4 1-1.4 2v3.8H6.2V6h2.3v1c.3-.6 1.1-1.2 2.2-1.2 2.4 0 2.8 1.6 2.8 3.6v4.2h.1Z"/></g><defs><clipPath id="a"><path fill="#fff" d="M0 0h16v16H0z"/></clipPath></defs></svg>