<svg width="16" height="16" viewBox="0 0 16 16" xmlns="http://www.w3.org/2000/svg"><g clip-path="url(#a)" fill="currentColor"><path d="m11.805 6.195-2-2a.666.666 0 0 0-.943 0L.195 12.862a.666.666 0 0 0 0 .943l2 2a.665.665 0 0 0 .943 0l8.667-8.667a.666.666 0 0 0 0-.943ZM8.667 8.391 7.609 7.333 9.333 5.61l1.058 1.058L8.667 8.39Zm6.666-6.724c-.551 0-1-.449-1-1a.667.667 0 0 0-1.333 0c0 .551-.449 1-1 1A.667.667 0 0 0 12 3c.551 0 1 .449 1 1a.667.667 0 0 0 1.333 0c0-.551.449-1 1-1a.667.667 0 0 0 0-1.333Zm-8.666 0c-.552 0-1-.449-1-1a.667.667 0 0 0-1.334 0c0 .551-.448 1-1 1a.667.667 0 0 0 0 1.333c.552 0 1 .449 1 1a.667.667 0 0 0 1.334 0c0-.551.448-1 1-1a.667.667 0 0 0 0-1.333Zm5.333 10c.551 0 1 .448 1 1a.667.667 0 0 0 1.333 0c0-.552.449-1 1-1a.667.667 0 0 0 0-1.334c-.551 0-1-.448-1-1a.667.667 0 0 0-1.333 0c0 .552-.449 1-1 1a.667.667 0 0 0 0 1.334Z"/></g><defs><clipPath id="a"><path fill="#fff" d="M0 0h16v16H0z"/></clipPath></defs></svg>