<svg width="16" height="16" viewBox="0 0 16 16" xmlns="http://www.w3.org/2000/svg"><g clip-path="url(#a)"><path d="M1.112 11.853V6.706h.048l2.622 5.147h.977V4.158H3.642v5.119h-.048L.986 4.157H0v7.696h1.112Zm7.525-7.695H6.255v7.695h1.178V9.271h1.195c1.287 0 2.02-1.099 2.02-2.548 0-1.438-.724-2.565-2.011-2.565Zm.811 2.565c0 .857-.388 1.353-1.038 1.353h-.981V5.37h.981c.65 0 1.038.49 1.038 1.353Zm1.893 3.033c.053 1.218.786 2.244 2.3 2.244C15.148 12 16 11.019 16 9.587c0-1.291-.637-1.889-1.6-2.17l-.926-.277c-.523-.146-.815-.45-.815-.913 0-.598.388-1.032 1.038-1.032.632 0 1.02.423 1.095.976h1.116C15.852 4.987 15.067 4 13.706 4c-1.313 0-2.225.919-2.225 2.328 0 1.167.584 1.855 1.51 2.126l.92.276c.619.186.916.462.916.998 0 .631-.389 1.066-1.121 1.066-.703 0-1.148-.44-1.226-1.038h-1.14Z"/></g><defs><clipPath id="a"><path fill="#fff" d="M0 0h16v16H0z"/></clipPath></defs></svg>