<svg width="16" height="16" viewBox="0 0 16 16" xmlns="http://www.w3.org/2000/svg"><g clip-path="url(#a)"><path d="m15.086 10.4-3.137-1.392a1.542 1.542 0 0 0-1.824.442l-.947 1.185a12.427 12.427 0 0 1-3.813-3.812l1.184-.946a1.54 1.54 0 0 0 .444-1.826L5.6.914A1.539 1.539 0 0 0 3.807.049L1.155.738a1.545 1.545 0 0 0-1.14 1.706 15.976 15.976 0 0 0 13.542 13.541 1.544 1.544 0 0 0 1.705-1.139l.688-2.653a1.533 1.533 0 0 0-.864-1.793Z"/></g><defs><clipPath id="a"><path fill="#fff" d="M0 0h16v16H0z"/></clipPath></defs></svg>