<svg width="16" height="16" viewBox="0 0 16 16" xmlns="http://www.w3.org/2000/svg"><path fill="transparent" d="M0 0h16v16H0z"/><g clip-path="url(#a)"><path fill="transparent" d="M-499-260H941v900H-499z"/><g clip-path="url(#b)"><path fill-rule="evenodd" clip-rule="evenodd" d="M6.783.934a2 2 0 0 1 2.434 0l5.68 4.355a2 2 0 0 1 .694 2.176l-2.193 7.123A2 2 0 0 1 11.486 16H4.514a2 2 0 0 1-1.911-1.412L.409 7.465a2 2 0 0 1 .695-2.176L6.783.934Zm-4.919 6.59 1.909 6.198 1.216-1.75-1.123-3.769-2.002-.68Zm9.257 7.042-1.237-1.78H6.116l-1.237 1.78h6.242Zm-.153-2.656 1.16-3.704 2.008-.683-1.909 6.2-1.259-1.813Zm-.992-1.429-.868-1.25 1.409-.478-.541 1.728ZM8 10.072l.888 1.28H7.112L8 10.072ZM5.46 8.745l1.432.487-.9 1.296-.532-1.783ZM2.286 6.16l1.964.667 3.066-2.321V2.3l-5.03 3.86Zm5.03 1.71-1.453-.495 1.453-1.1v1.594Zm1.368-1.595v1.594l1.453-.494-1.453-1.1Zm0-3.973v2.204l3.066 2.322 1.964-.668-5.03-3.858Z"/></g></g><defs><clipPath id="a"><path fill="#fff" transform="translate(-499 -260)" d="M0 0h1440v900H0z"/></clipPath><clipPath id="b"><path fill="#fff" d="M0 0h16v16H0z"/></clipPath></defs></svg>