<svg width="16" height="16" viewBox="0 0 16 16" xmlns="http://www.w3.org/2000/svg">
<g id="scatter-chart-solid">
<g id="Vector">
<path d="M3.97159 12.5341C4.29616 12.5341 4.61756 12.4702 4.91743 12.346C5.21729 12.2217 5.48976 12.0397 5.71927 11.8102C5.94878 11.5807 6.13083 11.3082 6.25504 11.0083C6.37925 10.7085 6.44318 10.3871 6.44318 10.0625C6.44318 9.73793 6.37925 9.41653 6.25504 9.11666C6.13083 8.8168 5.94878 8.54433 5.71927 8.31482C5.48976 8.08531 5.21729 7.90326 4.91743 7.77905C4.61756 7.65484 4.29616 7.59091 3.97159 7.59091C3.31608 7.59091 2.68743 7.85131 2.22391 8.31482C1.7604 8.77833 1.5 9.40699 1.5 10.0625C1.5 10.718 1.7604 11.3467 2.22391 11.8102C2.68743 12.2737 3.31608 12.5341 3.97159 12.5341Z" fill="black"/>
<path d="M7.26705 5.94318C7.92255 5.94318 8.55121 5.68278 9.01472 5.21927C9.47824 4.75576 9.73864 4.1271 9.73864 3.47159C9.73864 2.81608 9.47824 2.18743 9.01472 1.72391C8.55121 1.2604 7.92255 1 7.26705 1C6.61154 1 5.98288 1.2604 5.51937 1.72391C5.05585 2.18743 4.79545 2.81608 4.79545 3.47159C4.79545 4.1271 5.05585 4.75576 5.51937 5.21927C5.98288 5.68278 6.61154 5.94318 7.26705 5.94318Z" fill="black"/>
<path d="M11.8807 15.5C12.5362 15.5 13.1648 15.2396 13.6284 14.7761C14.0919 14.3126 14.3523 13.6839 14.3523 13.0284C14.3523 12.3729 14.0919 11.7442 13.6284 11.2807C13.1648 10.8172 12.5362 10.5568 11.8807 10.5568C11.2252 10.5568 10.5965 10.8172 10.133 11.2807C9.66949 11.7442 9.40909 12.3729 9.40909 13.0284C9.40909 13.6839 9.66949 14.3126 10.133 14.7761C10.5965 15.2396 11.2252 15.5 11.8807 15.5Z" fill="black"/>
</g>
</g>
</svg>
