<svg width="16" height="16" viewBox="0 0 16 16" xmlns="http://www.w3.org/2000/svg"><g clip-path="url(#a)"><path fill-rule="evenodd" clip-rule="evenodd" d="M12.2 2.3c.4-.4 1-.4 1.4 0C15.1 3.8 16 5.8 16 8s-.9 4.2-2.4 5.7c-.2.2-.4.3-.7.3-.2 0-.5-.1-.7-.3-.4-.4-.4-1 0-1.4C13.4 11.1 14 9.6 14 8c0-1.6-.6-3.1-1.8-4.3-.4-.4-.4-1 0-1.4ZM2 8c0-1.6.6-3.1 1.8-4.3.4-.4.4-1 0-1.4-.4-.4-1-.4-1.4 0C.9 3.8 0 5.8 0 8s.9 4.2 2.4 5.7c.2.2.5.3.7.3.3 0 .5-.1.7-.3.4-.4.4-1 0-1.4C2.6 11.1 2 9.6 2 8Zm6 3a3 3 0 1 0 0-6 3 3 0 0 0 0 6Z"/></g><defs><clipPath id="a"><path fill="#fff" d="M0 0h16v16H0z"/></clipPath></defs></svg>