<svg width="16" height="16" viewBox="0 0 16 16" xmlns="http://www.w3.org/2000/svg"><g clip-path="url(#a)"><path d="M8 0C3.6 0 0 3.6 0 8s3.6 8 8 8 8-3.6 8-8-3.6-8-8-8Zm2 5c.6 0 1 .4 1 1s-.4 1-1 1-1-.4-1-1 .4-1 1-1ZM6 5c.6 0 1 .4 1 1s-.4 1-1 1-1-.4-1-1 .4-1 1-1Zm6.8 4.2C12.3 11.5 10.3 13 8 13s-4.3-1.5-4.8-3.7c-.2-.6.1-1.1.7-1.3.5-.1 1.1.2 1.2.8C5.4 10.1 6.6 11 8 11s2.6-.9 2.9-2.2c.1-.6.7-.9 1.2-.8.6.2.9.7.7 1.2Z"/></g><defs><clipPath id="a"><path fill="#fff" d="M0 0h16v16H0z"/></clipPath></defs></svg>