<svg width="16" height="16" viewBox="0 0 16 16" xmlns="http://www.w3.org/2000/svg"><g clip-path="url(#a)"><path fill-rule="evenodd" clip-rule="evenodd" d="M8.2 1c1.873 0 3.65.759 4.948 2.052L15.3.9l.7 6.4-5.025-.55c.017.079.025.162.025.25 0 .6-.4 1-1 1s-1-.4-1-1 .4-1 1-1c.065 0 .127.005.186.014l1.549-1.549A5.024 5.024 0 0 0 8.2 3c-2.757 0-5 2.243-5 5 0 1.06.327 2.072.947 2.928l-1.621 1.173A6.96 6.96 0 0 1 1.2 8c0-3.86 3.141-7 7-7Zm5.498 11.333a6.996 6.996 0 0 0 1.405-3.168l-1.973-.331a4.982 4.982 0 0 1-1.003 2.26l1.571 1.239Zm-1.356 1.311a7.015 7.015 0 0 1-2.976 1.259l-.332-1.972a4.992 4.992 0 0 0 2.122-.898l1.186 1.611Zm-4.977-.714-.33 1.973a6.997 6.997 0 0 1-3.098-1.351l1.219-1.586a4.99 4.99 0 0 0 2.209.964ZM7 7c0-.6-.4-1-1-1s-1 .4-1 1 .4 1 1 1 1-.4 1-1Zm-2 3h6V9H5v1Z"/></g><defs><clipPath id="a"><path fill="#fff" d="M0 0h16v16H0z"/></clipPath></defs></svg>