<svg width="16" height="16" viewBox="0 0 16 16" xmlns="http://www.w3.org/2000/svg"><g clip-path="url(#a)"><path fill-rule="evenodd" clip-rule="evenodd" d="M14 7.829V14H2V2h6.172l2-2H1a1 1 0 0 0-1 1v14a1 1 0 0 0 1 1h14a1 1 0 0 0 1-1V5.828l-2 2.001ZM15.4.6a2.175 2.175 0 0 0-3 0L8.7 4.3a4.75 4.75 0 0 1 1.916 1.244 5.28 5.28 0 0 1 1.065 1.775L15.4 3.6a2.175 2.175 0 0 0 0-3Zm-11.863 12s.2-4.5 1.4-5.7a2.9 2.9 0 0 1 4.2 0 2.987 2.987 0 0 1 0 4.2c-1.2 1.1-5.6 1.5-5.6 1.5Z"/></g><defs><clipPath id="a"><path fill="#fff" d="M0 0h16v16H0z"/></clipPath></defs></svg>