<svg width="16" height="16" viewBox="0 0 16 16" xmlns="http://www.w3.org/2000/svg"><g clip-path="url(#a)"><path fill-rule="evenodd" clip-rule="evenodd" d="M9 0H7v2h2V0Zm5.294 3.052L12.88 1.637 11.465 3.05l1.414 1.414 1.415-1.413ZM14 7h2v2h-2V7Zm-2.465 6.02 1.415 1.413 1.414-1.415-1.415-1.413-1.414 1.414ZM7 16v-2h2v2H7Zm-5.434-3.052 1.414 1.415 1.415-1.413-1.414-1.415-1.415 1.413ZM0 7h2v2H0V7Zm4.465-3.88L3.05 1.707 1.636 3.12l1.415 1.414L4.465 3.12ZM4 8c0-2.2 1.8-4 4-4s4 1.8 4 4-1.8 4-4 4-4-1.8-4-4Z"/></g><defs><clipPath id="a"><path fill="#fff" d="M0 0h16v16H0z"/></clipPath></defs></svg>