<svg width="16" height="16" viewBox="0 0 16 16" fill="none" xmlns="http://www.w3.org/2000/svg">
<g clip-path="url(#clip0_609_3305)">
<path fill-rule="evenodd" clip-rule="evenodd" d="M9 1.57361e-06L7 1.22392e-06L7 2L9 2L9 1.57361e-06ZM14.294 3.05155L12.8802 1.63675L11.4654 3.05055L12.8792 4.46535L14.294 3.05155ZM14 7L16 7L16 9L14 9L14 7ZM11.5353 13.0194L12.9501 14.4332L14.3639 13.0184L12.9491 11.6046L11.5353 13.0194ZM7 16L7 14L9 14L9 16L7 16ZM1.56618 12.9485L2.97998 14.3633L4.39478 12.9495L2.98098 11.5347L1.56618 12.9485ZM-1.22392e-06 7L2 7L2 9L-1.57361e-06 9L-1.22392e-06 7ZM4.4646 3.12033L3.0498 1.70653L1.636 3.12133L3.0508 4.53513L4.4646 3.12033ZM4 8C4 5.8 5.8 4 8 4C10.2 4 12 5.8 12 8C12 10.2 10.2 12 8 12C5.8 12 4 10.2 4 8Z" fill="black"/>
</g>
<defs>
<clipPath id="clip0_609_3305">
<rect width="16" height="16" fill="white"/>
</clipPath>
</defs>
</svg>
