<svg width="16" height="16" viewBox="0 0 16 16" xmlns="http://www.w3.org/2000/svg"><g clip-path="url(#a)"><path fill-rule="evenodd" clip-rule="evenodd" d="M15.04 1.52A.75.75 0 1 0 13.96.48l-1.742 1.806H2a2 2 0 0 0-2 2v7.428a2 2 0 0 0 1.314 1.88l-.854.885a.75.75 0 0 0 1.08 1.042l13.5-14ZM2.873 11.978l-.494.512H1.143l2.661-8.606h1.837l1.219 3.96-2.347 2.433H3.351l-.478 1.7Zm4.766-1.604 1.529-1.586v.852c0 1.835.907 2.932 2.301 2.932.895 0 1.616-.473 1.808-1.153h.075v1.072h1.505V3.428h-.522l.777-.806A2 2 0 0 1 16 4.285v7.428a2 2 0 0 1-2 2H4.417l1.974-2.048.232.823H8.29l-.652-2.116Zm5.684-3.558V4.478l-1.256 1.303c.577.146 1.005.515 1.186 1.034h.07Zm0 1.853c0-1.002-.558-1.633-1.325-1.633-.773 0-1.261.637-1.261 1.778v.65c0 1.147.494 1.79 1.284 1.79.779 0 1.302-.63 1.302-1.72v-.865Zm-7.636.34-.97-3.48h-.07l-.97 3.48h2.01Z"/></g><defs><clipPath id="a"><path fill="#fff" d="M0 0h16v16H0z"/></clipPath></defs></svg>