<svg width="16" height="16" viewBox="0 0 16 16" fill="none" xmlns="http://www.w3.org/2000/svg">
<g clip-path="url(#clip0_788_2918)">
<path d="M15.7 5.7L10.3 0.3C9.9 -0.1 9.3 -0.1 8.9 0.3C8.5 0.7 8.5 1.3 8.9 1.7L9.5 2.3L2.7 6L1.7 5C1.3 4.6 0.7 4.6 0.3 5C-0.1 5.4 -0.1 6 0.3 6.4L1.8 7.9L4.2 10.3L0.6 14L2 15.4L5.7 11.7L9.7 15.7C10.2 16.2 10.9 15.9 11.1 15.7C11.5 15.3 11.5 14.7 11.1 14.3L10.1 13.3L13.8 6.6L14.4 7.2C15 7.8 15.6 7.4 15.8 7.2C16.1 6.8 16.1 6.1 15.7 5.7Z" fill="black"/>
</g>
<defs>
<clipPath id="clip0_788_2918">
<rect width="16" height="16" fill="white"/>
</clipPath>
</defs>
</svg>
