<svg width="16" height="16" viewBox="0 0 16 16" fill="none" xmlns="http://www.w3.org/2000/svg">
<g clip-path="url(#clip0_219_2133)">
<path fill-rule="evenodd" clip-rule="evenodd" d="M9 6H14C14.2954 5.99708 14.5875 6.06175 14.8541 6.18908C15.1206 6.3164 15.3545 6.503 15.5379 6.73461C15.7212 6.96621 15.8492 7.23668 15.9119 7.52534C15.9747 7.81399 15.9706 8.11317 15.9 8.4L14.9 13.6C14.7796 14.2789 14.4219 14.8929 13.8907 15.3325C13.3595 15.7721 12.6894 16.0087 12 16H4V7L7 2.84123e-06C7.26683 -0.0160364 7.53402 0.0247069 7.78394 0.119543C8.03386 0.214379 8.26082 0.36115 8.44984 0.550166C8.63885 0.739181 8.78562 0.966142 8.88046 1.21606C8.9753 1.46598 9.01604 1.73318 9 2V6ZM0.999994 6.99999H1.99999V16H0.999994C0.86658 16.008 0.732983 15.9876 0.608023 15.9402C0.483063 15.8928 0.369583 15.8194 0.275075 15.7249C0.180567 15.6304 0.107182 15.5169 0.0597638 15.392C0.0123458 15.267 -0.00802585 15.1334 -6.20878e-06 15V7.99999C-0.00802585 7.86658 0.0123458 7.73298 0.0597638 7.60802C0.107182 7.48306 0.180567 7.36958 0.275075 7.27507C0.369583 7.18057 0.483063 7.10718 0.608023 7.05976C0.732983 7.01235 0.86658 6.99197 0.999994 6.99999Z" fill="black"/>
</g>
<defs>
<clipPath id="clip0_219_2133">
<rect width="16" height="16" fill="white"/>
</clipPath>
</defs>
</svg>
