<svg width="16" height="16" viewBox="0 0 16 16" fill="none" xmlns="http://www.w3.org/2000/svg">
<path fill-rule="evenodd" clip-rule="evenodd" d="M4 8C4 7.44772 4.29848 7 4.66667 7H11.3333C11.7015 7 12 7.44772 12 8C12 8.55228 11.7015 9 11.3333 9H4.66667C4.29848 9 4 8.55228 4 8Z" fill="black"/>
<path fill-rule="evenodd" clip-rule="evenodd" d="M4 11C4 10.4477 4.29848 10 4.66667 10H11.3333C11.7015 10 12 10.4477 12 11C12 11.5523 11.7015 12 11.3333 12H4.66667C4.29848 12 4 11.5523 4 11Z" fill="black"/>
<path d="M15 1H12V3H14V14H2V3H4V1H1C0.4 1 0 1.4 0 2V15C0 15.6 0.4 16 1 16H15C15.6 16 16 15.6 16 15V2C16 1.4 15.6 1 15 1Z" fill="black"/>
<path d="M11 0H5V4H11V0Z" fill="black"/>
</svg>
