<svg width="16" height="16" viewBox="0 0 16 16" xmlns="http://www.w3.org/2000/svg"><g clip-path="url(#a)"><path d="m7.548 9.55.634-1.805a8.59 8.59 0 0 1-1.875-.828A7.423 7.423 0 0 0 7.416 5.3c.311-.611.541-1.26.684-1.931.589 0 .979.02 1.419.06V1.62c-.482.052-.966.075-1.45.07H5.687v-.61c0-.205.02-.41.06-.61H3.738c.041.204.061.412.06.62v.6H1.589A12.32 12.32 0 0 1 .14 1.62v1.809c.5-.04.839-.06 1.429-.06a8.8 8.8 0 0 0 .69 1.709 8.7 8.7 0 0 0 1.289 1.829A10.892 10.892 0 0 1 0 8.216c.42.53.745 1.128.959 1.769a12.816 12.816 0 0 0 3.979-1.839 11.58 11.58 0 0 0 2.61 1.404Zm-4.06-6.181h2.649a5.635 5.635 0 0 1-1.25 2.418 5.7 5.7 0 0 1-1.399-2.418ZM13.717 16l-.725-2.379H9.349L8.624 16H6.341L9.868 5.965h2.591L16 16h-2.283Zm-1.231-4.156-1.131-3.657a10.295 10.295 0 0 1-.181-.67c-.15.583-.581 2.025-1.292 4.327h2.604Z"/></g><defs><clipPath id="a"><path fill="#fff" d="M0 0h16v16H0z"/></clipPath></defs></svg>