<svg width="16" height="16" viewBox="0 0 16 16" fill="none" xmlns="http://www.w3.org/2000/svg">
<path d="M8.70218 2.72541C8.62504 2.60991 8.5206 2.51523 8.39811 2.44975C8.27563 2.38427 8.13889 2.35001 8 2.35001C7.86111 2.35001 7.72437 2.38427 7.60189 2.44975C7.4794 2.51523 7.37496 2.60991 7.29782 2.72541L1.60888 12.4779C1.53762 12.6013 1.50007 12.7413 1.5 12.8838C1.49993 13.0263 1.53734 13.1664 1.60847 13.2899C1.67961 13.4134 1.78197 13.516 1.90528 13.5874C2.0286 13.6589 2.16854 13.6966 2.31106 13.6969H13.6889C13.8315 13.6966 13.9714 13.6589 14.0947 13.5874C14.218 13.516 14.3204 13.4134 14.3915 13.2899C14.4627 13.1664 14.5001 13.0263 14.5 12.8838C14.4999 12.7413 14.4624 12.6013 14.3911 12.4779L8.70218 2.72541Z" fill="black"/>
</svg>
