<svg width="16" height="16" viewBox="0 0 16 16" xmlns="http://www.w3.org/2000/svg"><g clip-path="url(#a)"><path fill-rule="evenodd" clip-rule="evenodd" d="m13.3 5.2 1.8 1.2c.6.4.9 1 .9 1.7v.8c0 .6-.4 1-1 1h-3.4c0-.1-1.2-1-1.2-1 .4-.7.6-1.6.6-2.5v-1c0-1.6-.7-3-1.8-4C9.7.5 10.7-.2 11.9 0 13.1.2 14 1.4 14 2.6v.9c0 .7-.3 1.3-.7 1.7ZM7.5 9.4l2.7 2c.5.4.8 1 .8 1.6v2c0 .6-.4 1-1 1H1c-.6 0-1-.4-1-1v-1.9c0-.6.3-1.2.8-1.6l2.7-2.1C2.6 8.7 2 7.7 2 6.5v-1c0-2 1.7-3.6 3.7-3.5C7.6 2.1 9 3.8 9 5.7v.8c0 1.2-.6 2.2-1.5 2.9Z"/></g><defs><clipPath id="a"><path fill="#fff" d="M0 0h16v16H0z"/></clipPath></defs></svg>