<svg width="16" height="16" viewBox="0 0 16 16" fill="none" xmlns="http://www.w3.org/2000/svg">
<g clip-path="url(#clip0_1279_3726)">
<path fill-rule="evenodd" clip-rule="evenodd" d="M13.3 5.2L15.1 6.4C15.7 6.8 16 7.4 16 8.1V8.9C16 9.5 15.6 9.9 15 9.9H11.6C11.6 9.8 10.4 8.9 10.4 8.9C10.8 8.2 11 7.3 11 6.4V5.4C11 3.8 10.3 2.4 9.20001 1.4C9.70001 0.499998 10.7 -0.200002 11.9 -1.70991e-06C13.1 0.199998 14 1.4 14 2.6V3.5C14 4.2 13.7 4.8 13.3 5.2ZM7.5 9.4L10.2 11.4C10.7 11.8 11 12.4 11 13V15C11 15.6 10.6 16 10 16H1C0.4 16 0 15.6 0 15L0 13.1C0 12.5 0.3 11.9 0.8 11.5L3.5 9.4C2.6 8.7 2 7.7 2 6.5V5.5C2 3.5 3.7 1.9 5.7 2C7.6 2.1 9 3.8 9 5.7V6.5C9 7.7 8.4 8.7 7.5 9.4Z" fill="black"/>
</g>
<defs>
<clipPath id="clip0_1279_3726">
<rect width="16" height="16" fill="white"/>
</clipPath>
</defs>
</svg>
