<svg width="16" height="16" viewBox="0 0 16 16" xmlns="http://www.w3.org/2000/svg"><g clip-path="url(#a)"><path fill-rule="evenodd" clip-rule="evenodd" d="M1 0h14c.552 0 1 .512 1 1.143v13.714c0 .686-.4 1.143-1 1.143H1c-.6 0-1-.457-1-1.143V1.143C0 .512.448 0 1 0Z"/><path d="M11.428 5.714h-.754l.175-1.048a.571.571 0 1 0-1.127-.188l-.206 1.237h-2.27l.175-1.049a.571.571 0 1 0-1.127-.188l-.206 1.237h-.945a.571.571 0 1 0 0 1.143h.754l-.38 2.286H4.57a.571.571 0 1 0 0 1.143h.755l-.175 1.049a.571.571 0 0 0 1.127.188l.206-1.237h2.27l-.175 1.049a.571.571 0 0 0 1.127.188l.206-1.237h.945a.571.571 0 1 0 0-1.143h-.754l.38-2.286h.945a.571.571 0 1 0 0-1.143Zm-2.484 3.43h-2.27l.382-2.287h2.27l-.382 2.286Z" fill="#fff"/></g><defs><clipPath id="a"><path fill="#fff" d="M0 0h16v16H0z"/></clipPath></defs></svg>