<svg width="16" height="16" viewBox="0 0 16 16" xmlns="http://www.w3.org/2000/svg"><g clip-path="url(#a)"><path d="M15.966 9.104c-.14.5-1.455 4.896-4.388 4.896-2.917 0-4.215-5.2-4.375-5.791C6.88 6.74 5.738 3.714 4.4 3.714c-1.472 0-2.566 2.722-2.833 3.675-.128.453-.573.71-.996.576C.147 7.83-.093 7.35.034 6.896.174 6.396 1.489 2 4.4 2c2.94 0 4.238 5.2 4.376 5.794.345 1.44 1.487 4.492 2.802 4.492 1.473 0 2.568-2.722 2.833-3.675.128-.454.574-.709.996-.575.446.135.686.615.559 1.068Z"/></g><defs><clipPath id="a"><path fill="#fff" d="M0 0h16v16H0z"/></clipPath></defs></svg>