<svg width="16" height="16" viewBox="0 0 16 16" fill="none" xmlns="http://www.w3.org/2000/svg">
<g clip-path="url(#clip0_717_2791)">
<path d="M15.9659 9.10357C15.8259 9.60446 14.5108 14 11.5782 14C8.6605 14 7.36292 8.80089 7.20291 8.20893C6.88039 6.74107 5.73783 3.71429 4.40025 3.71429C2.92766 3.71429 1.8336 6.43571 1.56683 7.38929C1.43932 7.84196 0.993796 8.09911 0.570771 7.96518C0.147221 7.82857 -0.0930184 7.34911 0.0339391 6.89643C0.174572 6.39554 1.48907 2 4.40025 2C7.34042 2 8.638 7.19911 8.77551 7.79375C9.12053 9.23482 10.2631 12.2857 11.5782 12.2857C13.0513 12.2857 14.1458 9.56429 14.4108 8.61071C14.5386 8.15696 14.9851 7.9025 15.4069 8.03562C15.8534 8.17143 16.0934 8.65089 15.9659 9.10357Z" fill="black"/>
</g>
<defs>
<clipPath id="clip0_717_2791">
<rect width="16" height="16" fill="white"/>
</clipPath>
</defs>
</svg>
