<svg width="16" height="16" viewBox="0 0 16 16" xmlns="http://www.w3.org/2000/svg"><g clip-path="url(#a)"><path d="M13.63 2.437V2h-.212l-.136.156.348.281ZM8.278 8.558l-.255.363.34.22.264-.302-.349-.28Zm-1.34-.868-.348-.28-.325.371.419.272.255-.363Zm3.44-3.94.35.28.106-.121v-.16h-.455Zm0-1.313h.456V2h-.455v.437Zm-1.9 0V2h-.212l-.136.156.349.281Zm-3.49 3.991-.254.362.34.22.263-.301-.349-.281Zm-1.313-.849-.35-.28-.324.372.42.27.254-.362Zm1.598-1.83.35.282.106-.122v-.16h-.456Zm0-1.312h.456V2h-.456v.437Zm-1.902 0V2H3.16l-.137.156.35.281ZM.538 5.68.19 5.4l.35.28Zm-.083.095-.349-.28-.106.28h.455Zm0 1.985H0v.233l.2.13.255-.363Zm8.75 5.658-.254.362.34.22.263-.302-.349-.28Zm6.317-7.242.35.28.004-.005.004-.006-.358-.27Zm.023-.028.358.27L16 6.3v-.15h-.455Zm0-3.711H16V2h-.455v.437Zm-.203 3.65.35.28.106-.122v-.159h-.456Zm-6.182 7.08-.254.362.34.22.263-.301-.349-.28ZM.662 7.665H.206v.232l.201.13.255-.362Zm0-1.672.254-.362-.71.362h.456Zm8.25 5.34-.255.363.34.22.264-.302-.35-.28Zm6.43-7.362h.456V2.77l-.805.92.35.281ZM.706 5.787l-.349-.28.094.642.255-.362Zm2.76-3.156v-.437h-.212l-.136.156.348.281Zm1.605 0h.455v-.437h-.455v.437Zm0 1.049.35.28.105-.121v-.16h-.455ZM3.377 5.622l-.349-.28-.324.37.418.272.255-.362Zm1.65 1.07-.256.362.34.22.264-.301-.349-.28Zm3.547-4.06v-.438H8.36l-.136.156.349.281Zm1.619 0h.455v-.438h-.455v.437Zm0 1.048.348.281.107-.122v-.16h-.455ZM6.639 7.73l-.348-.282-.326.372.42.272.254-.363Zm1.678 1.085-.255.362.34.22.263-.301-.348-.281Zm5.406-6.184v-.437l-.348.156.348.281Zm1.62 0h.455a.446.446 0 0 0-.456-.437v.437Zm0 1.037.348.281.107-.122v-.159h-.456Zm-6.476 7.408-.255.362.34.22.264-.302-.349-.28Zm4.415-8.92L7.929 8.278l.698.561 5.352-6.121-.697-.562Zm-4.749 6.04-1.34-.868-.51.725 1.34.868.51-.725Zm-1.245-.225 3.44-3.94-.698-.562-3.44 3.94.698.562Zm3.546-4.221V2.437h-.91V3.75h.91ZM10.379 2h-1.9v.874h1.9V2Zm-2.25.156L4.64 6.147l.698.562 3.49-3.991-.697-.562Zm-2.887 3.91-1.313-.85-.509.726 1.314.848.508-.724ZM4.024 5.86l1.598-1.83-.698-.561-1.598 1.83.698.561Zm1.705-2.11V2.437h-.911V3.75h.91ZM5.273 2H3.371v.874h1.902V2Zm-2.25.156L.188 5.4l.698.561L3.72 2.718l-.698-.562ZM.188 5.4l-.083.095.698.56.083-.094L.19 5.4ZM0 5.775V7.76h.91V5.775H0Zm.2 2.348 8.75 5.657.51-.725L.71 7.398l-.51.725Zm9.354 5.575 6.317-7.242-.698-.561-6.317 7.242.698.561Zm6.326-7.253.023-.027-.716-.54-.023.028.716.54Zm.12-.297V2.437h-.91v3.711H16ZM15.545 2H13.63v.874h1.915V2Zm-.552 3.806-6.181 7.08.697.562 6.182-7.081-.698-.561Zm-5.578 6.999L.916 7.303l-.509.724 8.499 5.502.51-.724Zm-8.298-5.14V5.993h-.91v1.672h.91Zm-.71-1.31 8.25 5.341.51-.724L.916 5.63l-.51.724Zm8.854 5.26 6.43-7.363-.698-.561-6.43 7.362.698.561Zm5.626-7.644v2.115h.91V3.971h-.91ZM1.055 6.068l2.76-3.156-.697-.562-2.76 3.156.697.562Zm2.411-3h1.605v-.874H3.466v.874Zm1.15-.437V3.68h.91V2.63h-.91Zm.106.768L3.028 5.342l.698.56L5.42 3.96l-.698-.56Zm-1.6 2.585 1.65 1.07.51-.724-1.65-1.07-.51.724Zm2.253.989 3.548-4.061-.698-.562-3.547 4.061.697.562Zm3.199-3.905h1.619v-.874h-1.62v.874Zm1.163-.437V3.68h.91V2.63h-.91Zm.107.767-3.553 4.05.696.563 3.554-4.05-.697-.563Zm-3.46 4.694 1.678 1.085.51-.724-1.678-1.086-.51.725Zm2.281 1.004 5.407-6.184-.697-.562-5.407 6.184.697.562Zm5.059-6.028h1.618v-.874h-1.619v.874Zm1.163-.437v1.037h.91V2.631h-.91Zm.107.756-6.476 7.408.698.561L15.69 3.95l-.697-.562Zm-5.872 7.326L.96 5.425l-.51.724 8.161 5.289.51-.725Z"/></g><defs><clipPath id="a"><path fill="#fff" d="M0 0h16v16H0z"/></clipPath></defs></svg>