<svg width="16" height="16" viewBox="0 0 16 16" xmlns="http://www.w3.org/2000/svg"><g clip-path="url(#a)"><path fill-rule="evenodd" clip-rule="evenodd" d="m9.046 11.643.747-2.054 1.079 2.942c.096.263.327.436.584.436h1.481c.27 0 .51-.19.597-.472l2.432-7.84a.765.765 0 0 0-.04-.555.644.644 0 0 0-.398-.345l-.98-.281-.007-.002-.871-.241c-.31-.086-.629.098-.742.429l-.976 2.837L10.75 2.83a.648.648 0 0 0-.44-.418c-.308-.083-.775-.204-1.14-.298-.315-.082-.633.113-.74.45l-.59 1.879-.791 2.31-2.714-5.61a.64.64 0 0 0-.42-.35L.768.015a.6.6 0 0 0-.632.25.757.757 0 0 0-.07.738L6.547 15.61c.11.25.344.402.595.39a.638.638 0 0 0 .56-.449l1.343-3.908Z"/></g><defs><clipPath id="a"><path fill="#fff" d="M0 0h16v16H0z"/></clipPath></defs></svg>