<svg width="730" height="350" viewBox="0 0 730 350" fill="none" xmlns="http://www.w3.org/2000/svg">
<rect width="730" height="350" rx="8" fill="#E3E6EC"/>
<path d="M57.3042 95.3638L61.0226 88.3988C63.0205 89.5828 64.7502 90.3875 66.2116 90.813C67.6916 91.22 69.2455 91.4235 70.8735 91.4235C73.0194 91.4235 74.6011 91.0165 75.6186 90.2025C76.636 89.3701 77.1448 88.2416 77.1448 86.8171C77.1448 85.4482 76.7378 84.403 75.9238 83.6815C75.1098 82.9415 73.6114 82.3218 71.4285 81.8223C66.9886 80.8049 63.7605 79.3619 61.744 77.4935C59.7276 75.625 58.7194 73.0166 58.7194 69.6682C58.7194 66.3014 60.0236 63.4432 62.632 61.0938C65.2404 58.7259 68.894 57.5419 73.5929 57.5419C75.5538 57.5419 77.4777 57.7639 79.3647 58.2079C81.2516 58.6519 83.046 59.2994 84.748 60.1503L81.3904 67.2263C79.8549 66.3569 78.412 65.7371 77.0615 65.3671C75.7111 64.9972 74.4531 64.8122 73.2876 64.8122C71.4932 64.8122 70.0965 65.1637 69.0975 65.8666C68.0986 66.5696 67.5991 67.5778 67.5991 68.8913C67.5991 70.0937 68.0523 71.0187 68.9588 71.6662C69.8838 72.3137 71.5302 72.9056 73.8981 73.4421C78.2085 74.4226 81.3256 75.884 83.2495 77.8265C85.1735 79.7689 86.1354 82.5068 86.1354 86.0402C86.1354 89.814 84.8035 92.8664 82.1396 95.1973C79.4942 97.5283 75.6463 98.6937 70.596 98.6937C68.3946 98.6937 66.0914 98.407 63.6865 97.8335C61.2816 97.2415 59.1541 96.4183 57.3042 95.3638ZM117.076 86.2899H98.5393C98.6872 88.3433 99.3717 89.8695 100.593 90.8685C101.832 91.8675 103.534 92.3669 105.699 92.3669C106.512 92.3669 107.632 92.1265 109.056 91.6455C110.499 91.146 111.896 90.369 113.246 89.3146L117.131 94.2816C115.189 95.8171 113.191 96.9363 111.137 97.6393C109.084 98.3422 106.818 98.6937 104.339 98.6937C99.751 98.6937 96.1898 97.4265 93.6554 94.8921C91.121 92.3392 89.8538 88.7873 89.8538 84.2365C89.8538 79.7041 91.195 76.0135 93.8774 73.1646C96.5598 70.3157 99.9545 68.8913 104.061 68.8913C108.002 68.8913 111.156 70.0845 113.524 72.4709C115.892 74.8388 117.076 78.2889 117.076 82.8213V86.2899ZM108.945 80.9066C108.945 78.7052 108.529 77.142 107.696 76.217C106.882 75.2735 105.652 74.8018 104.006 74.8018C102.6 74.8018 101.379 75.3475 100.343 76.439C99.3255 77.5305 98.7057 79.0197 98.4838 80.9066H108.945ZM150.152 94.7534C150.152 99.4337 148.672 103.365 145.713 106.547C142.771 109.747 138.452 111.347 132.754 111.347C130.756 111.347 128.897 111.172 127.176 110.82C125.474 110.469 123.708 109.904 121.876 109.127L124.401 103.189C125.807 103.781 127.167 104.207 128.48 104.466C129.794 104.743 131.283 104.882 132.948 104.882C135.686 104.882 137.776 104.077 139.219 102.468C140.662 100.877 141.384 98.777 141.384 96.1686V93.9209H141.273C140.274 95.5118 139.034 96.705 137.554 97.5005C136.074 98.296 134.363 98.6937 132.421 98.6937C128.776 98.6937 125.891 97.4173 123.763 94.8644C121.654 92.293 120.6 88.8798 120.6 84.625C120.6 79.7966 121.784 75.9673 124.152 73.1369C126.52 70.3065 129.637 68.8913 133.503 68.8913C135.223 68.8913 136.731 69.2243 138.026 69.8902C139.34 70.5562 140.422 71.5552 141.273 72.8871H141.384V69.585H150.152V94.7534ZM141.495 84.3475V82.0998C141.495 80.3054 140.958 78.7792 139.885 77.5212C138.831 76.2448 137.453 75.6065 135.751 75.6065C133.808 75.6065 132.282 76.365 131.172 77.882C130.062 79.3989 129.507 81.5356 129.507 84.292C129.507 86.6599 130.034 88.5376 131.089 89.925C132.143 91.294 133.586 91.9785 135.418 91.9785C137.249 91.9785 138.72 91.2847 139.83 89.8973C140.94 88.4913 141.495 86.6414 141.495 84.3475ZM171.02 98.6937C166.284 98.6937 162.556 97.3618 159.837 94.6979C157.117 92.034 155.767 88.4358 155.785 83.9035C155.804 79.2047 157.21 75.5325 160.003 72.8871C162.815 70.2232 166.617 68.8913 171.408 68.8913C176.126 68.8913 179.825 70.214 182.508 72.8594C185.19 75.5048 186.531 79.0197 186.531 83.404C186.531 88.1028 185.144 91.8305 182.369 94.5869C179.613 97.3248 175.83 98.6937 171.02 98.6937ZM171.297 91.9785C173.406 91.9785 174.979 91.2755 176.015 89.8695C177.069 88.4636 177.596 86.3639 177.596 83.5705C177.596 80.9251 177.069 78.9364 176.015 77.6045C174.96 76.2725 173.369 75.6065 171.242 75.6065C169.17 75.6065 167.56 76.328 166.413 77.771C165.266 79.1954 164.693 81.2026 164.693 83.7925C164.693 86.5304 165.239 88.5838 166.33 89.9528C167.44 91.3032 169.096 91.9785 171.297 91.9785ZM217.749 86.2899H199.213C199.361 88.3433 200.045 89.8695 201.266 90.8685C202.506 91.8675 204.208 92.3669 206.372 92.3669C207.186 92.3669 208.305 92.1265 209.73 91.6455C211.173 91.146 212.569 90.369 213.92 89.3146L217.805 94.2816C215.862 95.8171 213.864 96.9363 211.811 97.6393C209.757 98.3422 207.491 98.6937 205.012 98.6937C200.424 98.6937 196.863 97.4265 194.329 94.8921C191.794 92.3392 190.527 88.7873 190.527 84.2365C190.527 79.7041 191.868 76.0135 194.551 73.1646C197.233 70.3157 200.628 68.8913 204.735 68.8913C208.675 68.8913 211.829 70.0845 214.197 72.4709C216.565 74.8388 217.749 78.2889 217.749 82.8213V86.2899ZM209.619 80.9066C209.619 78.7052 209.202 77.142 208.37 76.217C207.556 75.2735 206.326 74.8018 204.679 74.8018C203.273 74.8018 202.052 75.3475 201.016 76.439C199.999 77.5305 199.379 79.0197 199.157 80.9066H209.619ZM271.971 80.7679C271.971 86.7431 270.574 91.2292 267.781 94.2261C265.006 97.2045 260.834 98.6937 255.266 98.6937C249.864 98.6937 245.813 97.2415 243.112 94.3371C240.411 91.4142 239.06 87.0021 239.06 81.1008V58.2079H248.051V81.2951C248.051 84.514 248.68 86.9281 249.938 88.5376C251.196 90.147 253.083 90.9517 255.599 90.9517C258.078 90.9517 259.928 90.1748 261.149 88.6208C262.388 87.0669 263.008 84.736 263.008 81.6281V58.2079H271.971V80.7679ZM289.619 98H280.656V58.2079H289.619V98Z" fill="#EE0000"/>
<path d="M73.1035 143H70.7607L67.8791 138.232C67.3403 137.342 66.8795 136.772 66.4969 136.522C66.1142 136.265 65.6496 136.136 65.1029 136.136H63.1701V143H61.2022V126.202H66.2157C67.6761 126.202 68.8904 126.589 69.8588 127.362C70.8349 128.135 71.323 129.275 71.323 130.782C71.323 131.969 71.0145 132.965 70.3976 133.769C69.7807 134.574 68.9334 135.156 67.8557 135.515V135.562C68.2071 135.773 68.5156 136.003 68.7811 136.253C69.0466 136.503 69.3277 136.87 69.6245 137.354L73.1035 143ZM63.1701 127.983V134.355H65.8409C66.8171 134.355 67.6292 134.039 68.2774 133.406C68.9334 132.774 69.2613 131.954 69.2613 130.946C69.2613 130.048 68.9685 129.33 68.3828 128.791C67.8049 128.252 66.9654 127.983 65.8643 127.983H63.1701ZM84.2434 137.436H75.7625C75.7938 138.787 76.1491 139.829 76.8285 140.564C77.5157 141.29 78.4763 141.653 79.7101 141.653C80.249 141.653 80.7878 141.575 81.3266 141.419C81.8733 141.255 82.4121 140.997 82.9431 140.646L83.8334 142.016C83.154 142.453 82.4746 142.774 81.7952 142.977C81.1158 143.18 80.37 143.281 79.5578 143.281C77.7461 143.281 76.3326 142.742 75.3174 141.665C74.3022 140.587 73.7907 139.084 73.7829 137.155C73.7751 135.226 74.2827 133.672 75.3057 132.493C76.3365 131.313 77.6719 130.724 79.3118 130.724C80.8737 130.724 82.0841 131.235 82.9431 132.258C83.81 133.274 84.2434 134.683 84.2434 136.487V137.436ZM82.2755 135.866C82.2676 134.757 81.9982 133.894 81.4672 133.277C80.9362 132.653 80.206 132.34 79.2767 132.34C78.363 132.34 77.586 132.661 76.9456 133.301C76.3131 133.933 75.9265 134.789 75.786 135.866H82.2755ZM97.3981 142.356C97.3981 144.456 96.8592 146.03 95.7815 147.076C94.7117 148.123 93.2435 148.646 91.3771 148.646C90.5572 148.646 89.7919 148.568 89.0812 148.412C88.3784 148.256 87.6521 148.002 86.9024 147.65L87.6053 146.174C88.23 146.463 88.8391 146.674 89.4326 146.807C90.0339 146.94 90.6743 147.006 91.3537 147.006C92.6344 147.006 93.6418 146.643 94.3759 145.917C95.1099 145.19 95.477 144.089 95.477 142.613V140.985H95.4301C94.9772 141.751 94.4071 142.325 93.7199 142.707C93.0327 143.09 92.2283 143.281 91.3068 143.281C89.8153 143.281 88.6127 142.75 87.699 141.688C86.7931 140.618 86.3402 139.185 86.3402 137.389C86.3402 135.421 86.84 133.82 87.8395 132.586C88.8469 131.345 90.1784 130.724 91.834 130.724C92.6461 130.724 93.349 130.888 93.9425 131.216C94.5438 131.536 95.0397 132.02 95.4301 132.668H95.477V131.005H97.3981V142.356ZM95.477 137.576V135.808C95.477 134.855 95.1529 134.039 94.5047 133.359C93.8644 132.68 93.0639 132.34 92.1034 132.34C90.9242 132.34 89.9949 132.746 89.3155 133.559C88.6439 134.371 88.3081 135.605 88.3081 137.26C88.3081 138.681 88.6205 139.771 89.2452 140.528C89.8699 141.286 90.7329 141.665 91.834 141.665C92.9116 141.665 93.7863 141.282 94.4579 140.517C95.1373 139.751 95.477 138.771 95.477 137.576ZM110.986 143H109.065V141.102H109.018C108.62 141.829 108.112 142.375 107.495 142.742C106.878 143.102 106.152 143.281 105.317 143.281C103.888 143.281 102.814 142.856 102.095 142.004C101.385 141.153 101.029 139.876 101.029 138.174V131.005H102.939V137.869C102.939 139.134 103.181 140.083 103.665 140.716C104.149 141.348 104.875 141.665 105.844 141.665C106.781 141.665 107.55 141.321 108.151 140.634C108.761 139.939 109.065 139.033 109.065 137.916V131.005H110.986V143ZM114.875 143V125.242H116.796V143H114.875ZM129.178 143H127.257V141.126H127.21C126.796 141.844 126.284 142.383 125.675 142.742C125.074 143.102 124.371 143.281 123.567 143.281C122.442 143.281 121.533 142.953 120.838 142.297C120.142 141.641 119.795 140.77 119.795 139.685C119.795 138.662 120.146 137.815 120.849 137.143C121.552 136.471 122.548 136.042 123.836 135.855L127.257 135.398V135.128C127.257 134.121 127.022 133.406 126.554 132.985C126.085 132.555 125.461 132.34 124.68 132.34C124.055 132.34 123.454 132.458 122.876 132.692C122.298 132.926 121.755 133.285 121.247 133.769L120.123 132.61C120.795 131.962 121.509 131.485 122.267 131.181C123.024 130.876 123.867 130.724 124.797 130.724C126.249 130.724 127.343 131.099 128.077 131.848C128.811 132.59 129.178 133.707 129.178 135.199V143ZM127.257 138.127V136.932L124.363 137.33C123.481 137.455 122.817 137.678 122.372 137.998C121.927 138.318 121.704 138.822 121.704 139.509C121.704 140.228 121.911 140.778 122.325 141.161C122.747 141.536 123.258 141.723 123.86 141.723C124.898 141.723 125.722 141.383 126.331 140.704C126.948 140.025 127.257 139.166 127.257 138.127ZM138.807 132.645C138.658 132.598 138.525 132.567 138.408 132.551C138.291 132.528 138.143 132.516 137.963 132.516C136.987 132.516 136.218 132.934 135.656 133.769C135.093 134.597 134.812 135.636 134.812 136.885V143H132.891V131.005H134.812V133.383H134.859C135.132 132.54 135.55 131.899 136.112 131.462C136.675 131.017 137.323 130.794 138.057 130.794C138.299 130.794 138.502 130.806 138.666 130.829C138.838 130.853 138.99 130.888 139.123 130.935L138.807 132.645Z" fill="#454A55"/>
<path fill-rule="evenodd" clip-rule="evenodd" d="M153.02 131.999C152.457 131.999 152 132.448 152 133C152 133.069 152.007 133.136 152.019 133.201C152.107 133.655 152.491 134 152.982 134H167.435L161.796 139.276C161.745 139.324 161.7 139.375 161.661 139.43C161.39 139.814 161.421 140.344 161.762 140.69C161.81 140.74 161.863 140.784 161.919 140.822C162.31 141.087 162.849 141.057 163.205 140.725L170.684 133.725C170.886 133.533 171 133.275 171 133C171 133 171 133 171 133C171 132.725 170.886 132.462 170.683 132.276C170.683 132.276 170.683 132.276 170.683 132.276L163.203 125.276C163.072 125.154 162.917 125.072 162.753 125.031C162.535 124.977 162.302 124.994 162.093 125.082C161.972 125.134 161.858 125.21 161.761 125.31C161.712 125.359 161.67 125.413 161.634 125.469C161.382 125.862 161.438 126.39 161.796 126.724L167.435 131.999H153.02Z" fill="#454A55"/>
<path d="M186.073 143V126.202H191.462C193.109 126.202 194.39 126.554 195.304 127.257C196.225 127.952 196.686 128.916 196.686 130.15C196.686 131.079 196.421 131.891 195.89 132.586C195.366 133.274 194.667 133.758 193.793 134.039V134.086C194.902 134.219 195.788 134.644 196.452 135.363C197.116 136.081 197.448 136.991 197.448 138.092C197.448 139.576 196.916 140.767 195.854 141.665C194.792 142.555 193.398 143 191.673 143H186.073ZM188.861 128.44V133.266H190.724C191.661 133.266 192.399 133.039 192.938 132.586C193.484 132.133 193.758 131.497 193.758 130.677C193.758 129.927 193.504 129.369 192.996 129.002C192.496 128.627 191.747 128.44 190.747 128.44H188.861ZM188.861 135.503V140.763H191.251C192.282 140.763 193.082 140.521 193.652 140.036C194.23 139.552 194.519 138.892 194.519 138.057C194.519 137.221 194.222 136.589 193.629 136.159C193.035 135.722 192.172 135.503 191.04 135.503H188.861ZM205.6 143.281C203.726 143.281 202.238 142.723 201.137 141.606C200.044 140.482 199.497 138.978 199.497 137.096C199.505 135.105 200.075 133.547 201.208 132.422C202.34 131.29 203.882 130.724 205.835 130.724C207.717 130.716 209.185 131.271 210.239 132.387C211.301 133.496 211.832 134.999 211.832 136.897C211.832 138.849 211.27 140.403 210.145 141.559C209.029 142.707 207.514 143.281 205.6 143.281ZM205.729 141.114C206.815 141.114 207.639 140.759 208.201 140.048C208.771 139.337 209.056 138.311 209.056 136.967C209.056 135.64 208.771 134.628 208.201 133.933C207.631 133.238 206.803 132.891 205.718 132.891C204.648 132.891 203.804 133.258 203.187 133.992C202.578 134.726 202.274 135.741 202.274 137.038C202.274 138.342 202.578 139.349 203.187 140.06C203.796 140.763 204.644 141.114 205.729 141.114ZM214.608 143V125.242H217.338V143H214.608ZM229.028 141.137C228.599 141.856 228.056 142.395 227.4 142.754C226.744 143.105 225.975 143.281 225.092 143.281C223.593 143.281 222.386 142.75 221.473 141.688C220.567 140.618 220.114 139.15 220.114 137.284C220.114 135.3 220.614 133.711 221.613 132.516C222.621 131.321 223.948 130.724 225.596 130.724C226.4 130.724 227.088 130.876 227.658 131.181C228.228 131.477 228.684 131.93 229.028 132.54H229.075V125.242H231.804V143H229.075V141.137H229.028ZM222.89 137.178C222.89 138.412 223.167 139.377 223.722 140.072C224.276 140.767 225.03 141.114 225.982 141.114C226.912 141.114 227.665 140.767 228.243 140.072C228.821 139.377 229.11 138.482 229.11 137.389V136.019C229.11 135.128 228.833 134.386 228.278 133.793C227.724 133.192 227.013 132.891 226.146 132.891C225.131 132.891 224.335 133.274 223.757 134.039C223.179 134.796 222.89 135.843 222.89 137.178Z" fill="#454A55"/>
<path fill-rule="evenodd" clip-rule="evenodd" d="M247.02 131.999C246.457 131.999 246 132.448 246 133C246 133.069 246.007 133.136 246.019 133.201C246.107 133.655 246.491 134 246.982 134H261.435L255.796 139.276C255.745 139.324 255.7 139.375 255.661 139.43C255.39 139.814 255.421 140.344 255.762 140.69C255.81 140.74 255.863 140.784 255.919 140.822C256.31 141.087 256.849 141.057 257.205 140.725L264.684 133.725C264.886 133.533 265 133.275 265 133C265 133 265 133 265 133C265 132.725 264.886 132.462 264.683 132.276C264.683 132.276 264.683 132.276 264.683 132.276L257.203 125.276C257.072 125.154 256.917 125.072 256.753 125.031C256.535 124.977 256.302 124.994 256.093 125.082C255.972 125.134 255.858 125.21 255.761 125.31C255.712 125.359 255.67 125.413 255.634 125.469C255.382 125.862 255.438 126.39 255.796 126.724L261.435 131.999H247.02Z" fill="#454A55"/>
<path d="M279.921 143V126.202H286.036C287.91 126.202 289.351 126.558 290.358 127.268C291.366 127.979 291.869 128.982 291.869 130.279C291.869 131.177 291.6 131.966 291.061 132.645C290.522 133.317 289.835 133.785 288.999 134.051V134.097C290.077 134.238 290.936 134.668 291.576 135.386C292.217 136.097 292.537 136.963 292.537 137.986C292.537 139.525 291.986 140.747 290.885 141.653C289.784 142.551 288.281 143 286.375 143H279.921ZM283.705 128.99V133.09H285.368C286.149 133.09 286.762 132.903 287.207 132.528C287.66 132.153 287.887 131.638 287.887 130.982C287.887 130.318 287.656 129.822 287.195 129.494C286.735 129.158 286.044 128.99 285.122 128.99H283.705ZM283.705 135.901V140.212H285.755C286.629 140.212 287.313 140.009 287.805 139.603C288.304 139.197 288.554 138.642 288.554 137.94C288.554 137.307 288.308 136.811 287.816 136.452C287.332 136.085 286.653 135.901 285.778 135.901H283.705ZM294.95 143V125.242H298.652V143H294.95ZM311.748 143H308.245V141.278H308.198C307.8 141.95 307.3 142.453 306.699 142.789C306.105 143.125 305.43 143.293 304.672 143.293C303.634 143.293 302.74 142.977 301.99 142.344C301.248 141.704 300.877 140.81 300.877 139.662C300.877 138.553 301.244 137.647 301.978 136.944C302.72 136.241 303.876 135.784 305.446 135.573L308.269 135.199V134.964C308.269 134.394 308.085 133.965 307.718 133.676C307.351 133.379 306.843 133.231 306.195 133.231C305.703 133.231 305.153 133.313 304.544 133.477C303.942 133.641 303.329 133.902 302.705 134.261L301.451 132.071C302.271 131.595 303.083 131.251 303.888 131.04C304.7 130.821 305.582 130.712 306.535 130.712C308.323 130.712 309.639 131.138 310.483 131.989C311.326 132.84 311.748 134.121 311.748 135.831V143ZM308.269 138.127V137.319L306.09 137.6C305.489 137.678 305.036 137.862 304.731 138.15C304.434 138.432 304.286 138.791 304.286 139.228C304.286 139.65 304.43 139.997 304.719 140.271C305.016 140.536 305.414 140.669 305.914 140.669C306.609 140.669 307.175 140.431 307.613 139.954C308.05 139.47 308.269 138.861 308.269 138.127ZM324.317 142.25C323.684 142.61 323.055 142.871 322.431 143.035C321.814 143.207 321.138 143.293 320.404 143.293C318.374 143.293 316.792 142.734 315.66 141.618C314.528 140.501 313.962 139.06 313.962 137.295C313.962 135.257 314.563 133.652 315.766 132.481C316.976 131.302 318.577 130.712 320.568 130.712C321.326 130.712 321.986 130.786 322.548 130.935C323.11 131.075 323.68 131.306 324.258 131.626L322.888 134.109C322.528 133.914 322.177 133.773 321.833 133.687C321.497 133.594 321.127 133.547 320.72 133.547C319.783 133.547 319.049 133.851 318.518 134.461C317.987 135.07 317.722 135.933 317.722 137.049C317.722 138.119 318.018 138.955 318.612 139.556C319.205 140.157 319.924 140.458 320.767 140.458C320.994 140.458 321.302 140.407 321.693 140.306C322.091 140.196 322.493 140.025 322.899 139.79L324.317 142.25ZM338.221 143H333.781L329.951 137.049H329.904V143H326.203V125.242H329.904V136.546H329.951L333.524 131.005H337.916L333.617 136.639L338.221 143Z" fill="#454A55"/>
<path d="M65.2871 226.396L65.1289 235.449H63.9424L63.7842 226.396H65.2871ZM64.5576 239.158C64.2705 239.158 64.0273 239.062 63.8281 238.868C63.6348 238.675 63.5381 238.438 63.5381 238.156C63.5381 237.875 63.6348 237.638 63.8281 237.444C64.0273 237.251 64.2705 237.154 64.5576 237.154C64.8447 237.154 65.085 237.251 65.2783 237.444C65.4775 237.638 65.5771 237.875 65.5771 238.156C65.5771 238.438 65.4775 238.675 65.2783 238.868C65.085 239.062 64.8447 239.158 64.5576 239.158ZM74.7617 226.396V230.325H73.4873V226.396H74.7617ZM77.6797 226.396V230.325H76.4053V226.396H77.6797ZM87.0137 237.919H85.915L86.6533 234.43H84.3506L84.5264 233.498H86.8555L87.3916 230.861H84.957L85.1416 229.93H87.5762L88.3145 226.396H89.4219L88.6836 229.93H90.8984L91.6543 226.396H92.7354L91.9971 229.93H94.3086L94.1064 230.861H91.8125L91.2588 233.498H93.7285L93.4912 234.43H91.0742L90.3008 237.919H89.1934L89.9492 234.43H87.752L87.0137 237.919ZM88.5078 230.861L87.9277 233.498H90.1602L90.7227 230.861H88.5078ZM105.014 239.158V240.837H104.1V239.211C103.314 239.199 102.591 239.064 101.929 238.807C101.267 238.549 100.687 238.197 100.188 237.752L101.05 236.583C101.483 236.981 101.952 237.295 102.456 237.523C102.966 237.746 103.514 237.866 104.1 237.884V233.164C102.963 232.742 102.119 232.268 101.568 231.74C101.023 231.207 100.751 230.51 100.751 229.648C100.751 228.676 101.05 227.891 101.647 227.293C102.245 226.689 103.062 226.332 104.1 226.221V224.797H105.014V226.194C105.623 226.218 106.209 226.341 106.771 226.563C107.334 226.786 107.838 227.082 108.283 227.451L107.272 228.506C106.974 228.23 106.631 228.008 106.244 227.838C105.863 227.662 105.453 227.557 105.014 227.521V231.89C106.221 232.335 107.088 232.836 107.615 233.393C108.143 233.949 108.406 234.696 108.406 235.634C108.406 236.542 108.11 237.321 107.519 237.972C106.927 238.622 106.092 239.018 105.014 239.158ZM104.1 231.538V227.539C103.496 227.615 103.033 227.82 102.711 228.154C102.389 228.488 102.228 228.939 102.228 229.508C102.228 229.977 102.371 230.363 102.658 230.668C102.951 230.967 103.432 231.257 104.1 231.538ZM105.014 233.524V237.822C105.588 237.723 106.051 237.5 106.402 237.154C106.754 236.809 106.93 236.346 106.93 235.766C106.93 235.238 106.777 234.805 106.473 234.465C106.174 234.125 105.688 233.812 105.014 233.524ZM117.828 232.716C116.961 232.716 116.27 232.432 115.754 231.863C115.238 231.289 114.98 230.524 114.98 229.569C114.98 228.526 115.253 227.706 115.798 227.108C116.343 226.505 117.078 226.203 118.004 226.203C118.9 226.203 119.595 226.481 120.087 227.038C120.585 227.595 120.834 228.377 120.834 229.385C120.834 230.393 120.556 231.201 119.999 231.811C119.448 232.414 118.725 232.716 117.828 232.716ZM117.951 227.17C117.395 227.17 116.955 227.378 116.633 227.794C116.311 228.204 116.149 228.77 116.149 229.49C116.149 230.199 116.308 230.753 116.624 231.151C116.94 231.544 117.371 231.74 117.916 231.74C118.467 231.74 118.897 231.535 119.208 231.125C119.519 230.715 119.674 230.146 119.674 229.42C119.674 228.711 119.519 228.16 119.208 227.768C118.903 227.369 118.484 227.17 117.951 227.17ZM126.257 226.388L118.197 239.088H116.94L125 226.388H126.257ZM125.334 239.193C124.467 239.193 123.775 238.906 123.26 238.332C122.744 237.758 122.486 236.996 122.486 236.047C122.486 235.004 122.762 234.181 123.312 233.577C123.863 232.968 124.596 232.663 125.51 232.663C126.4 232.663 127.095 232.944 127.593 233.507C128.091 234.069 128.34 234.857 128.34 235.871C128.34 236.873 128.062 237.679 127.505 238.288C126.954 238.892 126.23 239.193 125.334 239.193ZM125.457 233.656C124.895 233.656 124.452 233.861 124.13 234.271C123.813 234.682 123.655 235.25 123.655 235.977C123.655 236.674 123.813 237.222 124.13 237.62C124.446 238.013 124.877 238.209 125.422 238.209C125.973 238.209 126.403 238.004 126.714 237.594C127.024 237.178 127.18 236.609 127.18 235.889C127.18 235.174 127.024 234.623 126.714 234.236C126.409 233.85 125.99 233.656 125.457 233.656ZM145.769 239L144.257 237.532C143.788 237.978 143.199 238.367 142.49 238.701C141.787 239.035 140.964 239.202 140.021 239.202C138.761 239.202 137.732 238.892 136.936 238.271C136.139 237.649 135.74 236.75 135.74 235.572C135.74 234.711 135.975 233.973 136.443 233.357C136.912 232.736 137.574 232.224 138.43 231.819C137.984 231.315 137.668 230.847 137.48 230.413C137.299 229.974 137.208 229.525 137.208 229.068C137.208 228.143 137.521 227.431 138.148 226.933C138.775 226.435 139.552 226.186 140.478 226.186C141.386 226.186 142.127 226.429 142.701 226.915C143.281 227.396 143.571 228.043 143.571 228.857C143.571 229.549 143.378 230.129 142.991 230.598C142.604 231.066 141.787 231.567 140.539 232.101L144.266 235.687C144.67 235.159 144.963 234.611 145.145 234.043C145.326 233.469 145.417 232.777 145.417 231.969H146.788C146.788 232.871 146.653 233.686 146.384 234.412C146.114 235.139 145.704 235.848 145.153 236.539L147.702 239H145.769ZM139.73 231.301C140.715 230.943 141.374 230.595 141.708 230.255C142.048 229.909 142.218 229.484 142.218 228.98C142.218 228.4 142.027 227.981 141.646 227.724C141.271 227.466 140.882 227.337 140.478 227.337C139.903 227.337 139.443 227.492 139.098 227.803C138.752 228.113 138.579 228.535 138.579 229.068C138.579 229.473 138.676 229.848 138.869 230.193C139.068 230.533 139.355 230.902 139.73 231.301ZM143.378 236.671L139.247 232.646C138.649 232.915 138.16 233.27 137.779 233.709C137.398 234.148 137.208 234.755 137.208 235.528C137.208 236.313 137.478 236.914 138.017 237.33C138.556 237.746 139.224 237.954 140.021 237.954C140.753 237.954 141.395 237.831 141.945 237.585C142.496 237.333 142.974 237.028 143.378 236.671ZM156.008 230.325H154.733V226.396H156.008V230.325ZM167.627 241.865H166.344C165.436 240.828 164.753 239.671 164.296 238.394C163.845 237.11 163.619 235.71 163.619 234.192C163.619 232.663 163.845 231.251 164.296 229.956C164.753 228.655 165.436 227.469 166.344 226.396H167.645C166.725 227.51 166.033 228.714 165.57 230.009C165.113 231.304 164.885 232.692 164.885 234.175C164.885 235.64 165.113 237.014 165.57 238.297C166.027 239.58 166.713 240.77 167.627 241.865ZM174.254 241.865H172.971C173.885 240.77 174.57 239.58 175.027 238.297C175.484 237.014 175.713 235.64 175.713 234.175C175.713 232.692 175.481 231.304 175.019 230.009C174.562 228.714 173.873 227.51 172.953 226.396H174.254C175.168 227.469 175.854 228.655 176.311 229.956C176.768 231.251 176.996 232.663 176.996 234.192C176.996 235.71 176.768 237.11 176.311 238.394C175.854 239.671 175.168 240.828 174.254 241.865ZM189.986 229.297L187.578 229.789L189.248 231.925L188.281 232.593L186.91 230.264L185.521 232.593L184.555 231.925L186.225 229.789L183.799 229.297L184.194 228.198L186.497 229.068L186.295 226.396H187.508L187.306 229.068L189.617 228.198L189.986 229.297ZM205.868 234.342H202.317V237.884H201.148V234.342H197.606V233.164H201.148V229.622H202.317V233.164H205.868V234.342ZM215.606 236.996L214.209 241.32H213.181L214.209 236.996H215.606ZM222.945 234.553V233.419H227.744V234.553H222.945ZM235.777 239.193C235.496 239.193 235.256 239.097 235.057 238.903C234.857 238.704 234.758 238.467 234.758 238.191C234.758 237.922 234.857 237.688 235.057 237.488C235.256 237.289 235.496 237.189 235.777 237.189C236.059 237.189 236.299 237.289 236.498 237.488C236.697 237.688 236.797 237.922 236.797 238.191C236.797 238.467 236.697 238.704 236.498 238.903C236.299 239.097 236.059 239.193 235.777 239.193ZM249.752 226.396L243.802 240.872H242.598L248.548 226.396H249.752ZM259.35 239.22C258.084 239.22 257.103 238.678 256.405 237.594C255.714 236.504 255.368 234.957 255.368 232.953C255.368 230.756 255.731 229.08 256.458 227.926C257.185 226.766 258.236 226.186 259.613 226.186C260.938 226.186 261.928 226.725 262.584 227.803C263.246 228.875 263.577 230.489 263.577 232.646C263.577 234.767 263.205 236.393 262.461 237.523C261.717 238.654 260.68 239.22 259.35 239.22ZM259.543 227.407C258.646 227.407 257.973 227.864 257.521 228.778C257.07 229.687 256.845 231.055 256.845 232.883C256.845 234.582 257.064 235.859 257.504 236.715C257.943 237.564 258.605 237.989 259.49 237.989C260.363 237.989 261.017 237.556 261.45 236.688C261.884 235.821 262.101 234.521 262.101 232.786C262.101 230.993 261.887 229.648 261.459 228.752C261.031 227.855 260.393 227.407 259.543 227.407ZM273.939 239H272.498V228.207C272.281 228.4 271.895 228.629 271.338 228.893C270.787 229.156 270.298 229.344 269.87 229.455L269.457 228.189C270.131 228.014 270.846 227.727 271.602 227.328C272.363 226.93 272.961 226.525 273.395 226.115H273.939V239ZM282.113 239V238.376C282.113 237.837 282.172 237.362 282.289 236.952C282.406 236.542 282.6 236.152 282.869 235.783C283.139 235.414 283.49 235.045 283.924 234.676C284.363 234.307 284.899 233.891 285.532 233.428C285.989 233.1 286.37 232.786 286.675 232.487C286.985 232.188 287.234 231.89 287.422 231.591C287.586 231.345 287.712 231.061 287.8 230.738C287.894 230.416 287.94 230.085 287.94 229.745C287.94 229.054 287.741 228.491 287.343 228.058C286.944 227.624 286.396 227.407 285.699 227.407C285.137 227.407 284.606 227.513 284.108 227.724C283.616 227.935 283.156 228.26 282.729 228.699L281.85 227.855C282.4 227.287 282.995 226.868 283.634 226.599C284.272 226.323 284.987 226.186 285.778 226.186C286.962 226.186 287.861 226.531 288.477 227.223C289.098 227.914 289.408 228.714 289.408 229.622C289.408 230.085 289.344 230.533 289.215 230.967C289.092 231.395 288.916 231.775 288.688 232.109C288.453 232.473 288.166 232.821 287.826 233.155C287.486 233.489 287.082 233.829 286.613 234.175C286.021 234.585 285.532 234.937 285.146 235.229C284.765 235.522 284.463 235.795 284.24 236.047C284.012 236.305 283.851 236.562 283.757 236.82C283.663 237.078 283.616 237.374 283.616 237.708H289.892V239H282.113ZM296.615 238.147L297.283 237.11C297.752 237.415 298.221 237.638 298.689 237.778C299.164 237.919 299.645 237.989 300.131 237.989C301.068 237.989 301.769 237.767 302.231 237.321C302.7 236.876 302.935 236.308 302.935 235.616C302.935 234.761 302.642 234.128 302.056 233.718C301.47 233.302 300.591 233.094 299.419 233.094H298.373V231.872H299.366C300.403 231.872 301.18 231.679 301.695 231.292C302.217 230.905 302.478 230.302 302.478 229.481C302.478 228.813 302.272 228.301 301.862 227.943C301.458 227.586 300.972 227.407 300.403 227.407C299.917 227.407 299.451 227.483 299.006 227.636C298.566 227.788 298.139 228.025 297.723 228.348L296.967 227.39C297.5 226.974 298.048 226.669 298.61 226.476C299.173 226.282 299.791 226.186 300.465 226.186C301.52 226.186 302.363 226.464 302.996 227.021C303.635 227.577 303.954 228.339 303.954 229.306C303.954 230.056 303.743 230.7 303.321 231.239C302.905 231.772 302.278 232.156 301.44 232.391V232.426C302.296 232.52 303.005 232.836 303.567 233.375C304.13 233.908 304.411 234.614 304.411 235.493C304.411 236.653 304.024 237.564 303.251 238.227C302.483 238.889 301.481 239.22 300.245 239.22C299.56 239.22 298.927 239.135 298.347 238.965C297.767 238.795 297.189 238.522 296.615 238.147ZM318.192 226.291V234.764H319.546V236.108H318.192V239.123H316.76V236.108H310.774V234.834C311.331 234.201 311.894 233.527 312.462 232.812C313.03 232.092 313.575 231.362 314.097 230.624C314.612 229.886 315.09 229.147 315.529 228.409C315.969 227.671 316.341 226.965 316.646 226.291H318.192ZM312.418 234.764H316.76V228.488C316.314 229.268 315.893 229.965 315.494 230.58C315.102 231.195 314.727 231.752 314.369 232.25C314.006 232.754 313.66 233.208 313.332 233.612C313.01 234.017 312.705 234.4 312.418 234.764ZM325.839 237.972L326.595 236.996C327.034 237.342 327.482 237.594 327.939 237.752C328.402 237.91 328.906 237.989 329.451 237.989C330.277 237.989 330.957 237.734 331.49 237.225C332.023 236.709 332.29 236.047 332.29 235.238C332.29 234.418 332.015 233.776 331.464 233.313C330.913 232.845 330.113 232.61 329.064 232.61C328.725 232.61 328.355 232.619 327.957 232.637C327.564 232.654 327.222 232.681 326.929 232.716L327.359 226.396H333.187V227.697H328.607L328.353 231.397C328.54 231.386 328.739 231.377 328.95 231.371C329.161 231.359 329.349 231.354 329.513 231.354C330.837 231.354 331.877 231.693 332.633 232.373C333.389 233.047 333.767 233.973 333.767 235.15C333.767 236.375 333.362 237.359 332.554 238.104C331.745 238.848 330.717 239.22 329.469 239.22C328.766 239.22 328.121 239.12 327.535 238.921C326.955 238.716 326.39 238.399 325.839 237.972ZM348.444 235.001C348.444 236.278 348.066 237.301 347.311 238.068C346.561 238.836 345.617 239.22 344.48 239.22C343.221 239.22 342.23 238.722 341.51 237.726C340.795 236.729 340.438 235.306 340.438 233.454C340.438 232.552 340.522 231.635 340.692 230.703C340.868 229.771 341.229 228.919 341.773 228.146C342.26 227.46 342.808 226.962 343.417 226.651C344.032 226.341 344.753 226.186 345.579 226.186C346.024 226.186 346.458 226.256 346.88 226.396C347.302 226.531 347.715 226.745 348.119 227.038L347.398 228.031C347.105 227.814 346.804 227.656 346.493 227.557C346.188 227.457 345.854 227.407 345.491 227.407C344.97 227.407 344.501 227.519 344.085 227.741C343.669 227.958 343.276 228.318 342.907 228.822C342.591 229.256 342.348 229.792 342.178 230.431C342.014 231.069 341.932 231.775 341.932 232.549H341.967C342.324 232.068 342.755 231.711 343.259 231.477C343.769 231.236 344.296 231.116 344.841 231.116C345.931 231.116 346.804 231.479 347.46 232.206C348.116 232.933 348.444 233.864 348.444 235.001ZM346.968 235.106C346.968 234.187 346.754 233.495 346.326 233.032C345.898 232.569 345.345 232.338 344.665 232.338C343.856 232.338 343.212 232.587 342.731 233.085C342.257 233.583 342.02 234.181 342.02 234.878C342.02 235.792 342.251 236.539 342.714 237.119C343.183 237.699 343.792 237.989 344.542 237.989C345.269 237.989 345.854 237.743 346.3 237.251C346.745 236.753 346.968 236.038 346.968 235.106ZM363.096 227.231C362.076 229.019 361.145 230.867 360.301 232.777C359.463 234.688 358.874 236.762 358.534 239H356.987C357.31 236.891 357.913 234.849 358.798 232.874C359.683 230.899 360.55 229.174 361.399 227.697H355.08V226.396H363.096V227.231ZM369.644 235.484C369.644 234.822 369.846 234.175 370.25 233.542C370.654 232.903 371.229 232.443 371.973 232.162C371.428 231.857 370.994 231.468 370.672 230.993C370.35 230.513 370.188 229.982 370.188 229.402C370.188 228.477 370.525 227.709 371.199 227.1C371.879 226.49 372.723 226.186 373.73 226.186C374.75 226.186 375.594 226.493 376.262 227.108C376.936 227.724 377.272 228.488 377.272 229.402C377.272 229.982 377.111 230.513 376.789 230.993C376.467 231.468 376.039 231.857 375.506 232.162C376.238 232.443 376.807 232.903 377.211 233.542C377.615 234.175 377.817 234.822 377.817 235.484C377.817 236.574 377.439 237.468 376.684 238.165C375.934 238.856 374.949 239.202 373.73 239.202C372.529 239.202 371.548 238.856 370.786 238.165C370.024 237.474 369.644 236.58 369.644 235.484ZM371.208 235.361C371.208 236.152 371.439 236.779 371.902 237.242C372.371 237.699 372.983 237.928 373.739 237.928C374.472 237.928 375.078 237.696 375.559 237.233C376.039 236.765 376.279 236.141 376.279 235.361C376.279 234.658 376.048 234.058 375.585 233.56C375.128 233.056 374.513 232.804 373.739 232.804C373.013 232.804 372.409 233.044 371.929 233.524C371.448 233.999 371.208 234.611 371.208 235.361ZM371.656 229.517C371.656 230.114 371.858 230.615 372.263 231.02C372.673 231.424 373.165 231.626 373.739 231.626C374.308 231.626 374.797 231.424 375.207 231.02C375.623 230.609 375.831 230.108 375.831 229.517C375.831 228.907 375.629 228.403 375.225 228.005C374.82 227.601 374.325 227.398 373.739 227.398C373.118 227.398 372.614 227.606 372.228 228.022C371.847 228.433 371.656 228.931 371.656 229.517ZM392.407 231.942C392.407 234.339 392.003 236.152 391.194 237.383C390.392 238.607 389.141 239.22 387.441 239.22C386.826 239.22 386.267 239.123 385.763 238.93C385.265 238.736 384.787 238.435 384.33 238.024L385.174 237.084C385.508 237.383 385.856 237.603 386.22 237.743C386.589 237.884 387.022 237.954 387.521 237.954C388.622 237.954 389.469 237.538 390.061 236.706C390.652 235.874 390.948 234.538 390.948 232.698H390.913C390.644 233.243 390.274 233.65 389.806 233.92C389.337 234.189 388.769 234.324 388.101 234.324C387.017 234.324 386.129 233.958 385.438 233.226C384.752 232.493 384.409 231.55 384.409 230.396C384.409 229.147 384.793 228.134 385.561 227.354C386.328 226.575 387.295 226.186 388.461 226.186C389.732 226.186 390.708 226.687 391.388 227.688C392.067 228.69 392.407 230.108 392.407 231.942ZM390.852 230.65C390.852 229.684 390.614 228.901 390.14 228.304C389.671 227.706 389.07 227.407 388.338 227.407C387.646 227.407 387.063 227.671 386.589 228.198C386.12 228.726 385.886 229.394 385.886 230.202C385.886 231.099 386.12 231.796 386.589 232.294C387.058 232.792 387.67 233.041 388.426 233.041C389.094 233.041 389.665 232.81 390.14 232.347C390.614 231.884 390.852 231.318 390.852 230.65ZM400.115 231.811C399.834 231.811 399.594 231.714 399.395 231.521C399.195 231.321 399.096 231.084 399.096 230.809C399.096 230.527 399.195 230.29 399.395 230.097C399.594 229.903 399.834 229.807 400.115 229.807C400.396 229.807 400.637 229.903 400.836 230.097C401.035 230.29 401.135 230.527 401.135 230.809C401.135 231.084 401.035 231.321 400.836 231.521C400.637 231.714 400.396 231.811 400.115 231.811ZM400.115 239.193C399.834 239.193 399.594 239.097 399.395 238.903C399.195 238.704 399.096 238.467 399.096 238.191C399.096 237.922 399.195 237.688 399.395 237.488C399.594 237.289 399.834 237.189 400.115 237.189C400.396 237.189 400.637 237.289 400.836 237.488C401.035 237.688 401.135 237.922 401.135 238.191C401.135 238.467 401.035 238.704 400.836 238.903C400.637 239.097 400.396 239.193 400.115 239.193ZM408.992 231.811C408.705 231.811 408.462 231.714 408.263 231.521C408.069 231.321 407.973 231.084 407.973 230.809C407.973 230.527 408.069 230.29 408.263 230.097C408.462 229.903 408.705 229.807 408.992 229.807C409.273 229.807 409.514 229.903 409.713 230.097C409.912 230.29 410.012 230.527 410.012 230.809C410.012 231.084 409.912 231.321 409.713 231.521C409.514 231.714 409.273 231.811 408.992 231.811ZM409.783 236.996L408.377 241.32H407.349L408.377 236.996H409.783ZM425.797 237.884L418.238 234.087V233.568L425.797 229.332V230.65L420.154 233.779V233.814L425.797 236.574V237.884ZM443.401 232.461H435.14V231.301H443.401V232.461ZM443.401 236.205H435.14V235.045H443.401V236.205ZM460.312 234.087L452.762 237.884V236.574L458.413 233.832V233.779L452.762 230.65V229.332L460.312 233.568V234.087ZM470.674 235.581C470.592 235.405 470.519 235.18 470.454 234.904C470.39 234.623 470.357 234.345 470.357 234.069C470.357 233.712 470.434 233.393 470.586 233.111C470.744 232.83 470.935 232.566 471.157 232.32C471.392 232.062 471.638 231.811 471.896 231.564C472.153 231.318 472.394 231.072 472.616 230.826C472.839 230.574 473.023 230.313 473.17 230.044C473.322 229.769 473.398 229.467 473.398 229.139C473.398 228.576 473.196 228.148 472.792 227.855C472.388 227.557 471.91 227.407 471.359 227.407C470.943 227.407 470.507 227.519 470.05 227.741C469.599 227.958 469.212 228.245 468.89 228.603L467.993 227.706C468.427 227.261 468.937 226.897 469.522 226.616C470.108 226.329 470.744 226.186 471.43 226.186C472.391 226.186 473.193 226.42 473.838 226.889C474.488 227.352 474.813 228.04 474.813 228.954C474.813 229.388 474.737 229.774 474.585 230.114C474.433 230.454 474.242 230.768 474.014 231.055C473.779 231.336 473.53 231.605 473.267 231.863C473.009 232.115 472.754 232.355 472.502 232.584C472.273 232.795 472.077 233.018 471.913 233.252C471.755 233.48 471.676 233.735 471.676 234.017C471.676 234.239 471.708 234.444 471.772 234.632C471.843 234.813 471.907 234.969 471.966 235.098L470.674 235.581ZM471.368 239.158C471.099 239.158 470.861 239.062 470.656 238.868C470.451 238.675 470.349 238.438 470.349 238.156C470.349 237.869 470.448 237.632 470.647 237.444C470.847 237.251 471.087 237.154 471.368 237.154C471.649 237.154 471.89 237.251 472.089 237.444C472.288 237.632 472.388 237.869 472.388 238.156C472.388 238.438 472.285 238.675 472.08 238.868C471.875 239.062 471.638 239.158 471.368 239.158ZM490.871 235.309H490.827C490.616 236.006 490.3 236.53 489.878 236.882C489.456 237.228 488.932 237.4 488.305 237.4C487.502 237.4 486.854 237.104 486.362 236.513C485.876 235.921 485.633 235.124 485.633 234.122C485.633 232.798 485.97 231.699 486.644 230.826C487.323 229.947 488.214 229.508 489.315 229.508C489.737 229.508 490.112 229.616 490.44 229.833C490.774 230.05 490.988 230.322 491.082 230.65H491.117L491.205 229.64H492.304C492.169 231.251 492.066 232.47 491.996 233.296C491.926 234.116 491.891 234.541 491.891 234.57C491.891 235.174 491.979 235.628 492.154 235.933C492.33 236.237 492.591 236.39 492.937 236.39C493.569 236.39 494.094 236.047 494.51 235.361C494.932 234.676 495.143 233.788 495.143 232.698C495.143 231.087 494.633 229.771 493.613 228.752C492.594 227.732 491.182 227.223 489.377 227.223C487.637 227.223 486.198 227.832 485.062 229.051C483.925 230.27 483.356 231.793 483.356 233.621C483.356 235.42 483.896 236.873 484.974 237.98C486.058 239.082 487.517 239.633 489.351 239.633C490.048 239.633 490.695 239.574 491.293 239.457C491.891 239.34 492.438 239.167 492.937 238.938L493.332 239.861C492.775 240.113 492.16 240.307 491.486 240.441C490.818 240.582 490.077 240.652 489.263 240.652C487.13 240.652 485.41 240.011 484.104 238.728C482.803 237.438 482.152 235.754 482.152 233.674C482.152 231.529 482.835 229.751 484.2 228.339C485.571 226.927 487.32 226.221 489.447 226.221C491.439 226.221 493.089 226.812 494.396 227.996C495.702 229.18 496.355 230.724 496.355 232.628C496.355 234.022 496.01 235.168 495.318 236.064C494.633 236.955 493.795 237.4 492.805 237.4C492.166 237.4 491.686 237.228 491.363 236.882C491.041 236.53 490.877 236.006 490.871 235.309ZM489.298 230.527C488.571 230.527 487.982 230.873 487.531 231.564C487.086 232.256 486.863 233.114 486.863 234.14C486.863 234.831 487.013 235.376 487.312 235.774C487.616 236.173 488.021 236.372 488.524 236.372C489.251 236.372 489.825 236.012 490.247 235.291C490.675 234.564 490.889 233.604 490.889 232.408C490.889 231.781 490.757 231.312 490.493 231.002C490.229 230.686 489.831 230.527 489.298 230.527ZM507.764 241.865H504.529V226.396H507.764V227.442H505.812V240.819H507.764V241.865ZM520.06 240.872H518.855L513.046 226.396H514.25L520.06 240.872ZM528.567 241.865H525.342V240.819H527.284V227.442H525.342V226.396H528.567V241.865ZM545.592 233.516H544.273L541.355 228.075H541.303L538.587 233.516H537.295L541.004 226.186H541.575L545.592 233.516ZM560.006 241.61H552.535V240.564H560.006V241.61ZM569.085 228.295H567.969L565.666 225.412H567.143L569.085 228.295ZM574.763 241.865C573.866 241.854 573.192 241.619 572.741 241.162C572.29 240.711 572.064 240.037 572.064 239.141V236.504C572.064 235.912 571.95 235.461 571.722 235.15C571.493 234.84 571.15 234.67 570.693 234.641V233.621C571.15 233.592 571.493 233.419 571.722 233.103C571.95 232.786 572.064 232.326 572.064 231.723V229.156C572.064 228.248 572.29 227.565 572.741 227.108C573.192 226.646 573.866 226.408 574.763 226.396V227.521C574.3 227.533 573.951 227.686 573.717 227.979C573.482 228.266 573.365 228.693 573.365 229.262V231.837C573.365 232.452 573.254 232.95 573.031 233.331C572.814 233.706 572.486 233.964 572.047 234.104V234.14C572.486 234.269 572.814 234.521 573.031 234.896C573.254 235.271 573.365 235.769 573.365 236.39V238.93C573.365 239.58 573.468 240.043 573.673 240.318C573.884 240.6 574.247 240.746 574.763 240.758V241.865ZM583.068 243.236H581.768V225.236H583.068V243.236ZM594.116 234.641C593.659 234.67 593.316 234.84 593.088 235.15C592.859 235.461 592.745 235.912 592.745 236.504V239.141C592.745 240.037 592.52 240.711 592.068 241.162C591.623 241.619 590.952 241.854 590.056 241.865V240.758C590.565 240.746 590.926 240.6 591.137 240.318C591.354 240.037 591.462 239.574 591.462 238.93V236.39C591.462 235.769 591.57 235.271 591.787 234.896C592.01 234.521 592.338 234.269 592.771 234.14V234.104C592.338 233.964 592.01 233.706 591.787 233.331C591.57 232.95 591.462 232.452 591.462 231.837V229.262C591.462 228.693 591.345 228.266 591.11 227.979C590.876 227.686 590.524 227.533 590.056 227.521V226.396C590.952 226.408 591.623 226.646 592.068 227.108C592.52 227.565 592.745 228.248 592.745 229.156V231.723C592.745 232.326 592.859 232.786 593.088 233.103C593.316 233.419 593.659 233.592 594.116 233.621V234.641ZM610.367 232.408C610.326 233.275 610.089 233.946 609.655 234.421C609.228 234.896 608.645 235.133 607.906 235.133C607.59 235.133 607.235 235.054 606.843 234.896C606.456 234.731 606.034 234.491 605.577 234.175C605.296 233.976 605.038 233.829 604.804 233.735C604.569 233.636 604.361 233.586 604.18 233.586C603.77 233.586 603.456 233.715 603.239 233.973C603.028 234.23 602.914 234.617 602.896 235.133H601.71C601.739 234.295 601.971 233.633 602.404 233.146C602.844 232.654 603.436 232.408 604.18 232.408C604.49 232.408 604.818 232.473 605.164 232.602C605.51 232.73 605.87 232.924 606.245 233.182C606.632 233.445 606.969 233.645 607.256 233.779C607.549 233.908 607.789 233.973 607.977 233.973C608.334 233.973 608.621 233.829 608.838 233.542C609.055 233.255 609.169 232.877 609.181 232.408H610.367ZM62.1934 266L67.0273 253.396H68.5566L73.4082 266H71.7734L70.499 262.625H65.041L63.8369 266H62.1934ZM65.5332 261.298H70.0156L67.9766 255.77C67.9414 255.682 67.9092 255.567 67.8799 255.427C67.8506 255.286 67.8184 255.119 67.7832 254.926H67.748C67.7188 255.102 67.6865 255.26 67.6514 255.4C67.6221 255.541 67.5869 255.664 67.5459 255.77L65.5332 261.298ZM80.2109 266V253.396H83.8057C84.8955 253.396 85.7568 253.657 86.3896 254.179C87.0283 254.694 87.3477 255.395 87.3477 256.279C87.3477 256.994 87.1543 257.615 86.7676 258.143C86.3809 258.67 85.8477 259.045 85.168 259.268V259.303C86.0176 259.402 86.6973 259.725 87.207 260.27C87.7168 260.809 87.9717 261.512 87.9717 262.379C87.9717 263.457 87.585 264.33 86.8115 264.998C86.0381 265.666 85.0625 266 83.8848 266H80.2109ZM81.6875 254.732V258.802H83.1992C84.0078 258.802 84.6436 258.608 85.1064 258.222C85.5693 257.829 85.8008 257.278 85.8008 256.569C85.8008 255.954 85.5986 255.494 85.1943 255.189C84.79 254.885 84.1895 254.732 83.3926 254.732H81.6875ZM81.6875 260.129V264.664H83.6914C84.5586 264.664 85.2295 264.459 85.7041 264.049C86.1846 263.639 86.4248 263.076 86.4248 262.361C86.4248 261.617 86.1699 261.061 85.6602 260.691C85.1562 260.316 84.3975 260.129 83.3838 260.129H81.6875ZM104.346 265.367C103.736 265.66 103.142 265.874 102.562 266.009C101.981 266.144 101.352 266.211 100.672 266.211C98.7676 266.211 97.2852 265.634 96.2246 264.479C95.1699 263.325 94.6426 261.811 94.6426 259.936C94.6426 257.879 95.2314 256.241 96.4092 255.022C97.5928 253.798 99.1338 253.186 101.032 253.186C101.624 253.186 102.178 253.241 102.693 253.353C103.215 253.464 103.754 253.643 104.311 253.889L103.766 255.102C103.303 254.896 102.854 254.75 102.421 254.662C101.987 254.568 101.519 254.521 101.015 254.521C99.5381 254.521 98.3633 254.999 97.4902 255.954C96.623 256.903 96.1895 258.201 96.1895 259.848C96.1895 261.389 96.6055 262.613 97.4375 263.521C98.2754 264.43 99.3828 264.884 100.76 264.884C101.27 264.884 101.768 264.828 102.254 264.717C102.746 264.605 103.247 264.424 103.757 264.172L104.346 265.367ZM111.553 266V253.396H115.033C117.254 253.396 118.918 253.909 120.025 254.935C121.139 255.954 121.695 257.489 121.695 259.54C121.695 261.485 121.077 263.05 119.841 264.233C118.61 265.411 116.961 266 114.893 266H111.553ZM113.029 254.732V264.664H114.91C116.562 264.664 117.849 264.222 118.769 263.337C119.688 262.452 120.148 261.198 120.148 259.575C120.148 257.958 119.718 256.748 118.856 255.945C118.001 255.137 116.715 254.732 114.998 254.732H113.029ZM135.793 266H129.113V253.396H135.512V254.732H130.59V258.925H135.143V260.252H130.59V264.664H135.793V266ZM149.557 254.732H144.635V259.092H149.188V260.419H144.635V266H143.158V253.396H149.557V254.732ZM166.309 265.139C165.676 265.496 165.008 265.766 164.305 265.947C163.602 266.123 162.863 266.211 162.09 266.211C160.244 266.211 158.776 265.654 157.687 264.541C156.603 263.428 156.061 261.869 156.061 259.865C156.061 257.82 156.667 256.197 157.88 254.996C159.099 253.789 160.66 253.186 162.564 253.186C163.262 253.186 163.909 253.259 164.507 253.405C165.104 253.546 165.714 253.774 166.335 254.091L165.729 255.286C165.207 255.017 164.694 254.823 164.19 254.706C163.687 254.583 163.142 254.521 162.556 254.521C161.114 254.521 159.928 254.979 158.996 255.893C158.07 256.807 157.607 258.096 157.607 259.76C157.607 261.447 158.015 262.725 158.829 263.592C159.644 264.453 160.792 264.884 162.274 264.884C162.767 264.884 163.227 264.837 163.654 264.743C164.082 264.644 164.475 264.494 164.832 264.295V260.762H162.072V259.426H166.309V265.139ZM183.658 266H182.182V260.252H175.66V266H174.184V253.396H175.66V258.925H182.182V253.396H183.658V266ZM193.379 266H191.902V253.396H193.379V266ZM204.866 262.396C204.866 263.598 204.603 264.535 204.075 265.209C203.548 265.877 202.728 266.211 201.614 266.211C201.333 266.211 201.072 266.193 200.832 266.158C200.592 266.123 200.34 266.064 200.076 265.982L200.463 264.708C200.662 264.772 200.85 264.819 201.025 264.849C201.207 264.872 201.389 264.884 201.57 264.884C202.156 264.884 202.604 264.696 202.915 264.321C203.231 263.946 203.39 263.311 203.39 262.414V253.396H204.866V262.396ZM221.785 266H219.729L214.859 260.234C214.771 260.123 214.698 260.032 214.64 259.962C214.587 259.886 214.549 259.83 214.525 259.795H214.49V266H213.014V253.396H214.49V259.32H214.525C214.566 259.256 214.613 259.188 214.666 259.118C214.725 259.042 214.789 258.966 214.859 258.89L219.57 253.396H221.407L216.002 259.443L221.785 266ZM234.934 266H228.395V253.396H229.871V264.664H234.934V266ZM254.656 266H253.188V257.545C253.188 257.211 253.197 256.839 253.215 256.429C253.238 256.019 253.271 255.573 253.312 255.093H253.276C253.206 255.374 253.139 255.617 253.074 255.822C253.016 256.027 252.957 256.191 252.898 256.314L248.592 266H247.871L243.573 256.385C243.515 256.244 243.453 256.065 243.389 255.849C243.324 255.632 243.26 255.38 243.195 255.093H243.16C243.184 255.345 243.201 255.676 243.213 256.086C243.225 256.496 243.23 256.988 243.23 257.562V266H241.807V253.396H243.758L247.625 262.186C247.777 262.52 247.9 262.812 247.994 263.064C248.094 263.316 248.164 263.527 248.205 263.697H248.258C248.387 263.352 248.501 263.05 248.601 262.792C248.7 262.534 248.788 262.32 248.864 262.15L252.811 253.396H254.656V266ZM273.078 266H271.268L264.781 255.954C264.699 255.825 264.623 255.696 264.553 255.567C264.488 255.433 264.43 255.298 264.377 255.163H264.324C264.348 255.298 264.365 255.509 264.377 255.796C264.389 256.083 264.395 256.449 264.395 256.895V266H262.918V253.396H264.834L271.145 263.284C271.279 263.489 271.388 263.662 271.47 263.803C271.558 263.943 271.619 264.052 271.654 264.128H271.689C271.66 263.946 271.637 263.7 271.619 263.39C271.607 263.079 271.602 262.707 271.602 262.273V253.396H273.078V266ZM286.402 266.211C284.615 266.211 283.183 265.622 282.104 264.444C281.032 263.267 280.496 261.734 280.496 259.848C280.496 257.82 281.044 256.203 282.14 254.996C283.235 253.789 284.727 253.186 286.613 253.186C288.354 253.186 289.754 253.771 290.814 254.943C291.881 256.115 292.414 257.647 292.414 259.54C292.414 261.597 291.869 263.223 290.779 264.418C289.689 265.613 288.23 266.211 286.402 266.211ZM286.402 264.884C287.785 264.884 288.875 264.433 289.672 263.53C290.469 262.628 290.867 261.365 290.867 259.742C290.867 258.078 290.48 256.792 289.707 255.884C288.934 254.976 287.867 254.521 286.508 254.521C285.184 254.521 284.108 254.999 283.282 255.954C282.456 256.909 282.043 258.163 282.043 259.716C282.043 261.269 282.444 262.52 283.247 263.469C284.056 264.412 285.107 264.884 286.402 264.884ZM301.309 261.377V266H299.832V253.396H303.295C304.643 253.396 305.686 253.73 306.424 254.398C307.168 255.066 307.54 256.01 307.54 257.229C307.54 258.441 307.127 259.438 306.301 260.217C305.48 260.99 304.37 261.377 302.97 261.377H301.309ZM301.309 254.732V260.041H302.855C303.875 260.041 304.651 259.804 305.185 259.329C305.724 258.849 305.993 258.172 305.993 257.299C305.993 256.443 305.747 255.802 305.255 255.374C304.763 254.946 304.024 254.732 303.04 254.732H301.309ZM319.959 266.211C318.184 266.211 316.751 265.625 315.661 264.453C314.577 263.281 314.035 261.746 314.035 259.848C314.035 257.803 314.589 256.183 315.696 254.987C316.81 253.786 318.301 253.186 320.17 253.186C321.904 253.186 323.29 253.771 324.327 254.943C325.364 256.115 325.883 257.647 325.883 259.54C325.883 260.812 325.663 261.931 325.224 262.897C324.79 263.864 324.189 264.617 323.422 265.156L325.953 266.94L325.057 268.171L322.051 265.903C321.734 265.997 321.4 266.07 321.049 266.123C320.697 266.182 320.334 266.211 319.959 266.211ZM320.064 254.521C318.74 254.521 317.662 254.999 316.83 255.954C315.998 256.909 315.582 258.163 315.582 259.716C315.582 261.251 315.983 262.496 316.786 263.451C317.595 264.406 318.652 264.884 319.959 264.884C321.342 264.884 322.417 264.433 323.185 263.53C323.952 262.628 324.336 261.365 324.336 259.742C324.336 258.072 323.964 256.786 323.22 255.884C322.476 254.976 321.424 254.521 320.064 254.521ZM342.301 266H340.543L338.381 262.423C337.977 261.755 337.631 261.327 337.344 261.14C337.057 260.946 336.708 260.85 336.298 260.85H334.848V266H333.371V253.396H337.133C338.229 253.396 339.14 253.687 339.866 254.267C340.599 254.847 340.965 255.702 340.965 256.833C340.965 257.724 340.733 258.471 340.271 259.074C339.808 259.678 339.172 260.114 338.363 260.384V260.419C338.627 260.577 338.858 260.75 339.058 260.938C339.257 261.125 339.468 261.4 339.69 261.764L342.301 266ZM334.848 254.732V259.514H336.852C337.584 259.514 338.193 259.276 338.68 258.802C339.172 258.327 339.418 257.712 339.418 256.956C339.418 256.282 339.198 255.743 338.759 255.339C338.325 254.935 337.695 254.732 336.869 254.732H334.848ZM347.996 265.033L348.717 263.926C349.232 264.26 349.748 264.503 350.264 264.655C350.779 264.808 351.38 264.884 352.065 264.884C352.833 264.884 353.463 264.705 353.955 264.348C354.453 263.984 354.702 263.457 354.702 262.766C354.702 262.15 354.491 261.658 354.069 261.289C353.653 260.92 352.968 260.562 352.013 260.217C350.829 259.789 349.95 259.309 349.376 258.775C348.808 258.236 348.523 257.527 348.523 256.648C348.523 255.617 348.893 254.782 349.631 254.144C350.375 253.505 351.351 253.186 352.558 253.186C353.12 253.186 353.671 253.247 354.21 253.37C354.749 253.487 355.306 253.681 355.88 253.95L355.326 255.137C354.846 254.914 354.377 254.753 353.92 254.653C353.469 254.554 352.979 254.504 352.452 254.504C351.696 254.504 351.099 254.683 350.659 255.04C350.22 255.392 350 255.881 350 256.508C350 257.059 350.202 257.498 350.606 257.826C351.011 258.154 351.685 258.488 352.628 258.828C353.894 259.285 354.802 259.795 355.353 260.357C355.903 260.92 356.179 261.679 356.179 262.634C356.179 263.653 355.81 264.506 355.071 265.191C354.333 265.871 353.296 266.211 351.96 266.211C351.21 266.211 350.519 266.117 349.886 265.93C349.253 265.742 348.623 265.443 347.996 265.033ZM371.023 254.732H367.385V266H365.908V254.732H362.278V253.396H371.023V254.732ZM387.187 260.894C387.187 262.669 386.788 263.999 385.991 264.884C385.194 265.769 383.996 266.211 382.396 266.211C380.867 266.211 379.719 265.786 378.951 264.937C378.189 264.087 377.809 262.81 377.809 261.104V253.396H379.285V261.008C379.285 262.297 379.558 263.267 380.103 263.917C380.647 264.562 381.465 264.884 382.555 264.884C383.609 264.884 384.397 264.573 384.919 263.952C385.446 263.325 385.71 262.388 385.71 261.14V253.396H387.187V260.894ZM404.65 253.396L399.983 266H398.357L393.787 253.396H395.431L398.92 263.39C398.979 263.548 399.028 263.721 399.069 263.908C399.11 264.096 399.146 264.295 399.175 264.506H399.21C399.233 264.33 399.269 264.148 399.315 263.961C399.368 263.768 399.43 263.571 399.5 263.372L403.06 253.396H404.65ZM426.307 253.396L422.747 266H421.016L418.423 256.789C418.37 256.59 418.326 256.385 418.291 256.174C418.256 255.957 418.232 255.734 418.221 255.506H418.186C418.168 255.723 418.139 255.937 418.098 256.147C418.062 256.358 418.016 256.566 417.957 256.771L415.347 266H413.633L409.941 253.396H411.567L414.248 263.064C414.307 263.264 414.354 263.469 414.389 263.68C414.424 263.891 414.447 264.107 414.459 264.33H414.503C414.521 264.172 414.55 263.987 414.591 263.776C414.638 263.565 414.699 263.328 414.775 263.064L417.562 253.396H418.977L421.648 263.135C421.695 263.299 421.736 263.48 421.771 263.68C421.807 263.873 421.836 264.084 421.859 264.312H421.895C421.906 264.16 421.933 263.984 421.974 263.785C422.015 263.58 422.067 263.352 422.132 263.1L424.707 253.396H426.307ZM441.863 266H440.062L437.161 261.175C437.114 261.099 437.067 261.011 437.021 260.911C436.974 260.806 436.924 260.686 436.871 260.551H436.836C436.807 260.621 436.766 260.709 436.713 260.814C436.666 260.914 436.607 261.034 436.537 261.175L433.549 266H431.738L435.957 259.663L432.072 253.396H433.883L436.458 257.826C436.54 257.973 436.619 258.119 436.695 258.266C436.771 258.412 436.842 258.559 436.906 258.705H436.941C437.035 258.512 437.123 258.339 437.205 258.187C437.287 258.034 437.363 257.902 437.434 257.791L440.114 253.396H441.811L437.847 259.646L441.863 266ZM456.884 253.396L452.727 261.342V266H451.25V261.377L447.198 253.396H448.877L451.698 259.092C451.716 259.127 451.751 259.209 451.804 259.338C451.856 259.467 451.924 259.643 452.006 259.865H452.032C452.062 259.766 452.103 259.651 452.155 259.522C452.214 259.394 452.284 259.25 452.366 259.092L455.319 253.396H456.884ZM471.658 266H462.245V265.587L469.566 254.732H462.834V253.396H471.834V253.748L464.451 264.664H471.658V266ZM69.8311 293H68.3896V291.594H68.3545C68.0439 292.133 67.6602 292.537 67.2031 292.807C66.752 293.076 66.2246 293.211 65.6211 293.211C64.7773 293.211 64.0947 292.965 63.5732 292.473C63.0518 291.98 62.791 291.327 62.791 290.513C62.791 289.745 63.0547 289.109 63.582 288.605C64.1094 288.102 64.8564 287.779 65.8232 287.639L68.3896 287.296V287.094C68.3896 286.338 68.2139 285.802 67.8623 285.485C67.5107 285.163 67.042 285.002 66.4561 285.002C65.9873 285.002 65.5361 285.09 65.1025 285.266C64.6689 285.441 64.2617 285.711 63.8809 286.074L63.0371 285.204C63.541 284.718 64.0771 284.36 64.6455 284.132C65.2139 283.903 65.8467 283.789 66.5439 283.789C67.6338 283.789 68.4541 284.07 69.0049 284.633C69.5557 285.189 69.8311 286.027 69.8311 287.146V293ZM68.3896 289.344V288.447L66.2188 288.746C65.5566 288.84 65.0586 289.007 64.7246 289.247C64.3906 289.487 64.2236 289.865 64.2236 290.381C64.2236 290.92 64.3789 291.333 64.6895 291.62C65.0059 291.901 65.3896 292.042 65.8408 292.042C66.6201 292.042 67.2383 291.787 67.6953 291.277C68.1582 290.768 68.3896 290.123 68.3896 289.344ZM79.0332 291.84H78.998V293H77.5566V279.676H78.998V285.582H79.0332C79.3906 284.984 79.8271 284.536 80.3428 284.237C80.8643 283.938 81.4648 283.789 82.1445 283.789C83.2988 283.789 84.2012 284.193 84.8516 285.002C85.5078 285.805 85.8359 286.883 85.8359 288.236C85.8359 289.742 85.4697 290.949 84.7373 291.857C84.0049 292.76 83.0029 293.211 81.7314 293.211C81.1396 293.211 80.6182 293.097 80.167 292.868C79.7158 292.64 79.3379 292.297 79.0332 291.84ZM78.998 288.069V289.326C78.998 290.07 79.2383 290.703 79.7188 291.225C80.2051 291.74 80.8203 291.998 81.5645 291.998C82.4375 291.998 83.1201 291.664 83.6123 290.996C84.1104 290.328 84.3594 289.399 84.3594 288.21C84.3594 287.208 84.1279 286.423 83.665 285.854C83.2021 285.286 82.5752 285.002 81.7842 285.002C80.9463 285.002 80.2725 285.295 79.7627 285.881C79.2529 286.461 78.998 287.19 78.998 288.069ZM99.4062 292.464C98.9902 292.722 98.5742 292.909 98.1582 293.026C97.7422 293.149 97.2881 293.211 96.7959 293.211C95.5303 293.211 94.4902 292.818 93.6758 292.033C92.8672 291.248 92.4629 290.135 92.4629 288.693C92.4629 287.229 92.8701 286.045 93.6846 285.143C94.5049 284.24 95.6299 283.789 97.0596 283.789C97.5225 283.789 97.9619 283.845 98.3779 283.956C98.7998 284.067 99.2246 284.249 99.6523 284.501L99.0459 285.556C98.7119 285.368 98.3838 285.23 98.0615 285.143C97.7393 285.055 97.3877 285.011 97.0068 285.011C96.0166 285.011 95.2578 285.342 94.7305 286.004C94.2031 286.666 93.9395 287.507 93.9395 288.526C93.9395 289.651 94.2148 290.51 94.7656 291.102C95.3223 291.693 96.04 291.989 96.9189 291.989C97.2061 291.989 97.5049 291.945 97.8154 291.857C98.1318 291.764 98.4482 291.62 98.7646 291.427L99.4062 292.464ZM112.537 291.471C112.203 292.051 111.778 292.487 111.263 292.78C110.753 293.067 110.146 293.211 109.443 293.211C108.312 293.211 107.407 292.81 106.728 292.007C106.054 291.198 105.717 290.1 105.717 288.711C105.717 287.223 106.092 286.03 106.842 285.134C107.592 284.237 108.591 283.789 109.839 283.789C110.46 283.789 110.993 283.912 111.438 284.158C111.89 284.398 112.256 284.762 112.537 285.248H112.572V279.676H114.014V293H112.572V291.471H112.537ZM107.193 288.641C107.193 289.678 107.434 290.498 107.914 291.102C108.4 291.699 109.051 291.998 109.865 291.998C110.674 291.998 111.327 291.708 111.825 291.128C112.323 290.548 112.572 289.815 112.572 288.931V287.604C112.572 286.877 112.329 286.262 111.843 285.758C111.362 285.254 110.756 285.002 110.023 285.002C109.145 285.002 108.453 285.324 107.949 285.969C107.445 286.613 107.193 287.504 107.193 288.641ZM129.104 288.825H122.741C122.765 289.839 123.031 290.621 123.541 291.172C124.057 291.717 124.777 291.989 125.703 291.989C126.107 291.989 126.512 291.931 126.916 291.813C127.326 291.69 127.73 291.497 128.129 291.233L128.797 292.262C128.287 292.59 127.777 292.83 127.268 292.982C126.758 293.135 126.198 293.211 125.589 293.211C124.229 293.211 123.169 292.807 122.407 291.998C121.646 291.189 121.262 290.062 121.256 288.614C121.25 287.167 121.631 286.001 122.398 285.116C123.172 284.231 124.174 283.789 125.404 283.789C126.576 283.789 127.484 284.173 128.129 284.94C128.779 285.702 129.104 286.76 129.104 288.113V288.825ZM127.628 287.647C127.622 286.815 127.42 286.168 127.021 285.705C126.623 285.236 126.075 285.002 125.378 285.002C124.692 285.002 124.109 285.242 123.629 285.723C123.154 286.197 122.864 286.839 122.759 287.647H127.628ZM140.53 280.854C140.366 280.801 140.217 280.763 140.082 280.739C139.953 280.716 139.815 280.704 139.669 280.704C139.177 280.704 138.811 280.836 138.57 281.1C138.33 281.363 138.21 281.75 138.21 282.26V284H140.319V285.23H138.21V293H136.777V285.23H135.239V284H136.777V282.189C136.777 281.34 137.038 280.678 137.56 280.203C138.081 279.723 138.796 279.482 139.704 279.482C139.927 279.482 140.129 279.5 140.311 279.535C140.492 279.564 140.68 279.611 140.873 279.676L140.53 280.854ZM154.496 292.517C154.496 294.093 154.092 295.273 153.283 296.059C152.48 296.844 151.379 297.236 149.979 297.236C149.363 297.236 148.789 297.178 148.256 297.061C147.729 296.943 147.184 296.753 146.621 296.489L147.148 295.382C147.617 295.599 148.074 295.757 148.52 295.856C148.971 295.956 149.451 296.006 149.961 296.006C150.922 296.006 151.678 295.733 152.229 295.188C152.779 294.644 153.055 293.817 153.055 292.71V291.488H153.02C152.68 292.062 152.252 292.493 151.736 292.78C151.221 293.067 150.617 293.211 149.926 293.211C148.807 293.211 147.904 292.812 147.219 292.016C146.539 291.213 146.199 290.138 146.199 288.79C146.199 287.313 146.574 286.112 147.324 285.187C148.08 284.255 149.079 283.789 150.321 283.789C150.931 283.789 151.458 283.912 151.903 284.158C152.354 284.398 152.727 284.762 153.02 285.248H153.055V284H154.496V292.517ZM153.055 288.931V287.604C153.055 286.889 152.812 286.276 152.325 285.767C151.845 285.257 151.244 285.002 150.523 285.002C149.639 285.002 148.941 285.307 148.432 285.916C147.928 286.525 147.676 287.451 147.676 288.693C147.676 289.76 147.91 290.577 148.379 291.146C148.848 291.714 149.495 291.998 150.321 291.998C151.13 291.998 151.786 291.711 152.29 291.137C152.8 290.562 153.055 289.827 153.055 288.931ZM169.824 293H168.383V287.814C168.383 286.877 168.207 286.174 167.855 285.705C167.51 285.236 166.988 285.002 166.291 285.002C165.588 285.002 164.996 285.274 164.516 285.819C164.035 286.358 163.795 287.053 163.795 287.902V293H162.354V279.676H163.795V285.494H163.83C164.176 284.926 164.595 284.501 165.087 284.22C165.579 283.933 166.145 283.789 166.783 283.789C167.797 283.789 168.556 284.094 169.06 284.703C169.569 285.312 169.824 286.229 169.824 287.454V293ZM178.227 281.847C177.934 281.847 177.688 281.75 177.488 281.557C177.289 281.357 177.189 281.114 177.189 280.827C177.189 280.54 177.289 280.3 177.488 280.106C177.688 279.907 177.934 279.808 178.227 279.808C178.52 279.808 178.766 279.907 178.965 280.106C179.164 280.3 179.264 280.54 179.264 280.827C179.264 281.114 179.164 281.357 178.965 281.557C178.766 281.75 178.52 281.847 178.227 281.847ZM178.93 293H177.488V284H178.93V293ZM187.525 281.847C187.232 281.847 186.986 281.75 186.787 281.557C186.588 281.357 186.488 281.114 186.488 280.827C186.488 280.54 186.588 280.3 186.787 280.106C186.986 279.907 187.232 279.808 187.525 279.808C187.818 279.808 188.064 279.907 188.264 280.106C188.463 280.3 188.562 280.54 188.562 280.827C188.562 281.114 188.463 281.357 188.264 281.557C188.064 281.75 187.818 281.847 187.525 281.847ZM188.211 293.255C188.211 294.667 187.956 295.684 187.446 296.305C186.937 296.926 186.157 297.236 185.108 297.236C184.88 297.236 184.672 297.222 184.484 297.192C184.291 297.163 184.086 297.116 183.869 297.052L184.177 295.83C184.358 295.895 184.522 295.938 184.669 295.962C184.815 295.991 184.965 296.006 185.117 296.006C185.732 296.006 186.16 295.801 186.4 295.391C186.646 294.986 186.77 294.307 186.77 293.352V284H188.211V293.255ZM203.557 293H201.535L197.562 288.676H197.527V293H196.086V279.676H197.527V288.122H197.562L201.342 284H203.231L199.057 288.342L203.557 293ZM209.973 293V279.676H211.414V293H209.973ZM232.051 293H230.609V287.832C230.609 286.836 230.454 286.115 230.144 285.67C229.839 285.225 229.323 285.002 228.597 285.002C227.981 285.002 227.457 285.283 227.023 285.846C226.596 286.408 226.382 287.082 226.382 287.867V293H224.94V287.656C224.94 286.771 224.771 286.109 224.431 285.67C224.091 285.225 223.578 285.002 222.893 285.002C222.26 285.002 221.738 285.269 221.328 285.802C220.918 286.329 220.713 287.018 220.713 287.867V293H219.271V284H220.713V285.424H220.748C221.07 284.879 221.463 284.472 221.926 284.202C222.395 283.927 222.934 283.789 223.543 283.789C224.158 283.789 224.694 283.962 225.151 284.308C225.608 284.647 225.922 285.096 226.092 285.652C226.426 285.031 226.842 284.565 227.34 284.255C227.838 283.944 228.418 283.789 229.08 283.789C230.07 283.789 230.812 284.094 231.304 284.703C231.802 285.312 232.051 286.229 232.051 287.454V293ZM247.186 293H245.744V287.867C245.744 286.912 245.568 286.197 245.217 285.723C244.871 285.242 244.35 285.002 243.652 285.002C242.932 285.002 242.334 285.274 241.859 285.819C241.391 286.358 241.156 287.041 241.156 287.867V293H239.715V284H241.156V285.494H241.191C241.531 284.926 241.947 284.501 242.439 284.22C242.932 283.933 243.5 283.789 244.145 283.789C245.129 283.789 245.882 284.108 246.403 284.747C246.925 285.38 247.186 286.297 247.186 287.498V293ZM258.611 293.211C257.281 293.211 256.218 292.792 255.421 291.954C254.63 291.11 254.234 289.994 254.234 288.605C254.234 287.1 254.645 285.922 255.465 285.072C256.285 284.223 257.404 283.795 258.822 283.789C260.164 283.783 261.21 284.196 261.96 285.028C262.716 285.86 263.094 287.006 263.094 288.465C263.094 289.906 262.687 291.058 261.872 291.919C261.063 292.78 259.977 293.211 258.611 293.211ZM258.717 291.998C259.648 291.998 260.363 291.696 260.861 291.093C261.365 290.483 261.617 289.625 261.617 288.518C261.617 287.387 261.365 286.52 260.861 285.916C260.357 285.307 259.643 285.002 258.717 285.002C257.791 285.002 257.059 285.318 256.52 285.951C255.98 286.584 255.711 287.451 255.711 288.553C255.711 289.619 255.983 290.46 256.528 291.075C257.073 291.69 257.803 291.998 258.717 291.998ZM271.812 291.699H271.777V297.14H270.336V284H271.777V285.582H271.812C272.17 284.984 272.606 284.536 273.122 284.237C273.644 283.938 274.244 283.789 274.924 283.789C276.084 283.789 276.989 284.193 277.64 285.002C278.29 285.805 278.615 286.883 278.615 288.236C278.615 289.742 278.249 290.949 277.517 291.857C276.784 292.76 275.782 293.211 274.511 293.211C273.931 293.211 273.415 293.085 272.964 292.833C272.513 292.581 272.129 292.203 271.812 291.699ZM271.777 288.069V289.326C271.777 290.07 272.018 290.703 272.498 291.225C272.984 291.74 273.6 291.998 274.344 291.998C275.217 291.998 275.899 291.664 276.392 290.996C276.89 290.328 277.139 289.399 277.139 288.21C277.139 287.208 276.907 286.423 276.444 285.854C275.981 285.286 275.354 285.002 274.563 285.002C273.726 285.002 273.052 285.295 272.542 285.881C272.032 286.461 271.777 287.19 271.777 288.069ZM293.847 297.14H292.405V291.453H292.37C292.06 292.039 291.646 292.479 291.131 292.771C290.621 293.064 290.009 293.211 289.294 293.211C288.163 293.211 287.255 292.81 286.569 292.007C285.89 291.198 285.55 290.1 285.55 288.711C285.55 287.217 285.925 286.024 286.675 285.134C287.425 284.237 288.433 283.789 289.698 283.789C290.313 283.789 290.844 283.912 291.289 284.158C291.734 284.398 292.095 284.762 292.37 285.248H292.405V284H293.847V297.14ZM292.405 288.948V287.639C292.405 286.9 292.162 286.276 291.676 285.767C291.195 285.257 290.583 285.002 289.839 285.002C288.972 285.002 288.286 285.324 287.782 285.969C287.278 286.607 287.026 287.51 287.026 288.676C287.026 289.713 287.27 290.527 287.756 291.119C288.242 291.705 288.869 291.998 289.637 291.998C290.48 291.998 291.151 291.711 291.649 291.137C292.153 290.557 292.405 289.827 292.405 288.948ZM305.835 285.23C305.724 285.195 305.624 285.172 305.536 285.16C305.448 285.143 305.337 285.134 305.202 285.134C304.47 285.134 303.893 285.447 303.471 286.074C303.049 286.695 302.838 287.475 302.838 288.412V293H301.396V284H302.838V285.784H302.873C303.078 285.151 303.392 284.671 303.813 284.343C304.235 284.009 304.722 283.842 305.272 283.842C305.454 283.842 305.606 283.851 305.729 283.868C305.858 283.886 305.973 283.912 306.072 283.947L305.835 285.23ZM311.75 292.323L312.436 291.216C312.828 291.474 313.212 291.67 313.587 291.805C313.962 291.934 314.366 291.998 314.8 291.998C315.415 291.998 315.881 291.884 316.197 291.655C316.52 291.427 316.681 291.084 316.681 290.627C316.681 290.258 316.537 289.947 316.25 289.695C315.969 289.438 315.526 289.232 314.923 289.08C313.798 288.793 313.027 288.433 312.611 287.999C312.195 287.56 311.987 287.021 311.987 286.382C311.987 285.644 312.266 285.028 312.822 284.536C313.379 284.038 314.155 283.789 315.151 283.789C315.632 283.789 316.089 283.851 316.522 283.974C316.956 284.097 317.398 284.308 317.85 284.606L317.208 285.696C316.798 285.438 316.429 285.26 316.101 285.16C315.778 285.055 315.45 285.002 315.116 285.002C314.536 285.002 314.094 285.11 313.789 285.327C313.484 285.538 313.332 285.846 313.332 286.25C313.332 286.654 313.487 286.959 313.798 287.164C314.114 287.369 314.621 287.562 315.318 287.744C316.232 287.99 316.915 288.336 317.366 288.781C317.823 289.221 318.052 289.798 318.052 290.513C318.052 291.345 317.756 292.004 317.164 292.49C316.578 292.971 315.772 293.211 314.747 293.211C314.196 293.211 313.666 293.135 313.156 292.982C312.652 292.83 312.184 292.61 311.75 292.323ZM329.469 292.895C329.223 292.994 328.979 293.067 328.739 293.114C328.505 293.167 328.238 293.193 327.939 293.193C327.225 293.193 326.662 292.985 326.252 292.569C325.848 292.147 325.646 291.526 325.646 290.706V285.23H324.099V284H325.646V281.803L327.087 281.337V284H329.354V285.23H327.087V290.539C327.087 291.055 327.178 291.427 327.359 291.655C327.547 291.884 327.825 291.998 328.194 291.998C328.37 291.998 328.54 291.978 328.704 291.937C328.868 291.896 329.006 291.849 329.117 291.796L329.469 292.895ZM343.496 293H342.055V291.576H342.02C341.721 292.121 341.34 292.531 340.877 292.807C340.414 293.076 339.869 293.211 339.242 293.211C338.17 293.211 337.364 292.892 336.825 292.253C336.292 291.614 336.025 290.656 336.025 289.379V284H337.458V289.15C337.458 290.1 337.64 290.812 338.003 291.286C338.366 291.761 338.911 291.998 339.638 291.998C340.341 291.998 340.918 291.74 341.369 291.225C341.826 290.703 342.055 290.023 342.055 289.186V284H343.496V293ZM358.429 284L354.843 293H353.428L350.018 284H351.6L353.885 290.539C353.967 290.779 354.034 291.005 354.087 291.216C354.14 291.421 354.178 291.614 354.201 291.796H354.236C354.266 291.567 354.304 291.354 354.351 291.154C354.397 290.949 354.453 290.756 354.518 290.574L356.908 284H358.429ZM376.262 284L373.563 293H372.069L370.206 286.54C370.159 286.376 370.127 286.238 370.109 286.127C370.098 286.01 370.086 285.875 370.074 285.723H370.039C370.027 285.875 370.007 286.007 369.978 286.118C369.948 286.229 369.907 286.37 369.854 286.54L367.842 293H366.4L363.676 284H365.188L367.051 290.768C367.08 290.867 367.104 290.984 367.121 291.119C367.145 291.254 367.162 291.406 367.174 291.576H367.244C367.256 291.447 367.273 291.315 367.297 291.181C367.32 291.04 367.355 290.896 367.402 290.75L369.477 284H370.795L372.658 290.785C372.688 290.896 372.711 291.02 372.729 291.154C372.752 291.283 372.772 291.43 372.79 291.594H372.86C372.866 291.477 372.881 291.351 372.904 291.216C372.934 291.081 372.969 290.938 373.01 290.785L374.838 284H376.262ZM389.445 284L386.422 288.553L389.393 293H387.714L385.947 290.082C385.889 289.988 385.827 289.886 385.763 289.774C385.698 289.663 385.628 289.537 385.552 289.396H385.517C385.499 289.42 385.455 289.49 385.385 289.607C385.32 289.725 385.227 289.883 385.104 290.082L383.302 293H381.641L384.708 288.588L381.772 284H383.451L385.191 287.076C385.256 287.193 385.317 287.311 385.376 287.428C385.44 287.545 385.505 287.662 385.569 287.779H385.604C385.675 287.662 385.745 287.545 385.815 287.428C385.886 287.311 385.956 287.193 386.026 287.076L387.854 284H389.445ZM403.235 284L398.99 294.714C398.656 295.558 398.237 296.188 397.733 296.604C397.229 297.025 396.638 297.236 395.958 297.236C395.782 297.236 395.621 297.225 395.475 297.201C395.328 297.184 395.188 297.157 395.053 297.122L395.334 295.892C395.439 295.927 395.536 295.95 395.624 295.962C395.718 295.979 395.809 295.988 395.896 295.988C396.283 295.988 396.603 295.889 396.854 295.689C397.112 295.49 397.317 295.209 397.47 294.846L398.252 292.982L394.736 284H396.336L398.771 290.926C398.782 290.967 398.803 291.046 398.832 291.163C398.867 291.28 398.908 291.43 398.955 291.611H399.008C399.025 291.541 399.046 291.45 399.069 291.339C399.099 291.228 399.137 291.096 399.184 290.943L401.741 284H403.235ZM416.006 284.413L410.68 291.77H415.953V293H408.562V292.552L413.888 285.23H409.062V284H416.006V284.413Z" fill="#454A55"/>
</svg>
