<svg width="250" height="250" fill="none" xmlns="http://www.w3.org/2000/svg"><g clip-path="url(#clip0)"><rect width="250" height="250" rx="4" fill="#98509A"></rect><path fill-rule="evenodd" clip-rule="evenodd" d="M-.714 0H125v78h.214c26.076 0 47.215 21.139 47.215 47.214 0 .167-.001.334-.003.5H250v125.715H124.286V172.42c-25.481-.492-46.019-21.17-46.283-46.706H-.714V0z" fill="#6C316E"></path><rect x="78" y="78" width="94.428" height="94.428" rx="47.214" fill="#562558"></rect><path fill-rule="evenodd" clip-rule="evenodd" d="M120.096 100.305a4.77 4.77 0 119.54-.002 4.77 4.77 0 01-9.54.002zm4.77-7.77a7.77 7.77 0 100 15.54 7.77 7.77 0 000-15.54zm-24.487 17.77a4.186 4.186 0 00-4.185 4.178l1.5.002h-1.5a4.189 4.189 0 003.953 4.18l14.859.829v33.917a4.75 4.75 0 004.334 4.826l.05.004a4.646 4.646 0 004.438-2.631c.262-.55.414-1.147.446-1.756l.001-.026.001-.023v-17.509h1.18v17.116a4.755 4.755 0 004.335 4.825l.05.004a4.65 4.65 0 003.352-1.18 4.627 4.627 0 001.532-3.207l.002-.078v-34.282l14.858-.825a4.186 4.186 0 00-.232-8.364h-48.974zm-.86 4.995a1.186 1.186 0 01-.325-.814 1.185 1.185 0 011.185-1.181h48.974a1.183 1.183 0 011.185 1.183 1.187 1.187 0 01-1.12 1.185l-16.275.904a1.5 1.5 0 00-1.416 1.498v35.655a1.639 1.639 0 01-1.696 1.516 1.756 1.756 0 01-1.575-1.785v-18.665a1.5 1.5 0 00-1.5-1.5h-4.18a1.5 1.5 0 00-1.5 1.5v18.934a1.638 1.638 0 01-1.088 1.425 1.655 1.655 0 01-.608.091 1.758 1.758 0 01-1.575-1.785l.001-.034v-35.352c0-.796-.622-1.453-1.417-1.498l-16.275-.908a1.186 1.186 0 01-.795-.369z" fill="#FFD58B"></path><path fill-rule="evenodd" clip-rule="evenodd" d="M25.638 26.5a1.5 1.5 0 011.5-1.5H70.8a1.5 1.5 0 010 3H28.64v42.16a1.5 1.5 0 01-3 0V26.5zm152.813 0a1.5 1.5 0 011.5-1.5h43.661a1.5 1.5 0 011.5 1.5v43.66a1.5 1.5 0 01-3 0V28h-42.161a1.5 1.5 0 01-1.5-1.5zM28.638 179.312a1.5 1.5 0 00-3 0v43.661a1.5 1.5 0 001.5 1.5H70.8a1.5 1.5 0 100-3H28.64v-42.161zm194.974-1.5a1.5 1.5 0 011.5 1.5v43.661a1.5 1.5 0 01-1.5 1.5h-43.661a1.5 1.5 0 110-3h42.161v-42.161a1.5 1.5 0 011.5-1.5zM26.649 126.286a110.35 110.35 0 01-1.25-1.549c.314-.398.732-.919 1.25-1.55a161.334 161.334 0 015.688-6.533c4.964-5.415 12.185-12.635 21.207-19.853C71.62 82.34 96.76 68.022 125.375 68.022c28.615 0 53.756 14.319 71.831 28.779 9.022 7.218 16.243 14.438 21.207 19.853a161.166 161.166 0 015.688 6.533c.518.631.936 1.152 1.25 1.55-.314.397-.732.918-1.25 1.549a161.166 161.166 0 01-5.688 6.533c-4.964 5.415-12.185 12.636-21.207 19.853-18.075 14.461-43.216 28.779-71.831 28.779-28.615 0-53.756-14.318-71.83-28.779-9.023-7.217-16.244-14.438-21.208-19.853a161.334 161.334 0 01-5.688-6.533zm201.8-2.451c.001.001.001.002-1.199.902 1.2.9 1.2.9 1.199.901l-.002.003-.007.009-.026.035-.046.059a6.726 6.726 0 00-.054.072c-.088.114-.217.282-.388.499-.34.435-.845 1.07-1.507 1.875a163.485 163.485 0 01-5.795 6.656c-5.041 5.5-12.374 12.833-21.544 20.169-18.309 14.647-44.106 29.436-73.705 29.436-29.6 0-55.396-14.789-73.705-29.436-9.17-7.336-16.503-14.669-21.544-20.169a163.599 163.599 0 01-5.795-6.656 103.659 103.659 0 01-1.895-2.374l-.1-.131-.026-.035-.007-.009-.002-.003c0-.001-.001-.001 1.199-.901-1.2-.9-1.2-.901-1.199-.902l.002-.003.007-.009.026-.035.1-.131c.088-.114.217-.282.388-.499.34-.435.845-1.07 1.507-1.875a164.289 164.289 0 015.795-6.656c5.041-5.5 12.374-12.833 21.544-20.169 18.309-14.647 44.106-29.436 73.705-29.436 29.599 0 55.396 14.79 73.705 29.436 9.17 7.336 16.503 14.669 21.544 20.169a164.174 164.174 0 015.795 6.656c.662.805 1.167 1.44 1.507 1.875.171.217.3.385.388.499l.069.091.031.04.026.035.007.009.002.003zm-204.949.902l-1.2.9a1.5 1.5 0 010-1.8l1.2.9zm203.75 0l1.2-.9a1.5 1.5 0 010 1.8l-1.2-.9z" fill="#562558"></path></g><defs><clipPath id="clip0"><rect width="250" height="250" rx="4" fill="#fff"></rect></clipPath></defs></svg>
