<svg width="250" height="250" fill="none" xmlns="http://www.w3.org/2000/svg"><g clip-path="url(#clip0)"><rect width="250" height="250" rx="4" fill="#2CBF6F"></rect><path d="M297 7.5l-302 193v100.074L297 498V7.5z" fill="#56D78E"></path><path opacity="0.3" fill-rule="evenodd" clip-rule="evenodd" d="M157 70.535L125 91 93 70.535l29.131-18.693a5.311 5.311 0 015.738 0L157 70.535zm-33 93.378L93 144v31.252c0 .878.22 1.742.638 2.511a5.195 5.195 0 001.757 1.892l28.416 18.259c.032.021.066.033.1.046a.54.54 0 01.089.04v-34.087zm2 .001V198a.515.515 0 01.09-.04c.033-.013.067-.025.099-.046l28.416-18.263a5.19 5.19 0 001.755-1.888 5.25 5.25 0 00.64-2.508V144l-31 19.914zm-60-34.738L36 110v30.088c0 .847.211 1.68.616 2.422.405.742.99 1.369 1.702 1.823l27.5 17.584c.029.018.06.03.091.042.031.012.062.024.091.041v-32.824zM213.797 110L184 128.956v32.439a.55.55 0 01.09-.04.534.534 0 00.091-.042l27.314-17.381a4.973 4.973 0 002.302-4.189V110zM173 135.738c0-.909-.226-1.803-.656-2.601a5.386 5.386 0 00-1.808-1.96L149 117.233V106l1.691 1.092 28.44-18.25a5.311 5.311 0 015.738 0L214 107.535 182 128l-1-.64V162a.61.61 0 00-.063-.031l-.016-.006-.017-.007a.628.628 0 01-.099-.045L173 156.873v-21.135zm-77.761 6.513l-1.239.8L125 163l31-19.949-1.239-.8.036-.023-6.206-3.964-20.811-13.443A5.127 5.127 0 00125 124c-.985 0-1.949.285-2.78.821l-20.811 13.443-6.206 3.964.036.023zm-24.915-53.43a5.267 5.267 0 00-5.648 0L36 107.047 67.5 127 99 107.047 70.325 88.821zM100 109l-31 19.547V162c.03-.018.062-.03.093-.042a.564.564 0 00.096-.042l7.561-4.768v-20.003c0-.86.219-1.707.636-2.461a5.138 5.138 0 011.751-1.856L100 119.631V109zm16.344-10.16a5.339 5.339 0 00-1.808-1.933L93 83.17V72l32 20.35L157 72v11.169l-21.536 13.738a5.339 5.339 0 00-2.464 4.495V112l-4.928-3.143A10.67 10.67 0 00125 107.53a10.681 10.681 0 00-3.072 1.327L117 112v-10.598a5.34 5.34 0 00-.656-2.563z" fill="#007546"></path><path fill-rule="evenodd" clip-rule="evenodd" d="M125.736 48.237a1.507 1.507 0 00-1.622 0L90.989 69.388a1.502 1.502 0 00-.724 1.311v12.395a1.507 1.507 0 103.014 0v-9.672l30.139 19.176v14.608a1.507 1.507 0 003.014 0V92.598l30.139-19.176v9.672a1.507 1.507 0 003.014 0V70.7a1.49 1.49 0 00-.236-.832 1.501 1.501 0 00-.488-.48l-33.125-21.151zm29.538 22.437l-30.349-19.379-30.35 19.38 30.35 19.31 30.349-19.31zm26.104 14.094a1.507 1.507 0 011.622 0l33.131 21.153a1.48 1.48 0 01.483.476l.003.004a1.517 1.517 0 01.233.827v36.144c0 .516-.264.995-.698 1.272l-33.129 21.082a1.506 1.506 0 01-1.67-.002l-9.014-5.736a1.507 1.507 0 111.618-2.543l6.725 4.28v-32.598l-30.139-19.177v6.297a1.507 1.507 0 11-3.014 0v-9.019a1.503 1.503 0 01.719-1.307l33.13-21.153zm32.458 57.777l-30.14 19.18v-32.598l30.14-19.177v32.595zm-61.996-35.342l30.349 19.311 30.35-19.311-30.35-19.377-30.349 19.377zm-26.838 94.939c.277-.014.533-.102.751-.245l33.134-21.086c.435-.277.698-.756.698-1.271v-36.145a1.49 1.49 0 00-.279-.896 1.5 1.5 0 00-.445-.415l-33.125-21.151a1.506 1.506 0 00-1.622 0l-33.125 21.151a1.51 1.51 0 00-.724 1.311v36.145c0 .515.263.994.698 1.271l33.131 21.084a1.508 1.508 0 00.908.247zm-31.723-56.025v32.595l30.139 19.18v-32.598l-30.14-19.177zm1.296-2.747l29.442 18.733a1.506 1.506 0 011.815 0l29.442-18.733-30.349-19.379-30.35 19.379zm61.996 2.748l-30.139 19.176v32.598l30.139-19.18v-32.594zm-123.57-38.89a1.497 1.497 0 01.308-.936c.115-.152.255-.276.41-.371l33.13-21.153a1.507 1.507 0 011.622 0l33.131 21.153a1.5 1.5 0 01.718 1.308l-.003 12.032a1.507 1.507 0 11-3.013 0l.002-9.31-30.139 19.176v32.598l6.726-4.28a1.507 1.507 0 111.618 2.543l-9.017 5.738a1.507 1.507 0 01-1.67-.002l-33.126-21.08a1.507 1.507 0 01-.698-1.272v-36.144zm34.66-19.401l30.349 19.376-30.35 19.311-30.35-19.311 30.35-19.377zm-1.508 41.3v32.598l-30.139-19.18V109.95l30.14 19.177z" fill="#007546"></path></g><defs><clipPath id="clip0"><rect width="250" height="250" rx="4" fill="#fff"></rect></clipPath></defs></svg>
