<svg width="250" height="250" fill="none" xmlns="http://www.w3.org/2000/svg"><rect width="250" height="250" rx="4" fill="#458BD0"></rect><circle cx="174" cy="74" r="60" fill="#70B5E8"></circle><circle cx="174" cy="74" r="40" fill="#2666B8"></circle><path fill="#70B5E8" d="M20 121h111v111H20z"></path><path fill="#2666B8" d="M37 138h77v77H37z"></path><path fill-rule="evenodd" clip-rule="evenodd" d="M174 92c9.941 0 18-8.059 18-18s-8.059-18-18-18-18 8.059-18 18 8.059 18 18 18zm-97.813 57.406a2.22 2.22 0 002.22-2.218V82.844a22.188 22.188 0 0144.374 0v84.312a26.624 26.624 0 1053.25 0v-64.344a2.218 2.218 0 00-4.437 0v64.344a22.187 22.187 0 01-44.375 0V82.844a26.622 26.622 0 00-26.625-26.625 26.626 26.626 0 00-26.625 26.625v64.344a2.217 2.217 0 002.219 2.218zm-15.53 8.875a2.22 2.22 0 00-2.22 2.219v31.062a2.22 2.22 0 002.22 2.219h31.062a2.219 2.219 0 002.219-2.219V160.5a2.22 2.22 0 00-2.22-2.219H60.657z" fill="#fff"></path></svg>
