<svg width="730" height="216" viewBox="0 0 730 216" fill="none" xmlns="http://www.w3.org/2000/svg">
<rect x="8" width="216" height="216" fill="#001A57"/>
<path d="M163.762 59L118.361 113.075L106.997 105.407L136.178 70.5974V59H120.06L90.45 94.2554L79.3097 86.7583L92.8702 70.5974V59H76.7349L52.7038 87.6504L52 88.491V106.024L126.222 156L179.812 92.0252L180 91.785V59H163.762ZM178.284 91.236L125.845 153.786L53.7509 105.184V90.4125L123.733 137.591L178.284 72.5532V91.236ZM54.1285 88.5939L77.5417 60.7156H91.1537V69.9798L76.7865 87.1357L90.7761 96.5886L120.866 60.7156H134.599V69.9798L104.457 105.75L118.687 115.34L164.552 60.7156H178.284V69.8768L123.355 135.31L54.1285 88.5939Z" fill="#A7E2FF" stroke="#A7E2FF" stroke-width="2" stroke-miterlimit="10"/>
<rect x="257" width="216" height="216" fill="#562558"/>
<path d="M412.762 59L367.361 113.075L355.997 105.407L385.178 70.5974V59H369.06L339.45 94.2554L328.31 86.7583L341.87 70.5974V59H325.735L301.704 87.6504L301 88.491V106.024L375.222 156L428.812 92.0252L429 91.785V59H412.762ZM427.284 91.236L374.845 153.786L302.751 105.184V90.4125L372.733 137.591L427.284 72.5532V91.236ZM303.129 88.5939L326.542 60.7156H340.154V69.9798L325.786 87.1357L339.776 96.5886L369.866 60.7156H383.599V69.9798L353.457 105.75L367.687 115.34L413.552 60.7156H427.284V69.8768L372.355 135.31L303.129 88.5939Z" fill="#DBA0DD" stroke="#DBA0DD" stroke-width="2" stroke-miterlimit="10"/>
<rect x="506" width="216" height="216" fill="#632400"/>
<path d="M661.762 59L616.361 113.075L604.997 105.407L634.178 70.5974V59H618.06L588.45 94.2554L577.31 86.7583L590.87 70.5974V59H574.735L550.704 87.6504L550 88.491V106.024L624.222 156L677.812 92.0252L678 91.785V59H661.762ZM676.284 91.236L623.845 153.786L551.751 105.184V90.4125L621.733 137.591L676.284 72.5532V91.236ZM552.129 88.5939L575.542 60.7156H589.154V69.9798L574.786 87.1357L588.776 96.5886L618.866 60.7156H632.599V69.9798L602.457 105.75L616.687 115.34L662.552 60.7156H676.284V69.8768L621.355 135.31L552.129 88.5939Z" fill="#FFD58B" stroke="#FFD58B" stroke-width="2" stroke-miterlimit="10"/>
</svg>
