<svg width="16" height="16" viewBox="0 0 16 16" fill="none" xmlns="http://www.w3.org/2000/svg">
<g clip-path="url(#clip0_901_3045)">
<path fill-rule="evenodd" clip-rule="evenodd" d="M4.427 8.82C4.159 8.633 4 8.32701 4 8.001L4 7.999C4 7.673 4.159 7.367 4.427 7.18L14.427 0.180005C14.732 -0.0339955 15.131 -0.0579955 15.462 0.112005C15.793 0.284005 16 0.626005 16 0.999005L16 15.001C16 15.374 15.793 15.715 15.462 15.888C15.131 16.058 14.732 16.034 14.427 15.82L4.427 8.82ZM2 1C2 0.447 1.552 2.7136e-07 1 1.74846e-07C0.448 7.83308e-08 -7.8156e-08 0.447 -1.74846e-07 1L0 15C0 15.553 0.448 16 1 16C1.552 16 2 15.553 2 15L2 1Z" fill="black"/>
</g>
<defs>
<clipPath id="clip0_901_3045">
<rect width="16" height="16" fill="white"/>
</clipPath>
</defs>
</svg>
