<svg width="16" height="16" viewBox="0 0 16 16" fill="none" xmlns="http://www.w3.org/2000/svg">
<g clip-path="url(#clip0_619_2710)">
<path fill-rule="evenodd" clip-rule="evenodd" d="M1 3L15 3C15.552 3 16 2.552 16 2C16 1.448 15.552 1 15 1L1 1C0.448 1 -7.83313e-08 1.448 -1.74846e-07 2C-2.71361e-07 2.552 0.448 3 1 3ZM13 7L3 7C2.448 7 2 6.552 2 6C2 5.448 2.448 5 3 5L13 5C13.552 5 14 5.448 14 6C14 6.552 13.552 7 13 7ZM5 11L11 11C11.552 11 12 10.552 12 10C12 9.448 11.552 9 11 9L5 9C4.448 9 4 9.448 4 10C4 10.552 4.448 11 5 11ZM7 15L9 15C9.552 15 10 14.552 10 14C10 13.448 9.552 13 9 13L7 13C6.448 13 6 13.448 6 14C6 14.552 6.448 15 7 15Z" fill="black"/>
</g>
<defs>
<clipPath id="clip0_619_2710">
<rect width="16" height="16" fill="white"/>
</clipPath>
</defs>
</svg>
