<svg width="16" height="16" viewBox="0 0 16 16" fill="none" xmlns="http://www.w3.org/2000/svg">
<g clip-path="url(#clip0_608_3061)">
<path fill-rule="evenodd" clip-rule="evenodd" d="M2 1L14 1C14.5304 1 15.0391 1.21072 15.4142 1.58579C15.7893 1.96086 16 2.46957 16 3L16 3.5L8 7.9L-4.1963e-07 3.4L-3.49692e-07 3C-2.56948e-07 2.46957 0.210714 1.96086 0.585787 1.58579C0.960859 1.21072 1.46957 1 2 1ZM-8.21774e-07 5.7L7.5 9.9C7.6576 9.96924 7.82786 10.005 8 10.005C8.17214 10.005 8.3424 9.96924 8.5 9.9L16 5.7L16 13C16 13.5304 15.7893 14.0391 15.4142 14.4142C15.0391 14.7893 14.5304 15 14 15L2 15C1.46957 15 0.960859 14.7893 0.585787 14.4142C0.210714 14.0391 1.74845e-07 13.5304 1.74845e-07 13L-8.21774e-07 5.7Z" fill="black"/>
</g>
<defs>
<clipPath id="clip0_608_3061">
<rect width="16" height="16" fill="white"/>
</clipPath>
</defs>
</svg>
