<svg width="16" height="16" viewBox="0 0 16 16" fill="none" xmlns="http://www.w3.org/2000/svg">
<g clip-path="url(#clip0_230_451)">
<path fill-rule="evenodd" clip-rule="evenodd" d="M11.6 3L14.3 0.3C14.7 -0.1 15.3 -0.1 15.7 0.3C16.1 0.7 16.1 1.3 15.7 1.7L1.7 15.7C1.5 15.9 1.3 16 1 16C0.7 16 0.5 15.9 0.3 15.7C-0.1 15.3 -0.1 14.7 0.3 14.3L2.8 11.8C1.8 10.9 0.9 9.9 0.4 9.1C-0.1 8.5 -0.1 7.6 0.4 6.9C1.6 5.1 4.4 2 8 2C9.3 2 10.5 2.4 11.6 3ZM5 8C5 8.5 5.1 8.9 5.3 9.3L9.3 5.3C8.9 5.1 8.5 5 8 5C6.3 5 5 6.3 5 8ZM6.40002 13.8L14.6 5.60001C14.7754 5.81923 14.9508 6.01923 15.1093 6.20001C15.3123 6.43154 15.4877 6.63154 15.6 6.80001C16.1 7.50001 16.1 8.40001 15.6 9.10001C14.4 10.9 11.6 14 8.00002 14C7.50002 14 6.90002 13.9 6.40002 13.8Z" fill="black"/>
</g>
<defs>
<clipPath id="clip0_230_451">
<rect width="16" height="16" fill="white"/>
</clipPath>
</defs>
</svg>
