<svg width="16" height="16" viewBox="0 0 16 16" fill="none" xmlns="http://www.w3.org/2000/svg">
<path d="M15.3333 3.54545H8.33333L6.33333 1H0.666667C0.489856 1 0.320286 1.06705 0.195262 1.18639C0.0702379 1.30573 0 1.46759 0 1.63636L0 13.0909C0 13.5972 0.210714 14.0828 0.585786 14.4408C0.960859 14.7989 1.46957 15 2 15H14C14.5304 15 15.0391 14.7989 15.4142 14.4408C15.7893 14.0828 16 13.5972 16 13.0909V4.18182C16 4.01304 15.9298 3.85118 15.8047 3.73184C15.6797 3.6125 15.5101 3.54545 15.3333 3.54545ZM7.33333 12.4545H4.66667V9.90909H7.33333V12.4545ZM7.33333 8.63636H4.66667V6.09091H7.33333V8.63636ZM11.3333 12.4545H8.66667V9.90909H11.3333V12.4545ZM11.3333 8.63636H8.66667V6.09091H11.3333V8.63636Z" fill="black"/>
</svg>
