<svg width="16" height="16" viewBox="0 0 16 16" fill="none" xmlns="http://www.w3.org/2000/svg">
<g clip-path="url(#clip0_901_3025)">
<path fill-rule="evenodd" clip-rule="evenodd" d="M11.573 7.18007C11.841 7.36707 12 7.67307 12 7.99907L12 8.00107C12 8.32707 11.841 8.63307 11.573 8.81907L1.573 15.8191C1.268 16.0331 0.869 16.0571 0.538 15.8871C0.207 15.7151 0 15.3731 0 15.0001L-1.74682e-07 0.999066C-1.09465e-07 0.626066 0.207 0.285066 0.538 0.112066C0.869 -0.0579343 1.269 -0.0339343 1.573 0.180066L11.573 7.18007ZM14 15.0001C14 15.5531 14.448 16.0001 15 16.0001C15.552 16.0001 16 15.5531 16 15.0001L16 1.00006C16 0.447061 15.552 6.1209e-05 15 6.1209e-05C14.448 6.1209e-05 14 0.447061 14 1.00006L14 15.0001Z" fill="black"/>
</g>
<defs>
<clipPath id="clip0_901_3025">
<rect width="16" height="16" fill="white"/>
</clipPath>
</defs>
</svg>
