<svg width="16" height="16" viewBox="0 0 16 16" fill="none" xmlns="http://www.w3.org/2000/svg">
<g clip-path="url(#clip0_901_3025)">
<path fill-rule="evenodd" clip-rule="evenodd" d="M11.573 7.18C11.841 7.367 12 7.673 12 7.999L12 8.00101C12 8.32701 11.841 8.63301 11.573 8.81901L1.573 15.819C1.268 16.033 0.869 16.057 0.538 15.887C0.207 15.715 0 15.373 0 15L-1.74672e-07 0.999005C-1.09454e-07 0.626005 0.207 0.285005 0.538 0.112005C0.869 -0.0579955 1.269 -0.0339955 1.573 0.180005L11.573 7.18ZM14 15C14 15.553 14.448 16 15 16C15.552 16 16 15.553 16 15L16 1C16 0.447 15.552 0 15 0C14.448 0 14 0.447 14 1L14 15Z" fill="black"/>
</g>
<defs>
<clipPath id="clip0_901_3025">
<rect width="16" height="16" fill="white"/>
</clipPath>
</defs>
</svg>
