<svg width="16" height="16" viewBox="0 0 16 16" fill="none" xmlns="http://www.w3.org/2000/svg">
<path d="M11 2C10.4307 1.99844 9.86769 2.12017 9.34983 2.35683C8.83197 2.59349 8.37149 2.93948 8.00003 3.37101C7.62858 2.93948 7.1681 2.59349 6.65024 2.35683C6.13238 2.12017 5.56941 1.99844 5.00003 2C4.21463 2.00122 3.44696 2.23363 2.79276 2.66825C2.13857 3.10287 1.62679 3.72046 1.32127 4.44401C1.01575 5.16756 0.929998 5.96504 1.07471 6.737C1.21942 7.50896 1.58819 8.22124 2.13503 8.785L7.64303 14.414C7.68958 14.4615 7.74512 14.4992 7.80642 14.525C7.86772 14.5507 7.93354 14.564 8.00003 14.564V14.564C8.06676 14.564 8.13282 14.5506 8.1943 14.5247C8.25579 14.4988 8.31146 14.4608 8.35803 14.413L13.673 8.959C14.2754 8.41963 14.6996 7.70989 14.8894 6.92391C15.0791 6.13792 15.0255 5.31283 14.7356 4.55803C14.4456 3.80323 13.9331 3.15438 13.266 2.69754C12.5988 2.24069 11.8086 1.99743 11 2V2Z" fill="black"/>
</svg>
