<svg width="16" height="16" viewBox="0 0 16 16" fill="none" xmlns="http://www.w3.org/2000/svg">
<g clip-path="url(#clip0_1280_4610)">
<path fill-rule="evenodd" clip-rule="evenodd" d="M12.975 0.438997L15.561 3.025C15.8422 3.30629 16.0002 3.68775 16.0002 4.0855C16.0002 4.48324 15.8422 4.86471 15.561 5.146L14.384 6.323L9.677 1.616L10.854 0.438997C11.1353 0.15779 11.5168 -0.000183105 11.9145 -0.000183105C12.3122 -0.000183105 12.6937 0.15779 12.975 0.438997ZM1.64601 9.646L8.61601 2.677L13.323 7.384L6.35401 14.354C6.29238 14.4152 6.21587 14.4593 6.13201 14.482L0.632007 15.982C0.546957 16.0052 0.457282 16.0055 0.372073 15.9829C0.286864 15.9603 0.209152 15.9155 0.146813 15.8532C0.0844741 15.7909 0.0397262 15.7131 0.0171055 15.6279C-0.00551516 15.5427 -0.0052043 15.4531 0.0180066 15.368L1.51801 9.868C1.54066 9.78414 1.58478 9.70763 1.64601 9.646Z" fill="black"/>
</g>
<defs>
<clipPath id="clip0_1280_4610">
<rect width="16" height="16" fill="white"/>
</clipPath>
</defs>
</svg>
