<svg width="16" height="16" viewBox="0 0 16 16" fill="none" xmlns="http://www.w3.org/2000/svg">
<g clip-path="url(#clip0_650_2849)">
<path fill-rule="evenodd" clip-rule="evenodd" d="M16 0L14 0L14 16L16 16L16 0ZM2 3.49691e-07L0 0V16L2 16L2 3.49691e-07ZM3 5.24537e-07L5 8.74228e-07L5 11L3 11L3 5.24537e-07ZM13 0L11 0L11 11L13 11L13 0ZM6 11L10 11L10 1.74846e-06L6 1.04907e-06L6 11Z" fill="black"/>
</g>
<defs>
<clipPath id="clip0_650_2849">
<rect width="16" height="16" fill="white"/>
</clipPath>
</defs>
</svg>
