<svg width="16" height="16" viewBox="0 0 16 16" fill="none" xmlns="http://www.w3.org/2000/svg">
<path d="M8 0C5.52995 0.0297432 3.11292 0.720323 1 2V9C1 10.8565 1.7375 12.637 3.05025 13.9497C4.36301 15.2625 6.14348 16 8 16C9.85652 16 11.637 15.2625 12.9497 13.9497C14.2625 12.637 15 10.8565 15 9V2C12.8871 0.720323 10.47 0.0297432 8 0V0ZM4 5C4 4.80222 4.05865 4.60888 4.16853 4.44443C4.27841 4.27998 4.43459 4.15181 4.61732 4.07612C4.80004 4.00043 5.00111 3.98063 5.19509 4.01921C5.38907 4.0578 5.56725 4.15304 5.70711 4.29289C5.84696 4.43275 5.9422 4.61093 5.98079 4.80491C6.01937 4.99889 5.99957 5.19996 5.92388 5.38268C5.84819 5.56541 5.72002 5.72159 5.55557 5.83147C5.39112 5.94135 5.19778 6 5 6C4.73478 6 4.48043 5.89464 4.29289 5.70711C4.10536 5.51957 4 5.26522 4 5ZM8 12C7.20435 12 6.44129 11.6839 5.87868 11.1213C5.31607 10.5587 5 9.79565 5 9H11C11 9.79565 10.6839 10.5587 10.1213 11.1213C9.55871 11.6839 8.79565 12 8 12ZM11 6C10.8022 6 10.6089 5.94135 10.4444 5.83147C10.28 5.72159 10.1518 5.56541 10.0761 5.38268C10.0004 5.19996 9.98063 4.99889 10.0192 4.80491C10.0578 4.61093 10.153 4.43275 10.2929 4.29289C10.4327 4.15304 10.6109 4.0578 10.8049 4.01921C10.9989 3.98063 11.2 4.00043 11.3827 4.07612C11.5654 4.15181 11.7216 4.27998 11.8315 4.44443C11.9414 4.60888 12 4.80222 12 5C12 5.26522 11.8946 5.51957 11.7071 5.70711C11.5196 5.89464 11.2652 6 11 6Z" fill="black"/>
</svg>
