<svg width="16" height="16" viewBox="0 0 16 16" fill="none" xmlns="http://www.w3.org/2000/svg">
<path fill-rule="evenodd" clip-rule="evenodd" d="M11.5 3.5C11.5 5.433 9.933 7 8 7C6.067 7 4.5 5.433 4.5 3.5C4.5 1.567 6.067 0 8 0C9.933 0 11.5 1.567 11.5 3.5ZM3.05259 10.5526C4.36489 9.2403 6.14413 8.50212 8 8.5C9.85587 8.50212 11.6351 9.2403 12.9474 10.5526C14.2597 11.8649 14.9979 13.6441 15 15.5C15 15.6326 14.9473 15.7598 14.8536 15.8536C14.7598 15.9473 14.6326 16 14.5 16H1.5C1.36739 16 1.24021 15.9473 1.14645 15.8536C1.05268 15.7598 1 15.6326 1 15.5C1.00212 13.6441 1.7403 11.8649 3.05259 10.5526Z" fill="black"/>
</svg>
